<svg width="52" height="52" viewBox="0 0 52 52" fill="none" xmlns="http://www.w3.org/2000/svg">
<path d="M26.2515 36.1937C22.259 36.19 18.4101 34.704 15.451 32.0238C12.4918 29.3437 10.6331 25.6603 10.2354 21.6876C10.2239 21.5751 10.2348 21.4614 10.2676 21.3532C10.3003 21.2449 10.3541 21.1441 10.426 21.0568C10.4978 20.9695 10.5863 20.8972 10.6862 20.8443C10.7862 20.7913 10.8956 20.7587 11.0082 20.7483C11.2368 20.725 11.4653 20.7933 11.6436 20.9381C11.8219 21.083 11.9355 21.2927 11.9595 21.5212C12.2357 24.2884 13.3094 26.9159 15.0501 29.0848C16.7908 31.2536 19.1237 32.8705 21.7656 33.7391C24.4075 34.6077 27.2447 34.6907 29.9328 33.978C32.6209 33.2653 35.0444 31.7876 36.9089 29.7242C38.7734 27.6608 39.9988 25.1005 40.4363 22.3541C40.8739 19.6078 40.5047 16.7934 39.3737 14.2528C38.2427 11.7122 36.3984 9.55452 34.0649 8.04177C31.7313 6.52903 29.0088 5.72627 26.2278 5.73093C25.9975 5.73093 25.7768 5.63949 25.614 5.47671C25.4512 5.31393 25.3598 5.09313 25.3598 4.86293C25.3598 4.63272 25.4512 4.41196 25.614 4.24919C25.7768 4.08641 25.9975 3.99496 26.2278 3.99496C30.4976 3.99496 34.5925 5.69113 37.6117 8.71035C40.6309 11.7296 42.3271 15.8245 42.3271 20.0943C42.3271 24.3641 40.6309 28.4591 37.6117 31.4783C34.5925 34.4975 30.4976 36.1937 26.2278 36.1937H26.2515Z" fill="white"/>
<path d="M24.8485 5.79037C24.6347 5.77784 24.433 5.68671 24.2823 5.53448C24.1317 5.38224 24.0426 5.17967 24.0323 4.96573C24.0219 4.75178 24.0911 4.54157 24.2264 4.37553C24.3617 4.20949 24.5536 4.09937 24.7652 4.0663C25.2567 4.01874 25.7442 3.99496 26.2278 3.99496C26.3417 3.99496 26.4546 4.01742 26.5599 4.06104C26.6652 4.10466 26.7609 4.16859 26.8415 4.24919C26.9221 4.32979 26.9861 4.42546 27.0297 4.53077C27.0733 4.63607 27.0958 4.74894 27.0958 4.86293C27.0958 4.97691 27.0733 5.08978 27.0297 5.19509C26.9861 5.3004 26.9221 5.39611 26.8415 5.47671C26.7609 5.55731 26.6652 5.62123 26.5599 5.66485C26.4546 5.70847 26.3417 5.73093 26.2278 5.73093C25.7878 5.73093 25.3598 5.73093 24.9198 5.73093L24.8485 5.79037Z" fill="white"/>
<path d="M12.0191 15.5288C11.9168 15.5468 11.8122 15.5468 11.71 15.5288C11.603 15.4892 11.505 15.4287 11.4218 15.3508C11.3385 15.2729 11.2716 15.1791 11.2251 15.075C11.1786 14.9709 11.1533 14.8585 11.1508 14.7445C11.1483 14.6305 11.1687 14.5171 11.2106 14.4111C11.5636 13.4752 12.0056 12.5754 12.5304 11.7239C12.6596 11.5495 12.8494 11.4299 13.0625 11.3886C13.2755 11.3472 13.4963 11.3872 13.6814 11.5006C13.8664 11.614 14.0022 11.7926 14.0621 12.0012C14.122 12.2098 14.1015 12.4333 14.0048 12.6275C13.5387 13.3834 13.1408 14.1792 12.8158 15.0056C12.7498 15.1619 12.6388 15.2952 12.4969 15.3883C12.3551 15.4815 12.1888 15.5303 12.0191 15.5288ZM17.0487 8.8227C16.9148 8.82316 16.7826 8.79219 16.6628 8.73231C16.5431 8.67242 16.439 8.58528 16.359 8.47787C16.2282 8.29641 16.1725 8.07147 16.2035 7.84994C16.2346 7.62841 16.3499 7.4274 16.5255 7.28885C17.3217 6.68841 18.1692 6.15925 19.0581 5.70746C19.2647 5.60339 19.5041 5.58564 19.7238 5.65811C19.9434 5.73058 20.1252 5.88732 20.2293 6.09387C20.3334 6.30042 20.3511 6.53986 20.2786 6.7595C20.2062 6.97914 20.0494 7.16101 19.8429 7.26508C19.0441 7.66149 18.2838 8.13118 17.5718 8.66812C17.4194 8.77612 17.2354 8.83049 17.0487 8.8227Z" fill="white"/>
<path d="M11.0915 22.4723C10.8771 22.4703 10.671 22.3891 10.5129 22.2442C10.3548 22.0993 10.256 21.901 10.2354 21.6876C10.2354 21.2001 10.1641 20.7126 10.1522 20.2251C10.1522 19.9949 10.2437 19.7741 10.4064 19.6113C10.5692 19.4485 10.79 19.3571 11.0202 19.3571C11.2504 19.3571 11.4712 19.4485 11.634 19.6113C11.7967 19.7741 11.8882 19.9949 11.8882 20.2251C11.8886 20.662 11.9124 21.0986 11.9595 21.533C11.9828 21.7615 11.9145 21.99 11.7697 22.1683C11.6248 22.3466 11.4151 22.4602 11.1867 22.4842L11.0915 22.4723Z" fill="white"/>
<path d="M6.44243 46.2175C6.32863 46.219 6.21581 46.1965 6.11132 46.1514C6.00682 46.1064 5.91302 46.0397 5.83605 45.9559C5.68203 45.7963 5.59594 45.5832 5.59594 45.3614C5.59594 45.1396 5.68203 44.9265 5.83605 44.7669L11.4839 39.119L7.26286 34.898L1.615 40.5459C1.5476 40.6598 1.45504 40.7568 1.34441 40.8294C1.23377 40.902 1.108 40.9484 0.976686 40.965C0.845374 40.9816 0.712008 40.9679 0.586792 40.925C0.461576 40.8821 0.347818 40.8112 0.25423 40.7176C0.160641 40.624 0.0896973 40.5103 0.0468183 40.385C0.00393929 40.2598 -0.00974255 40.1265 0.006831 39.9951C0.0234046 39.8638 0.0697854 39.7381 0.142432 39.6274C0.215079 39.5168 0.312064 39.4242 0.425972 39.3568L6.68025 33.1026C6.84367 32.9371 7.06596 32.843 7.29853 32.841C7.4121 32.8409 7.52451 32.8641 7.6288 32.909C7.73309 32.954 7.82706 33.0199 7.90494 33.1026L13.315 38.4651C13.469 38.6247 13.5551 38.8378 13.5551 39.0596C13.5551 39.2814 13.469 39.4945 13.315 39.6541L7.01317 45.9559C6.86292 46.1122 6.65893 46.2057 6.44243 46.2175Z" fill="white"/>
<path d="M14.9083 41.4971C14.5848 41.5006 14.264 41.4382 13.9655 41.3135C13.667 41.1888 13.3971 41.0044 13.1723 40.7718L5.57447 33.1739C5.34546 32.9453 5.16376 32.6738 5.0398 32.3749C4.91583 32.076 4.85205 31.7556 4.85205 31.432C4.85205 31.1084 4.91583 30.788 5.0398 30.4891C5.16376 30.1902 5.34546 29.9187 5.57447 29.6901L8.04762 27.217C8.14688 27.1167 8.26937 27.0426 8.40421 27.0011C8.53904 26.9596 8.68204 26.952 8.82048 26.9791C8.95955 27.0013 9.09057 27.0589 9.20094 27.1464C9.31131 27.2338 9.39731 27.3482 9.45066 27.4786C10.3656 29.5653 11.6597 31.4642 13.2675 33.0788C14.879 34.6902 16.7787 35.9849 18.8677 36.8956C18.9981 36.9489 19.1125 37.0349 19.1999 37.1453C19.2874 37.2557 19.345 37.3867 19.3671 37.5258C19.3943 37.6642 19.3867 37.8072 19.3452 37.9421C19.3037 38.0769 19.2296 38.1994 19.1293 38.2986L16.6561 40.7718C16.4271 41.0021 16.1547 41.1847 15.8547 41.3092C15.5547 41.4337 15.2331 41.4975 14.9083 41.4971ZM8.40435 29.3096L6.79916 30.9148C6.66337 31.0527 6.58725 31.2385 6.58725 31.432C6.58725 31.6256 6.66337 31.8113 6.79916 31.9493L14.397 39.5471C14.5364 39.6801 14.7216 39.7544 14.9142 39.7544C15.1069 39.7544 15.2921 39.6801 15.4314 39.5471L17.0366 37.9419C13.3265 36.0391 10.3072 33.0197 8.40435 29.3096Z" fill="white"/>
<path d="M26.2634 36.1822C25.7905 36.1744 25.3182 36.1427 24.8485 36.0871C24.6538 36.0705 24.4704 35.9886 24.328 35.8549C24.1856 35.7211 24.0924 35.5432 24.0637 35.3499C23.69 32.7898 23.4835 30.2082 23.4454 27.6213C23.4454 22.0209 27.5238 17.4551 32.5415 17.4551C34.2937 17.4598 35.9997 18.0174 37.4165 19.0484C38.5501 18.2295 39.8701 17.7064 41.257 17.5265C41.4898 17.5 41.7238 17.5639 41.911 17.7048C42.0002 17.776 42.0744 17.8642 42.1295 17.9641C42.1846 18.0641 42.2194 18.174 42.232 18.2874C42.4774 20.5331 42.2472 22.8054 41.5561 24.9562C40.8651 27.107 39.7288 29.0882 38.2213 30.7707C36.7137 32.4533 34.8687 33.7994 32.8064 34.7215C30.744 35.6437 28.5106 36.1211 26.2515 36.1228L26.2634 36.1822ZM25.7046 34.4462C27.6901 34.5224 29.6698 34.1855 31.5183 33.4568C33.3669 32.7281 35.044 31.6235 36.4434 30.2129C37.8428 28.8023 38.934 27.1165 39.648 25.2622C40.362 23.4079 40.6831 21.4256 40.5911 19.4408C39.6293 19.7049 38.7366 20.1756 37.9753 20.82C37.8188 20.9465 37.6236 21.0154 37.4224 21.0154C37.2212 21.0154 37.026 20.9465 36.8695 20.82C35.6675 19.7871 34.1381 19.2141 32.5534 19.2029C28.4869 19.2029 25.1814 22.9841 25.1814 27.6332C25.224 29.9124 25.3987 32.1872 25.7046 34.4462Z" fill="white"/>
<path d="M43.6232 51.5443C43.3698 51.5438 43.1176 51.5078 42.8741 51.4373C42.2319 51.2389 41.6729 50.8344 41.2839 50.2862C40.8948 49.7381 40.6973 49.077 40.722 48.4052V44.7074C40.798 44.2302 40.7697 43.7422 40.6388 43.277C40.508 42.8118 40.2778 42.3806 39.9641 42.013C39.6504 41.6454 39.2608 41.3502 38.822 41.1478C38.3832 40.9453 37.9057 40.8405 37.4225 40.8405C36.9392 40.8405 36.4618 40.9453 36.023 41.1478C35.5842 41.3502 35.1945 41.6454 34.8808 42.013C34.5672 42.3806 34.337 42.8118 34.2061 43.277C34.0753 43.7422 34.0469 44.2302 34.1229 44.7074V48.4052C34.1496 49.0774 33.953 49.7395 33.5636 50.288C33.1742 50.8366 32.6141 51.2407 31.9708 51.4373C31.3827 51.6018 30.7565 51.5647 30.1919 51.332C29.6273 51.0992 29.1569 50.6842 28.8555 50.1531C26.9237 46.8362 25.5613 43.219 24.8248 39.4519C24.794 39.3237 24.7941 39.19 24.8251 39.0618C24.8561 38.9336 24.9171 38.8147 25.0031 38.7147C25.0842 38.6109 25.1894 38.5285 25.3096 38.4746C25.4298 38.4207 25.5613 38.397 25.6927 38.4056C28.2319 38.4889 30.7606 38.0425 33.1179 37.0949C35.4751 36.1473 37.6091 34.7193 39.3842 32.9017C41.1592 31.0842 42.5364 28.9169 43.4279 26.5379C44.3195 24.159 44.7059 21.6204 44.5625 19.0839C44.5553 18.9351 44.5865 18.7869 44.6532 18.6536C44.7198 18.5203 44.8196 18.4065 44.943 18.323C45.0668 18.2367 45.2111 18.1847 45.3615 18.1721C45.5118 18.1596 45.6628 18.187 45.7991 18.2516C47.5251 19.1246 48.9677 20.4697 49.9591 22.1305C50.9506 23.7913 51.45 25.6995 51.3994 27.633C51.3994 28.1919 51.3994 41.4732 45.9894 50.165C45.7483 50.5802 45.4034 50.9257 44.9886 51.1675C44.5738 51.4093 44.1033 51.5391 43.6232 51.5443ZM37.4284 39.1428C38.8311 39.2197 40.1467 39.8476 41.0886 40.8898C42.0306 41.932 42.5228 43.3041 42.458 44.7074V48.4052C42.4317 48.7001 42.5053 48.9954 42.6671 49.2434C42.8288 49.4914 43.0693 49.6778 43.3497 49.7726C43.5778 49.8415 43.8229 49.8267 44.0409 49.7308C44.2589 49.6348 44.4355 49.4641 44.5388 49.2495C49.6397 40.9263 49.6873 27.7519 49.6873 27.6211C49.7165 26.2654 49.4298 24.9214 48.8499 23.6955C48.27 22.4697 47.4128 21.3956 46.3461 20.5583C46.2177 25.7097 44.1199 30.616 40.4842 34.2678C36.8523 37.9255 31.9403 40.0276 26.7867 40.1296C27.4976 43.3355 28.7009 46.412 30.3537 49.2495C30.4588 49.4625 30.6356 49.6317 30.8531 49.7274C31.0705 49.823 31.3147 49.8391 31.5427 49.7726C31.8243 49.6781 32.0661 49.4922 32.2299 49.2444C32.3936 48.9967 32.4698 48.7013 32.4464 48.4052V44.7074C32.3877 43.3171 32.8766 41.9591 33.8082 40.9254C34.7397 39.8916 36.0395 39.2644 37.4284 39.1784V39.1428Z" fill="white"/>
<path d="M26.2515 40.189C21.6025 40.1891 17.0974 38.5772 13.5037 35.6279C9.90991 32.6787 7.44994 28.5746 6.54292 24.015C5.6359 19.4554 6.33794 14.7223 8.52941 10.6222C10.7209 6.52217 14.2662 3.30881 18.5612 1.52968C22.8563 -0.249446 27.6354 -0.484268 32.0842 0.865212C36.533 2.21469 40.3763 5.065 42.9591 8.93045C45.542 12.7959 46.7046 17.4373 46.249 22.0639C45.7934 26.6905 43.7476 31.016 40.4604 34.3033C38.5984 36.1746 36.3839 37.6582 33.9451 38.6684C31.5062 39.6787 28.8913 40.1955 26.2515 40.189ZM26.2515 1.73597C22.0074 1.73836 17.8954 3.2121 14.616 5.90612C11.3366 8.60013 9.09258 12.3478 8.2663 16.5107C7.44001 20.6736 8.08253 24.9942 10.0844 28.7365C12.0863 32.4788 15.3237 35.4113 19.2451 37.0345C23.1666 38.6576 27.5295 38.871 31.5906 37.6383C35.6517 36.4056 39.1599 33.8031 41.5175 30.274C43.875 26.745 44.9361 22.5077 44.5201 18.284C44.104 14.0603 42.2365 10.1116 39.2357 7.11038C37.5315 5.40422 35.5074 4.05121 33.2793 3.12896C31.0512 2.2067 28.6629 1.73332 26.2515 1.73597Z" fill="white"/>
<path d="M26.2873 13.65C26.0571 13.65 25.8363 13.5585 25.6735 13.3958C25.5108 13.233 25.4193 13.0122 25.4193 12.782V10.4039C25.4193 10.29 25.4417 10.1771 25.4854 10.0718C25.529 9.96647 25.5929 9.8708 25.6735 9.7902C25.7541 9.7096 25.8498 9.64564 25.9551 9.60202C26.0604 9.5584 26.1733 9.53598 26.2873 9.53598C26.4013 9.53598 26.5141 9.5584 26.6194 9.60202C26.7247 9.64564 26.8205 9.7096 26.9011 9.7902C26.9817 9.8708 27.0456 9.96647 27.0892 10.0718C27.1328 10.1771 27.1553 10.29 27.1553 10.4039V12.782C27.1553 13.0122 27.0638 13.233 26.9011 13.3958C26.7383 13.5585 26.5175 13.65 26.2873 13.65Z" fill="white"/>
<path d="M27.5001 12.4372H25.122C25.008 12.4372 24.8952 12.4147 24.7899 12.3711C24.6846 12.3275 24.5888 12.2635 24.5082 12.1829C24.4276 12.1023 24.3637 12.0067 24.3201 11.9014C24.2765 11.7961 24.254 11.6832 24.254 11.5692C24.254 11.4552 24.2765 11.3423 24.3201 11.237C24.3637 11.1317 24.4276 11.036 24.5082 10.9554C24.5888 10.8748 24.6846 10.8109 24.7899 10.7673C24.8952 10.7237 25.008 10.7012 25.122 10.7012H27.5001C27.6141 10.7012 27.7269 10.7237 27.8322 10.7673C27.9375 10.8109 28.0332 10.8748 28.1138 10.9554C28.1944 11.036 28.2583 11.1317 28.302 11.237C28.3456 11.3423 28.368 11.4552 28.368 11.5692C28.368 11.6832 28.3456 11.7961 28.302 11.9014C28.2583 12.0067 28.1944 12.1023 28.1138 12.1829C28.0332 12.2635 27.9375 12.3275 27.8322 12.3711C27.7269 12.4147 27.6141 12.4372 27.5001 12.4372Z" fill="white"/>
<path d="M18.1663 22.1752C17.9361 22.1752 17.7153 22.0838 17.5526 21.921C17.3898 21.7582 17.2983 21.5374 17.2983 21.3072V18.9292C17.2983 18.8152 17.3208 18.7023 17.3644 18.597C17.408 18.4917 17.472 18.396 17.5526 18.3154C17.6332 18.2348 17.7289 18.1709 17.8342 18.1273C17.9395 18.0836 18.0524 18.0612 18.1663 18.0612C18.2803 18.0612 18.3932 18.0836 18.4985 18.1273C18.6038 18.1709 18.6995 18.2348 18.7801 18.3154C18.8607 18.396 18.9246 18.4917 18.9683 18.597C19.0119 18.7023 19.0343 18.8152 19.0343 18.9292V21.3072C19.0343 21.5374 18.9429 21.7582 18.7801 21.921C18.6173 22.0838 18.3965 22.1752 18.1663 22.1752Z" fill="white"/>
<path d="M19.3791 20.9624H17.001C16.7708 20.9624 16.5501 20.8709 16.3873 20.7082C16.2245 20.5454 16.1331 20.3246 16.1331 20.0944C16.1331 19.8642 16.2245 19.6434 16.3873 19.4806C16.5501 19.3179 16.7708 19.2264 17.001 19.2264H19.3791C19.6093 19.2264 19.8301 19.3179 19.9928 19.4806C20.1556 19.6434 20.2471 19.8642 20.2471 20.0944C20.2471 20.3246 20.1556 20.5454 19.9928 20.7082C19.8301 20.8709 19.6093 20.9624 19.3791 20.9624Z" fill="white"/>
</svg>
