<svg width="44" height="52" viewBox="0 0 44 52" fill="none" xmlns="http://www.w3.org/2000/svg">
<path d="M27.8114 7.62182C27.7406 7.63357 27.6683 7.63357 27.5974 7.62182C25.1796 7.01735 22.9258 5.8844 20.9983 4.30447C20.914 4.2264 20.8459 4.13248 20.7979 4.02808C20.7498 3.92368 20.7228 3.81085 20.7184 3.69602C20.7095 3.46412 20.7931 3.23816 20.9507 3.06788C21.1084 2.89759 21.3273 2.79692 21.5592 2.788C21.7911 2.77908 22.017 2.86263 22.1873 3.0203C23.9122 4.40632 25.9156 5.404 28.0611 5.94529C28.2597 6.00385 28.4308 6.13148 28.5435 6.30511C28.6563 6.47873 28.7033 6.68695 28.676 6.89218C28.6487 7.0974 28.549 7.28612 28.3948 7.42428C28.2406 7.56244 28.0422 7.64095 27.8352 7.64562L27.8114 7.62182Z" fill="white"/>
<path d="M11.7951 51.2469C11.1287 51.2394 10.4753 51.0619 9.8968 50.731C9.31831 50.4001 8.83394 49.927 8.48963 49.3564C5.12469 44.0771 4.68476 40.0344 4.18537 35.3497C4.04268 34.0418 3.9 32.6863 3.68598 31.2357C1.8388 28.397 0.704779 25.1541 0.380478 21.7829C-9.42588e-06 17.8116 0 15.1957 0 15.0887C0 6.76555 6.23047 0 13.8878 0C16.6576 0.00748459 19.3527 0.898936 21.5808 2.54453C23.8144 0.900997 26.5125 0.00991479 29.2856 0C36.9311 0 43.1616 6.76555 43.1616 15.0887C43.1616 15.1957 43.1615 17.8116 42.7811 21.7829C42.4664 25.1544 41.336 28.3986 39.4875 31.2357C39.2616 32.6863 39.1189 34.0418 38.9762 35.3497C38.4768 40.0344 38.0369 44.0771 34.6838 49.3564C34.2449 50.0906 33.5753 50.6591 32.7796 50.9731C31.9838 51.2871 31.1065 51.329 30.2844 51.0923C29.3987 50.8154 28.6279 50.2566 28.0891 49.501C27.5503 48.7455 27.2732 47.8346 27.3 46.907V41.2472C27.3816 40.448 27.2947 39.6405 27.0447 38.877C26.7948 38.1134 26.3874 37.4109 25.8489 36.8146C25.3105 36.2184 24.6529 35.7417 23.9188 35.4155C23.1846 35.0893 22.3901 34.9207 21.5867 34.9207C20.7833 34.9207 19.9889 35.0893 19.2547 35.4155C18.5205 35.7417 17.8629 36.2184 17.3245 36.8146C16.786 37.4109 16.3787 38.1134 16.1287 38.877C15.8788 39.6405 15.7918 40.448 15.8735 41.2472V46.907C15.895 47.8306 15.6154 48.7361 15.0771 49.4868C14.5387 50.2375 13.7707 50.7927 12.889 51.0686C12.5347 51.1795 12.1663 51.2395 11.7951 51.2469ZM13.8402 1.7241C7.13414 1.7241 1.68841 7.72865 1.68841 15.0887C1.68841 15.0887 1.68841 17.7402 2.05701 21.6283C2.35858 24.7778 3.43272 27.8041 5.18414 30.439C5.25756 30.5415 5.30638 30.6595 5.32682 30.7838C5.55273 32.3533 5.7073 33.7802 5.86188 35.1594C6.36127 39.8204 6.75365 43.4826 9.90457 48.417C10.1335 48.8423 10.5025 49.1752 10.9489 49.3594C11.3953 49.5436 11.8918 49.5677 12.354 49.4277C12.882 49.2597 13.3391 48.9209 13.6534 48.4645C13.9677 48.0082 14.1213 47.4602 14.0899 46.907V41.2472C14.0192 40.2256 14.1593 39.2004 14.5017 38.2353C14.844 37.2702 15.3812 36.3858 16.0798 35.6371C16.7785 34.8884 17.6237 34.2914 18.5628 33.8832C19.502 33.475 20.5151 33.2644 21.5392 33.2644C22.5632 33.2644 23.5763 33.475 24.5155 33.8832C25.4547 34.2914 26.2998 34.8884 26.9985 35.6371C27.6971 36.3858 28.2343 37.2702 28.5766 38.2353C28.919 39.2004 29.0591 40.2256 28.9884 41.2472V46.907C28.9549 47.4606 29.1077 48.0095 29.4223 48.4663C29.7368 48.9231 30.1952 49.2615 30.7244 49.4277C31.1866 49.5654 31.6822 49.5402 32.1281 49.3562C32.574 49.1722 32.9431 48.8407 33.1738 48.417C36.3128 43.4945 36.7408 39.8204 37.2045 35.1594C37.3591 33.7802 37.5137 32.3533 37.7515 30.7838C37.7624 30.659 37.8077 30.5396 37.8823 30.439C39.6337 27.8041 40.7079 24.7778 41.0094 21.6283C41.378 17.7283 41.378 15.1125 41.378 15.0887C41.378 7.72865 35.9323 1.7241 29.2381 1.7241C26.6329 1.74323 24.1138 2.65852 22.1039 4.31616C21.9475 4.43764 21.7551 4.50361 21.557 4.50361C21.3589 4.50361 21.1665 4.43764 21.01 4.31616C18.9922 2.64821 16.4582 1.73209 13.8402 1.7241Z" fill="white"/>
<path d="M21.581 31.1525C19.3911 31.1548 17.2497 30.5076 15.4277 29.2927C13.6057 28.0777 12.185 26.3497 11.3453 24.3271C10.5056 22.3046 10.2847 20.0785 10.7105 17.9304C11.1363 15.7823 12.1897 13.8087 13.7373 12.2594C15.285 10.71 17.2574 9.65455 19.4051 9.22646C21.5527 8.79836 23.7791 9.01689 25.8025 9.85439C27.826 10.6919 29.5556 12.1107 30.7725 13.9314C31.9894 15.7521 32.6389 17.8928 32.6389 20.0827C32.6357 23.0156 31.4701 25.8276 29.3973 27.9026C27.3246 29.9775 24.5138 31.1462 21.581 31.1525ZM21.581 10.7607C19.7344 10.7607 17.9293 11.3085 16.3941 12.3346C14.8589 13.3608 13.6626 14.8192 12.9565 16.5254C12.2504 18.2316 12.0662 20.109 12.4274 21.9199C12.7885 23.7308 13.6786 25.3939 14.9852 26.6988C16.2917 28.0037 17.956 28.8917 19.7673 29.2505C21.5787 29.6093 23.4558 29.4228 25.1611 28.7145C26.8664 28.0062 28.3234 26.808 29.3476 25.2715C30.3717 23.735 30.9171 21.9292 30.9148 20.0827C30.9116 17.6093 29.9269 15.2382 28.1768 13.4903C26.4267 11.7425 24.0544 10.7607 21.581 10.7607Z" fill="white"/>
<path d="M23.8994 26.7171H19.2622C19.1482 26.7171 19.0354 26.6947 18.93 26.6511C18.8247 26.6075 18.729 26.5435 18.6484 26.4629C18.5678 26.3823 18.5039 26.2866 18.4603 26.1813C18.4167 26.076 18.3942 25.9632 18.3942 25.8492V23.269H15.814C15.5838 23.269 15.3631 23.1775 15.2003 23.0148C15.0375 22.852 14.946 22.6312 14.946 22.401V17.7757C14.946 17.5455 15.0375 17.3247 15.2003 17.162C15.3631 16.9992 15.5838 16.9077 15.814 16.9077H18.3942V14.3275C18.3942 14.0973 18.4857 13.8765 18.6484 13.7138C18.8112 13.551 19.032 13.4595 19.2622 13.4595H23.8994C24.1296 13.4595 24.3504 13.551 24.5132 13.7138C24.6759 13.8765 24.7674 14.0973 24.7674 14.3275V16.9077H27.3476C27.5778 16.9077 27.7986 16.9992 27.9613 17.162C28.1241 17.3247 28.2156 17.5455 28.2156 17.7757V22.4129C28.2156 22.6431 28.1241 22.8639 27.9613 23.0267C27.7986 23.1894 27.5778 23.2809 27.3476 23.2809H24.7674V25.861C24.7674 25.9745 24.7449 26.0868 24.7011 26.1914C24.6573 26.2961 24.5932 26.391 24.5125 26.4706C24.4317 26.5503 24.3359 26.6131 24.2307 26.6554C24.1254 26.6977 24.0128 26.7187 23.8994 26.7171ZM20.1302 24.9812H23.0314V22.401C23.0345 22.1729 23.1274 21.9551 23.2898 21.7949C23.4522 21.6347 23.6712 21.5449 23.8994 21.5449H26.4796V18.6318H23.8994C23.6692 18.6318 23.4484 18.5404 23.2856 18.3776C23.1229 18.2148 23.0314 17.994 23.0314 17.7638V15.1836H20.1302V17.7757C20.1302 18.0059 20.0387 18.2267 19.876 18.3894C19.7132 18.5522 19.4924 18.6437 19.2622 18.6437H16.682V21.5568H19.2622C19.4904 21.5568 19.7094 21.6466 19.8718 21.8068C20.0342 21.967 20.1271 22.1847 20.1302 22.4129V24.9812Z" fill="white"/>
</svg>
