<svg width="48" height="50" viewBox="0 0 48 50" fill="none" xmlns="http://www.w3.org/2000/svg">
<path d="M43.7749 35.7696C43.2713 35.7678 42.7735 35.6626 42.3124 35.4604L32.3008 30.9778L17.9017 33.6769C17.2645 33.7964 16.6068 33.74 15.9993 33.5137C15.3917 33.2875 14.8574 32.8999 14.4536 32.3927L5.76179 21.5369L1.29106 17.7915C0.745048 17.3391 0.346275 16.7341 0.145684 16.0539C-0.0549066 15.3738 -0.048215 14.6493 0.164897 13.9729C0.37801 13.2966 0.78787 12.6991 1.34215 12.2568C1.89642 11.8145 2.56996 11.5474 3.27673 11.4897C3.74531 11.4472 4.21767 11.4978 4.66662 11.6386C5.11556 11.7794 5.53221 12.0076 5.89258 12.3101L10.6487 16.2815C10.8288 16.4298 10.9922 16.5972 11.1362 16.7808L18.7102 26.293L32.0868 23.7842C32.805 23.6473 33.548 23.7345 34.2151 24.0339L45.2493 28.9683C45.6829 29.1587 46.0743 29.4335 46.4007 29.7768C46.727 30.12 46.9817 30.5248 47.15 30.9675C47.3182 31.4102 47.3966 31.882 47.3805 32.3554C47.3645 32.8287 47.2544 33.2941 47.0566 33.7244C46.764 34.3447 46.2989 34.8675 45.7169 35.2302C45.1348 35.5929 44.4606 35.7802 43.7749 35.7696ZM32.4078 29.2062C32.5302 29.2068 32.6513 29.231 32.7645 29.2775L43.0258 33.879C43.4745 34.0692 43.9797 34.0776 44.4345 33.9023C44.8893 33.7271 45.2582 33.3819 45.4633 32.9397C45.6395 32.4996 45.6417 32.009 45.4695 31.5674C45.2973 31.1258 44.9635 30.7662 44.5358 30.5616L33.4898 25.6272C33.1477 25.4708 32.7653 25.4251 32.3959 25.4964L18.5081 28.1004C18.3526 28.1295 18.1921 28.1162 18.0435 28.0617C17.895 28.0073 17.7638 27.9139 17.6639 27.7912L9.78069 17.9223C9.69955 17.8293 9.61215 17.7419 9.5191 17.6607L4.76301 13.6894C4.5772 13.5333 4.36245 13.4152 4.13102 13.3421C3.8996 13.2689 3.65604 13.2421 3.41424 13.2631C3.17244 13.284 2.93714 13.3524 2.72177 13.4644C2.5064 13.5763 2.31519 13.7295 2.15905 13.9153C2.0029 14.1011 1.88489 14.3159 1.81173 14.5473C1.73858 14.7787 1.71172 15.0223 1.7327 15.2641C1.75368 15.5059 1.82209 15.7412 1.934 15.9565C2.04591 16.1719 2.19915 16.3631 2.38496 16.5193L6.91514 20.3242C6.96421 20.3573 7.00826 20.3973 7.04593 20.443L15.7853 31.3702C15.9928 31.631 16.2671 31.8306 16.5791 31.9479C16.8911 32.0652 17.229 32.0956 17.5569 32.036L32.2176 29.2775L32.4078 29.2062Z" fill="white"/>
<path d="M6.39193 21.7981C6.21422 21.8005 6.04005 21.7484 5.89293 21.6487C5.74582 21.549 5.63286 21.4065 5.56932 21.2405C5.50579 21.0745 5.49474 20.893 5.53766 20.7206C5.58057 20.5481 5.67539 20.393 5.80931 20.2761L9.87577 16.7091C10.0471 16.5685 10.2657 16.4989 10.4868 16.5143C10.7079 16.5298 10.9147 16.6293 11.0648 16.7923C11.2096 16.961 11.2831 17.1794 11.2698 17.4013C11.2565 17.6232 11.1574 17.8312 10.9935 17.9813L6.927 21.5484C6.78515 21.6942 6.59481 21.783 6.39193 21.7981Z" fill="white"/>
<path d="M17.7472 29.9192C17.6604 29.9308 17.5724 29.9308 17.4856 29.9192C17.2678 29.8456 17.0869 29.6907 16.9805 29.4869C16.8742 29.2831 16.8507 29.0461 16.9149 28.8253L17.5094 26.9704C17.539 26.8564 17.5915 26.7495 17.6637 26.6564C17.736 26.5633 17.8264 26.4859 17.9295 26.4289C18.0326 26.3719 18.1463 26.3365 18.2635 26.3248C18.3808 26.3131 18.4992 26.3254 18.6115 26.361C18.7238 26.3965 18.8278 26.4546 18.9169 26.5316C19.0061 26.6086 19.0787 26.703 19.1302 26.809C19.1817 26.9149 19.2111 27.0303 19.2166 27.148C19.2221 27.2657 19.2036 27.3833 19.1621 27.4936L18.5676 29.3485C18.5079 29.5175 18.3965 29.6636 18.2493 29.766C18.1021 29.8684 17.9265 29.922 17.7472 29.9192Z" fill="white"/>
<path d="M32.4078 30.9423H32.3127C32.2001 30.9318 32.0906 30.8992 31.9907 30.8463C31.8907 30.7933 31.8023 30.7211 31.7304 30.6337C31.6585 30.5464 31.6047 30.4457 31.572 30.3374C31.5393 30.2291 31.5283 30.1155 31.5398 30.0029L31.7776 27.6249C31.8127 27.4058 31.9303 27.2085 32.1063 27.0735C32.2823 26.9384 32.5034 26.8759 32.724 26.8987C32.9447 26.9215 33.1482 27.028 33.2929 27.1962C33.4375 27.3644 33.5122 27.5816 33.5017 27.8032L33.2639 30.1813C33.2379 30.3904 33.1367 30.583 32.9792 30.723C32.8217 30.8631 32.6186 30.941 32.4078 30.9423Z" fill="white"/>
<path d="M32.4077 43.938H12.991C12.8459 43.9366 12.7035 43.8989 12.5768 43.8282C12.4501 43.7576 12.3431 43.6564 12.2657 43.5337C12.198 43.4055 12.1626 43.2626 12.1626 43.1176C12.1626 42.9725 12.198 42.8297 12.2657 42.7014L17.0218 32.4639C17.0675 32.3542 17.1356 32.2552 17.2217 32.1732C17.3078 32.0913 17.4101 32.0282 17.5219 31.9879C17.6338 31.9476 17.7528 31.9311 17.8714 31.9394C17.99 31.9476 18.1056 31.9805 18.2108 32.0359C18.3193 32.0831 18.4171 32.1519 18.4981 32.2383C18.579 32.3246 18.6415 32.4266 18.6816 32.538C18.7216 32.6493 18.7385 32.7677 18.7312 32.8859C18.7238 33.004 18.6924 33.1194 18.6388 33.2249L14.4891 42.2377H31.3257L27.7586 31.1084C27.6877 30.8893 27.7067 30.6509 27.8115 30.4458C27.9163 30.2406 28.0983 30.0855 28.3175 30.0145C28.5366 29.9436 28.775 29.9626 28.9802 30.0674C29.1853 30.1722 29.3404 30.3542 29.4114 30.5734L33.2044 42.8085C33.2446 42.9378 33.2547 43.0747 33.2341 43.2086C33.2135 43.3425 33.1627 43.47 33.0855 43.5813C33.0073 43.6886 32.9056 43.7766 32.7881 43.8385C32.6706 43.9003 32.5404 43.9343 32.4077 43.938Z" fill="white"/>
<path d="M38.3885 40.4541C38.26 40.4537 38.1332 40.4259 38.0163 40.3726C37.8994 40.3193 37.7953 40.2417 37.7108 40.1449L36.058 38.1236H30.5528C30.3416 38.0988 30.1469 37.9973 30.0056 37.8384C29.8643 37.6795 29.7863 37.4742 29.7863 37.2616C29.7863 37.0489 29.8643 36.8437 30.0056 36.6848C30.1469 36.5259 30.3416 36.4244 30.5528 36.3995H36.4979C36.6252 36.3967 36.7514 36.4231 36.8668 36.4767C36.9822 36.5303 37.0838 36.6097 37.1638 36.7087L39.09 39.0867C39.198 39.212 39.2674 39.3659 39.2898 39.5298C39.3122 39.6937 39.2867 39.8606 39.2162 40.0103C39.1458 40.16 39.0335 40.286 38.8929 40.3732C38.7524 40.4604 38.5896 40.505 38.4242 40.5017L38.3885 40.4541Z" fill="white"/>
<path d="M41.5276 49.479H3.94257C3.82858 49.479 3.71571 49.4565 3.6104 49.4129C3.50509 49.3693 3.40941 49.3054 3.32881 49.2248C3.24821 49.1442 3.18427 49.0485 3.14065 48.9432C3.09703 48.8379 3.07458 48.725 3.07458 48.611C3.07458 46.9113 3.74979 45.2812 4.95168 44.0793C6.15357 42.8774 7.78369 42.2022 9.48342 42.2022H35.963C37.6606 42.2053 39.2877 42.8819 40.487 44.0835C41.6863 45.285 42.3599 46.9134 42.3599 48.611C42.3601 48.8352 42.2736 49.0507 42.1184 49.2125C41.9633 49.3743 41.7516 49.4698 41.5276 49.479ZM4.90567 47.743H40.5764C40.3721 46.6746 39.8023 45.7106 38.9649 45.0163C38.1275 44.3221 37.0745 43.9409 35.9867 43.9381H9.48342C8.39723 43.9515 7.34834 44.3363 6.51119 45.0285C5.67404 45.7208 5.09907 46.6787 4.8819 47.743H4.90567Z" fill="white"/>
<path d="M43.9057 49.4786H0.970033C0.739828 49.4786 0.51905 49.3872 0.356271 49.2244C0.193492 49.0616 0.102051 48.8408 0.102051 48.6106C0.102051 48.3804 0.193492 48.1596 0.356271 47.9969C0.51905 47.8341 0.739828 47.7426 0.970033 47.7426H43.9057C44.1359 47.7426 44.3567 47.8341 44.5194 47.9969C44.6822 48.1596 44.7737 48.3804 44.7737 48.6106C44.7737 48.8408 44.6822 49.0616 44.5194 49.2244C44.3567 49.3872 44.1359 49.4786 43.9057 49.4786Z" fill="white"/>
<path d="M36.7715 17.4465C33.9538 17.3946 31.1552 16.9708 28.4484 16.1861C25.4103 15.3943 22.5168 14.1261 19.8755 12.4288C16.7603 10.3005 16.463 8.60017 16.7603 7.54194C17.0575 6.48371 18.199 5.16388 21.9563 4.96174C25.0913 4.86291 28.222 5.26429 31.2307 6.15076C34.2715 6.94539 37.1685 8.21332 39.8154 9.90808C42.9188 12.0245 43.216 13.7367 42.9188 14.795C42.4432 16.6855 39.9819 17.4465 36.7715 17.4465ZM23.0264 6.66205H22.0752C19.6377 6.80474 18.6033 7.4587 18.5081 7.98187C18.413 8.50504 18.9005 9.59895 20.8862 10.9782C23.3703 12.5816 26.0905 13.7852 28.9478 14.5453C35.9154 16.4834 40.9093 15.7343 41.2898 14.3907C41.4325 13.8675 40.8856 12.7736 38.9118 11.3944C36.4288 9.78891 33.7082 8.5851 30.8502 7.82729C28.309 7.09601 25.6823 6.7042 23.0383 6.66205H23.0264Z" fill="white"/>
<path d="M42.122 15.473H41.8842C41.6638 15.4093 41.4776 15.2611 41.3662 15.0606C41.2548 14.86 41.2273 14.6236 41.2897 14.4028C41.4324 13.8797 40.8855 12.7858 38.9117 11.4065C36.4287 9.80105 33.7081 8.59724 30.8501 7.83944C28.0238 6.99503 25.0837 6.59393 22.1346 6.65042C19.6971 6.7931 18.6626 7.44706 18.5675 7.97023C18.5039 8.19062 18.3556 8.37685 18.1551 8.48825C17.9546 8.59965 17.7181 8.62716 17.4974 8.56474C17.3876 8.53583 17.2847 8.48536 17.1946 8.41632C17.1046 8.34727 17.0291 8.261 16.9727 8.16253C16.9163 8.06406 16.88 7.95535 16.8659 7.84272C16.8519 7.7301 16.8604 7.61582 16.891 7.50651L18.2583 2.61963C19.1739 -0.662077 26.2248 -0.555064 32.7287 1.26414C39.2327 3.08335 45.3324 6.62664 44.4168 9.92023L43.0495 14.7952C43.0064 15.0031 42.8877 15.1875 42.7163 15.3127C42.5449 15.438 42.3331 15.4951 42.122 15.473ZM23.0263 4.92632C25.8166 4.97995 28.5875 5.40379 31.2663 6.1867C34.3071 6.98133 37.2041 8.24924 39.851 9.944C40.6443 10.4683 41.3675 11.0916 42.0031 11.7989L42.6452 9.42083C43.0257 8.06534 39.0781 4.85498 32.1699 2.90498C25.2617 0.954983 20.2083 1.71596 19.8278 3.05956L19.1858 5.43761C20.0954 5.1533 21.0393 4.9933 21.9919 4.96199C22.3327 4.93821 22.6775 4.92632 23.0263 4.92632Z" fill="white"/>
<path d="M41.5276 23.9387C41.4132 23.9403 41.2996 23.9189 41.1936 23.8759C41.0875 23.8328 40.9912 23.7689 40.9103 23.688C40.8294 23.6071 40.7655 23.5108 40.7224 23.4047C40.6794 23.2987 40.658 23.1851 40.6596 23.0707V15.4966C40.6453 15.3749 40.6569 15.2515 40.6937 15.1346C40.7305 15.0177 40.7916 14.91 40.873 14.8184C40.9545 14.7268 41.0544 14.6535 41.1662 14.6033C41.278 14.5531 41.3991 14.5272 41.5217 14.5272C41.6442 14.5272 41.7654 14.5531 41.8772 14.6033C41.989 14.6535 42.0889 14.7268 42.1703 14.8184C42.2517 14.91 42.3129 15.0177 42.3496 15.1346C42.3864 15.2515 42.398 15.3749 42.3837 15.4966V23.0707C42.3853 23.1841 42.3643 23.2967 42.322 23.4019C42.2797 23.5072 42.2169 23.603 42.1372 23.6837C42.0576 23.7645 41.9627 23.8286 41.858 23.8724C41.7534 23.9162 41.6411 23.9387 41.5276 23.9387Z" fill="white"/>
</svg>
