<svg viewBox="0 0 27 21.43" xmlns="http://www.w3.org/2000/svg">
  <path d="M16.64 17.65l.53-.91a12.82 12.82 0 001.62-5.18 4.71 4.71 0 01.61-1.91l.79-1.39A6.49 6.49 0 0021 5a6.09 6.09 0 00-.72-3 4 4 0 00-3.47-2 4.14 4.14 0 00-.7.06l-2.67.47-2.67-.47a4.17 4.17 0 00-.71-.06A4 4 0 006.6 2a6.1 6.1 0 00-.77 3 6.5 6.5 0 00.86 3.22l.79 1.39a4.71 4.71 0 01.61 1.91 12.66 12.66 0 001.62 5.18l.53.91a1.28 1.28 0 002.4-.64v-1.48a5.72 5.72 0 01.3-1.84l.21-.61a.29.29 0 01.27-.19.28.28 0 01.26.18l.21.56a5.82 5.82 0 01.35 2V17a1.28 1.28 0 002.4.64zM15.3 17v-1.43a6.73 6.73 0 00-.42-2.35l-.21-.56a1.34 1.34 0 00-2.52 0l-.21.61a6.8 6.8 0 00-.37 2.19V17a.22.22 0 01-.22.22.21.21 0 01-.19-.11l-.53-.91a11.65 11.65 0 01-1.49-4.74 5.67 5.67 0 00-.74-2.34l-.79-1.38A5.45 5.45 0 016.9 5a5.1 5.1 0 01.62-2.55 2.93 2.93 0 013.06-1.38l2.77.48a.28.28 0 00.18 0l2.76-.48a3.07 3.07 0 01.53-.05 2.93 2.93 0 012.54 1.43A5.1 5.1 0 0120 5a5.46 5.46 0 01-.72 2.7l-.79 1.38a5.82 5.82 0 00-.74 2.35 11.49 11.49 0 01-1.48 4.74l-.53.91a.21.21 0 01-.19.11.22.22 0 01-.25-.19z"/>
  <path d="M12.89 2.17l-1.67-.37a2.6 2.6 0 00-2.53.82l-.12.16a2.79 2.79 0 00-.52 1.67.53.53 0 00.53.55.53.53 0 00.53-.53 1.81 1.81 0 01.32-1.07l.07-.1a1.55 1.55 0 011.5-.46l1.67.37a.53.53 0 00.23-1zM26.75 13.49a4.85 4.85 0 00-4-.58 4.61 4.61 0 00-1.14.53 8.58 8.58 0 00.23-1.44 4.79 4.79 0 003-1.68 4.92 4.92 0 00.93-3.9.53.53 0 00-.55-.42 4.92 4.92 0 00-3.56 1.8 4.81 4.81 0 00-.9 3.68.53.53 0 000 .12 7.34 7.34 0 01-5.53 7.12.54.54 0 00-.38.65.53.53 0 00.51.4h.14a7.44 7.44 0 001.07-.35 4.6 4.6 0 003.81 2 5 5 0 003.11-1.16.52.52 0 00.11-.69 4.91 4.91 0 00-3.33-2.21 4 4 0 00-.68-.05 8.55 8.55 0 00.76-.95 5 5 0 002.33.6 4.26 4.26 0 001.23-.18 4.88 4.88 0 003-2.63.52.52 0 00-.16-.66zM22.5 8.44a3.75 3.75 0 012.28-1.34A3.67 3.67 0 0124 9.64a3.79 3.79 0 01-2.24 1.29 3.74 3.74 0 01.74-2.49zm-2.35 10a3.69 3.69 0 012.29 1.33 3.56 3.56 0 01-4.81-.77 3.65 3.65 0 012.52-.58zm3.5-2.65a3.69 3.69 0 01-2.57-.24 3.54 3.54 0 014.67-1.38 3.7 3.7 0 01-2.1 1.6zM11.74 18.73a7.34 7.34 0 01-5.53-7.12.53.53 0 000-.12 4.81 4.81 0 00-.9-3.68A4.92 4.92 0 001.78 6a.53.53 0 00-.55.43 4.92 4.92 0 00.93 3.9 4.79 4.79 0 003 1.68 8.84 8.84 0 00.19 1.46 4.29 4.29 0 00-1.14-.54 4.85 4.85 0 00-4 .58.52.52 0 00-.2.67 4.88 4.88 0 003 2.63 4.21 4.21 0 001.28.19 5 5 0 002.33-.6 8.55 8.55 0 00.76.95 4 4 0 00-.68.05 4.91 4.91 0 00-3.33 2.21.52.52 0 00.11.69 5 5 0 003.11 1.16 4.81 4.81 0 00.74-.06 4.83 4.83 0 003.07-2 7.44 7.44 0 001.07.35h.14a.53.53 0 00.51-.4.54.54 0 00-.38-.62zm-8.39-3a3.7 3.7 0 01-2.1-1.62 3.7 3.7 0 012.64-.23 3.7 3.7 0 012 1.61 3.69 3.69 0 01-2.54.28zM3 9.64a3.67 3.67 0 01-.78-2.54A3.75 3.75 0 014.5 8.44a3.74 3.74 0 01.73 2.49A3.79 3.79 0 013 9.64zm4.15 10.68a3.69 3.69 0 01-2.59-.57 3.69 3.69 0 012.29-1.33 3.66 3.66 0 012.52.58 3.69 3.69 0 01-2.22 1.32z"/>
</svg>
