<svg viewBox="0 0 17 21.81" xmlns="http://www.w3.org/2000/svg">
  <path d="M16 6a.46.46 0 00-.4.51 7.77 7.77 0 010 .85 6.12 6.12 0 01-.81 3l-.87 1.53a6.1 6.1 0 00-.8 2.54 12.86 12.86 0 01-1.66 5.28l-.58 1a.38.38 0 01-.32.18.37.37 0 01-.38-.37v-1.68a7.32 7.32 0 00-.39-2.37l-.23-.67a1.36 1.36 0 00-2.55 0l-.23.62a7.32 7.32 0 00-.46 2.54v1.59a.36.36 0 01-.37.37.4.4 0 01-.33-.18l-.58-1a13 13 0 01-1.64-5.32 6.26 6.26 0 00-.81-2.54l-.87-1.53a6.12 6.12 0 01-.81-3 5.72 5.72 0 01.71-2.88 3.35 3.35 0 012.92-1.68 3.05 3.05 0 01.6.06l3 .53h.16l1.87-.33a.46.46 0 10-.15-.9l-1.8.32L5.29 2a3.74 3.74 0 00-.75-.07A4.27 4.27 0 00.83 4 6.61 6.61 0 000 7.31a7.08 7.08 0 00.93 3.5l.87 1.52a5.47 5.47 0 01.69 2.17 13.75 13.75 0 001.77 5.65l.58 1a1.29 1.29 0 002.41-.64v-1.58a6.23 6.23 0 01.4-2.22l.23-.62a.44.44 0 01.41-.29.44.44 0 01.41.3l.23.67a6.34 6.34 0 01.35 2.07v1.68a1.28 1.28 0 002.4.64l.58-1A13.76 13.76 0 0014 14.5a5.3 5.3 0 01.68-2.17l.88-1.52a7.17 7.17 0 00.92-3.5 7.52 7.52 0 00-.05-1A.46.46 0 0016 6z"/>
  <path d="M2.87 4.71c-.05 0-.09.11-.14.17a3 3 0 00-.54 1.76.45.45 0 00.46.46.45.45 0 00.45-.46 2.05 2.05 0 01.37-1.22l.09-.12a1.81 1.81 0 011.77-.55.46.46 0 00.2-.9 2.7 2.7 0 00-2.66.86zM16.73 4.36l-.42-.15a10.28 10.28 0 00-1-.27c-.25 0-.66-.11-1.22-.17a.92.92 0 01-.84-.77 12.54 12.54 0 00-.19-1.24 8.46 8.46 0 00-.27-1 3.11 3.11 0 00-.15-.41.45.45 0 00-.42-.35.46.46 0 00-.42.28s-.06.16-.14.41a8.69 8.69 0 00-.27 1c-.08.37-.14.78-.19 1.22a.92.92 0 01-.82.82c-.44 0-.85.11-1.22.19a9 9 0 00-1 .27l-.42.15a.46.46 0 00-.28.42.47.47 0 00.29.42l.4.15c.34.1.69.19 1 .26a11.42 11.42 0 001.22.17.92.92 0 01.81.82 12.4 12.4 0 00.2 1.24 9.63 9.63 0 00.26 1c.09.25.15.39.15.41a.46.46 0 00.42.28.45.45 0 00.42-.28 4 4 0 00.15-.41 9.52 9.52 0 00.27-1 12.1 12.1 0 00.19-1.22.93.93 0 01.82-.82 10.1 10.1 0 001.22-.19 8.45 8.45 0 001-.26 3.11 3.11 0 00.41-.15.45.45 0 00.31-.4.46.46 0 00-.27-.42zM14 4.89a1.85 1.85 0 00-1.63 1.63q0 .45-.12.84c0-.27-.08-.55-.12-.86a1.84 1.84 0 00-1.62-1.63c-.32 0-.6-.06-.81-.1l.81-.11A1.83 1.83 0 0012.11 3c0-.28.07-.56.11-.81q.07.39.12.84A1.85 1.85 0 0014 4.68l.81.1c-.29.05-.56.08-.81.11z"/>
</svg>
