<svg width="94" height="65" viewBox="0 0 94 65" fill="none" xmlns="http://www.w3.org/2000/svg">
<path d="M47 0C25.6364 0 7.39182 13.4767 0 32.5C7.39182 51.5233 25.6364 65 47 65C68.3636 65 86.6082 51.5233 94 32.5C86.6082 13.4767 68.3636 0 47 0ZM47 54.1667C35.2073 54.1667 25.6364 44.46 25.6364 32.5C25.6364 20.54 35.2073 10.8333 47 10.8333C58.7927 10.8333 68.3636 20.54 68.3636 32.5C68.3636 44.46 58.7927 54.1667 47 54.1667ZM47 19.5C39.9073 19.5 34.1818 25.3067 34.1818 32.5C34.1818 39.6933 39.9073 45.5 47 45.5C54.0927 45.5 59.8182 39.6933 59.8182 32.5C59.8182 25.3067 54.0927 19.5 47 19.5Z" fill="white"/>
</svg>
