<svg viewBox="0 0 40 42" fill="none" xmlns="http://www.w3.org/2000/svg">
<path d="M36.8158 30.0832C36.3923 30.0817 35.9737 29.9932 35.5858 29.8231L27.1658 26.0532L15.0558 28.3231C14.5199 28.4237 13.9668 28.3762 13.4558 28.1859C12.9449 27.9957 12.4954 27.6697 12.1558 27.2432L4.84581 18.1132L1.08582 14.9632C0.626605 14.5826 0.291226 14.0738 0.122524 13.5018C-0.0461779 12.9298 -0.0405501 12.3204 0.138683 11.7516C0.317916 11.1828 0.66262 10.6803 1.12878 10.3083C1.59494 9.93632 2.1614 9.7117 2.75582 9.66316C3.14991 9.62739 3.54717 9.66995 3.92475 9.78837C4.30232 9.90679 4.65274 10.0987 4.95581 10.3532L8.95581 13.6932C9.10728 13.8179 9.24476 13.9587 9.36582 14.1132L15.7358 22.1132L26.9858 20.0032C27.5899 19.888 28.2148 19.9614 28.7758 20.2132L38.0558 24.3632C38.4205 24.5233 38.7497 24.7544 39.0242 25.0431C39.2986 25.3317 39.5129 25.6722 39.6544 26.0445C39.7959 26.4168 39.8618 26.8136 39.8483 27.2117C39.8348 27.6098 39.7422 28.0012 39.5758 28.3632C39.3298 28.8848 38.9386 29.3245 38.4491 29.6296C37.9596 29.9346 37.3925 30.0921 36.8158 30.0832ZM27.2558 24.5632C27.3587 24.5637 27.4606 24.5841 27.5558 24.6232L36.1858 28.4932C36.5632 28.6531 36.9881 28.6602 37.3706 28.5128C37.7531 28.3654 38.0634 28.075 38.2358 27.7031C38.384 27.3331 38.3859 26.9204 38.241 26.549C38.0962 26.1776 37.8155 25.8752 37.4558 25.7032L28.1658 21.5532C27.8781 21.4216 27.5565 21.3832 27.2458 21.4432L15.5658 23.6332C15.435 23.6577 15.3 23.6464 15.1751 23.6007C15.0501 23.5549 14.9399 23.4763 14.8558 23.3732L8.22582 15.0732C8.15758 14.9949 8.08407 14.9214 8.00582 14.8532L4.00582 11.5132C3.84954 11.3818 3.66893 11.2826 3.4743 11.2211C3.27967 11.1595 3.07482 11.137 2.87146 11.1546C2.6681 11.1722 2.47021 11.2298 2.28908 11.3239C2.10795 11.418 1.94714 11.5469 1.81581 11.7032C1.68449 11.8594 1.58524 12.04 1.52372 12.2347C1.46219 12.4293 1.43961 12.6341 1.45725 12.8375C1.47489 13.0409 1.53242 13.2388 1.62654 13.4199C1.72067 13.601 1.84954 13.7618 2.00582 13.8932L5.81581 17.0932C5.85708 17.1211 5.89413 17.1547 5.92582 17.1932L13.2758 26.3832C13.4503 26.6025 13.6811 26.7704 13.9434 26.869C14.2058 26.9677 14.49 26.9933 14.7658 26.9432L27.0958 24.6232L27.2558 24.5632Z" fill="black"/>
<path d="M5.37582 18.3328C5.22636 18.3348 5.07987 18.291 4.95615 18.2071C4.83242 18.1233 4.73742 18.0034 4.68398 17.8638C4.63055 17.7242 4.62125 17.5716 4.65735 17.4266C4.69345 17.2815 4.77319 17.151 4.88582 17.0528L8.30582 14.0528C8.44993 13.9346 8.6338 13.876 8.81973 13.889C9.00567 13.902 9.17958 13.9857 9.30582 14.1228C9.42761 14.2646 9.48945 14.4483 9.47825 14.6349C9.46705 14.8216 9.3837 14.9965 9.24582 15.1228L5.82582 18.1228C5.70653 18.2454 5.54644 18.3201 5.37582 18.3328Z" fill="black"/>
<path d="M14.9258 25.1628C14.8528 25.1726 14.7788 25.1726 14.7058 25.1628C14.5227 25.1009 14.3705 24.9707 14.281 24.7993C14.1916 24.6278 14.1718 24.4285 14.2258 24.2428L14.7258 22.6828C14.7507 22.5869 14.7949 22.4971 14.8556 22.4188C14.9164 22.3405 14.9924 22.2754 15.0791 22.2274C15.1659 22.1794 15.2614 22.1497 15.3601 22.1398C15.4587 22.13 15.5583 22.1403 15.6527 22.1703C15.7472 22.2002 15.8346 22.249 15.9096 22.3138C15.9846 22.3786 16.0456 22.4579 16.089 22.5471C16.1323 22.6362 16.157 22.7332 16.1616 22.8322C16.1662 22.9312 16.1507 23.0301 16.1158 23.1228L15.6158 24.6828C15.5656 24.825 15.4719 24.9479 15.3481 25.034C15.2243 25.1201 15.0766 25.1652 14.9258 25.1628Z" fill="black"/>
<path d="M27.2558 26.0233H27.1758C27.0811 26.0145 26.989 25.9871 26.905 25.9425C26.8209 25.898 26.7465 25.8372 26.6861 25.7638C26.6257 25.6903 26.5804 25.6056 26.5529 25.5146C26.5254 25.4235 26.5162 25.3279 26.5258 25.2333L26.7258 23.2333C26.7553 23.049 26.8542 22.8831 27.0022 22.7695C27.1503 22.6559 27.3362 22.6033 27.5218 22.6225C27.7073 22.6417 27.8785 22.7313 28.0002 22.8727C28.1218 23.0142 28.1847 23.1969 28.1758 23.3833L27.9758 25.3833C27.954 25.5592 27.8689 25.7211 27.7364 25.8389C27.6039 25.9566 27.4331 26.0222 27.2558 26.0233Z" fill="black"/>
<path d="M27.2558 36.953H10.9258C10.8038 36.9518 10.6841 36.9201 10.5775 36.8607C10.4709 36.8013 10.381 36.7162 10.3158 36.613C10.2589 36.5051 10.2291 36.385 10.2291 36.263C10.2291 36.141 10.2589 36.0209 10.3158 35.913L14.3158 27.303C14.3543 27.2107 14.4116 27.1275 14.484 27.0586C14.5564 26.9896 14.6424 26.9365 14.7365 26.9027C14.8305 26.8688 14.9306 26.8549 15.0304 26.8619C15.1301 26.8688 15.2273 26.8965 15.3158 26.943C15.4071 26.9827 15.4893 27.0406 15.5574 27.1132C15.6255 27.1859 15.678 27.2716 15.7117 27.3653C15.7455 27.4589 15.7597 27.5585 15.7535 27.6579C15.7473 27.7572 15.7209 27.8543 15.6758 27.943L12.1858 35.523H26.3458L23.3458 26.163C23.2861 25.9787 23.3021 25.7782 23.3903 25.6057C23.4784 25.4332 23.6315 25.3027 23.8158 25.243C24.0001 25.1834 24.2006 25.1994 24.3731 25.2875C24.5457 25.3756 24.6761 25.5287 24.7358 25.713L27.9258 36.003C27.9596 36.1119 27.9682 36.227 27.9509 36.3396C27.9335 36.4522 27.8908 36.5594 27.8258 36.653C27.7601 36.7433 27.6745 36.8173 27.5757 36.8693C27.4769 36.9213 27.3674 36.9499 27.2558 36.953Z" fill="black"/>
<path d="M32.2858 34.023C32.1778 34.0226 32.0711 33.9993 31.9728 33.9544C31.8745 33.9096 31.7869 33.8443 31.7158 33.763L30.3258 32.063H25.6958C25.5182 32.0421 25.3544 31.9567 25.2356 31.8231C25.1167 31.6894 25.0511 31.5168 25.0511 31.338C25.0511 31.1591 25.1167 30.9865 25.2356 30.8529C25.3544 30.7192 25.5182 30.6339 25.6958 30.613H30.6958C30.8028 30.6106 30.9089 30.6328 31.006 30.6779C31.1031 30.723 31.1885 30.7897 31.2558 30.873L32.8758 32.873C32.9666 32.9783 33.025 33.1078 33.0439 33.2456C33.0627 33.3835 33.0412 33.5238 32.982 33.6497C32.9227 33.7756 32.8283 33.8816 32.7101 33.9549C32.5918 34.0283 32.4549 34.0658 32.3158 34.063L32.2858 34.023Z" fill="black"/>
<path d="M34.9258 41.6132H3.31581C3.21995 41.6132 3.12502 41.5943 3.03645 41.5576C2.94789 41.5209 2.86741 41.4671 2.79962 41.3994C2.73183 41.3316 2.67807 41.2511 2.64138 41.1625C2.60469 41.074 2.58582 40.979 2.58582 40.8832C2.58582 39.4537 3.15368 38.0827 4.16451 37.0719C5.17533 36.061 6.5463 35.4932 7.97581 35.4932H30.2458C31.6736 35.4958 33.042 36.0648 34.0507 37.0754C35.0593 38.0859 35.6258 39.4554 35.6258 40.8832C35.626 41.0717 35.5532 41.253 35.4227 41.389C35.2922 41.5251 35.1142 41.6054 34.9258 41.6132ZM4.12581 40.1532H34.1258C33.954 39.2546 33.4748 38.4438 32.7705 37.8599C32.0662 37.276 31.1807 36.9555 30.2658 36.9532H7.97581C7.0623 36.9644 6.18016 37.288 5.47609 37.8702C4.77202 38.4524 4.28846 39.258 4.10581 40.1532H4.12581Z" fill="black"/>
<path d="M36.9258 41.6128H0.815811C0.622203 41.6128 0.436523 41.5359 0.299622 41.399C0.16272 41.2621 0.0858154 41.0765 0.0858154 40.8828C0.0858154 40.6892 0.16272 40.5035 0.299622 40.3666C0.436523 40.2297 0.622203 40.1528 0.815811 40.1528H36.9258C37.1194 40.1528 37.3051 40.2297 37.442 40.3666C37.5789 40.5035 37.6558 40.6892 37.6558 40.8828C37.6558 41.0765 37.5789 41.2621 37.442 41.399C37.3051 41.5359 37.1194 41.6128 36.9258 41.6128Z" fill="black"/>
<path d="M30.9258 14.673C28.556 14.6293 26.2023 14.2729 23.9258 13.613C21.3706 12.947 18.9372 11.8805 16.7158 10.453C14.0958 8.66299 13.8458 7.23299 14.0958 6.34299C14.3458 5.45299 15.3058 4.34297 18.4658 4.17297C21.1024 4.08986 23.7354 4.42742 26.2658 5.17297C28.8232 5.84128 31.2597 6.90764 33.4858 8.33298C36.0958 10.113 36.3458 11.553 36.0958 12.443C35.6958 14.033 33.6258 14.673 30.9258 14.673ZM19.3658 5.60298H18.5658C16.5158 5.72298 15.6458 6.27298 15.5658 6.71298C15.4858 7.15298 15.8958 8.07299 17.5658 9.23299C19.655 10.5815 21.9428 11.5938 24.3458 12.233C30.2058 13.863 34.4058 13.233 34.7258 12.103C34.8458 11.663 34.3858 10.743 32.7258 9.58298C30.6376 8.23275 28.3494 7.22031 25.9458 6.58298C23.8086 5.96795 21.5994 5.63843 19.3758 5.60298H19.3658Z" fill="black"/>
<path d="M35.4258 13.0132H35.2258C35.0405 12.9597 34.8838 12.835 34.7901 12.6663C34.6964 12.4977 34.6733 12.2988 34.7258 12.1132C34.8458 11.6732 34.3858 10.7532 32.7258 9.59317C30.6376 8.24295 28.3495 7.23051 25.9458 6.59318C23.5689 5.88301 21.0962 5.54567 18.6158 5.59318C16.5658 5.71318 15.6958 6.26318 15.6158 6.70318C15.5623 6.88853 15.4376 7.04516 15.269 7.13884C15.1003 7.23253 14.9015 7.25567 14.7158 7.20318C14.6235 7.17886 14.537 7.13642 14.4612 7.07834C14.3855 7.02027 14.322 6.94772 14.2746 6.8649C14.2271 6.78209 14.1966 6.69066 14.1848 6.59594C14.173 6.50122 14.1801 6.40511 14.2058 6.31318L15.3558 2.20318C16.1258 -0.556824 22.0558 -0.466823 27.5258 1.06318C32.9958 2.59318 38.1258 5.57317 37.3558 8.34317L36.2058 12.4432C36.1696 12.618 36.0697 12.7731 35.9256 12.8784C35.7815 12.9837 35.6034 13.0318 35.4258 13.0132ZM19.3658 4.14316C21.7126 4.18827 24.0429 4.54473 26.2958 5.20318C28.8533 5.87148 31.2897 6.93783 33.5158 8.36316C34.183 8.80414 34.7912 9.32836 35.3258 9.92316L35.8658 7.92316C36.1858 6.78316 32.8658 4.08317 27.0558 2.44317C21.2458 0.803166 16.9958 1.44317 16.6758 2.57317L16.1358 4.57317C16.9009 4.33406 17.6947 4.1995 18.4958 4.17316C18.7825 4.15316 19.0725 4.14316 19.3658 4.14316Z" fill="black"/>
<path d="M34.9258 20.1331C34.8296 20.1344 34.734 20.1165 34.6449 20.0802C34.5557 20.044 34.4747 19.9903 34.4066 19.9223C34.3386 19.8542 34.2848 19.7732 34.2486 19.684C34.2124 19.5948 34.1944 19.4993 34.1958 19.4031V13.0331C34.1838 12.9307 34.1935 12.827 34.2245 12.7287C34.2554 12.6303 34.3068 12.5397 34.3753 12.4627C34.4438 12.3857 34.5278 12.324 34.6218 12.2818C34.7158 12.2396 34.8177 12.2178 34.9208 12.2178C35.0239 12.2178 35.1258 12.2396 35.2198 12.2818C35.3138 12.324 35.3978 12.3857 35.4663 12.4627C35.5348 12.5397 35.5862 12.6303 35.6171 12.7287C35.6481 12.827 35.6578 12.9307 35.6458 13.0331V19.4031C35.6471 19.4985 35.6295 19.5932 35.5939 19.6817C35.5583 19.7702 35.5055 19.8507 35.4385 19.9187C35.3715 19.9866 35.2917 20.0405 35.2037 20.0773C35.1156 20.1141 35.0212 20.1331 34.9258 20.1331Z" fill="black"/>
</svg>
