<svg viewBox="0 0 45 44" fill="none" xmlns="http://www.w3.org/2000/svg">
<path d="M2.3727 17.3901H2.27273C2.14636 17.3724 2.027 17.3213 1.92684 17.2423C1.82668 17.1632 1.74933 17.0589 1.70272 16.9401C1.26525 15.867 1.0411 14.719 1.04274 13.5601C1.02727 12.2526 1.29687 10.9574 1.83284 9.76468C2.36882 8.57194 3.15823 7.51033 4.1462 6.65371C5.13417 5.79709 6.29697 5.16604 7.55361 4.80449C8.81025 4.44293 10.1306 4.35955 11.4227 4.56014C11.612 4.59047 11.7832 4.69031 11.9027 4.84014L13.2027 6.56014C13.2691 6.64534 13.3145 6.74491 13.3353 6.85086C13.3562 6.95681 13.3518 7.06617 13.3227 7.17014L12.5427 10.3901C12.516 10.5029 12.4631 10.6078 12.3884 10.6963C12.3138 10.7849 12.2193 10.8547 12.1128 10.9001L9.05275 12.1201L7.26272 14.1201C7.17816 14.21 7.07606 14.2814 6.96273 14.3301L4.3127 15.2701L2.95272 17.0201C2.8939 17.1247 2.81023 17.2132 2.70907 17.2777C2.6079 17.3423 2.49234 17.3809 2.3727 17.3901ZM10.1128 5.94014C9.11124 5.93619 8.11876 6.12972 7.1921 6.50964C6.26544 6.88956 5.42274 7.44843 4.71224 8.15429C4.00174 8.86015 3.43734 9.69914 3.05135 10.6233C2.66536 11.5474 2.46535 12.5386 2.46273 13.5401C2.46099 14.061 2.5146 14.5806 2.6227 15.0901L3.25271 14.2801C3.33766 14.1704 3.45215 14.0871 3.58272 14.0401L6.25271 13.0901L8.02273 11.0901C8.10045 11.004 8.19602 10.9357 8.30275 10.8901L11.1727 9.74014L11.7927 7.21014L10.8827 6.02014C10.6282 5.97376 10.3711 5.9437 10.1128 5.93014V5.94014Z" fill="black"/>
<path d="M29.1627 25.58C28.4582 25.58 27.7695 25.3709 27.1838 24.9793C26.5982 24.5877 26.1419 24.0311 25.8727 23.38C25.6036 22.7289 25.5337 22.0126 25.6719 21.3218C25.81 20.6309 26.1501 19.9966 26.649 19.4991C27.1479 19.0017 27.7831 18.6634 28.4744 18.5272C29.1656 18.3909 29.8816 18.4628 30.532 18.7338C31.1823 19.0048 31.7376 19.4627 32.1276 20.0494C32.5176 20.6362 32.7247 21.3254 32.7227 22.03C32.7227 22.497 32.6306 22.9594 32.4515 23.3908C32.2725 23.8222 32.0101 24.214 31.6794 24.5437C31.3487 24.8735 30.9561 25.1348 30.5243 25.3126C30.0924 25.4904 29.6297 25.5813 29.1627 25.58ZM29.1627 19.93C28.7474 19.93 28.3414 20.0531 27.996 20.2839C27.6507 20.5146 27.3815 20.8426 27.2225 21.2263C27.0636 21.6101 27.0221 22.0323 27.1031 22.4397C27.1841 22.847 27.3841 23.2212 27.6778 23.5149C27.9715 23.8086 28.3456 24.0086 28.753 24.0896C29.1603 24.1706 29.5826 24.1291 29.9664 23.9701C30.3501 23.8112 30.6781 23.542 30.9088 23.1967C31.1396 22.8513 31.2627 22.4453 31.2627 22.03C31.2627 21.7542 31.2084 21.4811 31.1028 21.2263C30.9973 20.9715 30.8426 20.74 30.6476 20.545C30.4526 20.35 30.2211 20.1954 29.9664 20.0898C29.7116 19.9843 29.4385 19.93 29.1627 19.93Z" fill="black"/>
<path d="M29.1627 16.47C28.575 16.4666 28.0072 16.2562 27.5592 15.8758C27.1111 15.4954 26.8114 14.9693 26.7127 14.39L25.8327 8.51996C25.7632 8.04149 25.7974 7.55366 25.9331 7.0896C26.0688 6.62554 26.3029 6.19612 26.6192 5.83049C26.9356 5.46486 27.3269 5.17158 27.7666 4.97057C28.2064 4.76956 28.6842 4.66553 29.1677 4.66553C29.6512 4.66553 30.129 4.76956 30.5688 4.97057C31.0085 5.17158 31.3998 5.46486 31.7162 5.83049C32.0325 6.19612 32.2665 6.62554 32.4022 7.0896C32.5379 7.55366 32.5722 8.04149 32.5027 8.51996L31.6227 14.39C31.5236 14.971 31.2225 15.4984 30.7724 15.879C30.3223 16.2596 29.7521 16.4689 29.1627 16.47ZM29.1627 6.07996C28.8883 6.07979 28.6172 6.13968 28.3684 6.25543C28.1197 6.37117 27.8993 6.53997 27.7227 6.74996C27.5409 6.95463 27.407 7.19729 27.3309 7.46024C27.2548 7.7232 27.2383 7.99982 27.2827 8.26996L28.1527 14.14C28.1527 14.4052 28.2581 14.6595 28.4456 14.8471C28.6331 15.0346 28.8875 15.14 29.1527 15.14C29.4179 15.14 29.6722 15.0346 29.8598 14.8471C30.0473 14.6595 30.1527 14.4052 30.1527 14.14L31.0227 8.26996C31.0647 7.99811 31.0471 7.72039 30.9713 7.45599C30.8954 7.19158 30.7631 6.9468 30.5833 6.73856C30.4036 6.53031 30.1809 6.36357 29.9304 6.24986C29.6799 6.13615 29.4077 6.07818 29.1327 6.07996H29.1627Z" fill="black"/>
<path d="M9.15273 43.3902C8.60513 43.3861 8.06828 43.2379 7.59609 42.9606C7.1239 42.6833 6.73301 42.2865 6.46273 41.8102C1.92273 34.4602 0.462739 24.2302 0.00273901 18.8102C-0.0131369 18.6274 0.0404112 18.4453 0.152733 18.3002L3.26272 14.3002C3.34767 14.1905 3.46216 14.1073 3.59274 14.0602L6.26272 13.1102L8.03274 11.1102C8.11046 11.0241 8.20597 10.9558 8.31271 10.9102L11.1827 9.76025L11.8028 7.23024L10.4627 5.39024C10.4027 5.30753 10.3601 5.21341 10.3378 5.11367C10.3154 5.01393 10.3137 4.91068 10.3327 4.81024L10.8427 2.09024C10.8767 1.91282 10.9753 1.75429 11.1193 1.64532C11.2634 1.53634 11.4427 1.48465 11.6227 1.50024C13.5303 1.65405 15.3548 2.34775 16.8827 3.50024C18.609 2.18469 20.7125 1.45899 22.8827 1.43025C23.0485 1.42796 23.2101 1.48217 23.341 1.58395C23.4718 1.68573 23.5642 1.82902 23.6027 1.99024C23.6418 2.15093 23.6243 2.32015 23.5533 2.46947C23.4823 2.6188 23.362 2.73913 23.2127 2.81024C20.5062 4.15011 18.3321 6.36556 17.0435 9.09683C15.7549 11.8281 15.4275 14.9148 16.1143 17.8556C16.8012 20.7965 18.4621 23.4187 20.8272 25.2967C23.1923 27.1746 26.1227 28.1978 29.1427 28.2002C29.8868 28.2016 30.6297 28.138 31.3628 28.0102C31.4809 27.989 31.6024 27.998 31.7161 28.0365C31.8298 28.075 31.9318 28.1416 32.0127 28.2302C32.0967 28.3157 32.1573 28.4212 32.1889 28.5368C32.2204 28.6523 32.2217 28.774 32.1927 28.8902C31.2694 33.4226 29.6108 37.7734 27.2827 41.7702C26.9458 42.3692 26.4183 42.8382 25.7841 43.1028C25.1499 43.3673 24.4454 43.4122 23.7827 43.2302C23.0558 42.9974 22.4249 42.5333 21.9862 41.9086C21.5475 41.284 21.3251 40.5331 21.3527 39.7702V35.1902C21.3527 32.3502 19.3527 30.0402 16.8727 30.0402C14.3927 30.0402 12.4627 32.3902 12.4627 35.1902V39.8102C12.4921 40.5734 12.2703 41.3251 11.8313 41.9501C11.3924 42.5751 10.7606 43.0388 10.0327 43.2702C9.74596 43.3488 9.45007 43.3891 9.15273 43.3902ZM16.8927 28.5902C20.1727 28.5902 22.8327 31.5902 22.8327 35.2002V39.8202C22.8106 40.2576 22.9327 40.6902 23.1802 41.0515C23.4277 41.4128 23.7869 41.6829 24.2027 41.8202C24.5586 41.9191 24.9377 41.8925 25.2763 41.7451C25.615 41.5976 25.8926 41.3381 26.0627 41.0102C28.1378 37.4572 29.6524 33.6052 30.5528 29.5902C30.0928 29.5902 29.6227 29.6602 29.1627 29.6602C26.1585 29.6581 23.2256 28.7448 20.7512 27.041C18.2769 25.3371 16.3776 22.9229 15.304 20.117C14.2304 17.3112 14.0331 14.2457 14.7381 11.3254C15.4431 8.40506 17.0172 5.76724 19.2527 3.76025C18.576 4.08945 17.9414 4.49907 17.3628 4.98024C17.2319 5.08836 17.0675 5.14751 16.8977 5.14751C16.728 5.14751 16.5635 5.08836 16.4327 4.98024C15.2145 3.94264 13.7397 3.25184 12.1627 2.98024L11.8327 4.71024L13.2027 6.52024C13.2691 6.60544 13.3145 6.70502 13.3354 6.81096C13.3562 6.91691 13.3518 7.02627 13.3227 7.13024L12.5427 10.3902C12.516 10.503 12.4631 10.6079 12.3885 10.6964C12.3138 10.785 12.2194 10.8548 12.1128 10.9002L9.05276 12.1202L7.26272 14.1202C7.17817 14.2101 7.07607 14.2815 6.96273 14.3302L4.31271 15.2702L1.51272 18.8802C1.98272 24.2602 3.42275 34.0002 7.73275 40.9802C7.90102 41.3073 8.17686 41.5665 8.51382 41.714C8.85077 41.8615 9.22824 41.8885 9.58273 41.7902C10.0004 41.6546 10.3619 41.3853 10.6113 41.0238C10.8607 40.6624 10.9842 40.2289 10.9627 39.7902V35.1902C10.9627 31.5402 13.6227 28.5802 16.8927 28.5802V28.5902Z" fill="black"/>
<path d="M29.1628 29.7C26.2257 29.7 23.3546 28.8291 20.9125 27.1973C18.4705 25.5656 16.5671 23.2463 15.4432 20.5329C14.3192 17.8194 14.0251 14.8335 14.5981 11.9529C15.1711 9.0723 16.5854 6.42628 18.6622 4.34947C20.739 2.27266 23.3851 0.858336 26.2657 0.285345C29.1463 -0.287645 32.1322 0.00643468 34.8456 1.1304C37.5591 2.25436 39.8783 4.15772 41.5101 6.59979C43.1418 9.04186 44.0128 11.913 44.0128 14.85C44.0101 18.7877 42.4447 22.5633 39.6604 25.3476C36.8761 28.132 33.1004 29.6974 29.1628 29.7ZM29.1628 1.47001C26.5141 1.47001 23.9248 2.25557 21.7227 3.72733C19.5205 5.19908 17.8042 7.2909 16.7911 9.73819C15.7779 12.1855 15.5133 14.8783 16.0308 17.4759C16.5482 20.0736 17.8245 22.4595 19.6981 24.3317C21.5717 26.2039 23.9586 27.4784 26.5566 27.9939C29.1547 28.5095 31.8473 28.2429 34.2938 27.2279C36.7403 26.2129 38.8309 24.4951 40.301 22.2918C41.7711 20.0885 42.5548 17.4987 42.5528 14.85C42.5501 11.3005 41.1382 7.89726 38.6274 5.38831C36.1166 2.87936 32.7123 1.47001 29.1628 1.47001Z" fill="black"/>
<path d="M23.1528 24.9801C23.0148 24.9827 22.8791 24.9444 22.7628 24.8701C21.0865 23.795 19.7074 22.3157 18.7522 20.5683C17.797 18.821 17.2964 16.8615 17.2964 14.8701C17.2964 12.8787 17.797 10.9192 18.7522 9.1718C19.7074 7.42441 21.0865 5.94517 22.7628 4.87007C22.925 4.76822 23.1207 4.7342 23.3078 4.77535C23.4949 4.81651 23.6583 4.92954 23.7628 5.09007C23.8145 5.17002 23.8499 5.25943 23.8668 5.35314C23.8838 5.44685 23.882 5.54299 23.8615 5.636C23.8411 5.729 23.8023 5.81703 23.7476 5.89497C23.6929 5.97291 23.6233 6.03923 23.5428 6.09007C22.0643 7.03128 20.8471 8.3302 20.0038 9.86665C19.1606 11.4031 18.7185 13.1274 18.7185 14.8801C18.7185 16.6327 19.1606 18.357 20.0038 19.8935C20.8471 21.4299 22.0643 22.7289 23.5428 23.6701C23.674 23.7563 23.7739 23.8825 23.8276 24.03C23.8814 24.1775 23.8862 24.3384 23.8412 24.4889C23.7963 24.6393 23.7041 24.7713 23.5783 24.8652C23.4525 24.959 23.2998 25.0099 23.1428 25.0101L23.1528 24.9801Z" fill="black"/>
<path d="M35.1827 24.9801C35.0596 24.9835 34.9377 24.9549 34.829 24.8971C34.7203 24.8392 34.6285 24.7541 34.5627 24.6501C34.4608 24.4878 34.4269 24.2921 34.468 24.105C34.5092 23.9179 34.6222 23.7545 34.7827 23.6501C36.2612 22.7088 37.4784 21.4099 38.3217 19.8735C39.1649 18.337 39.607 16.6127 39.607 14.8601C39.607 13.1074 39.1649 11.3831 38.3217 9.84663C37.4784 8.31018 36.2612 7.01126 34.7827 6.07005C34.7022 6.01921 34.6325 5.95289 34.5778 5.87495C34.5231 5.79701 34.4845 5.70898 34.464 5.61598C34.4435 5.52297 34.4417 5.42683 34.4586 5.33312C34.4756 5.23941 34.5109 5.15 34.5627 5.07005C34.6672 4.90952 34.8306 4.79649 35.0176 4.75533C35.2047 4.71418 35.4005 4.7482 35.5627 4.85005C37.239 5.92515 38.6181 7.40439 39.5733 9.15178C40.5285 10.8992 41.0291 12.8586 41.0291 14.8501C41.0291 16.8415 40.5285 18.8009 39.5733 20.5483C38.6181 22.2957 37.239 23.775 35.5627 24.8501C35.4514 24.9296 35.3193 24.9748 35.1827 24.9801Z" fill="black"/>
</svg>
