<svg viewBox="0 0 33 44" fill="none" xmlns="http://www.w3.org/2000/svg">
<path d="M20.8492 6.01987H20.6592C18.8188 5.54381 17.1097 4.65846 15.6592 3.42986C15.5173 3.29725 15.4339 3.11372 15.4273 2.91962C15.4207 2.72552 15.4916 2.53676 15.6242 2.39487C15.7568 2.25298 15.9403 2.16958 16.1344 2.16302C16.3285 2.15645 16.5173 2.22726 16.6592 2.35987C17.9289 3.42206 19.4177 4.1904 21.0192 4.60987C21.2045 4.66149 21.3625 4.78329 21.4596 4.94944C21.5567 5.11559 21.5852 5.31303 21.5392 5.49987C21.4945 5.6487 21.4034 5.77939 21.2793 5.87292C21.1552 5.96644 21.0046 6.01792 20.8492 6.01987Z" fill="black"/>
<path d="M22.8591 29.47H9.49915C7.53949 29.46 5.64819 28.7486 4.16782 27.4645C2.68745 26.1804 1.7159 24.4086 1.42915 22.47L0.149146 13.39C-0.173538 11.3098 0.0292813 9.18183 0.739143 7.2C1.41747 5.15269 2.70922 3.36364 4.43912 2.07561C6.16902 0.787574 8.25332 0.0629281 10.4092 0C12.4965 0.00503532 14.5254 0.68953 16.1892 1.95C17.8498 0.690937 19.8751 0.00647905 21.9591 0C24.1163 0.0623308 26.2021 0.786597 27.9338 2.07457C29.6654 3.36254 30.959 5.1519 31.6391 7.2C32.349 9.18183 32.5518 11.3098 32.2291 13.39L30.9392 22.46C30.6543 24.4021 29.6823 26.1776 28.1996 27.4639C26.7169 28.7503 24.822 29.4621 22.8591 29.47ZM10.3991 1.47C8.54023 1.539 6.7471 2.17604 5.2613 3.2953C3.7755 4.41457 2.66842 5.96229 2.08915 7.73C1.4697 9.48662 1.29449 11.3692 1.57914 13.21L2.86915 22.27C3.10339 23.8641 3.90089 25.3215 5.11716 26.3781C6.33344 27.4348 7.88801 28.0208 9.49915 28.03H22.8591C24.4703 28.0208 26.0249 27.4348 27.2411 26.3781C28.4574 25.3215 29.2549 23.8641 29.4891 22.27L30.7792 13.21C31.0638 11.3692 30.8886 9.48662 30.2691 7.73C29.6893 5.96073 28.5807 4.41192 27.0929 3.29251C25.6051 2.17311 23.8098 1.53699 21.9491 1.47C19.999 1.49131 18.1188 2.19949 16.6391 3.47C16.51 3.58188 16.345 3.64346 16.1741 3.64346C16.0033 3.64346 15.8382 3.58188 15.7091 3.47C14.2332 2.19075 12.3521 1.47516 10.3991 1.45V1.47Z" fill="black"/>
<path d="M8.25916 10.1499C8.06555 10.1499 7.87988 10.073 7.74298 9.93607C7.60608 9.79916 7.52917 9.61348 7.52917 9.41988V6.60988C7.52917 6.41627 7.60608 6.23059 7.74298 6.09369C7.87988 5.95679 8.06555 5.87988 8.25916 5.87988C8.45276 5.87988 8.63846 5.95679 8.77536 6.09369C8.91226 6.23059 8.98917 6.41627 8.98917 6.60988V9.41988C8.98917 9.61348 8.91226 9.79916 8.77536 9.93607C8.63846 10.073 8.45276 10.1499 8.25916 10.1499Z" fill="black"/>
<path d="M9.66913 8.74956H6.84915C6.65554 8.74956 6.46985 8.67264 6.33295 8.53574C6.19605 8.39883 6.11914 8.21317 6.11914 8.01956C6.11914 7.82595 6.19605 7.64027 6.33295 7.50337C6.46985 7.36647 6.65554 7.28955 6.84915 7.28955H9.66913C9.86274 7.28955 10.0484 7.36647 10.1853 7.50337C10.3222 7.64027 10.3991 7.82595 10.3991 8.01956C10.3991 8.21317 10.3222 8.39883 10.1853 8.53574C10.0484 8.67264 9.86274 8.74956 9.66913 8.74956Z" fill="black"/>
<path d="M21.3492 43.0198H11.0091C10.8302 43.0212 10.6569 42.9567 10.5224 42.8387C10.3878 42.7207 10.3012 42.5574 10.2792 42.3798L8.67915 28.8198C8.66712 28.7182 8.67601 28.6152 8.70525 28.5172C8.73448 28.4192 8.78346 28.3282 8.84917 28.2498C8.91975 28.1746 9.00492 28.1145 9.09947 28.0732C9.19403 28.0319 9.29599 28.0104 9.39915 28.0098H22.9592C23.0618 28.009 23.1634 28.0301 23.2572 28.0718C23.351 28.1135 23.4348 28.1747 23.5029 28.2514C23.5711 28.3281 23.6221 28.4185 23.6525 28.5165C23.6829 28.6146 23.692 28.718 23.6792 28.8198L22.0692 42.3798C22.0494 42.5566 21.9649 42.7198 21.832 42.8379C21.699 42.9561 21.527 43.0209 21.3492 43.0198ZM11.6592 41.5698H20.6592L22.1492 29.4698H10.2192L11.6592 41.5698Z" fill="black"/>
<path d="M11.6391 33.1199C10.6391 33.1199 9.94915 33.0599 9.84915 33.0599C9.65554 33.0413 9.47722 32.9466 9.35345 32.7966C9.22967 32.6465 9.17058 32.4535 9.18914 32.2599C9.20771 32.0663 9.30242 31.888 9.45245 31.7642C9.60248 31.6404 9.79552 31.5813 9.98913 31.5999C10.0691 31.5999 17.9891 32.2799 22.3391 28.5999C22.4869 28.4853 22.673 28.4318 22.8591 28.4504C23.0452 28.469 23.217 28.5583 23.3391 28.6999C23.4561 28.8467 23.5111 29.0334 23.4925 29.2202C23.4738 29.407 23.3829 29.5791 23.2391 29.6999C19.7391 32.6699 14.3991 33.1199 11.6391 33.1199Z" fill="black"/>
<path d="M11.6291 37.03C11.0391 37.03 10.5591 37.03 10.2191 37.03C10.1232 37.0263 10.029 37.0031 9.94219 36.962C9.85543 36.9208 9.77794 36.8625 9.71438 36.7905C9.65081 36.7185 9.6025 36.6344 9.57238 36.5432C9.54226 36.452 9.53096 36.3556 9.53915 36.26C9.54425 36.1654 9.56798 36.0727 9.60897 35.9873C9.64996 35.9019 9.70737 35.8254 9.77798 35.7622C9.84858 35.6991 9.93098 35.6504 10.0204 35.6192C10.1098 35.5879 10.2045 35.5746 10.2991 35.58C11.5591 35.65 17.9891 35.85 21.9691 32.9C22.0448 32.8311 22.1341 32.779 22.2312 32.7469C22.3283 32.7148 22.431 32.7034 22.5328 32.7136C22.6346 32.7237 22.7331 32.7551 22.8219 32.8058C22.9108 32.8564 22.988 32.9252 23.0485 33.0076C23.1091 33.09 23.1517 33.1842 23.1735 33.2842C23.1954 33.3841 23.196 33.4875 23.1753 33.5876C23.1546 33.6878 23.1131 33.7825 23.0535 33.8656C22.9938 33.9487 22.9174 34.0183 22.8291 34.07C19.3291 36.67 14.3391 37.03 11.6291 37.03Z" fill="black"/>
<path d="M11.5891 40.9396H10.7391C10.5464 40.9318 10.3643 40.8491 10.2316 40.709C10.099 40.5689 10.0264 40.3825 10.0291 40.1896C10.0303 40.0925 10.0512 39.9965 10.0904 39.9076C10.1297 39.8188 10.1865 39.7387 10.2576 39.6724C10.3286 39.6061 10.4123 39.5548 10.5036 39.5216C10.595 39.4885 10.6921 39.4742 10.7891 39.4796C12.7891 39.5496 17.9191 39.4796 21.4891 37.1096C21.5691 37.0526 21.6598 37.0123 21.7558 36.9912C21.8517 36.9701 21.9509 36.9685 22.0475 36.9867C22.1441 37.0048 22.236 37.0422 22.3177 37.0967C22.3994 37.1512 22.4694 37.2217 22.5232 37.3038C22.5771 37.386 22.6138 37.4782 22.6312 37.5749C22.6486 37.6715 22.6463 37.7708 22.6245 37.8665C22.6026 37.9623 22.5616 38.0527 22.504 38.1323C22.4464 38.2119 22.3733 38.279 22.2891 38.3296C18.8091 40.5896 14.1491 40.9396 11.5891 40.9396Z" fill="black"/>
</svg>
