<svg viewBox="0 0 44 44" fill="none" xmlns="http://www.w3.org/2000/svg">
<path d="M22.0783 30.4398C18.7205 30.4367 15.4835 29.187 12.9947 26.9329C10.506 24.6788 8.94281 21.581 8.60827 18.2399C8.59862 18.1452 8.60782 18.0496 8.63534 17.9586C8.66285 17.8675 8.70814 17.7828 8.76858 17.7093C8.82901 17.6359 8.90339 17.5751 8.98745 17.5306C9.0715 17.486 9.16354 17.4586 9.25826 17.4499C9.45048 17.4303 9.64264 17.4877 9.79259 17.6095C9.94255 17.7314 10.0381 17.9077 10.0583 18.0999C10.2906 20.4272 11.1936 22.637 12.6576 24.4611C14.1216 26.2851 16.0836 27.645 18.3055 28.3755C20.5274 29.106 22.9136 29.1758 25.1743 28.5764C27.4351 27.977 29.4733 26.7342 31.0414 24.9988C32.6095 23.2634 33.6401 21.1102 34.0081 18.8004C34.3761 16.4906 34.0656 14.1237 33.1144 11.987C32.1632 9.85023 30.6121 8.03559 28.6495 6.76334C26.6869 5.49108 24.3972 4.81593 22.0583 4.81985C21.8647 4.81985 21.679 4.74295 21.5421 4.60605C21.4052 4.46915 21.3283 4.28345 21.3283 4.08984C21.3283 3.89624 21.4052 3.71057 21.5421 3.57367C21.679 3.43677 21.8647 3.35986 22.0583 3.35986C25.6493 3.35986 29.0933 4.78638 31.6325 7.32562C34.1717 9.86487 35.5983 13.3088 35.5983 16.8998C35.5983 20.4909 34.1717 23.9348 31.6325 26.4741C29.0933 29.0133 25.6493 30.4398 22.0583 30.4398H22.0783Z" fill="black"/>
<path d="M20.8982 4.86984C20.7184 4.85931 20.5488 4.78266 20.4221 4.65463C20.2954 4.5266 20.2205 4.35623 20.2118 4.1763C20.2031 3.99637 20.2613 3.81957 20.3751 3.67993C20.4889 3.54029 20.6503 3.44767 20.8282 3.41986C21.2416 3.37986 21.6516 3.35986 22.0583 3.35986C22.1541 3.35986 22.249 3.37875 22.3376 3.41544C22.4262 3.45212 22.5066 3.50588 22.5744 3.57367C22.6422 3.64146 22.696 3.72192 22.7327 3.81049C22.7694 3.89905 22.7883 3.99398 22.7883 4.08984C22.7883 4.18571 22.7694 4.28063 22.7327 4.3692C22.696 4.45777 22.6422 4.53826 22.5744 4.60605C22.5066 4.67384 22.4262 4.7276 22.3376 4.76428C22.249 4.80097 22.1541 4.81985 22.0583 4.81985C21.6883 4.81985 21.3282 4.81985 20.9582 4.81985L20.8982 4.86984Z" fill="black"/>
<path d="M10.1083 13.0601C10.0223 13.0752 9.93429 13.0752 9.84829 13.0601C9.75833 13.0268 9.67591 12.976 9.60589 12.9104C9.53586 12.8449 9.47964 12.766 9.44051 12.6785C9.40139 12.5909 9.38014 12.4964 9.37804 12.4005C9.37594 12.3046 9.39302 12.2093 9.42827 12.1201C9.72519 11.333 10.0969 10.5762 10.5383 9.86011C10.647 9.71346 10.8066 9.61283 10.9858 9.57807C11.165 9.54331 11.3507 9.57693 11.5063 9.67231C11.6619 9.76769 11.7762 9.91789 11.8265 10.0933C11.8768 10.2688 11.8596 10.4567 11.7783 10.6201C11.3863 11.2558 11.0517 11.9251 10.7783 12.6201C10.7228 12.7516 10.6294 12.8636 10.5102 12.942C10.3909 13.0203 10.251 13.0614 10.1083 13.0601ZM14.3383 7.42011C14.2257 7.4205 14.1145 7.39446 14.0138 7.34409C13.9131 7.29373 13.8255 7.22043 13.7583 7.1301C13.6482 6.9775 13.6014 6.78831 13.6275 6.602C13.6536 6.41568 13.7506 6.24663 13.8983 6.1301C14.5679 5.62512 15.2806 5.18009 16.0283 4.80012C16.202 4.7126 16.4034 4.69766 16.5881 4.75861C16.7728 4.81956 16.9257 4.95138 17.0133 5.1251C17.1008 5.29881 17.1157 5.50019 17.0548 5.68491C16.9938 5.86964 16.862 6.02259 16.6883 6.11011C16.0165 6.44351 15.3771 6.83853 14.7783 7.29011C14.65 7.38094 14.4953 7.42667 14.3383 7.42011Z" fill="black"/>
<path d="M9.32831 18.8998C9.14797 18.8981 8.97462 18.8298 8.84167 18.7079C8.70873 18.5861 8.62559 18.4193 8.60831 18.2398C8.60831 17.8298 8.54833 17.4198 8.53833 17.0098C8.53833 16.8162 8.61523 16.6305 8.75214 16.4936C8.88904 16.3567 9.0747 16.2798 9.26831 16.2798C9.46192 16.2798 9.64761 16.3567 9.78452 16.4936C9.92142 16.6305 9.99832 16.8162 9.99832 17.0098C9.99865 17.3773 10.0187 17.7445 10.0583 18.1098C10.0779 18.302 10.0205 18.4941 9.89865 18.6441C9.77681 18.7941 9.60048 18.8896 9.40833 18.9098L9.32831 18.8998Z" fill="black"/>
<path d="M5.41825 38.8701C5.32255 38.8714 5.22766 38.8525 5.13978 38.8146C5.05189 38.7767 4.97301 38.7206 4.90827 38.6501C4.77874 38.5159 4.70634 38.3366 4.70634 38.1501C4.70634 37.9636 4.77874 37.7843 4.90827 37.6501L9.65827 32.9001L6.10825 29.3501L1.35825 34.1001C1.30157 34.1959 1.22373 34.2775 1.13068 34.3386C1.03764 34.3997 0.931856 34.4387 0.821419 34.4526C0.710981 34.4666 0.598818 34.4551 0.493508 34.419C0.388197 34.3829 0.292525 34.3233 0.213814 34.2446C0.135103 34.1659 0.0754378 34.0702 0.0393754 33.9649C0.00331305 33.8596 -0.00819374 33.7474 0.00574505 33.637C0.0196838 33.5265 0.0586913 33.4207 0.119789 33.3277C0.180887 33.2347 0.262454 33.1568 0.358254 33.1001L5.61826 27.8401C5.75571 27.7009 5.94266 27.6218 6.13825 27.6201C6.23377 27.6201 6.32831 27.6395 6.41602 27.6774C6.50373 27.7152 6.58276 27.7706 6.64826 27.8401L11.1982 32.3501C11.3278 32.4843 11.4002 32.6636 11.4002 32.8501C11.4002 33.0367 11.3278 33.2159 11.1982 33.3501L5.89826 38.6501C5.77189 38.7816 5.60034 38.8602 5.41825 38.8701Z" fill="black"/>
<path d="M12.5383 34.9002C12.2662 34.9031 11.9964 34.8506 11.7454 34.7457C11.4943 34.6408 11.2673 34.4858 11.0782 34.2902L4.68826 27.9002C4.49566 27.7079 4.34284 27.4795 4.23859 27.2282C4.13433 26.9768 4.08069 26.7073 4.08069 26.4352C4.08069 26.163 4.13433 25.8936 4.23859 25.6422C4.34284 25.3908 4.49566 25.1624 4.68826 24.9702L6.76825 22.8902C6.85173 22.8059 6.95475 22.7435 7.06815 22.7086C7.18155 22.6737 7.30181 22.6674 7.41824 22.6902C7.5352 22.7088 7.6454 22.7572 7.73822 22.8308C7.83104 22.9044 7.90337 23.0006 7.94824 23.1102C8.71769 24.8652 9.80613 26.4623 11.1583 27.8202C12.5136 29.1754 14.1113 30.2642 15.8683 31.0302C15.9779 31.075 16.0741 31.1474 16.1476 31.2402C16.2212 31.333 16.2696 31.4432 16.2883 31.5602C16.3111 31.6766 16.3047 31.7969 16.2698 31.9103C16.2349 32.0237 16.1726 32.1267 16.0883 32.2102L14.0082 34.2902C13.8156 34.4838 13.5865 34.6374 13.3342 34.7421C13.0819 34.8468 12.8114 34.9005 12.5383 34.9002ZM7.06827 24.6502L5.71826 26.0002C5.60406 26.1162 5.54004 26.2724 5.54004 26.4352C5.54004 26.5979 5.60406 26.7542 5.71826 26.8702L12.1082 33.2602C12.2254 33.372 12.3812 33.4345 12.5432 33.4345C12.7053 33.4345 12.861 33.372 12.9782 33.2602L14.3282 31.9102C11.2079 30.3098 8.66863 27.7705 7.06827 24.6502Z" fill="black"/>
<path d="M22.0883 30.4302C21.6905 30.4236 21.2933 30.3969 20.8983 30.3502C20.7345 30.3362 20.5803 30.2674 20.4605 30.1549C20.3407 30.0424 20.2624 29.8927 20.2383 29.7302C19.924 27.5771 19.7503 25.4059 19.7183 23.2302C19.7183 18.5202 23.1483 14.6802 27.3683 14.6802C28.8419 14.6841 30.2767 15.1531 31.4683 16.0202C32.4217 15.3315 33.5319 14.8916 34.6982 14.7402C34.894 14.718 35.0909 14.7717 35.2483 14.8902C35.3233 14.9501 35.3857 15.0242 35.4321 15.1083C35.4784 15.1924 35.5077 15.2848 35.5182 15.3802C35.7247 17.2689 35.531 19.1799 34.9498 20.9888C34.3687 22.7977 33.413 24.464 32.1451 25.879C30.8773 27.294 29.3255 28.4262 27.5911 29.2017C25.8566 29.9773 23.9782 30.3788 22.0782 30.3802L22.0883 30.4302ZM21.6183 28.9702C23.2881 29.0343 24.9531 28.7509 26.5078 28.1381C28.0624 27.5252 29.4729 26.5962 30.6499 25.4098C31.8268 24.2235 32.7446 22.8057 33.3451 21.2462C33.9455 19.6867 34.2156 18.0195 34.1382 16.3502C33.3293 16.5723 32.5786 16.9682 31.9383 17.5102C31.8066 17.6165 31.6425 17.6745 31.4733 17.6745C31.304 17.6745 31.1399 17.6165 31.0082 17.5102C29.9974 16.6415 28.7111 16.1595 27.3783 16.1502C23.9583 16.1502 21.1783 19.3302 21.1783 23.2402C21.2141 25.1571 21.361 27.0703 21.6183 28.9702Z" fill="black"/>
<path d="M36.6883 43.3501C36.4751 43.3497 36.2631 43.3194 36.0583 43.2601C35.5181 43.0933 35.048 42.753 34.7208 42.292C34.3936 41.831 34.2275 41.275 34.2483 40.7101V37.6001C34.3122 37.1987 34.2884 36.7883 34.1783 36.3971C34.0683 36.0059 33.8747 35.6432 33.6109 35.334C33.3471 35.0248 33.0193 34.7766 32.6503 34.6063C32.2813 34.4361 31.8797 34.3479 31.4733 34.3479C31.0669 34.3479 30.6653 34.4361 30.2963 34.6063C29.9272 34.7766 29.5995 35.0248 29.3357 35.334C29.0719 35.6432 28.8783 36.0059 28.7683 36.3971C28.6582 36.7883 28.6343 37.1987 28.6983 37.6001V40.7101C28.7208 41.2754 28.5553 41.8322 28.2279 42.2936C27.9004 42.7549 27.4293 43.0948 26.8883 43.2601C26.3937 43.3984 25.867 43.3673 25.3922 43.1715C24.9174 42.9758 24.5217 42.6268 24.2683 42.1801C22.6435 39.3905 21.4977 36.3484 20.8783 33.1801C20.8524 33.0722 20.8525 32.9598 20.8786 32.852C20.9047 32.7442 20.956 32.6441 21.0283 32.5601C21.0965 32.4728 21.185 32.4035 21.286 32.3581C21.3871 32.3128 21.4977 32.2929 21.6083 32.3001C23.7438 32.3701 25.8705 31.9947 27.853 31.1978C29.8355 30.4009 31.6303 29.1998 33.1231 27.6712C34.616 26.1426 35.7742 24.3199 36.5241 22.3191C37.2739 20.3183 37.5988 18.1834 37.4783 16.0501C37.4722 15.9249 37.4985 15.8003 37.5545 15.6882C37.6106 15.5761 37.6945 15.4803 37.7983 15.4101C37.9024 15.3375 38.0238 15.2938 38.1502 15.2832C38.2767 15.2727 38.4036 15.2958 38.5183 15.3501C39.9699 16.0843 41.1832 17.2156 42.017 18.6124C42.8508 20.0091 43.2708 21.6139 43.2283 23.2401C43.2283 23.7101 43.2283 34.8801 38.6783 42.1901C38.4755 42.5393 38.1855 42.8298 37.8366 43.0332C37.4878 43.2365 37.0921 43.3457 36.6883 43.3501ZM31.4783 32.9201C32.658 32.9848 33.7644 33.5128 34.5566 34.3894C35.3489 35.2659 35.7628 36.4199 35.7083 37.6001V40.7101C35.6862 40.9581 35.7481 41.2064 35.8842 41.415C36.0202 41.6235 36.2224 41.7803 36.4583 41.8601C36.6501 41.918 36.8562 41.9056 37.0396 41.8249C37.223 41.7442 37.3715 41.6006 37.4583 41.4201C41.7483 34.4201 41.7883 23.3401 41.7883 23.2301C41.8129 22.0899 41.5718 20.9595 41.0841 19.9286C40.5963 18.8976 39.8754 17.9943 38.9783 17.2901C38.8703 21.6226 37.106 25.7489 34.0483 28.8201C30.9937 31.8964 26.8626 33.6643 22.5283 33.7501C23.1262 36.4463 24.1382 39.0337 25.5283 41.4201C25.6167 41.5993 25.7654 41.7415 25.9482 41.822C26.1311 41.9025 26.3365 41.916 26.5283 41.8601C26.7651 41.7806 26.9685 41.6242 27.1062 41.4158C27.2439 41.2075 27.308 40.9591 27.2883 40.7101V37.6001C27.2389 36.4308 27.6501 35.2887 28.4336 34.4193C29.217 33.5499 30.3102 33.0224 31.4783 32.9501V32.9201Z" fill="black"/>
<path d="M22.0783 33.8C18.1684 33.8001 14.3794 32.4444 11.357 29.964C8.33456 27.4836 6.26566 24.032 5.50283 20.1972C4.74 16.3625 5.33044 12.3818 7.17352 8.93357C9.0166 5.48532 11.9983 2.7828 15.6106 1.2865C19.2228 -0.209791 23.2422 -0.407282 26.9837 0.727666C30.7253 1.86261 33.9576 4.2598 36.1298 7.51075C38.3021 10.7617 39.2799 14.6653 38.8967 18.5563C38.5135 22.4474 36.793 26.0853 34.0283 28.85C32.4623 30.4238 30.5999 31.6715 28.5488 32.5212C26.4976 33.3708 24.2984 33.8055 22.0783 33.8ZM22.0783 1.46C18.5089 1.462 15.0506 2.70146 12.2925 4.9672C9.53442 7.23294 7.64716 10.3848 6.95223 13.8859C6.2573 17.387 6.79768 21.0208 8.48132 24.1681C10.165 27.3155 12.8877 29.7818 16.1857 31.1469C19.4838 32.5121 23.1531 32.6916 26.5686 31.6548C29.9841 30.6181 32.9346 28.4293 34.9174 25.4612C36.9001 22.4932 37.7925 18.9295 37.4426 15.3773C37.0927 11.8251 35.5221 8.50412 32.9983 5.98002C31.5651 4.54509 29.8627 3.40718 27.9888 2.63154C26.1149 1.85589 24.1063 1.45776 22.0783 1.46Z" fill="black"/>
<path d="M22.1083 11.48C21.9147 11.48 21.729 11.4031 21.5921 11.2662C21.4552 11.1293 21.3783 10.9436 21.3783 10.75V8.75C21.3783 8.65413 21.3972 8.55921 21.4338 8.47064C21.4705 8.38207 21.5243 8.30161 21.5921 8.23383C21.6599 8.16604 21.7404 8.11225 21.8289 8.07556C21.9175 8.03888 22.0124 8.02002 22.1083 8.02002C22.2041 8.02002 22.2991 8.03888 22.3876 8.07556C22.4762 8.11225 22.5567 8.16604 22.6245 8.23383C22.6923 8.30161 22.746 8.38207 22.7827 8.47064C22.8194 8.55921 22.8383 8.65413 22.8383 8.75V10.75C22.8383 10.9436 22.7614 11.1293 22.6245 11.2662C22.4876 11.4031 22.3019 11.48 22.1083 11.48Z" fill="black"/>
<path d="M23.1283 10.46H21.1283C21.0325 10.46 20.9375 10.4411 20.849 10.4044C20.7604 10.3678 20.6799 10.314 20.6121 10.2462C20.5443 10.1784 20.4906 10.0979 20.4539 10.0094C20.4172 9.9208 20.3983 9.82588 20.3983 9.73001C20.3983 9.63415 20.4172 9.53922 20.4539 9.45065C20.4906 9.36209 20.5443 9.28159 20.6121 9.21381C20.6799 9.14602 20.7604 9.09226 20.849 9.05557C20.9375 9.01889 21.0325 9 21.1283 9H23.1283C23.2242 9 23.3191 9.01889 23.4077 9.05557C23.4963 9.09226 23.5767 9.14602 23.6445 9.21381C23.7123 9.28159 23.766 9.36209 23.8027 9.45065C23.8394 9.53922 23.8583 9.63415 23.8583 9.73001C23.8583 9.82588 23.8394 9.9208 23.8027 10.0094C23.766 10.0979 23.7123 10.1784 23.6445 10.2462C23.5767 10.314 23.4963 10.3678 23.4077 10.4044C23.3191 10.4411 23.2242 10.46 23.1283 10.46Z" fill="black"/>
<path d="M15.2783 18.6499C15.0847 18.6499 14.899 18.573 14.7621 18.4361C14.6252 18.2992 14.5483 18.1136 14.5483 17.92V15.92C14.5483 15.8241 14.5672 15.7292 14.6039 15.6406C14.6405 15.552 14.6943 15.4715 14.7621 15.4037C14.8299 15.336 14.9104 15.2822 14.9989 15.2455C15.0875 15.2088 15.1824 15.1899 15.2783 15.1899C15.3742 15.1899 15.4691 15.2088 15.5576 15.2455C15.6462 15.2822 15.7267 15.336 15.7945 15.4037C15.8623 15.4715 15.916 15.552 15.9527 15.6406C15.9894 15.7292 16.0083 15.8241 16.0083 15.92V17.92C16.0083 18.1136 15.9314 18.2992 15.7945 18.4361C15.6576 18.573 15.4719 18.6499 15.2783 18.6499Z" fill="black"/>
<path d="M16.2983 17.6299H14.2983C14.1047 17.6299 13.919 17.553 13.7821 17.4161C13.6452 17.2792 13.5683 17.0935 13.5683 16.8999C13.5683 16.7063 13.6452 16.5206 13.7821 16.3837C13.919 16.2468 14.1047 16.1699 14.2983 16.1699H16.2983C16.4919 16.1699 16.6776 16.2468 16.8145 16.3837C16.9514 16.5206 17.0283 16.7063 17.0283 16.8999C17.0283 17.0935 16.9514 17.2792 16.8145 17.4161C16.6776 17.553 16.4919 17.6299 16.2983 17.6299Z" fill="black"/>
</svg>
