<svg viewBox="0 0 24 29.17" xmlns="http://www.w3.org/2000/svg">
  <path d="M23.65 13.52a3 3 0 00-1.43-.62h-.06l-2.41-.14V7.25a.49.49 0 00-.36-.46l-.56-1.15V.49a.49.49 0 00-.49-.49.48.48 0 00-.48.49v5.15l-.56 1.15a.48.48 0 00-.36.46v5.6a2.66 2.66 0 00-.87-.51.49.49 0 00-.29.93 1.74 1.74 0 01.54.33c.35.3.72.61 1.1.9a19.2 19.2 0 011.48 1.2 14.44 14.44 0 011.16 2.3.25.25 0 01-.2.22.47.47 0 01-.48-.26c-.15-.26-.6-1-.62-1a.57.57 0 00-.16-.15s-1.6-1-2.36-1.49c-.18-.7-.35-1.28-.47-1.62a2 2 0 00-.42-.72l-.18-.2a2.16 2.16 0 00-2-.72l-.54.08a.49.49 0 00-.41.56v.07a2.4 2.4 0 00-1.39-.45H7.15a.47.47 0 00-.41.23l-4.82 7.84-1.82 2.3a.48.48 0 00.09.68.46.46 0 00.3.11.5.5 0 00.38-.19L2.7 21l4.69-7.66h3.45a1.43 1.43 0 011.11.52 1.46 1.46 0 01.34.76l.49 3.68a1.58 1.58 0 01-.24 1h-.14a.88.88 0 01-.54-.65L11 14.74a.51.51 0 00-.27-.32.5.5 0 00-.43 0 1.57 1.57 0 01-1.34 0 .49.49 0 00-.67.16.48.48 0 00.15.67 2.25 2.25 0 001.74.2l.81 3.24a1.88 1.88 0 001.16 1.33 1.11 1.11 0 001-.11 2.33 2.33 0 00.64-1.78.13.13 0 000-.06 7.46 7.46 0 00.36 1c.06.12.12.25.17.37a2.55 2.55 0 00.83 1.21l-.64.14a.49.49 0 10.17 1 24.44 24.44 0 003.13-.91c.69-.23 1.35-.45 1.73-.53a1.62 1.62 0 011.58.47.58.58 0 01.16.4.29.29 0 01-.13.18 2.31 2.31 0 01-.78.26 4 4 0 00-.64.16l-3.85 1.29a31.1 31.1 0 00-3.35 1.36 10.89 10.89 0 01-2.36.77 14.3 14.3 0 00-6.27 3 .48.48 0 00-.1.68.47.47 0 00.39.19.52.52 0 00.29-.09 13.29 13.29 0 015.89-2.87 12.39 12.39 0 002.58-.84 30.38 30.38 0 013.24-1.32L20 22.76a4 4 0 01.52-.13 3 3 0 001.12-.41 1.18 1.18 0 00.55-.84 1.5 1.5 0 00-.37-1.16 2.5 2.5 0 00-2.53-.8 6.25 6.25 0 00-.64.17v-1a1.42 1.42 0 001.1.57 1.33 1.33 0 00.28 0A1.2 1.2 0 0021 18a9.84 9.84 0 00-1.18-2.57.47.47 0 00.37.18H22c1.39-.09 1.84-.59 2-1a1 1 0 00-.35-1.09zm-9 4a14.05 14.05 0 00-.82-2.12.48.48 0 00-.42-.26l-.1-.77a2.57 2.57 0 00-.56-1.26s-.07-.05-.09-.09a.38.38 0 00.15 0l.54-.08a1.2 1.2 0 011.11.4l.18.2a1.23 1.23 0 01.23.4 25 25 0 011.09 5v.78a.25.25 0 01-.1.2c-.26-.05-.39-.29-.62-.83-.06-.14-.12-.29-.19-.42a7.88 7.88 0 01-.42-1.11zM17.48 20l-.68.23a1.12 1.12 0 00.09-.41 7.26 7.26 0 000-.89 17.42 17.42 0 00-.34-2.24l1.13.7v2.54zm.43-12.24h.86v2.41h-.86zm0 5.9v-2.54h.86v3.2L18 13.7zm1.84 1.58v-.07a.2.2 0 000 .11zm2.17-.62h-1.7a.48.48 0 00-.47.43v-1.3l2.32.13a2.06 2.06 0 01.94.39s-.28.27-1.09.33z"/>
</svg>
