<svg viewBox="0 0 27 22.93" xmlns="http://www.w3.org/2000/svg">
  <path d="M26.84 15.78a3.67 3.67 0 00-3.22-3.53q-1.77-.23-3.54-.36v-1.37a.68.68 0 00-.68-.68h-3.11a.68.68 0 00-.68.68v1.14H11.55v-1.14a.67.67 0 00-.68-.68h-3.1a.67.67 0 00-.68.68v1.39c-1.3.1-2.59.24-3.88.4a3.67 3.67 0 00-3.19 4v.07a3.3 3.3 0 000 .45l.17 3.5a3 3 0 00.76 1.87.86.86 0 00.14.13c.16.13.44.37 3 .37h1a28.33 28.33 0 002.91.11.72.72 0 00.39-.12 2.11 2.11 0 001 .24h2.79a2 2 0 001.36-.52 2.07 2.07 0 001.36.52h2.8a2.11 2.11 0 001-.24.72.72 0 00.39.12 24.36 24.36 0 002.91-.12h1c2.48 0 2.76-.23 2.92-.37a.89.89 0 00.14-.13 2.91 2.91 0 00.76-1.87l.18-3.5a2.65 2.65 0 00-.16-1.04zM17 11.2h1.75v.59c-.58 0-1.17-.06-1.75-.09zm-8.53 0h1.73v.52l-1.76.1zm-5 2.47A80.06 80.06 0 0114 13a79.25 79.25 0 019.48.6 2.3 2.3 0 011.74 1.18 8 8 0 00-2.53 1.52c-.07-.22-.13-.42-.19-.59a1.76 1.76 0 00-1.39-1.19 3.4 3.4 0 00-2.46 1.43l-.06-.22A2.34 2.34 0 0016.43 14h-.27A2.4 2.4 0 0014 15.78l-.47 1.67-.47-1.67A2.38 2.38 0 0010.91 14h-.27a2.33 2.33 0 00-2.13 1.7l-.09.3c-.8-.85-1.89-1.6-2.49-1.52a1.74 1.74 0 00-1.39 1.22c-.06.15-.12.34-.18.54a7.68 7.68 0 00-2.66-1.49 2.3 2.3 0 011.69-1.09zm16.08 5.28l-.39-1.39a4.13 4.13 0 011.85-1.69.4.4 0 01.25.28c.12.34.33.95.51 1.57a10.59 10.59 0 01.23 1.36 10.94 10.94 0 010 2.21 19.47 19.47 0 01-2.38.13 2.09 2.09 0 00.07-.51 7.65 7.65 0 00-.22-1.97zM5.24 21.36h-.27a10.12 10.12 0 010-2.21 20.61 20.61 0 01.84-2.94.47.47 0 01.19-.34 5.55 5.55 0 012 1.75L7.6 19a7.56 7.56 0 00-.26 2 2.72 2.72 0 00.08.51c-.84-.07-1.69-.1-2.18-.15zm-3.7-1.09l-.18-3.48a1.37 1.37 0 010-.3.73.73 0 01.15-.38 8.57 8.57 0 012.4 1.55 10.18 10.18 0 00-.29 1.24 11.47 11.47 0 000 2.47 12.82 12.82 0 01-1.71-.11 1.6 1.6 0 01-.37-.99zm10.63 1.31H9.38a.68.68 0 01-.68-.66 6.24 6.24 0 01.2-1.62l.92-3.21a1 1 0 01.88-.72h.15a1 1 0 01.91.78l.89 3.14a6.88 6.88 0 01.21 1.63.69.69 0 01-.69.66zm5.52 0h-2.8a.68.68 0 01-.68-.66 5.87 5.87 0 01.21-1.62l.89-3.15a1 1 0 01.91-.78h.14a1 1 0 01.89.72l.91 3.2a6.4 6.4 0 01.21 1.63.68.68 0 01-.68.66zm7.78-1.31a1.72 1.72 0 01-.36 1 13.64 13.64 0 01-1.71.1 11.56 11.56 0 000-2.47 10.59 10.59 0 00-.27-1.18 9 9 0 012.39-1.61l.06.08v.07a1.37 1.37 0 01.07.53zM1.12 5.77a3 3 0 002.51.58c1.27-.28 2.56-.5 3.85-.67V7.2a1.15 1.15 0 00.37.85l.65.63a1.17 1.17 0 00.82.32 1.19 1.19 0 00.82-.33l.65-.63a1.19 1.19 0 00.37-.85V5.35c.66 0 1.33-.06 2-.06.95 0 1.91 0 2.86.07V7.2a1.18 1.18 0 00.36.85l.66.63a1.17 1.17 0 001.63 0l.66-.63a1.18 1.18 0 00.36-.85V5.72c1.19.17 2.37.38 3.55.63a2.8 2.8 0 00.64.08 3 3 0 001.86-.66 3 3 0 001.12-2.33V.68a.68.68 0 10-1.36 0v2.76a1.62 1.62 0 01-.61 1.27 1.6 1.6 0 01-1.37.29c-1.39-.31-2.8-.54-4.21-.72a.65.65 0 00-.31-.05h-.15a47.52 47.52 0 00-5.71-.32A48.66 48.66 0 008 4.24 46.13 46.13 0 003.34 5a1.63 1.63 0 01-2-1.59V.68A.68.68 0 000 .68v2.76a3 3 0 001.12 2.33zm17.21 1.35l-.48.46-.49-.46V5.46l1 .09zm-8.53 0l-.48.46-.48-.46v-1.6l1-.09z"/>
</svg>
