<svg viewBox="0 0 33 28.8" xmlns="http://www.w3.org/2000/svg">
  <path d="M33 7.44a.63.63 0 00-.68-.51l-6.95.54a.68.68 0 00-.45.23l-5.55 6.55a1.23 1.23 0 00-1.55.26l-4.93 5.82a1.24 1.24 0 00-.29.88 1.2 1.2 0 00.29.68L9 26.42a.65.65 0 00.07.91l1.46 1.31a.67.67 0 00.43.16.64.64 0 00.45-.23L15.34 24a1.22 1.22 0 00.76.27 1.19 1.19 0 00.92-.42L22 18a1.21 1.21 0 00-.14-1.7l-1.46-1.24 5.37-6.34 1.94-.15-1.49.55a.56.56 0 00-.27.19l-4.68 5.51a.65.65 0 00.08.92.61.61 0 00.42.16.66.66 0 00.5-.23l4.56-5.39 5.74-2.08a.66.66 0 00.43-.76zM17.8 20.92l-1.16-3 1.29-1.52 1.26 2.9zm-6.88 6.29l-.49-.43 3.42-4 .5.42zm5.17-4.27l-1.7-1.45a.74.74 0 00-.16-.2.94.94 0 00-.22-.12l-.08-.07 1.75-2.1 1.16 3zm4.05-4.77l-1.07-2.46 1.83 1.55zM13.64 9.85a1.2 1.2 0 00-.33-.73l2.2-2.59a3.93 3.93 0 012.37-1.35 6 6 0 003 1.08h.67c2.26 0 4.06-1.11 4.21-2.7a2.79 2.79 0 00-1.26-2.41 5.93 5.93 0 00-3-1.12C19-.2 17 .85 16.62 2.45a5.92 5.92 0 00-3.36 2L11 7.14a1.21 1.21 0 00-1.55.25L.41 18a1.74 1.74 0 00.2 2.44l1.3 1.1a1.73 1.73 0 002.44-.2l9-10.62a1.16 1.16 0 00.29-.87zm7.69-8.52a4.75 4.75 0 012.38.86 1.62 1.62 0 01.73 1.27C24.36 4.32 22.92 5.14 21 5a4.75 4.75 0 01-2.38-.86 1.72 1.72 0 01-.72-1V2.83c.1-.83 1.5-1.68 3.43-1.5zm-7.07 4a4.54 4.54 0 012.48-1.51 2.3 2.3 0 00.15.32 5.1 5.1 0 00-2.38 1.6l-2.19 2.53L12 8zm-5 8.31l-1-2.8 1.28-1.5L10.6 12zm-2.13 2.42L6 13.45 7.26 12l1 2.79zm-2 2.38L4 15.83l1.08-1.27 1.14 2.61zm-2 2.21a.38.38 0 01-.31-.1l-1.3-1.1a.41.41 0 01-.15-.29.4.4 0 01.1-.31L3 16.94l1.14 2.61-.81.95a.43.43 0 01-.26.15zm8.48-9.81l-.91-2.28L12.3 10z"/>
</svg>
