<svg viewBox="0 0 141 31" fill="none" xmlns="http://www.w3.org/2000/svg">
<path fill-rule="evenodd" clip-rule="evenodd" d="M20.3644 29.9885L17.8392 24.2494L18.6978 22.2885L20.9706 27.4608L30.9378 4.70202H24.1137L13.0258 29.9885H11.811L0 3.14115C1.92928 3.14115 3.8567 3.14263 5.78675 3.14263L6.43155 4.70256H2.4167L12.4172 27.4608L15.8269 19.6752C13.4023 14.1641 10.968 8.65647 8.55326 3.14111H33.3517L21.579 29.9885H20.3645H20.3644ZM137.278 10.8428H133.291V21.5399V21.9355H132.893H132.316H131.918V21.5399V10.8428H127.931H127.533V10.4472V9.92387V9.52826H127.931H137.278H137.677V9.92387V10.4472V10.8428H137.278ZM137.834 0.423301C137.084 0.423301 136.444 0.688949 135.911 1.21879C135.383 1.74717 135.119 2.38355 135.119 3.13089C135.119 3.8826 135.382 4.52483 135.907 5.05467C136.436 5.58451 137.078 5.85016 137.834 5.85016C138.589 5.85016 139.231 5.58451 139.76 5.05467C140.288 4.52483 140.553 3.8826 140.553 3.13089C140.553 2.38358 140.288 1.74717 139.76 1.21879C139.228 0.688949 138.587 0.423301 137.834 0.423301H137.834ZM141 3.13089C141 4.00082 140.691 4.74231 140.073 5.35827C139.457 5.97423 138.71 6.2822 137.834 6.2822C136.957 6.2822 136.213 5.9742 135.598 5.35827C134.986 4.74522 134.68 4.00228 134.68 3.13089C134.68 2.26679 134.988 1.52824 135.606 0.91519C136.22 0.305085 136.963 0 137.834 0C138.71 0 139.457 0.305053 140.073 0.91519C140.691 1.5253 141 2.26387 141 3.13089H141ZM138.662 2.44634C138.662 2.19529 138.584 2.02741 138.431 1.94132C138.276 1.85665 138.031 1.81288 137.691 1.81288H137.17V3.0623H137.722C137.981 3.0623 138.175 3.03603 138.303 2.98495C138.543 2.89151 138.662 2.71199 138.662 2.44634H138.662ZM137.773 1.39834C138.204 1.39834 138.52 1.44066 138.722 1.52242C139.081 1.6713 139.26 1.96176 139.26 2.39526C139.26 2.70325 139.147 2.9295 138.919 3.07544C138.798 3.15134 138.631 3.20828 138.416 3.24183C138.688 3.28415 138.888 3.39654 139.015 3.57901C139.141 3.76147 139.204 3.941 139.204 4.1147V4.36576C139.204 4.44605 139.207 4.53215 139.213 4.62267C139.218 4.71461 139.228 4.77447 139.243 4.80219L139.265 4.84597H138.691C138.688 4.83429 138.685 4.82261 138.682 4.81093C138.679 4.79925 138.676 4.78757 138.673 4.77298L138.662 4.66204V4.38763C138.662 3.98914 138.551 3.72495 138.334 3.59651C138.204 3.52207 137.978 3.48557 137.653 3.48557H137.17V4.84593H136.558V1.39831H137.773L137.773 1.39834ZM41.5015 29.6963V29.696C41.6495 29.638 41.7778 29.5528 41.883 29.4609L42.0419 29.3224V29.5321V29.9257V29.9784L41.9954 30.0064C41.9023 30.0625 41.7821 30.1269 41.6356 30.1767C41.4867 30.2273 41.3094 30.2639 41.1031 30.2639C40.6261 30.2639 40.2094 30.101 39.9125 29.823C39.6173 29.5468 39.4408 29.1571 39.4408 28.7016C39.4408 28.2432 39.6153 27.8543 39.9082 27.5788C40.2039 27.3006 40.6193 27.1392 41.0968 27.1392C41.3335 27.1392 41.5203 27.1745 41.6669 27.2227L41.6672 27.2222C41.8142 27.2702 41.9222 27.3335 42.0007 27.3878L42.0419 27.4164V27.4652V27.8336V28.0169L41.8913 27.9112C41.7175 27.7893 41.576 27.7178 41.4525 27.6779C41.3323 27.6391 41.2264 27.6289 41.122 27.6289C40.7884 27.6289 40.5236 27.7415 40.3399 27.9228C40.1416 28.1181 40.0347 28.3963 40.0347 28.7016C40.0347 29.0229 40.1461 29.2871 40.3273 29.4719C40.5169 29.6652 40.7852 29.7744 41.0843 29.7744C41.2381 29.7744 41.3777 29.7442 41.5015 29.6962V29.6963ZM44.5907 30.1516H44.2131H44.1175V30.0567V27.7413H43.2444H43.1488V27.6464V27.3465V27.2516H43.2444H45.5597H45.6554V27.3465V27.6464V27.7413H45.5597H44.6863V30.0567V30.1516H44.5907H44.5907ZM49.5886 29.8233C49.3095 30.0993 48.9167 30.264 48.4559 30.264C47.9953 30.264 47.602 30.0991 47.3231 29.8233C47.0405 29.5439 46.8753 29.1515 46.8753 28.7017C46.8753 28.2517 47.0405 27.8594 47.3231 27.5799C47.602 27.3042 47.9953 27.1393 48.4559 27.1393C48.9167 27.1393 49.3095 27.304 49.5886 27.5799C49.8712 27.8592 50.0363 28.2515 50.0363 28.7017C50.0363 29.1515 49.8712 29.5441 49.5886 29.8233ZM47.7494 29.4689C47.5772 29.2831 47.4692 29.0195 47.4692 28.7017C47.4692 28.3838 47.5772 28.1203 47.7494 27.9344C47.9296 27.7401 48.1822 27.629 48.4559 27.629C48.7295 27.629 48.9822 27.7401 49.1624 27.9344C49.3346 28.1202 49.4425 28.3838 49.4425 28.7017C49.4425 29.0195 49.3346 29.2831 49.1624 29.4689C48.9822 29.6634 48.7295 29.7746 48.4559 29.7746C48.1822 29.7746 47.9296 29.6634 47.7494 29.4689ZM51.7925 30.1516H51.4148H51.296L51.3216 30.0363L51.9697 27.1264L52.0307 26.8536L52.1494 27.1067L53.1827 29.3075L54.21 27.1071L54.329 26.8528L54.3898 27.1263L55.0378 30.0363L55.0637 30.1516H54.9447H54.5669H54.4891L54.4737 30.0751L54.1405 28.4325L53.2694 30.2717L53.1833 30.4535L53.0967 30.2719L52.2192 28.4316L51.8859 30.0751L51.8706 30.1516H51.7925L51.7925 30.1516ZM58.397 27.2586C58.5183 27.3172 58.6374 27.4019 58.7454 27.5234V27.3465V27.2516H58.841H59.1934H59.289V27.3465V30.0567V30.1516H59.1934H58.841H58.7454V30.0567V29.8847C58.6636 29.9708 58.5715 30.0418 58.4728 30.0981C58.2765 30.21 58.0539 30.264 57.8344 30.264C57.383 30.264 57.0096 30.0976 56.746 29.8256C56.4717 29.5424 56.3168 29.1443 56.3168 28.7017C56.3168 28.2515 56.4742 27.8587 56.7458 27.5795C57.0141 27.304 57.3931 27.1393 57.8408 27.1393C58.0065 27.1393 58.2038 27.1649 58.397 27.2584V27.2586V27.2586ZM57.1788 29.4811C57.0066 29.2841 56.9107 29.0049 56.9107 28.7017C56.9107 28.3878 57.0108 28.1173 57.179 27.9269C57.3442 27.7402 57.5773 27.629 57.8471 27.629C58.1107 27.629 58.3293 27.7419 58.4836 27.9234C58.6505 28.1195 58.7454 28.397 58.7454 28.7017C58.7454 29.029 58.6497 29.2968 58.4902 29.4821C58.3288 29.6692 58.0991 29.7746 57.8344 29.7746C57.5602 29.7746 57.3361 29.6615 57.1788 29.4811V29.4811ZM62.1272 30.1516H61.7497H61.6541V30.0567V27.7414H60.7809H60.6853V27.6465V27.3465V27.2516H60.7809H63.0963H63.1919V27.3465V27.6465V27.7414H63.0963H62.2228V30.0567V30.1516H62.1272H62.1272ZM67.1252 29.8234C66.8461 30.0994 66.4532 30.264 65.9924 30.264C65.5319 30.264 65.1385 30.0991 64.8597 29.8234C64.5771 29.5439 64.412 29.1515 64.412 28.7017C64.412 28.2518 64.5771 27.8595 64.8597 27.5799C65.1386 27.3042 65.5319 27.1394 65.9924 27.1394C66.4532 27.1394 66.8461 27.304 67.1252 27.5799C67.4077 27.8593 67.5729 28.2516 67.5729 28.7017C67.5729 29.1515 67.4077 29.5441 67.1252 29.8234ZM65.2859 29.4689C65.1138 29.2831 65.0058 29.0195 65.0058 28.7017C65.0058 28.3838 65.1138 28.1203 65.2859 27.9344C65.4661 27.7402 65.7189 27.629 65.9924 27.629C66.266 27.629 66.5187 27.7402 66.699 27.9344C66.8711 28.1203 66.9791 28.3838 66.9791 28.7017C66.9791 29.0195 66.8711 29.2831 66.699 29.4689C66.5188 29.6634 66.2661 29.7746 65.9924 29.7746C65.7188 29.7746 65.4661 29.6634 65.2859 29.4689ZM69.4169 27.2516H71.3422H71.4379V27.3465V30.0568V30.1517H71.3422H70.9648H70.8692V30.0568V27.7414H69.8903V29.2636C69.8903 29.4906 69.8381 29.7146 69.6835 29.8832C69.5304 30.0503 69.2796 30.1582 68.8872 30.1514L68.793 30.1499V30.0568V29.7571V29.6615L68.8896 29.6625C69.0904 29.6648 69.1974 29.6106 69.251 29.5157C69.3118 29.4084 69.3214 29.2402 69.3214 29.039V27.3465V27.2516H69.417H69.4169ZM75.7674 29.8234C75.4883 30.0994 75.0956 30.264 74.6347 30.264C74.1742 30.264 73.7809 30.0991 73.502 29.8234C73.2195 29.5439 73.0543 29.1515 73.0543 28.7017C73.0543 28.2518 73.2195 27.8595 73.502 27.5799C73.7809 27.3042 74.1742 27.1394 74.6347 27.1394C75.0956 27.1394 75.4883 27.304 75.7674 27.5799C76.0501 27.8593 76.2152 28.2516 76.2152 28.7017C76.2152 29.1515 76.05 29.5441 75.7674 29.8234ZM73.9282 29.4689C73.756 29.2831 73.648 29.0195 73.648 28.7017C73.648 28.3838 73.756 28.1203 73.9282 27.9344C74.1084 27.7402 74.3612 27.629 74.6347 27.629C74.9083 27.629 75.1611 27.7402 75.3413 27.9344C75.5133 28.1203 75.6213 28.3838 75.6213 28.7017C75.6213 29.0195 75.5133 29.2831 75.3413 29.4689C75.1611 29.6634 74.9083 29.7746 74.6347 29.7746C74.3612 29.7746 74.1084 29.6634 73.9282 29.4689ZM78.3046 30.1517H77.9272H77.8315V30.0568V27.3465V27.2516H77.9272H79.4497H79.5453V27.3465V27.6465V27.7414H79.4497H78.4003V30.0567V30.1516H78.3046V30.1517ZM80.9415 30.2316V27.3465V27.2516H81.0372H81.4147H81.5103V27.3465V29.0599L83.1987 27.1286L83.3664 26.937V27.1907V30.0568V30.1517H83.2708H82.8932H82.7976V30.0568V28.3624L81.1092 30.2937L80.9415 30.4855V30.2316H80.9415ZM87.1483 30.1517H86.7708H86.6752V30.0568V29.0723C86.5798 29.0843 86.4769 29.096 86.3784 29.1044V29.104C86.2578 29.1145 86.1425 29.1214 86.0537 29.1214C85.6837 29.1214 85.4405 29.0534 85.2849 28.896C85.1286 28.7383 85.0708 28.5017 85.0708 28.1646V27.3466V27.2517H85.1665H85.5439H85.6396V27.3466V28.1646C85.6396 28.3674 85.6659 28.4887 85.7364 28.5522L85.7362 28.5525C85.8085 28.6172 85.9426 28.6382 86.1543 28.6382C86.2296 28.6382 86.3257 28.6327 86.4252 28.6247C86.5104 28.6179 86.5976 28.609 86.6752 28.5998V27.3466V27.2517H86.7708H87.1483H87.2439V27.3466V30.0568V30.1517H87.1483V30.1517ZM90.7703 29.6874C90.9304 29.6077 91.1019 29.4535 91.2419 29.161L91.284 29.0734L91.3708 29.1165L91.6603 29.2599L91.7455 29.3022L91.7027 29.3872C91.5731 29.6445 91.3934 29.8791 91.1468 30.0408H91.1462C90.9349 30.1791 90.6759 30.264 90.3591 30.264C89.9046 30.264 89.5467 30.0911 89.2944 29.8275C89.0093 29.5292 88.8605 29.1139 88.8605 28.7017C88.8605 28.274 89.006 27.8645 89.2853 27.572C89.5384 27.3077 89.8993 27.1394 90.3591 27.1394C90.7893 27.1394 91.1008 27.298 91.3157 27.5229C91.6003 27.8209 91.7132 28.2361 91.7132 28.5519V28.7331V28.828H91.6176H89.4561C89.4687 29.0464 89.5439 29.2706 89.6797 29.4457C89.8266 29.6346 90.0459 29.7681 90.3351 29.7746L90.3592 29.7747V29.7746C90.4598 29.7746 90.6124 29.7658 90.7703 29.6874ZM89.7819 27.8503C89.9332 27.7105 90.1348 27.6291 90.3655 27.6291C90.5941 27.6291 90.7754 27.717 90.9041 27.8496C91.0325 27.9818 91.1114 28.1586 91.1365 28.3382H89.5055C89.5527 28.1403 89.6492 27.9723 89.7819 27.8503ZM95.214 29.6964V29.6961C95.3621 29.6381 95.4904 29.5529 95.5956 29.461L95.7544 29.3225V29.5322V29.9258V29.9785L95.708 30.0065C95.6148 30.0626 95.4947 30.127 95.3481 30.1768C95.1992 30.2274 95.022 30.264 94.8158 30.264C94.3386 30.264 93.922 30.1011 93.625 29.823C93.3299 29.5469 93.1535 29.1572 93.1535 28.7017C93.1535 28.2433 93.3279 27.8544 93.6208 27.5789C93.9164 27.3007 94.3319 27.1393 94.8095 27.1393C95.0462 27.1393 95.2329 27.1746 95.3794 27.2228L95.3797 27.2222C95.5268 27.2703 95.6347 27.3336 95.7133 27.3879L95.7544 27.4165V27.4653V27.8337V28.017L95.6039 27.9113C95.4302 27.7894 95.2886 27.7179 95.1651 27.678C95.0449 27.6392 94.939 27.629 94.8345 27.629C94.501 27.629 94.2363 27.7415 94.0526 27.9229C93.8542 28.1182 93.7473 28.3964 93.7473 28.7017C93.7473 29.023 93.8587 29.2872 94.0399 29.472C94.2294 29.6653 94.4977 29.7745 94.7969 29.7745C94.9507 29.7745 95.0903 29.7443 95.214 29.6963V29.6964ZM97.7307 30.1517H97.3532H97.2576V30.0568V27.3466V27.2517H97.3532H97.7307H97.8263V27.3466V28.3293L98.8838 27.2796L98.9119 27.2517H98.9513H99.4043H99.6405L99.4703 27.4149L98.2244 28.6101L99.5795 29.9908L99.7376 30.1517H99.5112H99.0268H98.9862L98.9578 30.1221L97.8263 28.9391V30.0568V30.1517H97.7307L97.7307 30.1517ZM102.907 27.2587C103.028 27.3172 103.148 27.4019 103.256 27.5235V27.3466V27.2517H103.351H103.703H103.799V27.3466V30.0568V30.1517H103.703H103.351H103.256V30.0568V29.8847C103.174 29.9709 103.082 30.0418 102.983 30.0982C102.787 30.2101 102.564 30.2641 102.344 30.2641C101.893 30.2641 101.52 30.0977 101.256 29.8257C100.982 29.5424 100.827 29.1443 100.827 28.7017C100.827 28.2516 100.984 27.8587 101.256 27.5795C101.524 27.304 101.903 27.1394 102.351 27.1394C102.517 27.1394 102.714 27.165 102.907 27.2584V27.2587V27.2587ZM101.689 29.4811C101.517 29.2841 101.421 29.0049 101.421 28.7018C101.421 28.3878 101.521 28.1174 101.689 27.927C101.854 27.7402 102.087 27.6291 102.357 27.6291C102.621 27.6291 102.839 27.742 102.994 27.9235C103.161 28.1196 103.256 28.3971 103.256 28.7018C103.256 29.0291 103.16 29.2969 103 29.4822C102.839 29.6693 102.609 29.7747 102.344 29.7747C102.07 29.7747 101.846 29.6615 101.689 29.4812L101.689 29.4811ZM105.819 30.1517H105.398H105.218L105.319 30.0038L106.03 28.9555C105.874 28.9142 105.727 28.8337 105.616 28.7112C105.49 28.5722 105.409 28.3806 105.409 28.1335C105.409 27.8998 105.483 27.6515 105.698 27.4759C105.863 27.3408 106.11 27.2516 106.467 27.2516H107.449H107.545V27.3465V30.0568V30.1517H107.449H107.072H106.976V30.0568V29.0153H106.595L105.9 30.1071L105.872 30.1517H105.819L105.819 30.1517ZM106.524 28.5256C106.427 28.5256 106.281 28.5171 106.165 28.4606C106.061 28.4098 105.978 28.3131 105.978 28.1335C105.978 27.9536 106.061 27.8572 106.165 27.8064C106.281 27.7496 106.427 27.7414 106.524 27.7414H106.976V28.5256H106.524ZM111.276 30.1517H110.899H110.803V30.0568V27.3466V27.2517H110.899H111.276H111.372V27.3466V28.3293L112.429 27.2796L112.457 27.2517H112.497H112.95H113.186L113.016 27.4149L111.77 28.6101L113.125 29.9908L113.283 30.1517H113.057H112.572H112.532L112.503 30.1221L111.372 28.9391V30.0568V30.1517H111.276L111.276 30.1517ZM114.776 27.2517H116.702H116.797V27.3466V30.0568V30.1517H116.702H116.324H116.229V30.0568V27.7414H115.25V29.2637C115.25 29.4906 115.197 29.7146 115.043 29.8832C114.89 30.0504 114.639 30.1582 114.247 30.1514L114.152 30.1499V30.0568V29.7571V29.6615L114.249 29.6625C114.45 29.6648 114.557 29.6106 114.61 29.5158C114.671 29.4085 114.681 29.2403 114.681 29.039V27.3466V27.2517H114.776H114.776ZM118.59 30.2316V27.3466V27.2517H118.686H119.063H119.159V27.3466V29.0599L120.847 27.1287L121.015 26.9371V27.1907V30.0568V30.1517H120.919H120.542H120.446V30.0568V28.3624L118.758 30.2937L118.59 30.4856V30.2316H118.59ZM123.28 30.1517H122.903H122.807V30.0568V27.3466V27.2517H122.903H123.28H123.376V27.3466V28.4257H124.72V27.3466V27.2517H124.816H125.193H125.289V27.3466V30.0568V30.1517H125.193H124.816H124.72V30.0568V28.9155H123.376V30.0568V30.1517H123.28ZM127.081 30.2316V27.3466V27.2517H127.177H127.554H127.65V27.3466V29.0599L129.339 27.1287L129.506 26.9371V27.1907V30.0568V30.1517H129.411H129.033H128.937V30.0568V28.3624L127.249 30.2937L127.081 30.4856V30.2316H127.081ZM131.772 30.1517H131.394H131.299V30.0568V27.3466V27.2517H131.394H131.772H131.867V27.3466V28.3293L132.925 27.2796L132.953 27.2517H132.992H133.445H133.682L133.511 27.4149L132.265 28.6101L133.621 29.9908L133.779 30.1517H133.552H133.068H133.027L132.999 30.1221L131.867 28.9391V30.0568V30.1517H131.772L131.772 30.1517ZM136.948 27.2587C137.069 27.3172 137.189 27.4019 137.297 27.5235V27.3466V27.2517H137.392H137.745H137.84V27.3466V30.0568V30.1517H137.745H137.392H137.297V30.0568V29.8847C137.215 29.9709 137.123 30.0418 137.024 30.0982C136.828 30.2101 136.605 30.2641 136.385 30.2641C135.934 30.2641 135.561 30.0977 135.297 29.8257C135.023 29.5424 134.868 29.1443 134.868 28.7017C134.868 28.2516 135.025 27.8587 135.297 27.5795C135.565 27.304 135.944 27.1394 136.392 27.1394C136.558 27.1394 136.755 27.165 136.948 27.2584V27.2587V27.2587ZM135.73 29.4811C135.558 29.2841 135.462 29.0049 135.462 28.7018C135.462 28.3878 135.562 28.1174 135.73 27.927C135.895 27.7402 136.128 27.6291 136.398 27.6291C136.662 27.6291 136.88 27.742 137.035 27.9235C137.202 28.1196 137.297 28.3971 137.297 28.7018C137.297 29.0291 137.201 29.2969 137.041 29.4822C136.88 29.6693 136.65 29.7747 136.385 29.7747C136.111 29.7747 135.887 29.6615 135.73 29.4812L135.73 29.4811ZM39.2413 21.5401V15.0862V14.6906H39.6398H40.2169H40.6155V15.0862V16.1381H44.5194C44.699 16.1381 44.867 16.1196 45.0223 16.0835C45.1744 16.0481 45.3187 15.9941 45.4535 15.9231L45.454 15.9244C45.5945 15.8496 45.7255 15.7624 45.8441 15.6646C45.9628 15.5664 46.0717 15.4553 46.1695 15.3324V15.3309C46.2705 15.2047 46.3604 15.0697 46.4379 14.9277C46.5155 14.7855 46.5832 14.6316 46.6401 14.4666L46.6407 14.4668C46.6967 14.3044 46.7388 14.14 46.7664 13.9756C46.7938 13.8142 46.8076 13.6466 46.8076 13.4742C46.8076 13.3003 46.7915 13.1314 46.76 12.9692C46.7278 12.8051 46.6791 12.6424 46.6145 12.4837C46.5489 12.3211 46.4717 12.1694 46.3844 12.0294C46.2986 11.8912 46.1986 11.7596 46.0865 11.6361C45.9764 11.5148 45.8573 11.4054 45.7308 11.3093C45.6029 11.2119 45.4658 11.1262 45.3212 11.0534H45.3197C45.1809 10.9834 45.0361 10.9306 44.8868 10.8955C44.7381 10.8606 44.5826 10.843 44.4204 10.843H40.6154V11.5868V11.9823H40.2168H39.6398H39.2413V11.5868V9.92403V9.52842H39.6398H44.437C44.7076 9.52842 44.9701 9.55805 45.2236 9.61711C45.4748 9.67547 45.718 9.76454 45.9524 9.8839C46.1791 9.99945 46.3902 10.1321 46.5834 10.2805C46.7781 10.43 46.9584 10.5978 47.1242 10.7836C47.2894 10.969 47.4368 11.166 47.5643 11.373C47.6913 11.5793 47.8025 11.8007 47.8966 12.0366C47.992 12.2747 48.0632 12.5126 48.1099 12.7483C48.1579 12.9907 48.182 13.2328 48.182 13.4742C48.182 13.725 48.1596 13.9738 48.1159 14.219C48.0723 14.4631 48.0055 14.7053 47.9177 14.9437C47.8306 15.179 47.7252 15.4028 47.6017 15.615C47.479 15.8257 47.3371 16.0245 47.1785 16.2093C47.0209 16.3928 46.8452 16.5608 46.6527 16.7117C46.4627 16.861 46.2564 16.9922 46.0363 17.1045L46.0365 17.1053C45.5824 17.3367 45.082 17.4528 44.5359 17.4528H40.6154V21.54V21.9356H40.2168H39.6398H39.2413V21.54L39.2413 21.5401ZM39.0016 13.0622H38.9466L38.9187 13.1101L38.7639 13.3778L38.6818 13.5198H38.8468H40.8499H40.9049L40.9325 13.4719L41.0876 13.2042L41.1699 13.0621H41.005H39.0016V13.0622ZM82.8302 20.6346H83.226L87.9447 9.76805L88.0488 9.52842H88.3104H88.8051H89.067L89.1708 9.76805L94.1985 21.3841L94.4375 21.9357H93.8328H93.2229H92.9606L92.8573 21.6945L88.5578 11.6525L84.7119 20.6346H90.1622H90.3803L90.4749 20.8618L90.7249 21.4619L90.9601 22.0258H90.4121H82.6342H82.1368L82.3107 21.4927L82.5068 20.8927L82.5911 20.6346H82.8303H82.8302ZM54.597 19.5279L61.9568 9.68918L62.0769 9.52842H62.2758H62.7705H63.1691V9.92403V21.5401V21.9357H62.7705H62.1935H61.7949V21.5401V12.0989L54.5503 21.775L54.4301 21.9357H54.2313H53.638H53.2395V21.5401V9.92403V9.52842H53.638H54.1985H54.597V9.92403V19.5279ZM73.4219 9.52842H73.9169H74.179L74.2825 9.76805L79.3101 21.3841L79.5491 21.9357H78.9444H78.3346H78.0723L77.9689 21.6945L73.6676 11.6486L71.5045 16.6453H73.4402H73.7081L73.8092 16.8926L74.0103 17.3833L74.2331 17.9271H73.6413H70.9967L69.3701 21.6945L69.2661 21.9357H69.0044H68.3778H67.7728L68.0122 21.3841L73.0563 9.76809L73.1606 9.52845H73.422L73.4219 9.52842ZM107.603 21.0164V21.5401V21.9357H107.205H99.4733H99.0748V21.5401V9.92403V9.52842H99.4733H107.056H107.455V9.92403V10.4474V10.843H107.056H100.449V14.9437H106.182H106.581V15.3392V15.8631V16.2587H106.182H100.449V20.6209H107.205H107.603V21.0164H107.603ZM122.689 9.92403V21.5401V21.9357H122.291H121.73H121.332V21.5401V16.2587H114.348V21.5401V21.9357H113.95H113.373H112.974V21.5401V9.92403V9.52842H113.373H113.95H114.348V9.92403V14.9437H121.332V9.92403V9.52842H121.73H122.291H122.689V9.92403ZM22.3846 4.70211H10.9701L16.6869 17.7116L22.3845 4.70211H22.3846Z"/>
</svg>
