<svg viewBox="0 0 45 35" fill="none" xmlns="http://www.w3.org/2000/svg">
<path d="M6.38122 33.114C6.26218 33.1126 6.14537 33.0817 6.04122 33.024L1.79122 30.764C1.70583 30.7196 1.63006 30.6588 1.56827 30.585C1.50649 30.5112 1.45992 30.4259 1.43122 30.334C1.4039 30.243 1.39512 30.1474 1.40543 30.053C1.41574 29.9585 1.44491 29.867 1.49122 29.784L10.8112 12.224C11.2041 11.4878 11.873 10.9375 12.6712 10.694C13.4669 10.4506 14.3266 10.5329 15.0616 10.9229C15.7966 11.3129 16.3467 11.9787 16.5912 12.774C16.832 13.5699 16.7493 14.4286 16.3612 15.164L7.03121 32.724C6.96985 32.8431 6.87652 32.9426 6.76169 33.0115C6.64687 33.0804 6.51511 33.1159 6.38122 33.114ZM3.11121 29.824L6.11121 31.394L15.1112 14.484C15.3193 14.0901 15.3625 13.6297 15.2312 13.204C15.1689 12.9907 15.0642 12.7922 14.9233 12.6203C14.7824 12.4485 14.6082 12.3069 14.4112 12.204C14.2171 12.0993 14.0041 12.034 13.7846 12.012C13.5651 11.99 13.3434 12.0117 13.1324 12.0758C12.9213 12.14 12.7251 12.2453 12.5549 12.3858C12.3848 12.5262 12.2442 12.6989 12.1412 12.894L3.11121 29.824Z" fill="black"/>
<path d="M8.23124 29.6342C8.1122 29.6328 7.99537 29.6018 7.89122 29.5442L3.66123 27.2842C3.57423 27.2399 3.49698 27.1787 3.43407 27.104C3.37116 27.0294 3.32384 26.9429 3.29494 26.8497C3.26604 26.7564 3.25613 26.6584 3.2658 26.5612C3.27546 26.4641 3.30452 26.3699 3.35123 26.2842L4.96123 23.2842C5.00531 23.197 5.06666 23.1198 5.14154 23.0571C5.21643 22.9944 5.30328 22.9476 5.39682 22.9195C5.49037 22.8915 5.58864 22.8827 5.68567 22.8938C5.7827 22.905 5.87646 22.9357 5.96123 22.9842L10.2212 25.2442C10.3054 25.2887 10.3798 25.3497 10.4399 25.4236C10.5001 25.4975 10.5447 25.5827 10.5712 25.6742C10.6003 25.7662 10.6109 25.8631 10.6023 25.9592C10.5937 26.0553 10.5662 26.1488 10.5212 26.2342L8.92122 29.2342C8.8574 29.3606 8.7582 29.4657 8.63568 29.5368C8.51317 29.6078 8.37265 29.6416 8.23124 29.6342ZM4.96123 26.3442L7.96123 27.9142L8.88123 26.1942L5.88123 24.6142L4.96123 26.3442Z" fill="black"/>
<path d="M25.0012 14.1239C24.8822 14.1225 24.7654 14.0916 24.6612 14.0339L13.1212 7.90391C12.1507 7.38399 11.4251 6.5013 11.1029 5.44843C10.7806 4.39557 10.8879 3.25799 11.4012 2.28391C11.6569 1.80494 12.0051 1.3815 12.4256 1.03817C12.8462 0.694844 13.3308 0.438465 13.8512 0.283915C14.3734 0.123308 14.9222 0.0671265 15.4661 0.118601C16.01 0.170075 16.5384 0.328185 17.0212 0.583902L28.5612 6.71391C28.6454 6.75844 28.7198 6.81946 28.78 6.89334C28.8401 6.96721 28.8847 7.05243 28.9112 7.14392C28.9403 7.23593 28.9509 7.3328 28.9423 7.42892C28.9337 7.52504 28.9062 7.61851 28.8612 7.70391L25.6612 13.7339C25.5965 13.8523 25.501 13.951 25.3848 14.0196C25.2687 14.0882 25.1362 14.1243 25.0012 14.1239ZM15.0712 1.53391C14.8034 1.53466 14.5372 1.57509 14.2812 1.65391C13.5988 1.86611 13.0278 2.33929 12.6926 2.97045C12.3573 3.60161 12.285 4.33965 12.4912 5.0239C12.6993 5.70942 13.1703 6.28469 13.8012 6.62391L24.6612 12.4039L27.1912 7.64392L16.3012 1.85391C15.9223 1.6516 15.5008 1.54195 15.0712 1.53391Z" fill="black"/>
<path d="M28.9012 14.4041C28.4502 14.4052 28.0063 14.2916 27.6112 14.0741L25.3112 12.8541C25.2251 12.8089 25.1488 12.747 25.0869 12.672C25.025 12.597 24.9787 12.5104 24.9508 12.4172C24.9228 12.324 24.9138 12.2262 24.9242 12.1295C24.9345 12.0328 24.9641 11.9392 25.0112 11.8541L26.9212 8.26406C26.9665 8.17802 27.0283 8.10174 27.103 8.03959C27.1778 7.97744 27.2641 7.93062 27.357 7.90183C27.4499 7.87304 27.5475 7.86284 27.6443 7.8718C27.7411 7.88076 27.8352 7.90872 27.9212 7.95406L30.2112 9.17406C30.8573 9.51988 31.34 10.1076 31.5537 10.8086C31.7674 11.5096 31.6946 12.2666 31.3512 12.9141C31.1839 13.2357 30.9532 13.5203 30.6731 13.7506C30.393 13.9808 30.0692 14.1521 29.7212 14.2541C29.4582 14.3496 29.181 14.4003 28.9012 14.4041ZM26.6612 11.8641L28.3112 12.7341C28.4627 12.8168 28.6293 12.8683 28.8011 12.8854C28.9728 12.9026 29.1463 12.8851 29.3112 12.8341C29.5562 12.7565 29.773 12.6086 29.9346 12.4087C30.0961 12.2089 30.1953 11.9659 30.2199 11.7101C30.2444 11.4543 30.1931 11.1969 30.0724 10.97C29.9518 10.7431 29.767 10.5567 29.5412 10.4341L27.8912 9.55405L26.6612 11.8641Z" fill="black"/>
<path d="M14.7112 12.2941C14.539 12.2958 14.3721 12.2349 14.2415 12.1226C14.1108 12.0104 14.0254 11.8546 14.0012 11.6841L13.3712 7.68406C13.3423 7.49201 13.3901 7.2963 13.5042 7.13916C13.6183 6.98201 13.7897 6.87602 13.9812 6.84407C14.1721 6.81534 14.3666 6.8634 14.5221 6.97772C14.6777 7.09204 14.7816 7.26331 14.8112 7.45407L15.4412 11.4541C15.4699 11.645 15.4219 11.8394 15.3076 11.995C15.1932 12.1505 15.022 12.2545 14.8312 12.2841L14.7112 12.2941Z" fill="black"/>
<path d="M15.7112 15.5539C15.5699 15.5546 15.4316 15.5131 15.3141 15.4347C15.1965 15.3563 15.105 15.2446 15.0512 15.1139C15.0049 15.0249 14.9778 14.927 14.9715 14.8268C14.9652 14.7266 14.98 14.6262 15.0148 14.532C15.0497 14.4379 15.1038 14.352 15.1738 14.28C15.2438 14.208 15.3281 14.1514 15.4212 14.1139L21.9812 11.2339C22.1589 11.1557 22.3604 11.1513 22.5414 11.2216C22.7224 11.2919 22.868 11.4312 22.9462 11.6089C23.0245 11.7866 23.0289 11.9881 22.9586 12.1691C22.8883 12.3501 22.7489 12.4957 22.5712 12.5739L16.0112 15.4539C15.9189 15.5069 15.8169 15.5409 15.7112 15.5539Z" fill="black"/>
<path d="M33.2612 14.634C33.142 14.6339 33.0249 14.6029 32.9212 14.544L30.3612 13.184C30.1999 13.0886 30.0814 12.9348 30.0304 12.7545C29.9794 12.5741 29.9996 12.3811 30.087 12.2153C30.1744 12.0495 30.3223 11.9236 30.4999 11.8638C30.6775 11.804 30.8714 11.8149 31.0412 11.894L33.6012 13.254C33.6874 13.2992 33.7636 13.3611 33.8255 13.4361C33.8874 13.5111 33.9337 13.5977 33.9617 13.6909C33.9896 13.7841 33.9987 13.8819 33.9883 13.9786C33.9779 14.0753 33.9483 14.1689 33.9012 14.254C33.8376 14.3683 33.7449 14.4636 33.6325 14.5304C33.5201 14.5971 33.392 14.6329 33.2612 14.634Z" fill="black"/>
<path d="M13.1112 26.1141C12.6473 26.1164 12.1902 26.003 11.7812 25.7841L10.3112 25.0041C10.2251 24.9588 10.1489 24.897 10.0867 24.8223C10.0246 24.7475 9.97774 24.6612 9.94895 24.5684C9.92016 24.4755 9.90996 24.3778 9.91892 24.281C9.92788 24.1842 9.95584 24.0901 10.0012 24.0041L14.0012 16.4741C14.0444 16.3861 14.1051 16.3079 14.1795 16.2442C14.254 16.1804 14.3407 16.1326 14.4344 16.1036C14.528 16.0746 14.6266 16.065 14.724 16.0754C14.8215 16.0858 14.9158 16.116 15.0012 16.1641L16.4812 16.9541C16.8122 17.1287 17.1054 17.367 17.344 17.6552C17.5825 17.9435 17.7618 18.2761 17.8715 18.6338C17.9811 18.9916 18.019 19.3675 17.9829 19.74C17.9468 20.1124 17.8375 20.474 17.6612 20.8041L15.6612 24.5941C15.4151 25.0559 15.0474 25.4415 14.598 25.7094C14.1485 25.9773 13.6344 26.1173 13.1112 26.1141ZM11.6612 24.0541L12.5012 24.4941C12.8261 24.6676 13.2066 24.705 13.5591 24.5981C13.9116 24.4912 14.2073 24.2488 14.3812 23.9241L16.3812 20.1341C16.4688 19.9734 16.5229 19.7966 16.5401 19.6144C16.5573 19.4322 16.5373 19.2483 16.4812 19.0741C16.3742 18.7209 16.1339 18.4232 15.8112 18.2441L14.9712 17.8041L11.6612 24.0541Z" fill="black"/>
<path d="M9.73124 34.8941C9.6122 34.8926 9.49537 34.8617 9.39122 34.8041L0.391224 30.0341C0.305072 29.989 0.228817 29.927 0.16692 29.852C0.105023 29.777 0.0587286 29.6904 0.0307812 29.5972C0.00283376 29.5041 -0.00620929 29.4063 0.00416987 29.3095C0.014549 29.2128 0.044141 29.1192 0.0912213 29.0341C0.136497 28.9481 0.19829 28.8718 0.27306 28.8096C0.34783 28.7475 0.434112 28.7006 0.526982 28.6719C0.619851 28.6431 0.717489 28.6329 0.814305 28.6418C0.91112 28.6508 1.00521 28.6788 1.09122 28.7241L10.0912 33.4941C10.2386 33.5693 10.3561 33.6924 10.4244 33.8431C10.4927 33.9939 10.5077 34.1634 10.467 34.3238C10.4263 34.4842 10.3323 34.626 10.2005 34.726C10.0686 34.826 9.90667 34.8782 9.74123 34.8741L9.73124 34.8941Z" fill="black"/>
<path d="M37.2312 10.7742C37.1682 10.7838 37.1042 10.7838 37.0412 10.7742C35.9328 10.4805 34.9065 9.93658 34.0412 9.18422C33.9139 9.04884 33.8431 8.87003 33.8431 8.68422C33.8431 8.49841 33.9139 8.3196 34.0412 8.18422C34.1777 8.05913 34.3561 7.98975 34.5412 7.98975C34.7263 7.98975 34.9047 8.05913 35.0412 8.18422C35.754 8.76531 36.5824 9.18801 37.4712 9.42422C37.6471 9.46592 37.8013 9.57141 37.9039 9.72028C38.0065 9.86914 38.0502 10.0508 38.0266 10.23C38.0029 10.4093 37.9136 10.5734 37.7759 10.6905C37.6382 10.8077 37.4619 10.8696 37.2812 10.8642L37.2312 10.7742Z" fill="black"/>
<path d="M38.7912 30.5443C38.6056 30.545 38.4207 30.5215 38.2412 30.4743C37.7696 30.3275 37.3594 30.0297 37.0738 29.6267C36.7883 29.2236 36.6433 28.7379 36.6612 28.2443V25.6743C36.7137 25.3605 36.6971 25.039 36.6128 24.7322C36.5284 24.4255 36.3782 24.1408 36.1726 23.8979C35.967 23.6551 35.711 23.46 35.4223 23.3262C35.1337 23.1924 34.8193 23.123 34.5012 23.123C34.183 23.123 33.8687 23.1924 33.58 23.3262C33.2914 23.46 33.0353 23.6551 32.8298 23.8979C32.6242 24.1408 32.474 24.4255 32.3896 24.7322C32.3052 25.039 32.2887 25.3605 32.3412 25.6743V28.2443C32.3568 28.7388 32.2097 29.2247 31.9224 29.6276C31.6352 30.0304 31.2238 30.3279 30.7512 30.4743C30.3169 30.5991 29.8531 30.5731 29.4354 30.4006C29.0178 30.228 28.6709 29.9192 28.4512 29.5243C26.0212 25.5943 25.1312 20.3243 24.8112 16.6043C24.8033 16.5084 24.8144 16.4119 24.8438 16.3204C24.8732 16.2288 24.9203 16.1439 24.9826 16.0705C25.0448 15.9972 25.1208 15.9368 25.2064 15.8928C25.2919 15.8488 25.3853 15.8222 25.4812 15.8143C25.5771 15.8064 25.6735 15.8175 25.7651 15.8469C25.8567 15.8763 25.9416 15.9235 26.0149 15.9857C26.0883 16.0479 26.1487 16.1239 26.1926 16.2095C26.2366 16.295 26.2633 16.3884 26.2712 16.4843C26.5212 19.3943 27.2712 24.8743 29.6912 28.7543C29.7444 28.8776 29.8408 28.9773 29.9624 29.0344C30.084 29.0915 30.2223 29.1021 30.3512 29.0643C30.5186 29.0068 30.6619 28.8947 30.758 28.746C30.8541 28.5973 30.8975 28.4206 30.8812 28.2443V25.6743C30.8354 25.1719 30.8948 24.6654 31.0556 24.1873C31.2165 23.7091 31.4752 23.2697 31.8154 22.8972C32.1555 22.5246 32.5696 22.227 33.0311 22.0234C33.4927 21.8198 33.9917 21.7146 34.4962 21.7146C35.0007 21.7146 35.4996 21.8198 35.9612 22.0234C36.4228 22.227 36.8368 22.5246 37.177 22.8972C37.5171 23.2697 37.7759 23.7091 37.9367 24.1873C38.0976 24.6654 38.157 25.1719 38.1112 25.6743V28.2443C38.0949 28.4206 38.1382 28.5973 38.2343 28.746C38.3304 28.8947 38.4737 29.0068 38.6412 29.0643C38.7715 29.1026 38.9113 29.0924 39.0345 29.0353C39.1578 28.9783 39.2561 28.8784 39.3112 28.7543C42.8312 23.0443 42.8612 13.9143 42.8612 13.8243C42.8612 10.6643 40.6212 8.09428 37.8612 8.09428C36.79 8.10337 35.7563 8.48926 34.9412 9.18428C34.8121 9.29616 34.647 9.35774 34.4762 9.35774C34.3054 9.35774 34.1403 9.29616 34.0112 9.18428C33.29 8.57617 32.4003 8.20286 31.4612 8.11429C31.2806 8.08408 31.1179 7.98709 31.0055 7.84258C30.893 7.69806 30.839 7.51657 30.8541 7.33408C30.8692 7.15159 30.9523 6.98144 31.087 6.85738C31.2217 6.73331 31.3981 6.66438 31.5812 6.66428C32.6242 6.74952 33.6254 7.11204 34.4812 7.71428C35.4683 7.01183 36.6497 6.63434 37.8612 6.63428C41.4112 6.63428 44.3012 9.86429 44.3012 13.8143C44.3012 14.2043 44.3012 23.4543 40.5312 29.5243C40.3515 29.8279 40.0975 30.0809 39.7931 30.2593C39.4887 30.4377 39.1439 30.5358 38.7912 30.5443Z" fill="black"/>
</svg>
