<svg viewBox="0 0 37 44" fill="none" xmlns="http://www.w3.org/2000/svg">
<path d="M23.3899 6.41015C23.3304 6.42004 23.2695 6.42004 23.21 6.41015C21.1765 5.90178 19.281 4.94894 17.66 3.62017C17.589 3.55451 17.5317 3.47552 17.4914 3.38772C17.451 3.29992 17.4283 3.20503 17.4246 3.10845C17.4171 2.91342 17.4873 2.72338 17.6199 2.58016C17.7526 2.43695 17.9366 2.35228 18.1317 2.34478C18.3267 2.33728 18.5167 2.40755 18.66 2.54016C20.1106 3.70583 21.7955 4.54491 23.5999 5.00015C23.7669 5.0494 23.9108 5.15673 24.0057 5.30276C24.1005 5.44879 24.14 5.62391 24.1171 5.7965C24.0942 5.9691 24.0103 6.12782 23.8806 6.24401C23.7509 6.36021 23.584 6.42624 23.4099 6.43017L23.3899 6.41015Z" fill="black"/>
<path d="M9.92 43.1C9.35955 43.0937 8.81 42.9444 8.32347 42.6661C7.83694 42.3878 7.42957 41.9899 7.14 41.51C4.31 37.07 3.94 33.67 3.52 29.73C3.4 28.63 3.28001 27.49 3.10001 26.27C1.54648 23.8826 0.592738 21.1553 0.319992 18.32C-7.92742e-06 14.98 0 12.78 0 12.69C0 5.69 5.23999 0 11.68 0C14.0095 0.00629474 16.2762 0.756029 18.15 2.14001C20.0285 0.757762 22.2977 0.0083386 24.63 0C31.06 0 36.3 5.69 36.3 12.69C36.3 12.78 36.3 14.98 35.98 18.32C35.7154 21.1555 34.7647 23.884 33.21 26.27C33.02 27.49 32.9 28.63 32.78 29.73C32.36 33.67 31.99 37.07 29.17 41.51C28.8008 42.1275 28.2377 42.6056 27.5685 42.8697C26.8992 43.1338 26.1614 43.169 25.47 42.97C24.7251 42.7371 24.0768 42.2671 23.6237 41.6317C23.1706 40.9962 22.9375 40.2301 22.96 39.45V34.69C23.0287 34.0178 22.9555 33.3387 22.7453 32.6966C22.5351 32.0544 22.1925 31.4635 21.7396 30.9621C21.2868 30.4606 20.7338 30.0597 20.1163 29.7854C19.4988 29.511 18.8307 29.3692 18.155 29.3692C17.4793 29.3692 16.8112 29.511 16.1937 29.7854C15.5762 30.0597 15.0232 30.4606 14.5703 30.9621C14.1175 31.4635 13.7749 32.0544 13.5647 32.6966C13.3545 33.3387 13.2813 34.0178 13.35 34.69V39.45C13.3681 40.2268 13.133 40.9883 12.6802 41.6197C12.2274 42.2511 11.5815 42.718 10.84 42.95C10.542 43.0433 10.2322 43.0938 9.92 43.1ZM11.64 1.45001C6 1.45001 1.42 6.5 1.42 12.69C1.42 12.69 1.42 14.92 1.73 18.19C1.98363 20.8388 2.887 23.384 4.36 25.6C4.42175 25.6862 4.4628 25.7854 4.48 25.89C4.67 27.21 4.79999 28.41 4.92999 29.57C5.34999 33.49 5.68 36.57 8.33 40.72C8.52256 41.0776 8.83287 41.3577 9.20833 41.5126C9.58379 41.6675 10.0013 41.6878 10.39 41.57C10.8341 41.4287 11.2186 41.1438 11.4829 40.7599C11.7472 40.3761 11.8764 39.9153 11.85 39.45V34.69C11.7905 33.8308 11.9084 32.9686 12.1963 32.1569C12.4842 31.3452 12.936 30.6014 13.5236 29.9717C14.1111 29.342 14.822 28.8399 15.6118 28.4966C16.4017 28.1534 17.2538 27.9762 18.115 27.9762C18.9763 27.9762 19.8283 28.1534 20.6182 28.4966C21.408 28.8399 22.1189 29.342 22.7064 29.9717C23.294 30.6014 23.7458 31.3452 24.0337 32.1569C24.3216 32.9686 24.4395 33.8308 24.38 34.69V39.45C24.3519 39.9156 24.4803 40.3773 24.7449 40.7614C25.0095 41.1456 25.395 41.4302 25.84 41.57C26.2288 41.6858 26.6455 41.6646 27.0206 41.5099C27.3956 41.3552 27.706 41.0763 27.9 40.72C30.54 36.58 30.9 33.49 31.29 29.57C31.42 28.41 31.55 27.21 31.75 25.89C31.7591 25.785 31.7972 25.6846 31.86 25.6C33.333 23.384 34.2364 20.8388 34.49 18.19C34.8 14.91 34.8 12.71 34.8 12.69C34.8 6.5 30.22 1.45001 24.59 1.45001C22.399 1.46611 20.2803 2.23589 18.59 3.63C18.4584 3.73218 18.2966 3.78766 18.13 3.78766C17.9634 3.78766 17.8016 3.73218 17.67 3.63C15.973 2.22721 13.8418 1.45673 11.64 1.45001Z" fill="black"/>
<path d="M18.15 26.2001C16.3082 26.202 14.5072 25.6577 12.9749 24.6359C11.4425 23.6141 10.2477 22.1608 9.54151 20.4598C8.83532 18.7588 8.64954 16.8865 9.00763 15.0799C9.36573 13.2733 10.2516 11.6135 11.5533 10.3105C12.8549 9.00743 14.5137 8.11974 16.32 7.7597C18.1262 7.39966 19.9987 7.58345 21.7004 8.28781C23.4022 8.99217 24.8568 10.1854 25.8803 11.7167C26.9037 13.2479 27.45 15.0483 27.45 16.8901C27.4473 19.3567 26.467 21.7217 24.7237 23.4668C22.9805 25.2119 20.6166 26.1948 18.15 26.2001ZM18.15 9.05008C16.5969 9.05008 15.0788 9.51074 13.7877 10.3737C12.4966 11.2368 11.4904 12.4633 10.8965 13.8983C10.3027 15.3333 10.1478 16.9122 10.4515 18.4352C10.7552 19.9582 11.5039 21.357 12.6027 22.4544C13.7016 23.5518 15.1012 24.2987 16.6246 24.6005C18.148 24.9022 19.7267 24.7453 21.161 24.1497C22.5952 23.554 23.8205 22.5463 24.6819 21.254C25.5432 19.9618 26.0019 18.4431 25.9999 16.8901C25.9973 14.8099 25.1691 12.8157 23.6972 11.3457C22.2253 9.87573 20.2302 9.05008 18.15 9.05008Z" fill="black"/>
<path d="M20.1 22.4698H16.2C16.1041 22.4698 16.0092 22.451 15.9206 22.4143C15.832 22.3776 15.7515 22.3238 15.6838 22.256C15.616 22.1882 15.5622 22.1078 15.5255 22.0192C15.4888 21.9306 15.47 21.8357 15.47 21.7398V19.5698H13.3C13.1063 19.5698 12.9207 19.4929 12.7838 19.356C12.6469 19.2191 12.5699 19.0335 12.5699 18.8398V14.9498C12.5699 14.7562 12.6469 14.5706 12.7838 14.4337C12.9207 14.2968 13.1063 14.2198 13.3 14.2198H15.47V12.0498C15.47 11.8562 15.5469 11.6705 15.6838 11.5336C15.8207 11.3967 16.0063 11.3198 16.2 11.3198H20.1C20.2936 11.3198 20.4792 11.3967 20.6161 11.5336C20.753 11.6705 20.83 11.8562 20.83 12.0498V14.2198H22.9999C23.1935 14.2198 23.3792 14.2968 23.5161 14.4337C23.653 14.5706 23.7299 14.7562 23.7299 14.9498V18.8498C23.7299 19.0434 23.653 19.2291 23.5161 19.366C23.3792 19.5029 23.1935 19.5798 22.9999 19.5798H20.83V21.7498C20.83 21.8452 20.811 21.9397 20.7742 22.0277C20.7374 22.1157 20.6835 22.1955 20.6156 22.2625C20.5476 22.3295 20.4671 22.3823 20.3786 22.4179C20.29 22.4535 20.1954 22.4711 20.1 22.4698ZM16.9299 21.0098H19.3699V18.8398C19.3726 18.648 19.4506 18.4649 19.5873 18.3301C19.7239 18.1954 19.9081 18.1198 20.1 18.1198H22.27V15.6698H20.1C19.9064 15.6698 19.7207 15.5929 19.5838 15.456C19.4469 15.3191 19.3699 15.1334 19.3699 14.9398V12.7698H16.9299V14.9498C16.9299 15.1434 16.853 15.3291 16.7161 15.466C16.5792 15.6029 16.3936 15.6798 16.2 15.6798H14.03V18.1298H16.2C16.3918 18.1298 16.576 18.2053 16.7126 18.3401C16.8492 18.4748 16.9273 18.658 16.9299 18.8498V21.0098Z" fill="black"/>
</svg>
