<svg viewBox="0 0 43 43" fill="none" xmlns="http://www.w3.org/2000/svg">
<path d="M14.8406 33.4427C13.8693 33.4411 12.9202 33.1521 12.1129 32.612C11.3055 32.0719 10.6761 31.3049 10.304 30.4077C9.93181 29.5105 9.83356 28.5232 10.0216 27.5702C10.2096 26.6173 10.6756 25.7413 11.3607 25.0527L27.7307 8.68268C27.8682 8.55969 28.0462 8.4917 28.2307 8.4917C28.4151 8.4917 28.5931 8.55969 28.7307 8.68268L34.6407 14.6027C34.7702 14.7369 34.8426 14.9162 34.8426 15.1027C34.8426 15.2892 34.7702 15.4685 34.6407 15.6027L18.2706 31.9727C17.8236 32.4312 17.2906 32.797 16.702 33.0493C16.1135 33.3015 15.4809 33.4352 14.8406 33.4427ZM28.2506 10.2327L12.3907 26.1227C11.7803 26.7787 11.4482 27.646 11.4644 28.5419C11.4805 29.4378 11.8436 30.2925 12.4772 30.9261C13.1108 31.5597 13.9655 31.9228 14.8614 31.9389C15.7574 31.9551 16.6246 31.6231 17.2806 31.0127L33.1407 15.1227L28.2506 10.2327Z" fill="black"/>
<path d="M35.1606 16.8429C34.9697 16.8422 34.7866 16.7669 34.6506 16.6329L26.7406 8.72287C26.6155 8.5864 26.5461 8.40799 26.5461 8.22287C26.5461 8.03774 26.6155 7.85934 26.7406 7.72287L28.6606 5.80286C28.7971 5.67777 28.9755 5.6084 29.1606 5.6084C29.3457 5.6084 29.5241 5.67777 29.6606 5.80286L37.5606 13.7129C37.6901 13.8471 37.7625 14.0263 37.7625 14.2129C37.7625 14.3994 37.6901 14.5786 37.5606 14.7129L35.6506 16.6329C35.5196 16.7621 35.3446 16.8371 35.1606 16.8429ZM28.2906 8.20285L35.1606 15.0829L36.0506 14.2029L29.1706 7.32288L28.2906 8.20285Z" fill="black"/>
<path d="M34.7007 12.5529C34.6036 12.5532 34.5075 12.5339 34.4182 12.4961C34.3288 12.4583 34.248 12.4028 34.1806 12.3329L31.0306 9.18295C30.9056 9.04648 30.8362 8.86808 30.8362 8.68295C30.8362 8.49783 30.9056 8.31943 31.0306 8.18295L35.4807 3.74295C35.6149 3.61342 35.7941 3.54102 35.9807 3.54102C36.1672 3.54102 36.3464 3.61342 36.4807 3.74295L39.6306 6.89294C39.7602 7.02716 39.8326 7.20641 39.8326 7.39294C39.8326 7.57948 39.7602 7.75873 39.6306 7.89294L35.1806 12.3329C35.1193 12.3998 35.0453 12.4537 34.9629 12.4915C34.8804 12.5292 34.7913 12.5501 34.7007 12.5529ZM32.5807 8.67294L34.7007 10.793L38.1206 7.37296L36.0006 5.25296L32.5807 8.67294Z" fill="black"/>
<path d="M40.4306 9.12311C40.0903 9.12462 39.7633 8.99163 39.5206 8.75311L34.5906 3.81311C34.3506 3.57307 34.2158 3.24754 34.2158 2.90811C34.2158 2.56868 34.3506 2.24315 34.5906 2.00311L35.3406 1.25311C35.5855 1.02247 35.9092 0.894043 36.2456 0.894043C36.582 0.894043 36.9057 1.02247 37.1506 1.25311L42.0806 6.19312C42.3182 6.43443 42.4513 6.75948 42.4513 7.09811C42.4513 7.43675 42.3182 7.7618 42.0806 8.00311L41.3206 8.75311C41.2026 8.87137 41.0623 8.96498 40.9078 9.0285C40.7533 9.09202 40.5877 9.12418 40.4206 9.12311H40.4306ZM35.7506 2.91312L40.4306 7.59311L40.9306 7.09311L36.2506 2.41312L35.7506 2.91312Z" fill="black"/>
<path d="M5.05062 39.0528C4.90717 39.0523 4.76704 39.0096 4.64772 38.93C4.5284 38.8504 4.43519 38.7374 4.37972 38.6051C4.32424 38.4728 4.309 38.3271 4.33583 38.1862C4.36267 38.0453 4.43041 37.9154 4.53063 37.8128L11.3606 30.9728C11.4971 30.8477 11.6755 30.7783 11.8606 30.7783C12.0458 30.7783 12.2242 30.8477 12.3606 30.9728C12.4902 31.107 12.5625 31.2863 12.5625 31.4728C12.5625 31.6593 12.4902 31.8386 12.3606 31.9728L5.53063 38.8128C5.4069 38.9508 5.23529 39.0366 5.05062 39.0528Z" fill="black"/>
<path d="M21.0006 29.0129C20.8097 29.0123 20.6266 28.9369 20.4906 28.8029L18.4906 26.8029C18.3611 26.6686 18.2887 26.4894 18.2887 26.3029C18.2887 26.1163 18.3611 25.9371 18.4906 25.8029C18.6271 25.6778 18.8055 25.6084 18.9906 25.6084C19.1757 25.6084 19.3541 25.6778 19.4906 25.8029L21.4906 27.8029C21.5908 27.9055 21.6586 28.0354 21.6854 28.1763C21.7123 28.3172 21.697 28.4629 21.6415 28.5952C21.586 28.7275 21.4928 28.8405 21.3735 28.9201C21.2542 28.9997 21.1141 29.0424 20.9706 29.0429L21.0006 29.0129Z" fill="black"/>
<path d="M23.5707 26.453C23.4735 26.4545 23.377 26.4357 23.2875 26.3978C23.198 26.3599 23.1173 26.3038 23.0507 26.233L21.0507 24.233C20.9211 24.0988 20.8488 23.9196 20.8488 23.733C20.8488 23.5465 20.9211 23.3672 21.0507 23.233C21.1871 23.1079 21.3655 23.0386 21.5507 23.0386C21.7358 23.0386 21.9142 23.1079 22.0507 23.233L24.0507 25.233C24.1802 25.3672 24.2526 25.5465 24.2526 25.733C24.2526 25.9196 24.1802 26.0988 24.0507 26.233C23.9255 26.3662 23.7533 26.4452 23.5707 26.453Z" fill="black"/>
<path d="M26.1306 23.8931C26.0336 23.8934 25.9375 23.874 25.8481 23.8362C25.7588 23.7984 25.678 23.7429 25.6106 23.6731L23.6106 21.6731C23.4855 21.5366 23.4161 21.3582 23.4161 21.1731C23.4161 20.988 23.4855 20.8096 23.6106 20.6731C23.7448 20.5436 23.9241 20.4712 24.1106 20.4712C24.2972 20.4712 24.4764 20.5436 24.6106 20.6731L26.6106 22.6731C26.7357 22.8096 26.8051 22.988 26.8051 23.1731C26.8051 23.3582 26.7357 23.5366 26.6106 23.6731C26.4843 23.8046 26.3127 23.8832 26.1306 23.8931Z" fill="black"/>
<path d="M28.6907 21.3231C28.596 21.3238 28.502 21.3057 28.4145 21.2696C28.3269 21.2335 28.2474 21.1803 28.1807 21.113L26.1807 19.113C26.0556 18.9766 25.9862 18.7982 25.9862 18.613C25.9862 18.4279 26.0556 18.2495 26.1807 18.113C26.3149 17.9835 26.4941 17.9111 26.6807 17.9111C26.8672 17.9111 27.0464 17.9835 27.1807 18.113L29.1807 20.113C29.3057 20.2495 29.3752 20.4279 29.3752 20.613C29.3752 20.7982 29.3057 20.9766 29.1807 21.113C29.0486 21.2407 28.8742 21.3154 28.6907 21.3231Z" fill="black"/>
<path d="M31.2506 18.7631C31.0597 18.7625 30.8766 18.6871 30.7406 18.5531L28.7406 16.5531C28.6448 16.4964 28.5633 16.4186 28.5022 16.3255C28.4411 16.2325 28.4021 16.1267 28.3881 16.0162C28.3742 15.9058 28.3857 15.7936 28.4218 15.6883C28.4578 15.583 28.5175 15.4873 28.5962 15.4086C28.6749 15.3299 28.7706 15.2703 28.8759 15.2342C28.9812 15.1981 29.0934 15.1866 29.2038 15.2006C29.3142 15.2145 29.42 15.2535 29.5131 15.3146C29.6061 15.3757 29.684 15.4573 29.7406 15.5531L31.7406 17.5531C31.8409 17.6557 31.9086 17.7856 31.9355 17.9265C31.9623 18.0674 31.947 18.2131 31.8915 18.3454C31.8361 18.4777 31.7429 18.5907 31.6235 18.6703C31.5042 18.7499 31.3641 18.7926 31.2206 18.7931L31.2506 18.7631Z" fill="black"/>
<path d="M18.1806 12.8329H17.9906C16.3916 12.4176 14.9077 11.6449 13.6506 10.5729C13.5741 10.5091 13.5114 10.4303 13.4665 10.3414C13.4216 10.2525 13.3953 10.1553 13.3894 10.0558C13.3834 9.95639 13.3979 9.85677 13.4319 9.76312C13.4659 9.66947 13.5187 9.58376 13.5871 9.51129C13.6555 9.43882 13.7379 9.38113 13.8294 9.34174C13.9209 9.30234 14.0196 9.28207 14.1192 9.28223C14.2188 9.28238 14.3174 9.30295 14.4088 9.34262C14.5002 9.3823 14.5824 9.44026 14.6506 9.51294C15.7408 10.4124 17.0135 11.0641 18.3806 11.4229C18.5565 11.4646 18.7107 11.5701 18.8133 11.719C18.9159 11.8679 18.9596 12.0495 18.936 12.2287C18.9123 12.408 18.823 12.5721 18.6853 12.6892C18.5476 12.8064 18.3713 12.8683 18.1906 12.8629L18.1806 12.8329Z" fill="black"/>
<path d="M20.4907 42.013C20.2471 42.0143 20.0047 41.9806 19.7707 41.913C19.1404 41.7132 18.5938 41.3107 18.2159 40.7682C17.8379 40.2257 17.6497 39.5735 17.6807 38.913V35.123C17.6839 34.902 17.6672 34.6811 17.6307 34.463C17.6078 34.2711 17.661 34.0779 17.7787 33.9247C17.8964 33.7715 18.0694 33.6704 18.2607 33.643C18.4511 33.62 18.6429 33.6717 18.7959 33.7874C18.9489 33.903 19.051 34.0736 19.0807 34.263C19.1209 34.5479 19.141 34.8353 19.1407 35.123V38.913C19.1109 39.2459 19.1931 39.5791 19.3743 39.8599C19.5554 40.1407 19.8252 40.353 20.1407 40.463C20.4044 40.5321 20.6837 40.5093 20.9327 40.3984C21.1817 40.2875 21.3856 40.0952 21.5107 39.853C23.6307 36.413 25.1607 31.793 26.0607 26.123C26.0691 26.0234 26.0979 25.9265 26.1453 25.8385C26.1927 25.7505 26.2577 25.6731 26.3362 25.6112C26.4148 25.5493 26.5052 25.5042 26.6019 25.4787C26.6986 25.4532 26.7995 25.4479 26.8983 25.463C26.9972 25.4781 27.0919 25.5133 27.1765 25.5665C27.2612 25.6197 27.334 25.6898 27.3905 25.7723C27.447 25.8548 27.4859 25.948 27.5048 26.0462C27.5238 26.1444 27.5224 26.2454 27.5007 26.343C26.8595 31.3663 25.2461 36.2166 22.7507 40.623C22.5255 41.0297 22.1991 41.3713 21.8032 41.6148C21.4073 41.8583 20.9552 41.9955 20.4907 42.013Z" fill="black"/>
<path d="M7.80062 42.0129C7.33586 42.0055 6.88089 41.8783 6.4797 41.6436C6.07851 41.4088 5.74472 41.0744 5.51064 40.6729C0.0306449 31.8029 -0.00936485 18.2429 0.000635152 17.6729C0.000635152 12.0229 4.11064 7.42285 9.16064 7.42285C10.9614 7.4306 12.7128 8.01208 14.1606 9.08286C15.6075 8.01019 17.3595 7.42851 19.1606 7.42285C20.583 7.44111 21.9797 7.8047 23.2304 8.48233C24.4811 9.15996 25.5485 10.1313 26.3406 11.3129C26.452 11.4693 26.4967 11.6636 26.4648 11.8531C26.4329 12.0425 26.3271 12.2115 26.1706 12.3229C26.0142 12.4343 25.8198 12.4789 25.6304 12.4471C25.441 12.4152 25.272 12.3093 25.1606 12.1529C24.4988 11.1639 23.6074 10.3499 22.5625 9.78049C21.5177 9.21104 20.3504 8.90306 19.1606 8.88287C17.5013 8.89266 15.8994 9.49161 14.6406 10.5729C14.509 10.6792 14.3449 10.7372 14.1756 10.7372C14.0064 10.7372 13.8423 10.6792 13.7106 10.5729C12.4519 9.49161 10.85 8.89266 9.19064 8.88287C4.94064 8.88287 1.48065 12.8229 1.48065 17.6729C1.48065 17.8129 1.53063 31.3929 6.78063 39.9029C6.90576 40.145 7.1096 40.3374 7.35861 40.4482C7.60761 40.5591 7.88694 40.5819 8.15063 40.5129C8.46615 40.4028 8.73589 40.1905 8.91705 39.9097C9.09821 39.6289 9.18041 39.2957 9.15063 38.9629V36.7328C9.15063 36.5392 9.22753 36.3536 9.36444 36.2167C9.50134 36.0798 9.68703 36.0029 9.88064 36.0029C10.0742 36.0029 10.2599 36.0798 10.3968 36.2167C10.5337 36.3536 10.6107 36.5392 10.6107 36.7328V38.9629C10.6416 39.6233 10.4534 40.2755 10.0755 40.8181C9.69751 41.3606 9.1509 41.763 8.52062 41.9629C8.28421 42.0136 8.04178 42.0304 7.80062 42.0129Z" fill="black"/>
</svg>
