<svg viewBox="0 0 28 14.95" xmlns="http://www.w3.org/2000/svg">
  <path d="M28 8.35l-.57-3A6.55 6.55 0 0021 0H7.05A6.56 6.56 0 00.61 5.33L0 8.35a2.06 2.06 0 00.44 1.72 2.15 2.15 0 001.05.69V11a6.23 6.23 0 00.4 2.62 2 2 0 002 1.28c.37 0 .94-.06 1.55-.06h1.17l1.61.16h.11a2.05 2.05 0 001.8-1.08A2 2 0 0012 14.94c.37 0 1-.06 1.56-.06h1.12l1.6.08h.12a2 2 0 001.7-.93 2 2 0 001.81.92c.38 0 .95-.06 1.56-.06h1.12l1.6.08h.12a2.09 2.09 0 002-1.49 7 7 0 00.28-2.41v-.34A2.09 2.09 0 0028 8.35zm-4.42-.41h-.9V7.5a.57.57 0 10-1.13 0v.44h-.89a.56.56 0 00-.57.57v1.08h-1.24a6.37 6.37 0 011.65-3.55 2.3 2.3 0 011.5-.56h.07a2.27 2.27 0 011.58.6 6 6 0 011.56 3.07l-1.15.16v-.8a.56.56 0 00-.52-.57zm-2.35 2.92V9.07H23v1.79zm-8.08 0V9.07h1.78v1.79zm2.35-2.92h-.89V7.5a.57.57 0 00-1.14 0v.44h-.89a.57.57 0 00-.57.57v1.15h-1.07a6.3 6.3 0 011.65-3.55 2.28 2.28 0 011.58-.6h.07a2.3 2.3 0 011.58.6 6.37 6.37 0 011.65 3.59h-1.4V8.51a.57.57 0 00-.61-.57zm-8.06 0h-.93V7.5a.57.57 0 00-1.14 0v.44h-.89a.57.57 0 00-.57.57v.64L2.92 9a5.78 5.78 0 011.53-2.92A2.26 2.26 0 016 5.48h.1a2.26 2.26 0 011.57.6 6.26 6.26 0 011.64 3.48L8 9.49v-1a.57.57 0 00-.6-.55zm-2.39 2.92V9.07h1.78v1.79zm4.19 2.24a1 1 0 01-1 .72c-.46 0-1.12-.07-1.65-.08h-1.1c-.64 0-1.24 0-1.63.07a.92.92 0 01-.89-.6 5.19 5.19 0 01-.31-2.16 8.14 8.14 0 01.06-.91l1.19.15v1.14a.57.57 0 00.57.56h.89v.42a.57.57 0 001.14 0V12h.89a.57.57 0 00.6-.57v-.81l1.48.08v.37a6.09 6.09 0 01-.24 2.03zm7.14.72c-.46 0-1.12-.07-1.65-.08h-1.14c-.64 0-1.24 0-1.63.07a.93.93 0 01-.89-.6 5.22 5.22 0 01-.3-2.16v-.29h1.2v.64a.57.57 0 00.57.56h.89v.42a.57.57 0 001.14 0V12h.89a.57.57 0 00.57-.56v-.6h1.52v1.01a4.85 4.85 0 01-.22 1.29 1 1 0 01-.95.68zm8.88-.72a1 1 0 01-1 .72c-.47 0-1.13-.07-1.65-.08H21.5c-.64 0-1.24 0-1.62.07a.94.94 0 01-.9-.6 4.37 4.37 0 01-.29-1.41v-.75-.28h1.36v.71a.56.56 0 00.57.56h.89v.42a.57.57 0 101.13 0V12h.9a.56.56 0 00.56-.56v-1l1.33-.19v.05c0 .41.05.69.05.73a6.09 6.09 0 01-.22 2.07zm1.4-3.77a.81.81 0 01-.19.18 7.42 7.42 0 00-2-4.26 3.43 3.43 0 00-2.35-.9H22a3.44 3.44 0 00-2.35.9 6.29 6.29 0 00-1.57 2.52 6.29 6.29 0 00-1.57-2.52 3.43 3.43 0 00-2.35-.9h-.07a3.43 3.43 0 00-2.35.9 6.51 6.51 0 00-1.67 2.8 6.49 6.49 0 00-1.66-2.8 3.44 3.44 0 00-2.35-.9H6a3.4 3.4 0 00-2.34.9 7.55 7.55 0 00-2 4.34 1.13 1.13 0 01-.3-.24 1 1 0 01-.2-.79l.57-3a5.44 5.44 0 015.32-4.43H21a5.44 5.44 0 015.33 4.41l.57 3a1 1 0 01-.24.79z"/>
</svg>
