<svg viewBox="0 0 27 28.94" xmlns="http://www.w3.org/2000/svg">
  <path d="M25.84 19l-6.24-2.28a.54.54 0 00-.31 0l-9 1.49a2.83 2.83 0 00-.29-1.52l1.43-.81h6.93a.61.61 0 00.61-.61.61.61 0 00-.61-.61h-7.08a.61.61 0 00-.3.08l-1.59.9A17.72 17.72 0 005.33 12a.62.62 0 000-.13 6.26 6.26 0 00-1.86-3.53 1.83 1.83 0 00-2.21-.24l-.38.24a1.76 1.76 0 00-.83 1.14 1.82 1.82 0 00.24 1.4l.37.58 1.67 2.46L7 20.82a3.59 3.59 0 001.06 1l.29.17L10 24.44H7.74a2.84 2.84 0 00-2.83 2.84v1a.61.61 0 00.61.61h16.84a.62.62 0 00.61-.61.61.61 0 00-.61-.61H6.13v-.44a1.61 1.61 0 011.61-1.62h6.82a.61.61 0 000-1.22H11.4l-1.35-2a3.15 3.15 0 00.61-.06l3.64-.72 2.7 3.74a.63.63 0 00.49.25h5.64a1.62 1.62 0 011.62 1.61.61.61 0 101.21 0 2.83 2.83 0 00-2.83-2.83H17.8l-2.19-3 3.93-.78 5.11 1.76a1.65 1.65 0 00.58.1 1.7 1.7 0 00.79-.19 1.8 1.8 0 00.9-1.05A1.78 1.78 0 0025.84 19zM3 12.76l-1.33-2-.37-.58a.58.58 0 01-.08-.46.65.65 0 01.28-.39l.38-.23a.62.62 0 01.32-.09.61.61 0 01.42.17 5.48 5.48 0 011.5 2.61.24.24 0 010 .12 1.31 1.31 0 01-.45.41zm22.75 8.08a.6.6 0 01-.28.34.66.66 0 01-.44 0l-5.25-1.82a.7.7 0 00-.32 0l-5 1-4 .78A2.31 2.31 0 019 21a1.51 1.51 0 01-.28-.15 2.27 2.27 0 01-.7-.68l-4.33-6.4.59-.37c.16-.11.3-.22.42-.32 2.17 1.46 4.75 3.83 4.3 5.09a1 1 0 01-.22.36l-.76.74a.61.61 0 000 .86.62.62 0 00.86 0l.62-.61 9.81-1.61 6.09 2.23a.56.56 0 01.36.7zM17.7 10.72a.57.57 0 00.39.14.6.6 0 00.46-.21l.84-1a3 3 0 00.71-2.22 3 3 0 00-1.05-2.07l-1.82-1.52L18 3h2.64a.61.61 0 000-1.21l-2.93-.06a.63.63 0 00-.47.22l-.94 1.1-.56-.47 1.14-1.33h5.47A.62.62 0 0023 .64a.61.61 0 00-.64-.64h-5.75a.61.61 0 00-.46.21l-1.32 1.58L13.59.73a3 3 0 00-4.29.34L8.47 2a.59.59 0 00-.15.44.63.63 0 00.21.42zm-7.48-8.86a1.84 1.84 0 012.58-.21l5.46 4.66a1.83 1.83 0 01.63 1.25 1.8 1.8 0 01-.43 1.33L18 9.4l-8.24-7zM11.64 9.14a.6.6 0 00.46-.21l.73-.85a.61.61 0 00-.07-.86.59.59 0 00-.85.07l-.73.85a.61.61 0 00.07.86.62.62 0 00.39.14zM11.36 5.84a.61.61 0 00-.68-.53L9 5.52a.61.61 0 000 1.21h.1l1.73-.21a.61.61 0 00.53-.68zM14.43 8.65a.6.6 0 00-.58.63l.06 1.53a.62.62 0 00.61.59.6.6 0 00.58-.63L15 9.23a.6.6 0 00-.57-.58z"/>
</svg>
