<svg width="25" height="25" viewBox="0 0 25 25" fill="none" xmlns="http://www.w3.org/2000/svg">
<path d="M21.1364 3.55254C16.2321 -1.18418 8.45687 -1.18418 3.55256 3.55254C-1.30309 8.57998 -1.16384 16.5918 3.86361 21.4474C8.76791 26.1841 16.5431 26.1841 21.4474 21.4474C26.3031 16.42 26.1638 8.40819 21.1364 3.55254ZM20.8526 20.8526L20.8484 20.8484C16.2335 25.4591 8.75471 25.4557 4.14401 20.8408C-0.466695 16.2259 -0.463283 8.74712 4.15162 4.13642C8.76653 -0.474285 16.2453 -0.470874 20.856 4.14398C23.0707 6.36067 24.3139 9.3665 24.3118 12.5C24.312 15.6328 23.0677 18.6373 20.8526 20.8526Z" fill="white"/>
<path d="M19.6089 16.1028L17.2381 13.7404C16.7001 13.2011 15.8266 13.2001 15.2873 13.7381L13.9266 15.0988C13.8238 15.2018 13.6619 15.216 13.5428 15.1325C12.7993 14.613 12.1033 14.0285 11.463 13.3861C10.8896 12.8139 10.3621 12.1976 9.88531 11.5426C9.7989 11.4249 9.81146 11.2618 9.91483 11.1587L11.3069 9.76662C11.8444 9.22812 11.8444 8.35617 11.3069 7.81767L8.93615 5.44689C8.38984 4.9246 7.52931 4.9246 6.983 5.44689L6.23212 6.19777C5.09812 7.31901 4.69329 8.9839 5.18592 10.5006C5.55352 11.6103 6.07314 12.6637 6.72989 13.6307C7.32114 14.5173 7.99944 15.3426 8.75477 16.0944C9.57594 16.9214 10.4856 17.6556 11.4672 18.2838C12.5464 18.988 13.7313 19.5149 14.977 19.8446C15.2973 19.9235 15.6259 19.9632 15.9557 19.9627C17.0863 19.9558 18.168 19.5007 18.9635 18.6971L19.6089 18.0517C20.1464 17.5133 20.1464 16.6413 19.6089 16.1028ZM19.0115 17.4764L19.0098 17.4781L19.014 17.4654L18.3686 18.1108C17.5393 18.9506 16.3316 19.2961 15.1836 19.022C14.0271 18.7125 12.9276 18.2197 11.927 17.5625C10.9973 16.9683 10.1357 16.2737 9.35788 15.4912C8.64221 14.7807 7.99925 14.0006 7.43845 13.1625C6.82505 12.2607 6.33955 11.2784 5.99572 10.2433C5.60157 9.02741 5.92819 7.69319 6.83944 6.79683L7.59032 6.04595C7.79908 5.83625 8.13831 5.8355 8.34797 6.04427L10.7204 8.41673C10.9301 8.6255 10.9309 8.96472 10.7221 9.17438L9.32832 10.5682C8.92888 10.9633 8.87866 11.5911 9.21022 12.0447C9.71372 12.7357 10.2709 13.3859 10.8765 13.9894C11.5518 14.6676 12.2859 15.2845 13.0701 15.8329C13.5233 16.149 14.1377 16.0957 14.5297 15.7063L15.8754 14.3396C16.0842 14.1298 16.4234 14.1291 16.6331 14.3379L19.0098 16.7188C19.2195 16.9275 19.2203 17.2667 19.0115 17.4764Z" fill="white"/>
</svg>
