<svg viewBox="0 0 14 25.37" xmlns="http://www.w3.org/2000/svg">
  <path d="M13.8 3.05a5.39 5.39 0 00-.51-1.24A3.66 3.66 0 0010.09 0a3.42 3.42 0 00-.65.06L7 .49 4.57.06A3.52 3.52 0 003.91 0 3.69 3.69 0 00.7 1.82 5.65 5.65 0 000 4.65a5.87 5.87 0 00.36 2l.1.35c.29.83.6 1.68.84 2.52l.09.31v4a.53.53 0 00.53.53h.86l1 .79v6.62a2.3 2.3 0 00.78 1.73l2 1.82h.46l2.05-1.82a2.33 2.33 0 00.77-1.73V15.07l1-.79h.86a.53.53 0 00.53-.53v-4l.06-.21c.24-.83.55-1.66.84-2.47l.16-.43a6.06 6.06 0 00.35-2 6.38 6.38 0 00.16-1.59zm-2.26 10.17h-9.1v-3h9.1zm-4.76 2.63a6.84 6.84 0 012.33 1v1.28A8.48 8.48 0 007 17.37l-2.1-.44v-1.48zm1.91 6.78A8.2 8.2 0 007 22.08l-2.1-.44v-1.13l1.89.39a7.18 7.18 0 011.21.38 7.26 7.26 0 011.09.52 1.27 1.27 0 01-.4.83zM7 24.14l-1.46-1.29 1.22.26a6.9 6.9 0 011 .3zm1.4-3.84a7.76 7.76 0 00-1.4-.43l-2.1-.44V18l1.89.39a7.89 7.89 0 012.35.9v1.31c-.27-.1-.51-.21-.75-.3zm.93-5.91a.5.5 0 00-.21.42v.79A7.82 7.82 0 007 14.82l-2.42-.5h-.05 4.93zm3.34-8.07l-.16.43c-.29.79-.58 1.61-.83 2.44H2.32c-.26-.88-.57-1.75-.87-2.59l-.1-.28a4.74 4.74 0 01-.3-1.67 4.52 4.52 0 01.57-2.31 2.63 2.63 0 012.3-1.29 3.42 3.42 0 01.46 0l2.53.45a.54.54 0 00.18 0l2.53-.45a3.43 3.43 0 01.47 0 2.62 2.62 0 012.29 1.28 4.28 4.28 0 01.4 1A5.15 5.15 0 0113 4.65a5 5 0 01-.34 1.67z"/><path d="M3.46 12.68h3.83a.53.53 0 000-1H4V11a.53.53 0 00-1.06 0v1.16a.52.52 0 00.52.52zM11.73 2.69A2.76 2.76 0 009 1.82l-1.84.4a.53.53 0 10.23 1l1.84-.4a1.71 1.71 0 011.69.53l.09.11a2 2 0 01.35 1.18.53.53 0 00.53.53.53.53 0 00.53-.53 3.05 3.05 0 00-.56-1.8z"/>
</svg>
