<svg width="45" height="45" viewBox="0 0 45 45" fill="none" xmlns="http://www.w3.org/2000/svg">
<path d="M26.3624 11.4001C26.6504 11.4001 26.9385 11.51 27.1578 11.7297C27.5973 12.1688 27.5973 12.8813 27.1578 13.3205L17.9784 22.5L27.1579 31.6796C27.5973 32.1189 27.5973 32.8314 27.1579 33.2705C26.7189 33.7099 26.006 33.7099 25.567 33.2705L15.592 23.2954C15.1525 22.8561 15.1525 22.1439 15.592 21.7046L25.567 11.7297C25.7866 11.51 26.0747 11.4001 26.3624 11.4001ZM-1.96701e-06 22.5C-8.82389e-07 34.9066 10.0934 45 22.5 45C34.9066 45 45 34.9066 45 22.5C45 10.0934 34.9066 8.82389e-07 22.5 1.96701e-06C10.0934 3.05164e-06 -3.05164e-06 10.0934 -1.96701e-06 22.5ZM2.25 22.5C2.25 11.3342 11.3342 2.25 22.5 2.25C33.666 2.25 42.75 11.3342 42.75 22.5C42.75 33.666 33.666 42.75 22.5 42.75C11.3342 42.75 2.25 33.666 2.25 22.5Z" fill="#74777F"/>
</svg>
