<svg width="18" height="18" viewBox="0 0 18 18" fill="none" xmlns="http://www.w3.org/2000/svg">
<path fill-rule="evenodd" clip-rule="evenodd" d="M11.71 11L11.43 10.73C12.41 9.59 13 8.11 13 6.5C13 2.91 10.09 0 6.5 0C2.91 0 0 2.91 0 6.5C0 10.09 2.91 13 6.5 13C8.11 13 9.59 12.41 10.73 11.43L11 11.71V12.5L15.2929 16.7843C15.6835 17.1742 16.3162 17.1738 16.7064 16.7836L16.7836 16.7064C17.1738 16.3162 17.1742 15.6835 16.7843 15.2929L12.5 11H11.71ZM2 6.5C2 4.01 4.01 2 6.5 2C8.99 2 11 4.01 11 6.5C11 8.99 8.99 11 6.5 11C4.01 11 2 8.99 2 6.5Z" fill="#C2D1D9"/>
<mask id="mask0_546_83" style="mask-type:alpha" maskUnits="userSpaceOnUse" x="0" y="0" width="18" height="18">
<path fill-rule="evenodd" clip-rule="evenodd" d="M11.71 11L11.43 10.73C12.41 9.59 13 8.11 13 6.5C13 2.91 10.09 0 6.5 0C2.91 0 0 2.91 0 6.5C0 10.09 2.91 13 6.5 13C8.11 13 9.59 12.41 10.73 11.43L11 11.71V12.5L15.2929 16.7843C15.6835 17.1742 16.3162 17.1738 16.7064 16.7836L16.7836 16.7064C17.1738 16.3162 17.1742 15.6835 16.7843 15.2929L12.5 11H11.71ZM2 6.5C2 4.01 4.01 2 6.5 2C8.99 2 11 4.01 11 6.5C11 8.99 8.99 11 6.5 11C4.01 11 2 8.99 2 6.5Z" fill="white"/>
</mask>
<g mask="url(#mask0_546_83)">
<rect x="-3" y="-3" width="24" height="24" fill="#424B5A"/>
</g>
</svg>
