<svg viewBox="0 0 178 178" fill="none" xmlns="http://www.w3.org/2000/svg">
<path d="M58.7049 138.586C31.2872 111.169 31.2869 66.5563 58.7049 39.1384C70.1009 27.7423 84.5711 20.7723 100.551 18.9816C102.294 18.7862 103.548 17.2153 103.353 15.4723C103.158 13.7296 101.587 12.4749 99.8438 12.6707C82.4177 14.6236 66.6393 22.223 54.2144 34.6479C24.3205 64.5418 24.3205 113.183 54.2144 143.077C66.6337 155.496 82.4045 163.095 99.822 165.052C101.565 165.247 103.136 163.994 103.332 162.251C103.527 160.508 102.273 158.936 100.531 158.741C84.559 156.946 70.0956 149.977 58.7049 138.586Z" fill="#98C8ED"/>
</svg>
