<svg width="89" height="88" viewBox="0 0 89 88" fill="none" xmlns="http://www.w3.org/2000/svg">
<path d="M84.4983 19.6077C84.8628 19.6077 85.2123 19.465 85.4701 19.2111C85.7278 18.9573 85.8726 18.6129 85.8726 18.2539V7.42356C85.8726 7.2382 85.8339 7.05482 85.759 6.88477C85.6841 6.71472 85.5746 6.56164 85.4372 6.43501C85.2998 6.30837 85.1374 6.21088 84.9602 6.14858C84.783 6.08628 84.5947 6.06049 84.4069 6.07282L42.7718 8.78971V8.79106C41.266 8.7386 39.7584 8.81965 38.2673 9.03322C31.5505 9.97884 24.8769 13.4296 19.476 18.75C15.0881 23.0727 11.9494 28.2147 10.3991 33.6207C9.00417 38.4849 8.99437 43.1727 10.357 47.2717C9.50381 47.642 8.73811 48.1829 8.10843 48.8602C7.47875 49.5375 6.99884 50.3363 6.69916 51.2059C5.49667 54.7221 6.29341 58.6057 9.13472 63.026C7.53622 63.2959 6.08586 64.1133 5.03956 65.334C3.99325 66.5547 3.41825 68.1002 3.41602 69.6978V80.5281C3.41602 80.8872 3.5608 81.2315 3.81853 81.4854C4.07626 81.7393 4.42581 81.8819 4.79029 81.8819H84.4983C84.8628 81.8819 85.2123 81.7393 85.4701 81.4854C85.7278 81.2315 85.8726 80.8872 85.8726 80.5281V69.6978C85.8703 68.1021 85.2966 66.5582 84.2525 65.3381C83.2083 64.1181 81.7607 63.3 80.1645 63.0279C83.0069 58.6068 83.8045 54.7224 82.6013 51.2059C82.292 50.3075 81.7906 49.4849 81.1311 48.7937C80.4715 48.1025 79.669 47.5587 78.7779 47.1991C77.8637 46.8274 76.8792 46.6534 75.8909 46.6886C74.9026 46.7238 73.9334 46.9674 73.0489 47.4031L71.2314 48.2982C70.6585 48.5786 70.0274 48.7246 69.3876 48.7246C68.7478 48.7246 68.1168 48.5786 67.5439 48.2982L65.7267 47.4031C64.8421 46.9674 63.8729 46.7237 62.8845 46.6884C61.8961 46.6532 60.9116 46.8274 59.9974 47.1991C58.7898 47.688 57.7517 48.5109 57.0083 49.5682C56.2663 48.5201 55.2339 47.7043 54.0344 47.218C53.6685 47.0699 53.2905 46.953 52.9044 46.8684C56.9801 42.0582 59.6224 36.4801 60.4363 30.8708C61.1406 26.0214 60.4242 21.5608 58.4113 17.8966L84.4066 19.6038C84.4375 19.6066 84.4679 19.6077 84.4983 19.6077ZM9.30393 52.0705C9.48479 51.5372 9.78129 51.049 10.1729 50.6399C10.5644 50.2308 11.0417 49.9106 11.5715 49.7014C12.1224 49.4772 12.7157 49.3722 13.3114 49.3933C13.9071 49.4144 14.4912 49.5613 15.0244 49.8239L16.8415 50.7191C17.7964 51.1866 18.8482 51.4299 19.9145 51.4299C20.9809 51.4299 22.0327 51.1866 22.9876 50.7191L24.8049 49.8239C25.3381 49.5614 25.9222 49.4147 26.5178 49.3935C27.1135 49.3724 27.7068 49.4774 28.2578 49.7014C28.7875 49.9106 29.2646 50.2309 29.656 50.64C30.0475 51.0491 30.3438 51.5372 30.5245 52.0705C31.5581 55.0923 30.5504 58.6491 27.4464 62.9289H12.3821C9.27816 58.6491 8.27047 55.0923 9.30393 52.0705ZM34.5683 18.3805L37.7916 37.4294C37.8451 37.7453 38.0104 38.0322 38.2582 38.2393C38.5061 38.4464 38.8205 38.5603 39.1455 38.5607C39.2217 38.5606 39.2978 38.5545 39.3731 38.5423C39.5511 38.513 39.7216 38.4495 39.8747 38.3554C40.0278 38.2613 40.1606 38.1384 40.2655 37.9937C40.3704 37.849 40.4453 37.6854 40.486 37.5122C40.5268 37.339 40.5324 37.1596 40.5027 36.9842L37.2088 17.5186C38.7222 17.118 40.2816 16.9101 41.8487 16.9001C44.0874 16.9001 47.2501 17.3866 49.6032 19.7048C51.93 21.9968 52.8786 25.5545 52.2738 29.7228C51.5646 34.6114 48.8896 39.5537 44.7419 43.6398C43.4123 44.9512 41.9576 46.1333 40.3978 47.1698C39.4469 46.8021 38.4248 46.648 37.4058 46.7187C36.3868 46.7893 35.3967 47.083 34.5075 47.5783L32.2571 34.2773C32.2285 34.101 32.1648 33.932 32.0696 33.78C31.9744 33.6281 31.8497 33.4962 31.7026 33.3919C31.5554 33.2876 31.3888 33.2131 31.2123 33.1725C31.0358 33.1319 30.8529 33.1261 30.6741 33.1555C30.4953 33.1848 30.3242 33.2487 30.1706 33.3435C30.017 33.4383 29.8839 33.562 29.7791 33.7077C29.6742 33.8533 29.5996 34.0179 29.5596 34.1921C29.5196 34.3662 29.515 34.5465 29.546 34.7224L31.9912 49.1741C31.2776 48.3042 30.3536 47.6251 29.3039 47.1991C28.3897 46.8274 27.4052 46.6534 26.4169 46.6886C25.4285 46.7238 24.4593 46.9674 23.5748 47.4031L21.7573 48.2982C21.4187 48.4644 21.0583 48.5836 20.6864 48.6522C20.6053 48.5781 20.5233 48.5048 20.4459 48.4281C18.1191 46.136 17.1708 42.5782 17.7755 38.4101C18.4846 33.5219 21.1596 28.5796 25.3072 24.4935C28.0741 21.7676 31.2875 19.673 34.5683 18.3805ZM32.2743 60.1758C32.7177 61.1255 33.2246 62.0452 33.7916 62.9289H30.7535C31.3215 62.0453 31.8296 61.1256 32.2743 60.1758ZM83.124 69.6978V79.1744H6.16457V69.6978C6.16584 68.6211 6.60062 67.5888 7.37352 66.8274C8.14643 66.066 9.19434 65.6377 10.2874 65.6365H79.0012C80.0942 65.6377 81.1422 66.066 81.9151 66.8274C82.688 67.5888 83.1227 68.6211 83.124 69.6978ZM55.4978 62.9289C56.067 62.0416 56.5754 61.1178 57.0196 60.1638C57.466 61.1178 57.9763 62.0416 58.5472 62.9289H55.4978ZM58.7779 52.0705C58.9587 51.5372 59.2552 51.049 59.6468 50.6399C60.0384 50.2308 60.5156 49.9106 61.0454 49.7014C61.5964 49.4773 62.1897 49.3723 62.7854 49.3934C63.381 49.4145 63.9651 49.5613 64.4983 49.8239L66.3154 50.7191C67.2703 51.1866 68.3221 51.4299 69.3884 51.4299C70.4547 51.4299 71.5065 51.1866 72.4614 50.7191L74.2788 49.8239C74.812 49.5614 75.3961 49.4147 75.9918 49.3935C76.5874 49.3724 77.1807 49.4774 77.7317 49.7014C78.2614 49.9106 78.7385 50.2309 79.1299 50.64C79.5213 51.0491 79.8177 51.5372 79.9984 52.0705C81.032 55.0921 80.0243 58.6491 76.9204 62.9289H61.8561C58.7521 58.6489 57.7444 55.0921 58.7779 52.0705ZM55.2537 52.0903C56.2856 55.1074 55.2826 58.6579 52.1899 62.9289H37.0987C34.0065 58.6579 33.0028 55.1072 34.0349 52.0903C34.2156 51.557 34.5119 51.0689 34.9033 50.6598C35.2947 50.2507 35.7719 49.9304 36.3016 49.7212C36.8525 49.4971 37.4459 49.3921 38.0415 49.4133C38.6372 49.4344 39.2213 49.5813 39.7544 49.8438L41.5716 50.7389C42.5265 51.2064 43.5783 51.4497 44.6446 51.4497C45.711 51.4497 46.7628 51.2064 47.7177 50.7389L49.535 49.8438C50.0681 49.5812 50.6522 49.4344 51.2479 49.4132C51.8436 49.392 52.4369 49.4971 52.9879 49.7212C53.5174 49.9305 53.9944 50.2508 54.3857 50.6599C54.7769 51.069 55.0731 51.5571 55.2537 52.0903ZM57.7155 30.4887C56.8582 36.3979 53.7502 42.2965 48.9504 47.1457C48.7308 47.2274 48.5155 47.3199 48.3054 47.4229L46.4881 48.318C45.9866 48.5634 45.4398 48.7062 44.8807 48.7378C44.3216 48.7694 43.7618 48.689 43.2351 48.5016C44.4545 47.6005 45.6075 46.6154 46.6854 45.5537C51.2509 41.0562 54.2019 35.5695 54.9948 30.1054C55.7247 25.0732 54.5003 20.6997 51.5469 17.7902C48.5282 14.8166 44.6068 14.1925 41.8487 14.1925C35.6046 14.1925 28.6943 17.3275 23.3633 22.5791C18.7978 27.0767 15.8469 32.5632 15.0541 38.0273C14.5355 41.6018 15.0041 44.8433 16.3768 47.4646L16.2521 47.4031C15.262 46.9154 14.1674 46.6691 13.0605 46.6851C11.8015 43.0724 11.7893 38.7348 13.0442 34.3567C14.4669 29.3952 17.363 24.6602 21.4195 20.6646C26.4027 15.7556 32.5242 12.5768 38.6562 11.7135C44.6421 10.871 49.91 12.3488 53.4902 15.8764C57.0703 19.4041 58.571 24.5921 57.7155 30.4887ZM83.124 16.8068L56.4493 15.0555C56.1279 14.6784 55.7894 14.3138 55.4341 13.9617C54.2178 12.7641 52.8266 11.7524 51.3064 10.9603L83.124 8.87059V16.8068Z"/>
</svg>
