<svg width="89" height="87" viewBox="0 0 89 87" fill="none" xmlns="http://www.w3.org/2000/svg">
<path d="M4.15989 7.13787C4.02213 7.26455 3.91229 7.41779 3.8372 7.58806C3.7621 7.75834 3.72337 7.94201 3.72339 8.12765V18.958C3.72339 19.317 3.86818 19.6614 4.1259 19.9152C4.38363 20.1691 4.73318 20.3118 5.09766 20.3118C5.1291 20.3118 5.16054 20.3107 5.19215 20.3085L43.5774 17.7008V20.3118C43.5774 20.6708 43.7222 21.0151 43.9799 21.269C44.2376 21.5229 44.5872 21.6655 44.9517 21.6655H49.0745V24.606C48.2713 24.8867 47.576 25.4054 47.0839 26.0908C46.5918 26.7763 46.327 27.5949 46.3259 28.4345V36.5572C46.3259 36.9163 46.4707 37.2606 46.7285 37.5145C46.9862 37.7684 47.3357 37.911 47.7002 37.911H58.6944C59.0589 37.911 59.4085 37.7684 59.6662 37.5145C59.9239 37.2606 60.0687 36.9163 60.0687 36.5572V28.4345C60.0676 27.5949 59.8029 26.7763 59.3108 26.0908C58.8187 25.4054 58.1233 24.8867 57.3202 24.606V21.6655H61.443C61.8075 21.6655 62.157 21.5229 62.4147 21.269C62.6725 21.0151 62.8173 20.6708 62.8173 20.3118V12.189C62.8172 9.91889 61.9898 7.72423 60.4857 6.0043C58.9816 4.28437 56.9007 3.15348 54.6217 2.81736C52.3426 2.48124 50.0167 2.96224 48.0673 4.17283C46.1178 5.38343 44.6743 7.24319 43.9993 9.41375L5.19215 6.77708C5.00414 6.76392 4.8154 6.78917 4.63776 6.85125C4.46013 6.91334 4.29744 7.01092 4.15989 7.13787ZM50.4488 27.0807H55.9459C56.3102 27.0811 56.6595 27.2239 56.9172 27.4777C57.1748 27.7315 57.3197 28.0756 57.3202 28.4345V29.7883H49.0745V28.4345C49.0749 28.0756 49.2198 27.7315 49.4775 27.4777C49.7351 27.2239 50.0844 27.0811 50.4488 27.0807ZM49.0745 35.2034V32.4958H57.3202V35.2034H49.0745ZM54.5716 24.3731H51.8231V21.6655H54.5716V24.3731ZM46.3259 12.189C46.3259 10.3938 47.0499 8.67208 48.3385 7.40265C49.6272 6.13323 51.3749 5.42008 53.1973 5.42008C55.0197 5.42008 56.7675 6.13323 58.0561 7.40265C59.3448 8.67208 60.0687 10.3938 60.0687 12.189V18.958H46.3259V12.189ZM43.5774 12.189V14.9866L24.3375 16.2939V10.7917L43.5796 12.0992C43.5795 12.1291 43.5774 12.1589 43.5774 12.189ZM6.47194 9.5779L21.589 10.6051V16.4805L6.47194 17.5077V9.5779Z" fill="#35DB9F"/>
<path d="M79.3086 64.9869H79.251C82.4131 60.5451 84.9886 55.9038 84.8045 51.3948C84.7116 49.6426 84.2217 47.933 83.3708 46.3916C82.758 45.2411 81.9094 44.2285 80.8787 43.418C81.6839 42.2025 82.7711 41.1932 84.0505 40.4735C84.2767 40.36 84.4666 40.1871 84.5993 39.974C84.732 39.7608 84.8023 39.5157 84.8025 39.2656C84.8026 39.0156 84.7326 38.7704 84.6001 38.5571C84.4677 38.3438 84.2779 38.1707 84.0519 38.057C83.8583 37.9591 79.3086 35.5958 79.3086 29.7884C79.3086 29.4293 79.1638 29.085 78.9061 28.8311C78.6483 28.5772 78.2988 28.4346 77.9343 28.4346C77.5698 28.4346 77.2203 28.5772 76.9625 28.8311C76.7048 29.085 76.56 29.4293 76.56 29.7884C76.56 35.5958 72.0103 37.9591 71.8225 38.0541C71.5956 38.1669 71.4047 38.3395 71.2712 38.5527C71.1377 38.7658 71.0667 39.0112 71.0661 39.2617C71.0655 39.5121 71.1353 39.7579 71.2678 39.9716C71.4003 40.1854 71.5903 40.3589 71.8167 40.4728C72.3377 40.7561 72.825 41.0959 73.2695 41.4858C72.1925 41.6665 71.1546 42.0266 70.2004 42.5505L67.5286 44.0128C66.509 44.5751 65.36 44.8704 64.1915 44.8704C63.023 44.8704 61.874 44.5751 60.8544 44.0128L58.1827 42.5505C57.0651 41.9368 55.8344 41.5491 54.5627 41.4103C53.291 41.2714 52.004 41.3843 50.7771 41.7421C49.5503 42.0999 48.4084 42.6955 47.4184 43.494C46.4284 44.2925 45.6103 45.2777 45.0121 46.3919C44.9922 46.4291 44.9752 46.4665 44.9556 46.5039C44.9362 46.4665 44.9192 46.4291 44.8993 46.3919C44.3011 45.2777 43.483 44.2925 42.493 43.494C41.503 42.6955 40.3611 42.0998 39.1343 41.742C37.9074 41.3842 36.6204 41.2714 35.3487 41.4102C34.077 41.5491 32.8463 41.9367 31.7287 42.5505L29.057 44.0128C28.0374 44.5751 26.8884 44.8704 25.7199 44.8704C24.5514 44.8704 23.4024 44.5751 22.3828 44.0128L19.7109 42.5505C18.5933 41.9368 17.3626 41.5491 16.091 41.4103C14.8193 41.2715 13.5323 41.3843 12.3055 41.7421C11.0787 42.0999 9.93678 42.6956 8.94683 43.494C7.95688 44.2925 7.13882 45.2777 6.54065 46.3919C5.68967 47.9334 5.19979 49.643 5.10694 51.3953C5.00387 53.9306 5.78034 56.7259 7.47173 59.913C6.98343 60.3619 6.44113 60.7501 5.85695 61.069C5.62998 61.1819 5.43916 61.3544 5.30565 61.5676C5.17213 61.7807 5.10114 62.0261 5.10054 62.2766C5.09993 62.527 5.16974 62.7728 5.30222 62.9866C5.4347 63.2003 5.62468 63.3738 5.85111 63.4877C6.7486 63.9858 7.55152 64.6336 8.22414 65.4021C6.90496 65.8815 5.76647 66.7474 4.96182 67.8834C4.15718 69.0193 3.72499 70.3707 3.72339 71.7558V82.5861C3.72339 82.9452 3.86818 83.2895 4.1259 83.5434C4.38363 83.7973 4.73318 83.9399 5.09766 83.9399H84.8057C85.1702 83.9399 85.5197 83.7973 85.7774 83.5434C86.0352 83.2895 86.1799 82.9452 86.1799 82.5861V71.7558C86.1779 69.9612 85.4533 68.2407 84.1651 66.9717C82.8769 65.7027 81.1303 64.9889 79.3086 64.9869ZM77.9343 35.525C78.699 36.9603 79.7456 38.2315 81.0134 39.2649C79.7456 40.2982 78.699 41.5695 77.9343 43.0047C77.1696 41.5695 76.123 40.2982 74.8552 39.2649C76.123 38.2315 77.1696 36.9603 77.9343 35.525ZM46.3247 51.5031C46.4024 50.1528 46.7853 48.8365 47.4455 47.6506C47.8658 46.8578 48.4441 46.1565 49.1457 45.5888C49.8474 45.0211 50.658 44.5985 51.5291 44.3463C52.4091 44.0846 53.3337 44.0002 54.2475 44.0983C55.1614 44.1964 56.0458 44.475 56.8479 44.9173L59.5198 46.3795C60.9472 47.1668 62.5557 47.5802 64.1915 47.5802C65.8274 47.5802 67.4359 47.1668 68.8632 46.3795L71.5353 44.9169C72.71 44.2694 74.0529 43.9787 75.395 44.0813C76.1786 45.512 76.5796 47.1158 76.56 48.7414C76.56 49.1004 76.7048 49.4448 76.9625 49.6987C77.2203 49.9526 77.5698 50.0952 77.9343 50.0952C78.2988 50.0952 78.6483 49.9526 78.9061 49.6987C79.1638 49.4448 79.3086 49.1004 79.3086 48.7414C79.3047 47.8126 79.4311 46.8877 79.6843 45.993C80.187 46.4782 80.61 47.0374 80.9383 47.6506C81.5985 48.8365 81.9815 50.1527 82.0592 51.5031C82.1576 53.9245 81.484 57.4227 75.8658 64.9869H52.5167C49.2899 60.6573 46.1524 55.7418 46.3247 51.5031ZM49.1317 64.9869H40.7797C42.4374 62.6582 43.9337 60.2745 44.9556 57.8839C45.9776 60.2745 47.474 62.6582 49.1317 64.9869ZM7.85309 51.5031C7.93077 50.1527 8.31373 48.8365 8.97398 47.6506C9.3943 46.8578 9.97254 46.1565 10.6741 45.5888C11.3758 45.0211 12.1863 44.5985 13.0575 44.3463C13.9375 44.0846 14.8621 44.0002 15.776 44.0982C16.6899 44.1963 17.5744 44.4747 18.3766 44.9169L21.0485 46.3792C22.4759 47.1665 24.0844 47.5799 25.7202 47.5799C27.3561 47.5799 28.9646 47.1665 30.3919 46.3792L33.0642 44.9169C33.8663 44.4744 34.7507 44.1958 35.6646 44.0977C36.5785 43.9996 37.5031 44.0841 38.3831 44.3462C39.2542 44.5983 40.0648 45.0208 40.7664 45.5885C41.468 46.1562 42.0462 46.8574 42.4665 47.6502C43.1267 48.8362 43.5097 50.1524 43.5874 51.5028C43.6851 53.9245 43.0115 57.4226 37.3932 64.9869H16.1063C16.6883 64.3949 17.355 63.89 18.0853 63.4879C18.3114 63.3744 18.5014 63.2015 18.6341 62.9884C18.7668 62.7752 18.8371 62.5301 18.8372 62.28C18.8374 62.03 18.7674 61.7848 18.6349 61.5715C18.5024 61.3582 18.3127 61.1851 18.0866 61.0714C17.893 60.9736 13.3433 58.6102 13.3433 52.8028C13.3433 52.4437 13.1985 52.0994 12.9408 51.8455C12.6831 51.5916 12.3335 51.449 11.969 51.449C11.6046 51.449 11.255 51.5916 10.9973 51.8455C10.7396 52.0994 10.5948 52.4437 10.5948 52.8028C10.6158 54.4738 10.1918 56.1211 9.36496 57.5803C8.27877 55.2849 7.78077 53.2829 7.85309 51.5031ZM11.969 58.5394C12.7337 59.9747 13.7804 61.2459 15.0481 62.2793C13.7804 63.3126 12.7337 64.5839 11.969 66.0191C11.2043 64.5839 10.1577 63.3126 8.88998 62.2793C10.1577 61.2459 11.2043 59.9747 11.969 58.5394ZM83.4314 81.2323H6.47194V71.7558C6.47319 70.82 6.80192 69.9132 7.40272 69.1882C8.00352 68.4633 8.83966 67.9646 9.7702 67.7762C10.3264 69.0307 10.6074 70.3869 10.5948 71.7558C10.5948 72.1148 10.7396 72.4592 10.9973 72.7131C11.255 72.967 11.6046 73.1096 11.969 73.1096C12.3335 73.1096 12.6831 72.967 12.9408 72.7131C13.1985 72.4592 13.3433 72.1148 13.3433 71.7558C13.3297 70.3568 13.6232 68.9713 14.2038 67.6944H79.3086C80.4016 67.6957 81.4495 68.124 82.2224 68.8854C82.9953 69.6468 83.4301 70.679 83.4314 71.7558V81.2323Z" fill="#35DB9F"/>
<path d="M53.1984 58.2177C53.4535 58.2175 53.7035 58.1473 53.9205 58.0151C54.1374 57.8828 54.3127 57.6937 54.4268 57.4689C54.5408 57.244 54.589 56.9924 54.566 56.742C54.5431 56.4917 54.4498 56.2527 54.2968 56.0516C53.0943 54.4729 52.5842 53.0563 52.779 51.8418C52.9092 51.056 53.3359 50.3475 53.9736 49.8584L53.969 49.8614C54.2678 49.6595 54.4736 49.3496 54.5416 48.999C54.6096 48.6484 54.5343 48.2856 54.3321 47.9894C54.1299 47.6932 53.8172 47.4877 53.4619 47.4175C53.1066 47.3474 52.7376 47.4183 52.4351 47.6148L52.4331 47.6161L52.4236 47.6226C51.179 48.5151 50.337 49.8508 50.0769 51.3455C49.7314 53.3312 50.4115 55.4612 52.0981 57.6763C52.2261 57.8447 52.3922 57.9813 52.5832 58.0753C52.7742 58.1693 52.9848 58.218 53.1984 58.2177ZM53.9623 49.8658L53.9597 49.8675L53.9623 49.8658Z" fill="#35DB9F"/>
</svg>
