<svg width="89" height="87" viewBox="0 0 89 87" fill="none" xmlns="http://www.w3.org/2000/svg">
<path d="M84.5456 2.56006H54.3115C53.9471 2.56006 53.5975 2.70269 53.3398 2.95657C53.082 3.21046 52.9373 3.5548 52.9373 3.91385C52.9373 6.11934 54.7169 8.31857 58.3784 10.6371C59.6803 11.4526 61.0311 12.1896 62.4235 12.8441C62.2095 13.688 61.6536 15.0736 60.2111 16.4944C57.6727 18.9949 55.8389 20.8017 56.7634 24.7356C56.8901 25.2632 57.1227 25.7605 57.4476 26.1982C57.7724 26.6358 58.183 27.0049 58.6549 27.2838L70.1403 34.072L61.9388 44.4593C61.3938 45.1462 61.0895 45.9885 61.0714 46.8601C61.0556 47.9665 61.3044 49.5524 62.5785 50.8252C63.4527 51.6984 64.6543 52.2612 66.1643 52.5074C65.175 55.7086 63.8217 62.5794 68.4568 67.1453C72.4657 71.0941 78.3261 71.7588 81.8184 71.7588C82.795 71.7656 83.771 71.7091 84.7401 71.5896C85.0675 71.5435 85.3671 71.3825 85.5839 71.1363C85.8006 70.8901 85.9199 70.5752 85.9199 70.2493V3.91368C85.9198 3.55466 85.775 3.21036 85.5173 2.95651C85.2596 2.70267 84.9101 2.56006 84.5456 2.56006ZM64.5356 48.9241C63.9285 48.3178 63.8112 47.4876 63.8196 46.8978C63.8283 46.6152 63.9295 46.3429 64.1082 46.1216L73.2618 34.5283C73.3811 34.3771 73.4665 34.2026 73.5124 34.0165C73.5582 33.8304 73.5635 33.6368 73.5278 33.4485C73.492 33.2603 73.4162 33.0816 73.3052 32.9244C73.1942 32.7671 73.0506 32.6349 72.8838 32.5363L60.0687 24.962C59.9126 24.8708 59.7766 24.7497 59.6688 24.6059C59.5609 24.4621 59.4834 24.2985 59.4407 24.1247C59.0667 22.534 59.2677 21.6363 60.2168 20.4526L78.5417 32.8628L67.3242 49.9159C66.0561 49.8247 65.0996 49.4869 64.5356 48.9241ZM83.1713 69.0076C80.566 69.1456 74.2609 69.034 70.4004 65.2308C65.9053 60.8029 68.8947 52.8794 69.2783 51.9253L81.5761 33.2301C81.7709 32.9342 81.8407 32.575 81.7706 32.2291C81.7006 31.8832 81.4964 31.5779 81.2013 31.3782L62.1126 18.4507L62.1547 18.4092C64.6421 15.9587 65.3057 13.2506 65.3057 12.0366C65.3057 11.7717 65.2268 11.5127 65.0789 11.2916C64.9309 11.0705 64.7203 10.897 64.4733 10.7926C62.8693 10.0883 61.3198 9.26923 59.8372 8.34209C57.8168 7.05954 56.7681 6.02914 56.2311 5.26764H83.1713V69.0076Z" fill="#C4C4C4"/>
<path d="M46.0658 43.3243H58.4343C58.7988 43.3243 59.1484 43.1816 59.4061 42.9278C59.6638 42.6739 59.8086 42.3295 59.8086 41.9705C59.8086 41.6114 59.6638 41.2671 59.4061 41.0132C59.1484 40.7593 58.7988 40.6167 58.4343 40.6167H46.0658C44.2434 40.6167 42.4957 41.3299 41.207 42.5993C39.9184 43.8687 39.1945 45.5904 39.1945 47.3856C39.1945 49.1809 39.9184 50.9026 41.207 52.172C42.4957 53.4414 44.2434 54.1546 46.0658 54.1546C47.1593 54.1546 48.2079 53.7267 48.9811 52.965C49.7543 52.2034 50.1887 51.1704 50.1887 50.0932C50.1887 49.0161 49.7543 47.9831 48.9811 47.2214C48.2079 46.4597 47.1593 46.0319 46.0658 46.0319C45.7014 46.0319 45.3518 46.1745 45.0941 46.4284C44.8363 46.6823 44.6916 47.0266 44.6916 47.3856C44.6916 47.7447 44.8363 48.089 45.0941 48.3429C45.3518 48.5968 45.7014 48.7394 46.0658 48.7394C46.4303 48.7394 46.7799 48.8821 47.0376 49.1359C47.2953 49.3898 47.4401 49.7342 47.4401 50.0932C47.4401 50.4523 47.2953 50.7966 47.0376 51.0505C46.7799 51.3044 46.4303 51.447 46.0658 51.447C44.9724 51.447 43.9237 51.0191 43.1506 50.2575C42.3774 49.4958 41.943 48.4628 41.943 47.3856C41.943 46.3085 42.3774 45.2755 43.1506 44.5138C43.9237 43.7522 44.9724 43.3243 46.0658 43.3243Z" fill="#C4C4C4"/>
<path d="M13.0832 24.3712C12.7187 24.3712 12.3691 24.5138 12.1114 24.7677C11.8537 25.0216 11.7089 25.366 11.7089 25.725C11.7089 26.084 11.8537 26.4284 12.1114 26.6823C12.3691 26.9362 12.7187 27.0788 13.0832 27.0788C14.1766 27.0788 15.2253 26.6509 15.9985 25.8892C16.7716 25.1276 17.206 24.0946 17.206 23.0174C17.206 21.9403 16.7716 20.9073 15.9985 20.1456C15.2253 19.3839 14.1766 18.9561 13.0832 18.9561C11.2608 18.9561 9.51301 19.6692 8.22437 20.9386C6.93574 22.2081 6.21179 23.9298 6.21179 25.725C6.21179 27.5202 6.93574 29.2419 8.22437 30.5114C9.51301 31.7808 11.2608 32.4939 13.0832 32.4939H30.9488C31.3132 32.4939 31.6628 32.3513 31.9205 32.0974C32.1782 31.8435 32.323 31.4992 32.323 31.1402C32.323 30.7811 32.1782 30.4368 31.9205 30.1829C31.6628 29.929 31.3132 29.7864 30.9488 29.7864H13.0832C11.9897 29.7864 10.9411 29.3585 10.1679 28.5968C9.39471 27.8352 8.96034 26.8021 8.96034 25.725C8.96034 24.6479 9.39471 23.6148 10.1679 22.8532C10.9411 22.0915 11.9897 21.6636 13.0832 21.6636C13.4477 21.6636 13.7972 21.8063 14.0549 22.0601C14.3127 22.314 14.4574 22.6584 14.4574 23.0174C14.4574 23.3765 14.3127 23.7208 14.0549 23.9747C13.7972 24.2286 13.4477 24.3712 13.0832 24.3712Z" fill="#C4C4C4"/>
<path d="M36.4458 18.9562C36.0814 18.9562 35.7318 19.0988 35.4741 19.3527C35.2164 19.6066 35.0716 19.9509 35.0716 20.31C35.0716 20.669 35.2164 21.0133 35.4741 21.2672C35.7318 21.5211 36.0814 21.6637 36.4458 21.6637C37.5393 21.6637 38.5879 21.2359 39.3611 20.4742C40.1343 19.7125 40.5687 18.6795 40.5687 17.6024C40.5687 16.5252 40.1343 15.4922 39.3611 14.7306C38.5879 13.9689 37.5393 13.541 36.4458 13.541C34.6234 13.541 32.8757 14.2542 31.587 15.5236C30.2984 16.793 29.5745 18.5147 29.5745 20.31C29.5745 22.1052 30.2984 23.8269 31.587 25.0963C32.8757 26.3657 34.6234 27.0789 36.4458 27.0789H48.8143C49.1788 27.0789 49.5284 26.9363 49.7861 26.6824C50.0438 26.4285 50.1886 26.0842 50.1886 25.7251C50.1886 25.3661 50.0438 25.0217 49.7861 24.7678C49.5284 24.514 49.1788 24.3713 48.8143 24.3713H36.4458C35.3524 24.3713 34.3037 23.9434 33.5306 23.1818C32.7574 22.4201 32.323 21.3871 32.323 20.31C32.323 19.2328 32.7574 18.1998 33.5306 17.4381C34.3037 16.6765 35.3524 16.2486 36.4458 16.2486C36.8103 16.2486 37.1599 16.3912 37.4176 16.6451C37.6753 16.899 37.8201 17.2433 37.8201 17.6024C37.8201 17.9614 37.6753 18.3058 37.4176 18.5597C37.1599 18.8135 36.8103 18.9562 36.4458 18.9562Z" fill="#C4C4C4"/>
<path d="M50.1887 35.2017H24.0774C22.255 35.2017 20.5073 35.9148 19.2186 37.1842C17.93 38.4537 17.2061 40.1754 17.2061 41.9706C17.2061 43.7658 17.93 45.4875 19.2186 46.757C20.5073 48.0264 22.255 48.7395 24.0774 48.7395C25.1709 48.7395 26.2195 48.3116 26.9927 47.55C27.7659 46.7883 28.2003 45.7553 28.2003 44.6782C28.2003 43.601 27.7659 42.568 26.9927 41.8064C26.2195 41.0447 25.1709 40.6168 24.0774 40.6168C23.713 40.6168 23.3634 40.7594 23.1057 41.0133C22.8479 41.2672 22.7032 41.6116 22.7032 41.9706C22.7032 42.3296 22.8479 42.674 23.1057 42.9279C23.3634 43.1818 23.713 43.3244 24.0774 43.3244C24.4419 43.3244 24.7915 43.467 25.0492 43.7209C25.3069 43.9748 25.4517 44.3191 25.4517 44.6782C25.4517 45.0372 25.3069 45.3816 25.0492 45.6355C24.7915 45.8893 24.4419 46.032 24.0774 46.032C22.984 46.032 21.9353 45.6041 21.1622 44.8424C20.389 44.0808 19.9546 43.0477 19.9546 41.9706C19.9546 40.8935 20.389 39.8604 21.1622 39.0988C21.9353 38.3371 22.984 37.9092 24.0774 37.9092H50.1887C50.5532 37.9092 50.9027 37.7666 51.1604 37.5127C51.4182 37.2588 51.563 36.9145 51.563 36.5554C51.563 36.1964 51.4182 35.8521 51.1604 35.5982C50.9027 35.3443 50.5532 35.2017 50.1887 35.2017Z" fill="#C4C4C4"/>
<path d="M19.9546 83.9377C23.2162 83.9377 26.4047 82.9849 29.1167 81.1999C31.8286 79.4148 33.9424 76.8776 35.1906 73.9091C36.4387 70.9407 36.7653 67.6742 36.129 64.5229C35.4927 61.3716 33.922 58.4769 31.6157 56.205C29.3093 53.933 26.3709 52.3858 23.1719 51.7589C19.9729 51.1321 16.657 51.4538 13.6436 52.6834C10.6302 53.913 8.05463 55.9952 6.24254 58.6668C4.43046 61.3383 3.46326 64.4792 3.46326 67.6923C3.46817 71.9993 5.20722 76.1286 8.29887 79.1742C11.3905 82.2198 15.5823 83.9329 19.9546 83.9377ZM19.9546 54.1544C22.6726 54.1544 25.3297 54.9483 27.5896 56.4359C29.8496 57.9235 31.6111 60.0378 32.6512 62.5115C33.6914 64.9853 33.9635 67.7073 33.4333 70.3334C32.903 72.9595 31.5941 75.3717 29.6722 77.265C27.7502 79.1583 25.3015 80.4477 22.6357 80.97C19.9698 81.4924 17.2066 81.2243 14.6954 80.1996C12.1843 79.175 10.038 77.4398 8.52788 75.2135C7.01781 72.9872 6.21181 70.3698 6.21181 67.6923C6.21595 64.103 7.66517 60.662 10.2415 58.124C12.8179 55.5861 16.311 54.1584 19.9546 54.1544Z" fill="#C4C4C4"/>
<path d="M11.9399 68.4434C12.1421 68.7421 12.4564 68.9495 12.8138 69.0199C13.1712 69.0903 13.5424 69.0179 13.8456 68.8187L17.9685 66.1112C18.1567 65.9875 18.311 65.82 18.4177 65.6235C18.5245 65.4271 18.5803 65.2077 18.5803 64.9848C18.5803 64.762 18.5245 64.5426 18.4177 64.3461C18.311 64.1496 18.1567 63.9821 17.9685 63.8585L13.8456 61.1509C13.6955 61.0511 13.5268 60.9816 13.3493 60.9463C13.1718 60.9109 12.989 60.9105 12.8113 60.945C12.6337 60.9795 12.4647 61.0483 12.3141 61.1473C12.1635 61.2464 12.0342 61.3738 11.9337 61.5222C11.8333 61.6706 11.7636 61.8371 11.7287 62.0122C11.6938 62.1872 11.6943 62.3673 11.7303 62.5422C11.7662 62.717 11.8369 62.8831 11.9383 63.0309C12.0397 63.1788 12.1697 63.3054 12.3209 63.4036L14.7286 64.9848L12.3209 66.566C12.0176 66.7652 11.8071 67.0749 11.7357 67.427C11.6642 67.7791 11.7377 68.1447 11.9399 68.4434Z" fill="#C4C4C4"/>
<path d="M21.9407 66.1112L26.0635 68.8187C26.2137 68.9195 26.3825 68.9899 26.5604 69.0259C26.7383 69.0619 26.9217 69.0628 27.1 69.0286C27.2782 68.9944 27.4478 68.9257 27.599 68.8265C27.7502 68.7274 27.8799 68.5996 27.9806 68.4508C28.0813 68.3019 28.1511 68.1349 28.1859 67.9593C28.2208 67.7837 28.2199 67.603 28.1834 67.4278C28.1469 67.2525 28.0755 67.0861 27.9733 66.9382C27.8712 66.7903 27.7402 66.6638 27.5881 66.566L25.1806 64.9848L27.5881 63.4036C27.7402 63.3058 27.8712 63.1793 27.9733 63.0314C28.0755 62.8835 28.1469 62.7171 28.1834 62.5418C28.2199 62.3666 28.2208 62.1859 28.1859 62.0103C28.1511 61.8348 28.0813 61.6677 27.9806 61.5188C27.8799 61.37 27.7502 61.2423 27.599 61.1431C27.4478 61.0439 27.2782 60.9752 27.1 60.941C26.9217 60.9068 26.7383 60.9077 26.5604 60.9437C26.3825 60.9798 26.2137 61.0502 26.0635 61.1509L21.9407 63.8585C21.7525 63.9821 21.5982 64.1496 21.4914 64.3461C21.3847 64.5426 21.3289 64.762 21.3289 64.9848C21.3289 65.2077 21.3847 65.4271 21.4914 65.6236C21.5982 65.82 21.7525 65.9875 21.9407 66.1112Z" fill="#C4C4C4"/>
<path d="M16.2342 70.7964L13.4857 73.504C13.2279 73.7579 13.0831 74.1023 13.0831 74.4613C13.0831 74.8204 13.2279 75.1647 13.4857 75.4186C13.7434 75.6725 14.093 75.8151 14.4574 75.8151C14.8219 75.8151 15.1715 75.6725 15.4292 75.4186L17.206 73.6682L18.9828 75.4186C19.1104 75.5443 19.2619 75.6441 19.4286 75.7121C19.5954 75.7801 19.7741 75.8152 19.9545 75.8152C20.135 75.8152 20.3137 75.7801 20.4805 75.7121C20.6472 75.6441 20.7987 75.5443 20.9263 75.4186L22.7031 73.6682L24.4799 75.4186C24.7376 75.6725 25.0872 75.8151 25.4516 75.8151C25.8161 75.8151 26.1657 75.6725 26.4234 75.4186C26.6812 75.1647 26.826 74.8204 26.826 74.4613C26.826 74.1023 26.6812 73.7579 26.4234 73.504L23.6749 70.7964C23.5473 70.6707 23.3958 70.571 23.229 70.503C23.0623 70.4349 22.8836 70.3999 22.7031 70.3999C22.5226 70.3999 22.3439 70.4349 22.1772 70.503C22.0104 70.571 21.8589 70.6707 21.7313 70.7964L19.9545 72.5469L18.1778 70.7964C18.0502 70.6707 17.8987 70.571 17.7319 70.503C17.5652 70.4349 17.3865 70.3999 17.206 70.3999C17.0255 70.3999 16.8468 70.4349 16.6801 70.503C16.5133 70.571 16.3618 70.6707 16.2342 70.7964Z" fill="#C4C4C4"/>
</svg>
