<svg width="89" height="88" viewBox="0 0 89 88" fill="none" xmlns="http://www.w3.org/2000/svg">
<path d="M18.7803 46.8989C18.4007 42.7785 18.0416 38.8867 16.0072 33.9195C15.8708 33.5865 15.6057 33.3205 15.2702 33.1801C14.9348 33.0397 14.5564 33.0363 14.2184 33.1706C13.8804 33.305 13.6104 33.5662 13.4679 33.8966C13.3253 34.2271 13.3219 34.5998 13.4583 34.9328C15.3412 39.5292 15.6666 43.0579 16.0431 47.1434C16.4664 51.7363 16.9463 56.9415 19.7983 64.6714C19.8584 64.8404 19.952 64.996 20.0736 65.1291C20.1952 65.2623 20.3424 65.3703 20.5067 65.447C20.671 65.5237 20.8491 65.5675 21.0306 65.5759C21.2122 65.5844 21.3937 65.5572 21.5646 65.496C21.7354 65.4349 21.8923 65.3409 22.026 65.2196C22.1598 65.0983 22.2678 64.9521 22.3437 64.7894C22.4197 64.6267 22.4622 64.4508 22.4686 64.2718C22.4751 64.0929 22.4455 63.9144 22.3814 63.7468C19.6513 56.3472 19.1887 51.3277 18.7803 46.8989Z" fill="#462899"/>
<path d="M76.5751 43.9099C74.0247 43.9127 71.5795 44.912 69.776 46.6886C67.9725 48.4652 66.9581 50.8739 66.9552 53.3864V54.7402C65.5457 53.6947 63.9444 52.9274 62.2394 52.4802C62.5175 50.5653 62.6788 48.8268 62.8339 47.1393C63.2098 43.0536 63.5343 39.5253 65.4129 34.929C66.4072 32.4969 66.9552 29.433 66.9552 26.3034C66.9552 21.6573 65.7012 17.3986 63.4242 14.312C60.7229 10.6514 56.7036 8.71206 51.8013 8.7041H51.7586C46.2992 8.7041 42.0451 10.3933 38.937 11.6276C37.4042 12.2368 36.0802 12.7614 35.3529 12.7655C34.6142 12.7623 33.2896 12.2365 31.7567 11.6276C28.6485 10.3933 24.3951 8.7041 18.9351 8.7041H18.8925C13.9901 8.71206 9.97087 10.6514 7.26956 14.3122C4.99255 17.3988 3.73853 21.6575 3.73853 26.3034C3.73853 29.4328 4.28652 32.4969 5.28098 34.9288C7.15944 39.5253 7.48343 43.0536 7.85964 47.1392C8.30817 52.0152 8.81647 57.5419 12.1276 66.0414C15.2914 74.163 21.7309 75.0397 24.3527 75.0397C26.4313 75.0397 28.5399 73.9398 30.1377 72.0203C32.4691 69.2198 33.3829 65.1864 32.5815 61.2309C31.9557 58.1411 30.7698 50.6294 33.2715 47.6254C33.84 46.9427 34.5189 46.61 35.3469 46.61C36.1749 46.61 36.8538 46.9419 37.4222 47.6254C39.9239 50.6301 38.7381 58.1417 38.1123 61.2309C37.3109 65.1864 38.2246 69.2198 40.5561 72.0203C42.1538 73.9398 44.2625 75.0397 46.3411 75.0397C47.1308 75.0393 47.9188 74.9656 48.6945 74.8197C49.9673 76.1605 51.5041 77.2316 53.2112 77.9676C54.9183 78.7037 56.7597 79.0892 58.6231 79.1007C60.4865 79.1121 62.3327 78.7493 64.049 78.0343C65.7652 77.3194 67.3155 76.2673 68.6052 74.9423C69.7592 76.6223 71.4299 77.8934 73.3718 78.5685C75.3137 79.2436 77.4241 79.2871 79.393 78.6927C81.3618 78.0983 83.0852 76.8973 84.3096 75.2663C85.534 73.6353 86.1949 71.6604 86.1951 69.6319V53.3864C86.1922 50.8739 85.1778 48.4652 83.3743 46.6886C81.5708 44.912 79.1256 43.9127 76.5751 43.9099ZM76.5751 46.6175C78.3969 46.6195 80.1435 47.3333 81.4317 48.6023C82.7199 49.8712 83.4445 51.5918 83.4465 53.3864V60.1481H71.3014C70.8763 59.191 70.3402 58.2855 69.7038 57.4498V53.3864C69.7058 51.5918 70.4304 49.8712 71.7186 48.6023C73.0068 47.3333 74.7534 46.6195 76.5751 46.6175ZM47.7154 65.5632C47.7152 63.7741 48.165 62.0128 49.0246 60.4367C49.8841 58.8607 51.1267 57.519 52.6413 56.5316C54.1558 55.5442 55.8951 54.9418 57.7037 54.7783C59.5123 54.6148 61.3339 54.8952 63.0055 55.5946L48.5901 69.7952C48.0114 68.4572 47.7138 67.0176 47.7154 65.5632ZM46.3411 72.3322C45.0888 72.3322 43.7549 71.5927 42.6821 70.3033C40.8668 68.1231 40.1665 64.9296 40.8082 61.7608C42.3371 54.2156 41.9008 48.7336 39.548 45.9077C38.4551 44.5964 37.0027 43.9026 35.3469 43.9026C33.691 43.9026 32.2386 44.5964 31.1464 45.9077C28.7929 48.7338 28.3576 54.2156 29.8862 61.7608C30.528 64.9296 29.8276 68.1236 28.0124 70.3033C26.9389 71.5927 25.605 72.3322 24.3527 72.3322C21.8017 72.3322 17.1549 71.3889 14.6937 65.0725C11.5193 56.9233 11.0294 51.5958 10.597 46.8955C10.2191 42.7757 9.86024 38.8844 7.83129 33.9181C6.96447 31.7987 6.48708 29.0945 6.48708 26.3034C6.48708 22.2251 7.55403 18.5318 9.49331 15.9044C11.6875 12.9298 14.8516 11.4183 18.8971 11.4117H18.9342C23.8614 11.4117 27.8299 12.9875 30.7291 14.1389C32.5983 14.8808 34.0746 15.4676 35.3529 15.473C36.6191 15.4676 38.0954 14.8808 39.9646 14.1389C42.864 12.9875 46.832 11.4117 51.7595 11.4117H51.7966C55.8421 11.4183 59.0062 12.9298 61.201 15.9042C63.1397 18.5316 64.2067 22.2251 64.2067 26.3034C64.2067 29.0955 63.7293 31.7989 62.8633 33.9184C60.8335 38.8848 60.4755 42.7761 60.0967 46.8958C59.9461 48.5332 59.7896 50.2192 59.525 52.0521C59.255 52.0355 58.9844 52.0253 58.7096 52.0253C56.298 52.0235 53.9285 52.6473 51.8394 53.834C49.7503 55.0206 48.0153 56.7283 46.8088 58.7853C45.6024 60.8422 44.967 63.1758 44.9668 65.5514C44.9665 67.927 45.6013 70.2608 46.8073 72.3179C46.6518 72.3252 46.4957 72.3322 46.3411 72.3322ZM50.0331 72.2029L65.4497 57.0161C66.1754 57.5727 66.8279 58.2161 67.3922 58.9315L51.9773 74.1165C51.2512 73.5605 50.5981 72.9177 50.0331 72.2029ZM58.7096 76.3935C57.2368 76.3951 55.7789 76.1035 54.4234 75.5362L68.8335 61.3409C69.5412 62.9876 69.824 64.7812 69.6566 66.5618C69.4892 68.3423 68.8769 70.0543 67.8744 71.545C66.8718 73.0357 65.5101 74.2586 63.9109 75.1046C62.3117 75.9507 60.5248 76.3935 58.7096 76.3935ZM76.5751 76.4008C75.2951 76.402 74.0402 76.0503 72.9524 75.3855C71.8646 74.7207 70.9874 73.7693 70.4199 72.639C72.2437 69.7153 72.8714 66.2181 72.1758 62.8556H83.4465V69.6319C83.4445 71.4265 82.7199 73.147 81.4317 74.416C80.1435 75.685 78.3969 76.3988 76.5751 76.4008Z" fill="#462899"/>
<path d="M13.3621 27.6443C13.5426 27.6438 13.7212 27.6083 13.8878 27.5399C14.0543 27.4714 14.2056 27.3712 14.3329 27.2452C14.4601 27.1191 14.561 26.9696 14.6296 26.8052C14.6982 26.6407 14.7333 26.4646 14.7328 26.2868C14.7255 23.5088 15.279 21.49 16.3338 20.4486C16.966 19.8248 17.7905 19.5215 18.8556 19.5215C19.2201 19.5215 19.5696 19.3789 19.8273 19.125C20.0851 18.8711 20.2299 18.5268 20.2299 18.1678C20.2299 17.8087 20.0851 17.4644 19.8273 17.2105C19.5696 16.9566 19.2201 16.814 18.8556 16.814C17.0735 16.814 15.5286 17.4095 14.3876 18.5365C12.7835 20.1208 11.9749 22.7309 11.9842 26.2939C11.9851 26.6523 12.1303 26.9958 12.3879 27.249C12.6456 27.5021 12.9946 27.6443 13.3585 27.6443H13.3621Z" fill="#462899"/>
</svg>
