<svg width="88" height="88" viewBox="0 0 88 88" fill="none" xmlns="http://www.w3.org/2000/svg">
<path d="M85.2567 40.1127C83.6869 39.6382 81.8976 39.1922 79.9706 38.7741C79.9498 38.5126 80.0264 38.2585 80.1788 38.0691C80.1818 38.0654 80.1913 38.0537 80.1944 38.05C85.0172 32.0656 86.653 26.67 85.3419 21.0698C85.0945 20.0131 84.7733 18.9961 84.3873 18.0466C82.4439 13.2675 78.3001 10.2985 73.5733 10.2985C71.1772 10.2985 68.8903 11.0316 66.9599 12.4184C65.3347 13.5858 63.151 13.5858 61.5257 12.4184C59.5952 11.0314 57.3082 10.2983 54.9123 10.2983C54.1491 10.2983 53.3915 10.374 52.6606 10.5232C51.9662 10.6649 51.5199 11.3343 51.6639 12.0183C51.8077 12.7025 52.4874 13.1418 53.1816 13.0002C53.7413 12.8859 54.3236 12.8281 54.9122 12.8281C56.7606 12.8281 58.5243 13.3931 60.0126 14.4623C62.5428 16.2797 65.9428 16.2799 68.4728 14.4623C69.9608 13.3931 71.7246 12.8281 73.5731 12.8281C77.2837 12.8281 80.4351 15.1305 82.0033 18.9871C82.3405 19.816 82.6217 20.708 82.8395 21.638C83.1549 22.9854 83.2645 24.327 83.1639 25.6775H69.7513C69.1681 23.2121 66.9204 21.3693 64.2427 21.3693C61.5649 21.3693 59.3172 23.2121 58.734 25.6775H45.3216C45.3013 25.4065 45.2909 25.136 45.2874 24.8656C45.2953 23.7763 45.3965 22.7021 45.6456 21.638C45.8634 20.708 46.1448 19.816 46.4819 18.9871C47.0226 17.6572 47.7659 16.4934 48.6908 15.5284C49.1777 15.0204 49.1541 14.2198 48.6384 13.7403C48.1229 13.2609 47.3102 13.2841 46.8234 13.792C45.6764 14.989 44.7594 16.4205 44.0982 18.0466C44.0636 18.1314 44.0326 18.2194 43.9992 18.3053C43.9657 18.2195 43.9346 18.1314 43.9003 18.0466C41.9567 13.2675 37.8131 10.2985 33.0863 10.2985C30.6902 10.2985 28.4032 11.0316 26.4729 12.4184C24.8478 13.5858 22.6641 13.5858 21.0387 12.4184C19.1082 11.0314 16.8214 10.2983 14.4253 10.2983C9.69849 10.2983 5.55471 13.2672 3.61131 18.0464C3.22514 18.9959 2.9039 20.013 2.65653 21.0696C1.34547 26.6697 2.9812 32.0654 7.81007 38.0571C7.97206 38.2583 8.04868 38.513 8.02772 38.7748C6.09995 39.1926 4.31133 39.6383 2.74208 40.1123C1.11511 40.6043 0.0222168 42.0619 0.0222168 43.7401V57.666C0.0222168 58.3646 0.597008 58.9308 1.30613 58.9308C2.01526 58.9308 2.59005 58.3646 2.59005 57.666V43.7401C2.59005 43.1805 2.95372 42.6947 3.49484 42.5312C4.78906 42.1401 6.24253 41.7687 7.80423 41.416C7.68793 42.762 7.5572 44.1255 7.37013 45.4488C7.03755 47.802 6.78881 50.8666 7.82536 53.7018C8.46955 55.4641 10.3618 58.4145 12.9339 59.3197C13.4365 59.4965 13.9393 59.5845 14.4339 59.5845C15.1832 59.5845 15.9138 59.3825 16.5951 58.9811C19.2145 57.4379 19.0484 54.0704 18.9268 51.6116C18.9055 51.1807 18.8854 50.7739 18.8835 50.427C18.8761 49.0864 19.0558 47.8656 19.4177 46.7985C20.1937 44.5106 22.167 43.6955 23.7549 43.6953C25.3427 43.6953 27.316 44.5103 28.0921 46.7978C28.4543 47.865 28.6341 49.0859 28.6267 50.427C28.6249 50.7739 28.6048 51.1806 28.5835 51.6112C28.462 54.0702 28.2957 57.4379 30.9151 58.9811C32.0463 59.6475 33.3123 59.7646 34.5765 59.3199C37.1488 58.4149 39.0408 55.4645 39.6852 53.702C40.7217 50.8665 40.4728 47.802 40.1403 45.449C39.8992 43.7433 39.7512 41.9697 39.6079 40.2546C39.567 39.7641 39.526 39.2736 39.483 38.7836C39.4596 38.5189 39.5369 38.261 39.7068 38.0503C39.9341 37.7684 40.1535 37.4878 40.3667 37.2083C42.7868 37.1306 45.2096 37.1301 47.6292 37.2061C47.8446 37.4887 48.0667 37.7725 48.2966 38.0578C48.4603 38.261 48.5376 38.5189 48.5142 38.7837C48.4711 39.2736 48.4302 39.7641 48.3893 40.2546C48.2461 41.9699 48.098 43.7433 47.857 45.449C47.5244 47.8018 47.2757 50.8665 48.3122 53.702C48.9564 55.4643 50.8486 58.4147 53.4207 59.3199C53.9232 59.4967 54.4262 59.5847 54.9208 59.5847C55.6701 59.5847 56.4005 59.3827 57.082 58.9813C59.7015 57.4381 59.5352 54.0704 59.4138 51.6114C59.3925 51.1807 59.3726 50.7739 59.3705 50.4272C59.3631 49.0864 59.543 47.8656 59.9048 46.7987C60.6809 44.5108 62.6542 43.6955 64.242 43.6955C65.8298 43.6955 67.8031 44.5104 68.5792 46.798C68.9413 47.8653 69.1212 49.0862 69.1138 50.4272C69.1119 50.7743 69.0918 51.1811 69.0705 51.6117C68.949 54.0706 68.7829 57.4383 71.4021 58.9813C72.5335 59.6477 73.7994 59.7648 75.0635 59.32C77.6358 58.415 79.5279 55.4646 80.1721 53.7022C81.2086 50.8668 80.9599 47.8022 80.6273 45.4491C80.4402 44.1255 80.3095 42.7613 80.1932 41.415C81.7545 41.768 83.2078 42.14 84.5029 42.5315C85.0439 42.695 85.4075 43.1809 85.4075 43.7405V74.2862C85.4075 74.9835 84.8315 75.5509 84.1236 75.5509H3.87414C3.16604 75.5509 2.59022 74.9835 2.59022 74.2862V63.51C2.59022 62.8115 2.01543 62.2452 1.30631 62.2452C0.59718 62.2452 0.0222168 62.811 0.0222168 63.5095V74.2857C0.0222168 76.3779 1.7502 78.0802 3.87414 78.0802H84.124C86.2479 78.0802 87.9759 76.3779 87.9759 74.2857V43.74C87.9759 42.0621 86.8832 40.6044 85.2567 40.1127ZM64.2425 23.8993C65.9461 23.8993 67.3318 25.2646 67.3318 26.9428C67.3318 28.621 65.9459 29.9861 64.2425 29.9861C62.5389 29.9861 61.1531 28.6209 61.1531 26.9428C61.1531 25.2646 62.5391 23.8993 64.2425 23.8993ZM5.15857 21.6383C5.3764 20.7083 5.65778 19.8163 5.99482 18.9875C7.56304 15.1309 10.7146 12.8284 14.425 12.8284C16.2734 12.8284 18.0371 13.3934 19.5254 14.4626C22.0556 16.2801 25.4556 16.2802 27.9856 14.4626C29.4736 13.3934 31.2374 12.8284 33.0859 12.8284C36.7963 12.8284 39.9479 15.1309 41.5161 18.9875C41.8533 19.8165 42.1345 20.7085 42.3523 21.6383C42.5999 22.6957 42.7241 23.7831 42.7107 24.8666C42.7074 25.1367 42.6968 25.4071 42.6767 25.6779H29.2641C28.6809 23.2125 26.4332 21.3696 23.7554 21.3696C21.0777 21.3696 18.83 23.2125 18.2468 25.6779H4.83459C4.73358 24.3271 4.84318 22.9857 5.15857 21.6383ZM26.845 26.9428C26.845 28.621 25.459 29.9861 23.7556 29.9861C22.052 29.9861 20.6662 28.6209 20.6662 26.9428C20.6662 25.2646 22.0522 23.8993 23.7556 23.8993C25.459 23.8993 26.845 25.2646 26.845 26.9428ZM37.2696 52.8447C36.7698 54.2117 35.2559 56.3945 33.7133 56.9374C33.1737 57.1272 32.7035 57.0866 32.2337 56.8098C30.936 56.0454 31.0541 53.6548 31.1489 51.7339C31.1716 51.2753 31.1929 50.8419 31.1953 50.4404C31.204 48.8216 30.9797 47.3262 30.5282 45.9957C29.5326 43.0612 26.874 41.1652 23.7553 41.1654C20.6365 41.1656 17.978 43.0621 16.9827 45.9967C16.5314 47.3272 16.307 48.8223 16.316 50.4405C16.3182 50.8421 16.3395 51.2755 16.3622 51.7344C16.457 53.6551 16.575 56.0456 15.2774 56.8101C14.8075 57.0868 14.3374 57.1274 13.7978 56.9375C12.2552 56.3947 10.7412 54.2119 10.2415 52.8449C9.39547 50.5302 9.62188 47.8629 9.91357 45.7977C10.1647 44.021 10.3159 42.2109 10.4621 40.4604C10.5028 39.9739 10.5433 39.4877 10.5861 39.0019C10.6662 38.0909 10.3947 37.1974 9.81514 36.4772C7.47612 33.5749 5.97369 30.8558 5.26886 28.2078H18.2468C18.83 30.6732 21.0777 32.5159 23.7554 32.5159C26.4332 32.5159 28.6809 30.673 29.2641 28.2078H42.2427C41.5389 30.8541 40.0389 33.5701 37.705 36.4661C37.7019 36.47 37.6923 36.4818 37.6892 36.4857C37.1163 37.1973 36.8449 38.0909 36.925 39.0019C36.9677 39.4881 37.0085 39.9749 37.049 40.4619C37.1952 42.212 37.3462 44.0217 37.5973 45.7977C37.8892 47.8626 38.1158 50.5299 37.2696 52.8447ZM42.1503 34.6346C42.9031 33.4236 43.5194 32.2316 43.9994 31.0516C44.4795 32.2317 45.0961 33.4239 45.849 34.6352C44.6163 34.6154 43.3832 34.6154 42.1503 34.6346ZM77.7566 52.8447C77.2569 54.2117 75.7429 56.3945 74.2003 56.9374C73.6607 57.1272 73.1907 57.0866 72.7207 56.8098C71.4231 56.0454 71.5411 53.6549 71.6361 51.7343C71.6588 51.2755 71.6801 50.8421 71.6823 50.4404C71.6912 48.8219 71.4667 47.3263 71.0153 45.9957C70.0196 43.0614 67.3612 41.1652 64.2425 41.1654C61.1236 41.1656 58.465 43.0621 57.4697 45.9967C57.0184 47.327 56.7942 48.8221 56.803 50.4405C56.8052 50.8421 56.8267 51.2753 56.8494 51.7341C56.9442 53.6549 57.0622 56.0456 55.7646 56.8101C55.2947 57.0868 54.8247 57.1274 54.285 56.9375C52.7424 56.3947 51.2284 54.2119 50.7287 52.8449C49.8825 50.5301 50.1091 47.8629 50.4008 45.7977C50.6517 44.0216 50.8029 42.2119 50.9491 40.4619C50.9898 39.9751 51.0304 39.4882 51.0731 39.0019C51.1532 38.0908 50.8818 37.1971 50.3149 36.493C50.3128 36.4903 50.3044 36.4798 50.3023 36.4772C47.9633 33.5749 46.4609 30.8558 45.7561 28.2078H58.734C59.3172 30.6732 61.5649 32.5159 64.2427 32.5159C66.9204 32.5159 69.1681 30.673 69.7513 28.2078H82.7299C82.0261 30.8541 80.5261 33.5701 78.1922 36.4661C78.1891 36.47 78.1794 36.4818 78.1763 36.4857C77.6035 37.1973 77.3321 38.0909 77.4122 39.0017C77.4549 39.4875 77.4955 39.9742 77.5362 40.4608C77.6824 42.211 77.8336 44.021 78.0845 45.7976C78.3762 47.8628 78.6026 50.5301 77.7566 52.8447Z"/>
</svg>
