<svg width="89" height="87" viewBox="0 0 89 87" fill="none" xmlns="http://www.w3.org/2000/svg">
<path d="M18.1856 13.5605C18.1863 13.3098 18.1166 13.0637 17.9841 12.8496C17.8517 12.6355 17.6616 12.4617 17.4351 12.3475C17.2415 12.2497 12.6917 9.8863 12.6917 4.07889C12.6917 3.71984 12.547 3.3755 12.2892 3.12161C12.0315 2.86773 11.6819 2.7251 11.3175 2.7251C10.953 2.7251 10.6034 2.86773 10.3457 3.12161C10.088 3.3755 9.94319 3.71984 9.94319 4.07889C9.94319 9.87361 5.4134 12.2394 5.20194 12.3468C4.97575 12.4603 4.78581 12.6332 4.65311 12.8463C4.5204 13.0595 4.45009 13.3046 4.44995 13.5547C4.44981 13.8047 4.51984 14.0499 4.6523 14.2632C4.78476 14.4765 4.97451 14.6496 5.20056 14.7633C5.39416 14.8611 9.94388 17.2245 9.94388 23.0319C9.94388 23.391 10.0887 23.7353 10.3464 23.9892C10.6041 24.2431 10.9537 24.3857 11.3182 24.3857C11.6826 24.3857 12.0322 24.2431 12.2899 23.9892C12.5476 23.7353 12.6924 23.391 12.6924 23.0319C12.6924 17.2245 17.2421 14.8611 17.4299 14.7662C17.6567 14.6537 17.8474 14.4815 17.9808 14.2686C18.1142 14.0558 18.1851 13.8106 18.1856 13.5605ZM11.3175 17.2952C10.5528 15.86 9.50614 14.5888 8.2384 13.5554C9.50614 12.5221 10.5528 11.2508 11.3175 9.81557C12.0822 11.2508 13.1289 12.5221 14.3967 13.5554C13.1289 14.5887 12.0822 15.86 11.3175 17.2952Z" fill="#C4C4C4"/>
<path d="M78.6571 63.6458C78.6571 63.2867 78.5123 62.9424 78.2546 62.6885C77.9968 62.4346 77.6473 62.292 77.2828 62.292C76.9183 62.292 76.5688 62.4346 76.311 62.6885C76.0533 62.9424 75.9085 63.2867 75.9085 63.6458C75.9085 69.4405 71.3787 71.8062 71.1673 71.9137C70.9411 72.0272 70.7511 72.2001 70.6184 72.4132C70.4857 72.6264 70.4154 72.8715 70.4153 73.1215C70.4151 73.3716 70.4852 73.6168 70.6176 73.8301C70.7501 74.0434 70.9398 74.2165 71.1659 74.3302C71.3595 74.428 75.9092 76.7914 75.9092 82.5988C75.9092 82.9579 76.054 83.3022 76.3117 83.5561C76.5694 83.81 76.919 83.9526 77.2835 83.9526C77.648 83.9526 77.9975 83.81 78.2552 83.5561C78.513 83.3022 78.6578 82.9579 78.6578 82.5988C78.6578 76.7914 83.2075 74.428 83.3952 74.3331C83.6222 74.2202 83.813 74.0477 83.9465 73.8345C84.08 73.6214 84.151 73.376 84.1516 73.1255C84.1523 72.875 84.0824 72.6293 83.95 72.4155C83.8175 72.2018 83.6275 72.0283 83.4011 71.9144C83.2068 71.8166 78.6571 69.4532 78.6571 63.6458ZM77.2828 76.8621C76.5181 75.4269 75.4715 74.1556 74.2037 73.1223C75.4715 72.089 76.5181 70.8177 77.2828 69.3825C78.0475 70.8177 79.0942 72.089 80.362 73.1223C79.0942 74.1556 78.0475 75.4269 77.2828 76.8621Z" fill="#C4C4C4"/>
<path d="M84.1494 9.38171C84.1237 9.0787 83.9953 8.79301 83.7848 8.57066C83.5743 8.34831 83.2939 8.20226 82.9888 8.15602C77.0226 7.25254 72.2602 8.26094 68.8351 11.1553C67.7529 12.0758 66.8239 13.1577 66.0819 14.3616C65.6115 12.4576 64.7668 10.6628 63.5957 9.0788C60.7657 5.30511 56.1559 3.16917 49.8945 2.72868C49.59 2.70679 49.2868 2.78559 49.0329 2.95261C48.779 3.11964 48.5889 3.36533 48.4928 3.65078C48.3967 3.93508 46.179 10.6835 49.9177 16.581C50.2383 17.0859 50.5927 17.5693 50.9785 18.0279C49.8409 18.422 48.8102 18.8295 47.9111 19.1865C46.3783 19.7957 45.0543 20.3203 44.327 20.3244C43.5883 20.3212 42.2637 19.7954 40.7308 19.1865C37.6231 17.9522 33.3697 16.263 27.9097 16.263H27.8671C22.9647 16.271 18.9455 18.2103 16.2443 21.8711C13.9672 24.9577 12.7131 29.2164 12.7131 33.8623C12.7131 36.9919 13.2611 40.0559 14.2556 42.4878C16.1341 47.0842 16.458 50.6125 16.8342 54.6981C17.2828 59.5739 17.7911 65.1008 21.1024 73.6004C24.266 81.7219 30.7055 82.5987 33.3273 82.5987C35.4059 82.5987 37.5147 81.4987 39.1123 79.5792C41.4437 76.7787 42.3573 72.7453 41.5561 68.7898C40.9303 65.7 39.7445 58.1885 42.2463 55.1843C42.8148 54.5016 43.4935 54.1689 44.3215 54.1689C45.1495 54.1689 45.8282 54.5008 46.3966 55.1843C48.8985 58.1892 47.7127 65.7007 47.0869 68.7898C46.2857 72.7453 47.1992 76.7787 49.5307 79.5792C51.1283 81.4987 53.2371 82.5987 55.3157 82.5987C57.9375 82.5987 64.377 81.7219 67.5406 73.6009C70.8519 65.1008 71.3602 59.5739 71.8087 54.6986C72.1844 50.613 72.5089 47.0847 74.3874 42.4884C75.3818 40.0559 75.9298 36.9929 75.9298 33.8623C75.9298 30.247 75.1958 26.9315 73.7997 24.1639C76.2007 23.5877 78.2268 22.5394 79.8609 21.0218C84.6943 16.5317 84.1738 9.67159 84.1494 9.38171ZM50.8419 5.53272C55.669 6.07051 59.2094 7.79676 61.3742 10.6725C63.532 13.539 63.9449 17.0509 63.9011 19.5441L56.3789 10.0168C56.153 9.7397 55.8255 9.56122 55.4672 9.51988C55.1088 9.47855 54.7484 9.57768 54.4636 9.79588C54.1788 10.0141 53.9926 10.3338 53.945 10.6861C53.8975 11.0384 53.9925 11.395 54.2096 11.6789L61.5999 21.0392C57.1873 19.9446 54.0534 17.9774 52.2629 15.1671C49.9732 11.5745 50.4496 7.41905 50.8419 5.53272ZM73.1813 33.8623C73.1813 36.6545 72.7039 39.358 71.8379 41.4773C69.8081 46.4437 69.4501 50.3348 69.0713 54.4546C68.6391 59.1551 68.149 64.4826 64.9746 72.6317C62.5135 78.9478 57.8667 79.8911 55.3157 79.8911C54.0634 79.8911 52.7293 79.1516 51.6558 77.8623C49.8407 75.682 49.1404 72.4886 49.7823 69.3197C51.3112 61.7745 50.8747 56.2925 48.5218 53.4666C47.4308 52.1553 45.9773 51.4615 44.3215 51.4615C42.6656 51.4615 41.2132 52.1553 40.1212 53.4666C37.7677 56.2927 37.3323 61.7745 38.8606 69.3197C39.5026 72.4886 38.8022 75.6825 36.9871 77.8623C35.9137 79.1516 34.5796 79.8911 33.3273 79.8911C30.7763 79.8911 26.1295 78.9478 23.6683 72.6314C20.4939 64.4823 20.0038 59.1548 19.5716 54.4542C19.1937 50.3345 18.8348 46.4434 16.805 41.477C15.9391 39.3578 15.4617 36.6545 15.4617 33.8623C15.4617 29.784 16.5286 26.0907 18.4679 23.4633C20.6626 20.4889 23.8276 18.9774 27.8721 18.9708H27.9094C32.8365 18.9708 36.8051 20.5466 39.7041 21.698C41.5729 22.4397 43.0492 23.0265 44.3275 23.032C45.5937 23.0265 47.0702 22.4397 48.9394 21.6978C50.2075 21.1942 51.6173 20.6369 53.2072 20.1533C56.0197 22.3194 59.8699 23.7331 64.7168 24.3717H64.7195C66.1392 24.5775 67.5719 24.684 69.0069 24.6904C69.6681 24.6904 70.3071 24.6618 70.9287 24.6108C72.3844 27.1128 73.1813 30.3724 73.1813 33.8623ZM77.9741 19.052C75.8077 21.0646 72.6724 22.0405 68.6333 21.9763L76.7329 15.9923C76.8773 15.8856 76.9989 15.752 77.0909 15.599C77.1828 15.446 77.2433 15.2767 77.2688 15.1007C77.2943 14.9247 77.2844 14.7455 77.2396 14.5732C77.1948 14.401 77.1161 14.2392 77.0078 14.097C76.8995 13.9547 76.7638 13.8349 76.6085 13.7443C76.4532 13.6537 76.2814 13.5942 76.1027 13.569C75.924 13.5439 75.7421 13.5537 75.5673 13.5978C75.3925 13.6419 75.2282 13.7195 75.0838 13.8262L66.7062 20.0157C67.1999 17.9343 68.2763 15.195 70.6248 13.2104C73.2015 11.0327 76.8283 10.1837 81.4185 10.682C81.3507 12.5355 80.8429 16.3881 77.9741 19.0518V19.052Z" fill="#C4C4C4"/>
<path d="M27.7549 54.4707C27.3753 50.3504 27.0163 46.4586 24.9818 41.4912C24.8454 41.1583 24.5803 40.8923 24.2448 40.7519C23.9094 40.6114 23.531 40.608 23.193 40.7424C22.855 40.8768 22.585 41.1379 22.4425 41.4684C22.2999 41.7989 22.2965 42.1716 22.4329 42.5045C24.3158 47.101 24.6412 50.6296 25.0177 54.7154C25.4408 59.3054 25.9204 64.5077 28.7679 72.23C28.8296 72.3971 28.924 72.5506 29.0458 72.6818C29.1676 72.813 29.3145 72.9192 29.478 72.9944C29.6415 73.0697 29.8185 73.1125 29.9988 73.1203C30.1791 73.1282 30.3592 73.101 30.5288 73.0403C30.6985 72.9797 30.8543 72.8866 30.9874 72.7666C31.1206 72.6466 31.2284 72.5019 31.3048 72.3409C31.3812 72.1798 31.4246 72.0055 31.4326 71.8279C31.4406 71.6502 31.413 71.4728 31.3514 71.3057C28.6254 63.9134 28.1631 58.8967 27.7549 54.4707Z" fill="#C4C4C4"/>
<path d="M22.3367 35.2161C22.5172 35.2156 22.6958 35.1801 22.8623 35.1116C23.0289 35.0432 23.1801 34.9431 23.3074 34.817C23.4347 34.691 23.5355 34.5415 23.6041 34.3771C23.6728 34.2126 23.7078 34.0365 23.7074 33.8587C23.7002 31.0807 24.2538 29.0619 25.3084 28.0205C25.9406 27.3966 26.7651 27.0933 27.8302 27.0933C28.1947 27.0933 28.5442 26.9507 28.802 26.6968C29.0597 26.4429 29.2045 26.0986 29.2045 25.7395C29.2045 25.3805 29.0597 25.0361 28.802 24.7823C28.5442 24.5284 28.1947 24.3857 27.8302 24.3857C26.0483 24.3857 24.5033 24.9814 23.3623 26.1083C21.7581 27.6925 20.9494 30.3026 20.9588 33.8658C20.9598 34.2242 21.105 34.5677 21.3626 34.8208C21.6202 35.0739 21.9692 35.2161 22.3331 35.2161H22.3367Z" fill="#C4C4C4"/>
</svg>
