<svg width="89" height="88" viewBox="0 0 89 88" fill="none" xmlns="http://www.w3.org/2000/svg">
<path d="M24.3123 24.8931C23.5411 24.8931 22.9101 25.5147 22.9101 26.2744V27.0341C22.9276 27.9319 22.209 28.6571 21.2975 28.6917H21.28C20.351 28.6917 19.5973 27.9492 19.5798 27.0341V26.2744C19.5798 25.5147 18.9488 24.8931 18.1776 24.8931C17.4064 24.8931 16.7754 25.5147 16.7754 26.2744V27.0341C16.7929 28.2082 17.2662 29.3305 18.125 30.1593C18.9488 30.9881 20.0881 31.4543 21.2625 31.4543C23.7339 31.4543 25.7145 29.4859 25.7145 27.0341V26.2744C25.7145 25.5147 25.0835 24.8931 24.3123 24.8931Z"/>
<path d="M39.7366 24.9102C38.9654 24.9102 38.3344 25.5317 38.3344 26.2915V27.0512C38.3344 27.949 37.5807 28.6915 36.6693 28.6915C35.7578 28.6915 35.0041 27.949 35.0041 27.0512V26.2915C35.0041 25.5317 34.3731 24.9102 33.6019 24.9102C32.8307 24.9102 32.1997 25.5317 32.1997 26.2915V27.0512C32.1997 29.4857 34.2154 31.4541 36.6868 31.4541C39.1582 31.4541 41.1563 29.4685 41.1388 27.0512V26.2915C41.1388 25.5317 40.5078 24.9102 39.7366 24.9102Z"/>
<path d="M68.0788 46.5623C61.6461 46.545 55.5816 49.4976 51.708 54.5566C49.517 53.1753 46.9755 52.4329 44.3814 52.4329H36.9322V50.0156C40.1397 48.5997 42.8915 46.3724 44.9072 43.5407C46.9755 40.6572 48.1849 37.273 48.3952 33.7507C50.6563 33.2327 52.2688 31.2471 52.2864 28.9679C52.2864 27.6557 51.7605 26.3952 50.814 25.4628C50.1655 24.8412 49.3768 24.3923 48.5004 24.1851V16.1735H51.3749C52.1461 16.1735 52.7771 15.552 52.7771 14.7922C52.7596 7.36772 46.66 1.34177 39.1056 1.3245H26.4857C24.4875 1.30723 22.577 2.08422 21.1573 3.48279C20.7717 3.86265 20.4211 4.27704 20.1407 4.74323C13.8833 5.03676 10.6407 9.68141 9.69421 14.0671C9.69421 14.0843 9.69421 14.0843 9.69421 14.1016C9.64163 14.4296 9.60657 14.7577 9.60657 15.0858V24.1161C8.58997 24.2715 7.66101 24.7549 6.94237 25.4801C4.97928 27.3967 4.97928 30.5219 6.92485 32.4557C7.66101 33.1809 8.6075 33.6643 9.64163 33.837C10.1499 41.1925 14.9174 47.5983 21.8759 50.3264V52.4329H14.4267C6.85473 52.4329 0.66748 58.5797 0.66748 66.0215V82.9252C0.685008 83.7022 1.29848 84.341 2.10475 84.3756H57.1766C57.3518 84.3583 57.5447 84.3238 57.7024 84.2374C60.8574 86.0677 64.4505 87.0173 68.0963 87.0173C79.4191 87.0173 88.6211 77.9352 88.6211 66.7984C88.6211 55.6617 79.4016 46.5623 68.0788 46.5623ZM9.58905 30.9535C8.71266 30.6255 8.25695 29.8485 8.25695 28.9679C8.25695 28.3981 8.48481 27.8456 8.90547 27.4312C9.09827 27.224 9.32613 27.0686 9.58905 26.965V30.9535ZM48.8509 27.4485C49.2716 27.8456 49.517 28.3981 49.517 28.9679C49.517 29.7276 49.0087 30.401 48.4829 30.7809V27.1549C48.5004 27.224 48.7458 27.3276 48.8509 27.4485ZM22.2265 6.69433C22.4543 6.21087 22.7698 5.79648 23.1379 5.43389C24.0318 4.57057 25.2237 4.06985 26.4857 4.08711H39.1056C44.5742 4.05258 49.2015 8.05837 49.8675 13.4109H26.4857C26.4331 13.4109 26.398 13.3937 26.3455 13.3937C26.2929 13.3937 26.2578 13.3764 26.2052 13.3764C23.6988 13.2383 21.7532 11.2008 21.7532 8.73176C21.7532 8.02384 21.911 7.33319 22.2265 6.69433ZM12.3935 15.0858C12.3935 14.9304 12.411 14.775 12.4285 14.6368C12.5863 13.8944 13.0946 12.0296 14.3916 10.4066C15.5309 8.93895 17.1785 7.95477 19.0364 7.64398C18.5281 11.0109 20.4036 14.2915 23.6112 15.5865C19.3344 20.0757 14.4968 20.6455 12.3935 20.6283V15.0858ZM17.2661 44.1105C14.1287 41.0371 12.3759 36.8586 12.3935 32.5075V23.4254C15.3381 23.4254 21.6305 22.5621 26.8012 16.1735H45.696V32.5075C45.6609 39.345 41.3666 45.44 34.8639 47.8573C31.2883 49.1695 27.3621 49.2386 23.7514 48.0472C21.315 47.253 19.089 45.8889 17.2661 44.1105ZM27.6425 81.613H3.45437V66.0215C3.4719 60.3063 8.01156 55.5926 13.7957 55.2818V58.9941C12.4986 59.2531 11.2892 59.8919 10.3778 60.8416C9.08074 62.1193 8.34458 63.8632 8.36211 65.6761V73.2906C8.36211 74.0503 8.923 74.7064 9.69421 74.7064H11.9027C12.6739 74.7064 13.3049 74.0848 13.3049 73.3251C13.3049 72.5654 12.6739 71.9438 11.9027 71.9438H11.1665V65.6761C11.149 64.6056 11.5697 63.5524 12.3409 62.7927C13.077 62.0329 14.0936 61.6013 15.1628 61.584H15.2154C17.5115 61.6013 19.3695 63.4142 19.4045 65.6761V71.9438H17.9848C17.2136 71.9438 16.5826 72.5654 16.5826 73.3251C16.5826 74.0848 17.2136 74.7064 17.9848 74.7064H20.7541C21.5429 74.6892 22.1914 74.0676 22.2089 73.2906V65.6761C22.1914 62.4128 19.8427 59.6156 16.6001 58.9768V55.1955H22.6471L27.6425 60.5135V81.613ZM24.6628 53.348V51.1724C26.1001 51.5005 27.5549 51.6731 29.0272 51.6731C30.7449 51.6731 32.4626 51.4487 34.1277 50.9997V53.2962L29.1499 57.9926L24.6628 53.348ZM30.4469 81.613V60.548L36.0733 55.1955H38.6849V62.4819C36.1785 63.1034 34.4082 65.3308 34.3906 67.8862C34.4082 70.9596 36.9672 73.4287 40.0696 73.4115C43.1895 73.3942 45.696 70.8733 45.6784 67.8172C45.6609 66.3668 45.0825 64.9855 44.0484 63.9495C43.3297 63.2588 42.4534 62.7581 41.4718 62.4819V55.1955H44.3639C46.4146 55.1955 48.4303 55.7825 50.1655 56.8703C45.5733 65.02 47.1683 75.2244 54.0742 81.613H30.4469ZM40.017 65.0718C40.7707 65.0718 41.5069 65.3653 42.0502 65.9006C43.1545 67.0056 43.1545 68.7668 42.0502 69.8718C40.9285 70.9769 39.1231 70.9769 38.0013 69.8718C36.8796 68.7668 36.8796 66.9884 38.0013 65.8833C38.5272 65.3653 39.2633 65.0718 40.017 65.0718ZM68.0788 84.2374C58.2983 84.2374 50.3583 76.4331 50.3583 66.7984C50.3583 63.4142 51.3574 60.0991 53.2329 57.2674C58.5788 49.1868 69.5511 46.9076 77.7365 52.1739C85.9394 57.4401 88.2531 68.2488 82.9071 76.3122C79.6645 81.2504 74.0732 84.2374 68.0788 84.2374Z"/>
<path d="M74.8618 55.6966C74.4236 55.6448 74.003 55.6275 73.5648 55.662C72.4255 55.7483 71.3037 55.9383 70.1995 56.2491C69.4458 56.439 69.0076 57.1987 69.2004 57.9412C69.3932 58.6836 70.1644 59.1153 70.9181 58.9254C71.8471 58.6664 72.8111 58.511 73.7751 58.4246C76.0888 58.252 78.1044 59.9613 78.2797 62.2232C78.2973 62.4822 78.2973 62.724 78.2622 62.9829C77.9116 66.1945 76.7548 71.1845 73.3369 77.0205L70.4799 71.8406C70.1119 71.1499 69.3932 70.7355 68.6045 70.7355C67.7982 70.7355 67.0796 71.1845 66.7115 71.8924L64.1525 76.9341C60.7696 71.1327 59.6128 66.1772 59.2623 62.9829C59.0169 60.7038 60.6995 58.6664 63.0132 58.4246C63.206 58.4074 63.3812 58.3901 63.574 58.4074C63.837 58.7009 64.0824 59.0117 64.3277 59.3225C65.6423 61.0491 68.0962 64.2434 72.8111 63.6563C73.5823 63.57 74.1257 62.8793 74.0205 62.1196C73.9153 61.3599 73.2318 60.8247 72.4606 60.9282C69.3582 61.3081 67.7982 59.2879 66.5713 57.6649C65.7825 56.6289 65.099 55.7483 64.0122 55.662C60.1562 55.3685 56.7733 58.2002 56.4754 62.016C56.4403 62.4477 56.4403 62.8621 56.4929 63.2937C56.896 66.9542 58.2457 72.7384 62.3997 79.4378C62.8028 80.0939 63.539 80.4737 64.3102 80.4392C65.0814 80.4047 65.765 79.9558 66.098 79.2824L68.622 74.2924L71.4264 79.3687C71.777 80.0248 72.4606 80.4392 73.2318 80.4737C73.2493 80.4737 73.2668 80.4737 73.3019 80.4737C74.038 80.4737 74.7391 80.0939 75.1248 79.4723C79.2963 72.7557 80.646 66.9715 81.0666 63.2937C81.4873 59.5124 78.7004 56.1109 74.8618 55.6966Z"/>
</svg>
