<svg width="89" height="88" viewBox="0 0 89 88" fill="none" xmlns="http://www.w3.org/2000/svg">
<path d="M5.84181 84.3928H31.9531C32.1335 84.3928 32.3122 84.3578 32.479 84.2898C32.6457 84.2218 32.7972 84.1221 32.9248 83.9963C33.2402 83.6855 36.047 80.6435 37.4395 69.669C38.1316 64.2155 40.6347 58.7331 42.9687 54.6095H80.0527C81.1458 54.6083 82.1937 54.18 82.9666 53.4186C83.7396 52.6572 84.1743 51.6249 84.1755 50.5481V7.22689C84.1743 6.15012 83.7396 5.1178 82.9666 4.35641C82.1937 3.59502 81.1458 3.16674 80.0527 3.16553H30.5788C29.4857 3.16674 28.4378 3.59502 27.6649 4.35641C26.8919 5.1178 26.4572 6.15012 26.4559 7.22689V42.7222L16.5028 45.1734C16.2611 45.2327 16.0404 45.3555 15.8642 45.5288L4.87002 56.3591C4.74233 56.4849 4.64105 56.6342 4.57199 56.7986C4.50293 56.963 4.46743 57.1392 4.46753 57.3171V83.039C4.46753 83.3981 4.61232 83.7424 4.87005 83.9963C5.12777 84.2502 5.47732 84.3928 5.84181 84.3928ZM80.0527 51.9019H44.505C45.12 50.4808 45.226 48.8958 44.8058 47.4074C44.3855 45.919 43.4639 44.6157 42.1923 43.7115L42.0205 43.5905C42.6295 41.9864 42.9481 39.7518 42.9481 37.0145C42.9481 36.9874 43.0247 34.3025 44.3224 34.3025C45.6201 34.3025 45.6967 36.9874 45.6967 37.0101C45.6967 39.9138 46.0402 42.2086 46.7159 43.8311C47.678 46.1417 49.0729 46.4868 49.8186 46.4868C50.7854 46.4868 52.1096 46.0622 52.9279 44.0394C53.6099 42.353 53.9415 39.6109 53.9415 35.6565C53.9415 31.5382 54.6302 28.7635 55.3157 26.3739C56.0013 28.7635 56.69 31.5382 56.69 35.6565C56.69 41.0119 57.18 46.4868 60.8129 46.4868C61.5586 46.4868 62.9535 46.1417 63.9165 43.8313C64.5921 42.2088 64.9357 39.9139 64.9357 37.0146C64.9357 36.9876 65.0123 34.3027 66.31 34.3027C67.6076 34.3027 67.6842 36.9876 67.6842 37.0102C67.6842 39.9139 68.0278 42.2088 68.7034 43.8313C69.6665 46.1417 71.0613 46.4868 71.8071 46.4868C72.7739 46.4868 74.098 46.0622 74.9164 44.0394C75.5983 42.353 75.9299 39.6109 75.9299 35.6565C75.9299 31.4259 76.6564 28.6135 77.36 26.1799H81.427V50.5481C81.4266 50.907 81.2817 51.2512 81.024 51.505C80.7664 51.7588 80.4171 51.9015 80.0527 51.9019ZM29.2045 26.1799H33.2715C33.9758 28.6135 34.7016 31.4259 34.7016 35.6565C34.7016 38.6647 34.8942 40.9701 35.2857 42.644C33.8427 43.2044 32.634 44.2283 31.8553 45.5498L29.2045 50.0614V26.1799ZM34.7016 19.411C34.7016 15.6402 39.319 14.0444 40.1805 13.9958C40.668 14.0782 42.2084 15.0596 43.4387 16.0739C43.6861 16.2781 43.9986 16.39 44.3214 16.39C44.6441 16.39 44.9566 16.2781 45.204 16.0739C46.434 15.0597 47.9732 14.0791 48.4619 13.9955C49.3359 14.0474 53.9418 15.6439 53.9418 19.4107C53.9418 20.8243 53.667 22.1082 53.2938 23.472H35.3496C34.9765 22.1086 34.7016 20.8247 34.7016 19.411ZM75.2819 23.4724H57.338C56.9649 22.1086 56.69 20.8247 56.69 19.411C56.69 15.6402 61.3074 14.0444 62.1689 13.9958C62.6564 14.0782 64.1968 15.0596 65.4272 16.0739C65.6746 16.2781 65.987 16.39 66.3098 16.39C66.6325 16.39 66.945 16.2781 67.1924 16.0739C68.4224 15.0597 69.9616 14.0791 70.4503 13.9955C71.3243 14.0474 75.9302 15.6439 75.9302 19.4107C75.9299 20.8247 75.655 22.1086 75.2819 23.4724ZM74.5058 26.1799C73.6128 29.2614 73.1669 32.4519 73.1813 35.6565C73.1813 41.9898 72.2537 43.6352 71.8586 43.7699C71.4978 43.5194 70.4328 41.879 70.4328 37.0102C70.4328 35.1373 69.5711 31.5951 66.31 31.5951C63.0488 31.5951 62.1871 35.1373 62.1871 37.0102C62.1871 41.879 61.1221 43.5194 60.7613 43.7699C60.3674 43.6345 59.4386 41.9898 59.4386 35.6565C59.453 32.4519 59.0071 29.2614 58.1141 26.1799H74.5058ZM37.9985 42.1782C37.7096 41.0183 37.4502 39.0364 37.4502 35.6565C37.4646 32.4519 37.0187 29.2614 36.1257 26.1799H52.5174C51.6244 29.2614 51.1784 32.4519 51.1929 35.6565C51.1929 41.9898 50.2653 43.6352 49.8702 43.7699C49.5094 43.5194 48.4444 41.879 48.4444 37.0102C48.4444 35.1373 47.5827 31.5951 44.3215 31.5951C41.0604 31.5951 40.1987 35.1373 40.1987 37.0102C40.1987 39.7537 39.866 41.4173 39.537 42.3929C39.034 42.2644 38.5179 42.1924 37.9985 42.1782ZM30.5788 5.8731H80.0527C80.4171 5.87351 80.7664 6.01627 81.024 6.27006C81.2817 6.52386 81.4266 6.86797 81.427 7.22689V23.4724H78.1208C78.4766 22.1465 78.6639 20.7823 78.6784 19.411C78.6784 13.8202 72.3533 11.2883 70.4328 11.2883C69.2458 11.2883 67.5662 12.3556 66.31 13.302C65.0537 12.3556 63.3742 11.2883 62.1871 11.2883C60.8323 11.2883 57.2877 12.5505 55.3157 15.2555C53.3438 12.5505 49.7992 11.2883 48.4444 11.2883C47.2573 11.2883 45.5778 12.3556 44.3215 13.302C43.0653 12.3556 41.3857 11.2883 40.1987 11.2883C38.2782 11.2883 31.9531 13.8202 31.9531 19.411C31.9676 20.7823 32.1549 22.1465 32.5107 23.4724H29.2045V7.22689C29.2049 6.86797 29.3498 6.52386 29.6075 6.27006C29.8651 6.01627 30.2144 5.87351 30.5788 5.8731ZM7.21608 57.8777L17.5386 47.7092L26.4559 45.513V51.5712C25.7916 52.8243 24.8099 53.8871 23.606 54.6565C22.4021 55.426 21.0169 55.8761 19.5846 55.9633C19.3668 55.9633 19.1521 56.0142 18.9583 56.112C18.7644 56.2097 18.597 56.3514 18.4696 56.5255C18.3423 56.6995 18.2587 56.9008 18.2259 57.1129C18.1931 57.325 18.2119 57.5417 18.2807 57.7452C19.5664 61.5439 19.5846 66.7428 19.5846 66.7936C19.5845 67.0915 19.6843 67.3811 19.8683 67.6175C20.0523 67.8539 20.3103 68.0239 20.6024 68.1012C20.8945 68.1784 21.2042 68.1586 21.4837 68.0449C21.7632 67.9311 21.9968 67.7297 22.1483 67.4718L34.2345 46.9064C34.5225 46.4167 34.9111 45.9916 35.3756 45.6585C35.8401 45.3254 36.3701 45.0916 36.9317 44.9721C37.4933 44.8526 38.074 44.85 38.6366 44.9646C39.1993 45.0791 39.7314 45.3083 40.1989 45.6373L40.5948 45.9158C41.4349 46.5128 42.0175 47.3982 42.2278 48.3974C42.4381 49.3966 42.2608 50.4372 41.7309 51.314C39.006 55.7753 35.5765 62.5227 34.7123 69.3338C33.7099 77.2337 31.9637 80.6053 31.2639 81.6858H7.21608V57.8777ZM25.205 56.8668L22.0306 62.2679C21.8804 60.9841 21.6513 59.7104 21.3447 58.4539C22.7202 58.1652 24.0293 57.627 25.205 56.8668Z" fill="#35DB9F"/>
</svg>
