<svg width="89" height="88" viewBox="0 0 89 88" fill="none" xmlns="http://www.w3.org/2000/svg">
<path d="M88.2143 60.7919C87.6681 60.2538 86.7395 60.2538 86.1751 60.7919L78.4735 68.3787L71.7915 61.8143L79.3475 54.353C79.9119 53.797 79.9119 52.8823 79.3475 52.3263L49.5243 23.0015C47.6125 21.1003 45.0089 20.0062 42.2778 20.0062H42.205C39.4375 20.1856 36.8521 21.1541 34.9222 23.1091L33.7387 24.2929L16.8243 7.66652C16.2599 7.11051 15.3314 7.11051 14.7669 7.66652C14.2025 8.22252 14.2025 9.13724 14.7669 9.69324L31.6631 26.3375L30.771 27.2164C26.7472 31.1802 26.7472 37.6191 30.771 41.6008L34.2303 45.0085L50.7259 61.2582L60.5031 70.8897C61.0676 71.4457 61.9961 71.4457 62.5605 70.8897L69.7341 63.823L76.4161 70.4054L68.6963 78.0101C68.1319 78.5662 68.1319 79.4809 68.6963 80.0369C69.2607 80.5929 70.1893 80.5929 70.7537 80.0369L88.2325 62.8186C88.7968 62.2626 88.7968 61.3479 88.2143 60.7919ZM68.6963 60.7919L61.5227 67.8586L53.8029 60.2538L58.7006 55.4292C59.265 54.8732 59.265 53.9584 58.7006 53.4024C58.1362 52.8464 57.2076 52.8464 56.6432 53.4024L51.7637 58.2271L45.5733 52.1469L54.7133 43.2329C55.2959 42.6769 55.2959 41.7801 54.7497 41.2062C54.2035 40.6322 53.2749 40.6322 52.6923 41.1703L52.6741 41.1882L43.5341 50.1023L37.3437 44.0041L42.2414 39.1795C42.8058 38.6235 42.8058 37.7087 42.2414 37.1527C41.677 36.5967 40.7484 36.5967 40.184 37.1527L35.2863 41.9774L32.8648 39.574C29.9699 36.7223 29.9699 32.0949 32.8648 29.2431L37.016 25.1538L37.0342 25.1358C39.8563 22.2661 44.4991 22.1944 47.4122 24.9565C47.4487 24.9924 47.4669 25.0103 47.5033 25.0462L76.2887 53.3127L68.6963 60.7919Z"/>
<path d="M19.0633 32.5788L12.4906 25.6915C11.9444 25.1176 11.0158 25.0817 10.4332 25.6377C10.415 25.6557 10.3968 25.6736 10.3786 25.6915L3.80581 32.5788C-0.327202 36.8834 -0.345408 43.9321 3.80581 48.2905C5.73576 50.371 8.48502 51.5727 11.3799 51.5727H11.4164C14.3113 51.5727 17.097 50.3889 19.0633 48.2905C23.251 43.9321 23.251 36.8834 19.0633 32.5788ZM16.9515 46.3175C15.5131 47.8421 13.5104 48.703 11.4165 48.703H11.3983C9.30453 48.703 7.31995 47.8421 5.91801 46.3175C2.8046 43.0532 2.78639 37.7622 5.8998 34.5338L11.4165 28.7585L16.9515 34.5338C20.0831 37.7802 20.0831 43.0532 16.9515 46.3175Z"/>
</svg>
