<svg width="89" height="87" viewBox="0 0 89 87" fill="none" xmlns="http://www.w3.org/2000/svg">
<g clip-path="url(#clip0)">
<path d="M31.5906 71.0766C29.2121 70.2678 27.8091 67.7863 27.3163 66.7568C27.0638 66.2295 26.518 65.8887 25.9262 65.8887C25.3342 65.8887 24.7885 66.2295 24.5359 66.7568C24.5359 66.7568 24.536 66.7568 24.5358 66.757C24.0431 67.7863 22.6401 70.2677 20.2616 71.0764C19.643 71.2867 19.2273 71.8616 19.2273 72.5068C19.2273 73.1521 19.643 73.7269 20.2616 73.9373C22.6401 74.746 24.0431 77.2275 24.5359 78.2571C24.7885 78.7844 25.3342 79.1252 25.9262 79.1252C26.5182 79.1252 27.0638 78.7844 27.3165 78.2569C27.8091 77.2275 29.2121 74.7462 31.5906 73.9375C32.2092 73.7271 32.6249 73.1523 32.6249 72.507C32.6249 71.8618 32.2092 71.2869 31.5906 71.0766ZM25.926 75.5205C25.2605 74.5218 24.3056 73.3765 23.0309 72.507C24.3056 71.6375 25.2605 70.4922 25.926 69.4935C26.5917 70.4922 27.5465 71.6375 28.8213 72.507C27.5466 73.3765 26.5915 74.5218 25.926 75.5205Z" fill="#462899"/>
<path d="M63.5087 27.0534C61.5749 26.3958 60.42 24.2472 60.1124 23.6048C59.8672 23.0923 59.3371 22.7609 58.7618 22.7607C58.7615 22.7607 58.7613 22.7607 58.7611 22.7607C58.186 22.7607 57.6557 23.0916 57.4102 23.6038C57.41 23.604 57.4099 23.6043 57.4099 23.6045C57.102 24.2472 55.9476 26.3957 54.013 27.0534C53.4119 27.258 53.0081 27.8166 53.0081 28.4434C53.0081 29.0704 53.4119 29.629 54.0133 29.8336C55.9476 30.4914 57.102 32.6398 57.4102 33.2832C57.6557 33.7955 58.186 34.1263 58.7611 34.1263H58.7618C59.3371 34.126 59.8672 33.7948 60.1122 33.2827C60.42 32.6398 61.5749 30.491 63.5087 29.8334C64.11 29.629 64.5142 29.0704 64.5142 28.4433C64.5142 27.8166 64.11 27.2579 63.5087 27.0534ZM58.7611 30.535C58.2617 29.8316 57.5981 29.0709 56.7562 28.4436C57.5981 27.8165 58.2617 27.0558 58.7611 26.3523C59.2607 27.0558 59.9241 27.8165 60.7662 28.4436C59.9241 29.0709 59.2607 29.8316 58.7611 30.535Z" fill="#462899"/>
<path d="M78.8705 22.2428C77.7289 21.9265 76.536 21.6224 75.3012 21.3308C76.373 20.2354 77.7041 19.2477 79.3064 18.7029C79.9806 18.4736 80.4334 17.8472 80.4334 17.1437C80.4334 16.4404 79.9806 15.814 79.3064 15.5847C75.3337 14.2339 73.0244 10.1605 72.2161 8.47237C71.9368 7.88838 71.3562 7.52556 70.7005 7.52539C70.7003 7.52539 70.7001 7.52539 70.7 7.52539C70.0446 7.52539 69.4638 7.88804 69.1841 8.47186V8.4722C68.3759 10.1605 66.0669 14.2338 62.0937 15.5847C61.4195 15.814 60.9666 16.4404 60.9666 17.1437C60.9666 17.8472 61.4195 18.4736 62.0937 18.7029C62.4081 18.8099 62.7108 18.9355 63.0043 19.0739C48.8005 17.1469 34.4708 17.4972 20.3135 20.1297C16.978 20.7499 13.8556 21.4608 11.033 22.2426C5.11091 23.883 0.974854 29.2803 0.974854 35.3679V57.0353C0.974854 59.1196 2.69613 60.8152 4.812 60.8152H12.6983C13.4017 60.8152 14.0611 60.6269 14.6285 60.3001C15.2209 61.1737 16.162 61.8037 17.2851 61.9868C17.9877 62.1007 18.6517 61.6331 18.768 60.941C18.8842 60.2489 18.4089 59.5948 17.7063 59.4802C17.0279 59.3697 16.5356 58.7962 16.5356 58.1168V44.7937C16.5356 41.7678 19.0346 39.3061 22.1062 39.3061C25.1779 39.3061 27.6769 41.7678 27.6769 44.7937V58.1168C27.6769 58.879 27.0474 59.499 26.2737 59.499H23.4389C22.7267 59.499 22.1494 60.0678 22.1494 60.7694C22.1494 61.471 22.7267 62.0397 23.4389 62.0397H26.2737C26.9696 62.0397 27.6243 61.8626 28.1941 61.552C28.9372 62.9239 30.4045 63.8599 32.09 63.8599H41.7599C42.9856 63.8599 44.0957 63.3649 44.8962 62.5676C45.6967 63.3649 46.8068 63.8599 48.0325 63.8599H57.7024C59.4077 63.8599 60.8892 62.9016 61.6237 61.5033C62.2133 61.8436 62.8985 62.0396 63.6298 62.0396H71.965C73.3415 62.0396 74.557 61.3478 75.2725 60.2988C75.8406 60.6266 76.5008 60.8152 77.2051 60.8152H85.0914C87.2072 60.8152 88.9285 59.1196 88.9285 57.0353V35.3679C88.9285 29.2803 84.7925 23.883 78.8705 22.2428ZM70.7 11.0853C71.8174 12.9812 73.7404 15.5613 76.5765 17.1439C73.7407 18.7263 71.8176 21.3066 70.7 23.2024C69.5827 21.3066 67.6602 18.7266 64.8234 17.1439C67.6604 15.5611 69.5827 12.9812 70.7 11.0853ZM13.9564 57.0353C13.9564 57.7186 13.3921 58.2745 12.6983 58.2745H4.812C4.11834 58.2745 3.55385 57.7186 3.55385 57.0353V44.4297C3.55385 44.3476 3.55592 44.266 3.55952 44.1856C3.61552 43.0026 4.23309 41.9424 5.25349 41.2767C5.91778 40.8433 6.69339 40.6206 7.4738 40.6206C7.94295 40.6206 8.41398 40.7012 8.8632 40.8648C11.9991 42.0071 13.7123 43.7893 13.9563 46.1629V57.0353H13.9564ZM43.5942 59.5121C43.5942 60.5084 42.7714 61.319 41.7599 61.319H32.09C31.0787 61.319 30.2559 60.5084 30.2559 59.5121V44.0553C30.2559 40.4328 33.2477 37.4856 36.9251 37.4856C40.6024 37.4856 43.5942 40.4328 43.5942 44.0553V59.5121ZM73.3679 58.1166C73.3679 58.8788 72.7385 59.4989 71.9648 59.4989H63.6296C62.8561 59.4989 62.2267 58.8788 62.2267 58.1166V44.7935C62.2267 41.7676 64.7255 39.3059 67.7971 39.3059C70.8688 39.3059 73.3678 41.7676 73.3678 44.7935V58.1166H73.3679ZM85.0914 58.2745H77.2051C76.5114 58.2745 75.9471 57.7186 75.9471 57.0353V46.1629C76.191 43.7895 77.9043 42.0071 81.0402 40.8648C82.2367 40.4291 83.5862 40.5827 84.6499 41.2767C85.6703 41.9424 86.2877 43.0028 86.3437 44.185C86.3475 44.266 86.3493 57.0355 86.3493 57.0355C86.3493 57.7186 85.785 58.2745 85.0914 58.2745ZM86.3493 39.3494C86.2593 39.2841 86.1683 39.2198 86.0742 39.1585C84.3273 38.0188 82.1113 37.7658 80.1455 38.482C78.0479 39.2462 76.4121 40.2959 75.2694 41.5931C74.0118 38.7549 71.1366 36.7654 67.7971 36.7654C65.0835 36.7654 62.6769 38.0801 61.1949 40.0953C59.6966 37.05 56.5269 34.945 52.8673 34.945C52.1943 34.945 51.5228 35.0168 50.8709 35.1581C50.1753 35.309 49.7357 35.9868 49.8889 36.6719C50.0418 37.3571 50.729 37.7902 51.4257 37.6394C51.8956 37.5374 52.3807 37.4857 52.8673 37.4857C56.5447 37.4857 59.5365 40.4329 59.5365 44.0555V59.5122C59.5365 60.5086 58.7135 61.3192 57.7022 61.3192H48.0323C47.021 61.3192 46.198 60.5086 46.198 59.5122V44.0555C46.198 42.775 46.5718 41.5344 47.279 40.4683C47.6685 39.8809 47.5008 39.0937 46.9045 38.7101C46.3084 38.3261 45.5091 38.4914 45.1197 39.0788C45.041 39.1976 44.9663 39.3184 44.8936 39.4401C43.2835 36.753 40.3152 34.9454 36.9249 34.9454C33.3016 34.9454 30.16 37.0097 28.6438 40.0062C27.1569 38.0408 24.7799 36.7655 22.1061 36.7655C18.7667 36.7655 15.8916 38.7549 14.634 41.5931C13.4912 40.296 11.8555 39.2462 9.75785 38.482C7.79246 37.766 5.57627 38.0188 3.8294 39.1585C3.73526 39.2199 3.64404 39.2843 3.55385 39.3496V35.3679C3.55385 30.4137 6.91636 26.0222 11.731 24.6886C14.4812 23.9265 17.5297 23.2327 20.7917 22.6262C36.091 19.7814 51.596 19.6548 66.9137 22.2399C68.039 23.6042 68.7902 24.993 69.184 25.8159C69.4636 26.3997 70.0444 26.7622 70.6998 26.7622H70.7003C71.3558 26.7622 71.9365 26.3992 72.2158 25.8156C72.4843 25.2549 72.9192 24.4308 73.5248 23.5311C75.1497 23.8957 76.7048 24.2821 78.1724 24.6886C82.987 26.022 86.3493 30.4136 86.3493 35.3679V39.3494Z" fill="#462899"/>
</g>
<defs>
<clipPath id="clip0">
<rect width="87.9537" height="86.6425" fill="white" transform="translate(0.974854 0.00390625)"/>
</clipPath>
</defs>
</svg>
