<svg width="89" height="88" viewBox="0 0 89 88" fill="none" xmlns="http://www.w3.org/2000/svg">
<path d="M9.31643 37.2177C9.30414 37.4532 9.3127 37.6893 9.34203 37.9234L10.3301 45.7102C10.3717 46.0376 10.5332 46.3388 10.7843 46.5572C11.0354 46.7756 11.3588 46.8961 11.6938 46.8961H12.82C12.82 46.8961 12.2187 50.4752 12.2098 50.5683L7.77501 57.5572C7.22039 58.4343 7.02538 59.4864 7.22957 60.4999C7.43376 61.5135 8.02184 62.4125 8.87443 63.0145L14.8479 67.2177C15.5298 67.6939 16.342 67.9559 17.1778 67.9692C18.0136 67.9825 18.8339 67.7465 19.5311 67.2921L20.201 66.8521C20.4656 66.6792 20.7827 66.6015 21.0987 66.6324C21.4147 66.6632 21.7102 66.8006 21.9352 67.0214L23.6597 68.72C24.0417 69.0983 24.496 69.3983 24.9964 69.6025C25.4968 69.8067 26.0333 69.9111 26.5749 69.9097H38.5311C39.1711 69.9089 39.8022 69.7622 40.3749 69.4809L44.0624 67.6646C44.2534 67.5711 44.4638 67.5224 44.6771 67.5224C44.8903 67.5224 45.1007 67.5711 45.2917 67.6646L48.9792 69.4809C49.5517 69.7624 50.1825 69.9094 50.8223 69.9105H62.7785C63.3202 69.9119 63.8567 69.8075 64.3571 69.6033C64.8576 69.3991 65.3119 69.0992 65.6939 68.7209L67.4181 67.0222C67.6431 66.8013 67.9388 66.6638 68.255 66.6329C68.5711 66.6021 68.8884 66.6798 69.1531 66.853L69.8231 67.293C70.5202 67.7473 71.3405 67.9834 72.1763 67.9701C73.0121 67.9569 73.8243 67.6949 74.5062 67.2187L80.4795 63.0155C81.3322 62.4136 81.9203 61.5145 82.1245 60.5009C82.3287 59.4873 82.1337 58.4351 81.579 57.558L77.1437 50.5683C77.1345 50.4754 76.5335 46.8961 76.5335 46.8961H77.659C77.994 46.8961 78.3174 46.7756 78.5685 46.5572C78.8196 46.3388 78.9811 46.0376 79.0226 45.7102L80.0107 37.9234C80.0386 37.703 80.048 37.4807 80.0389 37.2588L85.8067 23.03C85.9012 22.7967 85.928 22.5421 85.8842 22.2947C85.6327 20.8788 82.8161 20.0491 81.5698 19.8879C79.5244 19.6237 75.8709 19.9374 73.0964 24.5092L69.0291 21.3036C67.8096 20.3452 66.2965 19.8224 64.7365 19.8203H52.8155C51.7846 19.8179 50.7665 20.0451 49.8374 20.4851C48.9082 20.925 48.0921 21.5662 47.45 22.3607L45.7493 24.4545C45.6206 24.6131 45.4573 24.741 45.2715 24.829C45.0858 24.9169 44.8823 24.9626 44.6762 24.9626C44.4701 24.9626 44.2666 24.9169 44.0809 24.829C43.8951 24.741 43.7318 24.6131 43.6031 24.4545L41.9024 22.3607C41.2603 21.5663 40.4442 20.9251 39.5152 20.4852C38.5861 20.0453 37.5681 19.818 36.5372 19.8203H24.6154C23.0554 19.8223 21.5422 20.3452 20.3228 21.3036L16.2564 24.5092C13.4822 19.9376 9.82921 19.6239 7.78291 19.888C6.53662 20.0493 3.72004 20.879 3.46872 22.2949C3.42463 22.5428 3.45164 22.7979 3.54671 23.0315L9.31643 37.2177ZM12.4027 36.5239C12.531 36.379 12.6895 36.2632 12.8673 36.1841C13.0452 36.1051 13.2383 36.0648 13.4334 36.066H14.4423C14.8067 36.0664 15.156 36.2091 15.4136 36.4629C15.6713 36.7167 15.8162 37.0608 15.8166 37.4198V44.1887H12.9069L12.0693 37.5876C12.044 37.3971 12.0607 37.2034 12.1182 37.0198C12.1757 36.8362 12.2728 36.667 12.4027 36.5237V36.5239ZM18.5651 38.7734C18.5651 38.0553 18.8547 37.3666 19.3702 36.8588C19.8856 36.3511 20.5847 36.0658 21.3137 36.0658C22.0427 36.0658 22.7418 36.3511 23.2572 36.8588C23.7727 37.3666 24.0622 38.0553 24.0622 38.7734V44.1885H18.5651V38.7734ZM26.8108 38.7734C26.8108 38.0553 27.1004 37.3666 27.6158 36.8588C28.1313 36.3511 28.8304 36.0658 29.5593 36.0658C30.2883 36.0658 30.9874 36.3511 31.5029 36.8588C32.0183 37.3666 32.3079 38.0553 32.3079 38.7734V44.1885H26.8108V38.7734ZM35.0564 40.1272C35.0564 39.05 35.4908 38.017 36.264 37.2553C37.0372 36.4937 38.0858 36.0658 39.1793 36.0658C40.2727 36.0658 41.3214 36.4937 42.0946 37.2553C42.8677 38.017 43.3021 39.05 43.3021 40.1272V44.1885H35.0564V40.1272ZM46.0507 40.1272C46.0507 39.05 46.485 38.017 47.2582 37.2553C48.0314 36.4937 49.08 36.0658 50.1735 36.0658C51.2669 36.0658 52.3156 36.4937 53.0888 37.2553C53.8619 38.017 54.2963 39.05 54.2963 40.1272V44.1885H46.0507V40.1272ZM57.0449 38.7734C57.0449 38.0553 57.3344 37.3666 57.8499 36.8588C58.3653 36.3511 59.0645 36.0658 59.7934 36.0658C60.5224 36.0658 61.2215 36.3511 61.7369 36.8588C62.2524 37.3666 62.542 38.0553 62.542 38.7734V44.1885H57.0449V38.7734ZM65.2905 38.7734C65.2905 38.0553 65.5801 37.3666 66.0956 36.8588C66.611 36.3511 67.3101 36.0658 68.0391 36.0658C68.768 36.0658 69.4671 36.3511 69.9826 36.8588C70.498 37.3666 70.7876 38.0553 70.7876 38.7734V44.1885H65.2905V38.7734ZM26.5627 46.8961L25.838 51.18C25.7853 51.4965 25.6199 51.7841 25.3715 51.9914C25.1232 52.1987 24.808 52.3121 24.4824 52.3113H23.6421C23.3165 52.3121 23.0013 52.1987 22.7529 51.9914C22.5045 51.7841 22.3392 51.4965 22.2865 51.18L21.5617 46.8961H26.5627ZM34.8084 46.8961L34.0836 51.18C34.0309 51.4965 33.8656 51.7841 33.6172 51.9914C33.3688 52.1987 33.0536 52.3121 32.7281 52.3113H31.8877C31.5622 52.3121 31.247 52.1987 30.9986 51.9914C30.7502 51.7841 30.5849 51.4965 30.5322 51.18L29.8074 46.8961H34.8084ZM59.5454 46.8961L58.8206 51.18C58.7679 51.4964 58.6025 51.7841 58.3541 51.9913C58.1058 52.1986 57.7906 52.312 57.4651 52.3113H56.6247C56.2991 52.3121 55.9839 52.1987 55.7356 51.9914C55.4872 51.7841 55.3218 51.4965 55.2691 51.18L54.5442 46.8961H59.5454ZM67.791 46.8961L67.0663 51.18C67.0135 51.4964 66.8482 51.7841 66.5998 51.9913C66.3514 52.1986 66.0362 52.312 65.7107 52.3113H64.8703C64.5448 52.3121 64.2296 52.1987 63.9812 51.9914C63.7328 51.7841 63.5675 51.4965 63.5148 51.18L62.7899 46.8961H67.791ZM51.2997 46.8961L50.5749 51.18C50.5222 51.4964 50.3569 51.7841 50.1085 51.9913C49.8601 52.1986 49.5449 52.312 49.2194 52.3113H48.379C48.0535 52.3121 47.7383 52.1987 47.4899 51.9914C47.2415 51.7841 47.0762 51.4965 47.0235 51.18L46.2987 46.8961H51.2997ZM43.054 46.8961L42.3293 51.18C42.2766 51.4965 42.1112 51.7841 41.8629 51.9914C41.6145 52.1987 41.2993 52.3121 40.9737 52.3113H40.1334C39.8078 52.3121 39.4926 52.1987 39.2442 51.9914C38.9959 51.7841 38.8305 51.4965 38.7778 51.18L38.0531 46.8961H43.054ZM18.5651 46.8961V50.9575C18.5647 51.3164 18.4198 51.6605 18.1622 51.9143C17.9045 52.1681 17.5552 52.3109 17.1909 52.3113H16.3125C16.113 52.3112 15.9159 52.2683 15.7349 52.1855C15.5539 52.1028 15.3934 51.9823 15.2644 51.8323C15.1355 51.6823 15.0413 51.5064 14.9883 51.3169C14.9353 51.1274 14.9249 50.9288 14.9577 50.7349L15.6065 46.8961H18.5651ZM78.8801 60.812L72.9068 65.015C72.6795 65.1738 72.4087 65.2611 72.1301 65.2655C71.8515 65.27 71.5781 65.1912 71.3457 65.0398L70.6758 64.5998C69.882 64.081 68.9307 63.8482 67.9827 63.9407C67.0348 64.0332 66.1484 64.4454 65.4733 65.1074L63.7489 66.8063C63.6217 66.9324 63.4704 67.0323 63.3037 67.1004C63.137 67.1685 62.9583 67.2034 62.7778 67.2029H50.8216C50.6084 67.2027 50.3981 67.1538 50.2072 67.0601L46.5193 65.2437C45.9464 64.9632 45.3153 64.8172 44.6756 64.8172C44.0359 64.8172 43.4048 64.9632 42.8319 65.2437L39.1449 67.0601C38.954 67.1538 38.7436 67.2027 38.5303 67.2029H26.5741C26.3935 67.2034 26.2147 67.1686 26.0479 67.1006C25.8811 67.0325 25.7296 66.9325 25.6023 66.8064L23.8779 65.1076C23.2028 64.4456 22.3164 64.0336 21.3685 63.9411C20.4206 63.8486 19.4694 64.0813 18.6756 64.5999L18.0056 65.0399C17.7733 65.1913 17.4999 65.27 17.2213 65.2656C16.9427 65.2611 16.6721 65.1738 16.4448 65.015L10.4725 60.812C10.1883 60.6114 9.99225 60.3117 9.92416 59.9739C9.85608 59.636 9.92107 59.2853 10.106 58.9929L13.3886 53.8187C13.7713 54.1992 14.2267 54.5011 14.7286 54.7071C15.2305 54.9131 15.7688 55.0191 16.3125 55.0188H17.1909C17.8107 55.0188 18.4226 54.8808 18.9807 54.6152C19.5389 54.3497 20.029 53.9634 20.4144 53.4852C20.7998 53.9644 21.2905 54.3514 21.8495 54.617C22.4085 54.8827 23.0214 55.02 23.6421 55.0188H24.4824C25.2544 55.0207 26.0114 54.8081 26.6663 54.4054C27.3212 54.0027 27.8476 53.4263 28.1851 52.7423C28.5226 53.4262 29.049 54.0026 29.7039 54.4053C30.3588 54.8079 31.1157 55.0206 31.8877 55.0188H32.7281C33.5001 55.0207 34.257 54.8081 34.9119 54.4054C35.5669 54.0027 36.0933 53.4263 36.4307 52.7423C36.7683 53.4262 37.2947 54.0026 37.9496 54.4053C38.6045 54.8079 39.3614 55.0206 40.1334 55.0188H40.9737C41.7458 55.0207 42.5027 54.8081 43.1576 54.4054C43.8125 54.0027 44.3389 53.4263 44.6764 52.7423C45.0138 53.4263 45.5402 54.0027 46.1952 54.4054C46.8501 54.8081 47.607 55.0207 48.379 55.0188H49.2194C49.9914 55.0206 50.7482 54.8079 51.4031 54.4053C52.058 54.0027 52.5845 53.4263 52.922 52.7424C53.2596 53.4263 53.7861 54.0027 54.441 54.4053C55.0959 54.8079 55.8527 55.0206 56.6247 55.0188H57.4651C58.237 55.0206 58.9939 54.8079 59.6488 54.4053C60.3037 54.0027 60.8301 53.4263 61.1677 52.7424C61.5053 53.4263 62.0317 54.0027 62.6866 54.4053C63.3415 54.8079 64.0984 55.0206 64.8703 55.0188H65.7107C66.3314 55.02 66.9442 54.8826 67.5033 54.617C68.0623 54.3514 68.5529 53.9644 68.9384 53.4852C69.3238 53.9634 69.8139 54.3497 70.372 54.6153C70.9302 54.8809 71.542 55.0188 72.1619 55.0188H73.0401C73.5837 55.0191 74.1221 54.9132 74.624 54.7072C75.1259 54.5012 75.5813 54.1993 75.964 53.8189L79.2468 58.9927C79.4317 59.2851 79.4967 59.6359 79.4286 59.9738C79.3605 60.3117 79.1644 60.6114 78.8801 60.812ZM74.3951 50.7349C74.4279 50.9288 74.4174 51.1274 74.3645 51.3169C74.3115 51.5065 74.2172 51.6823 74.0883 51.8323C73.9593 51.9823 73.7988 52.1029 73.6178 52.1856C73.4367 52.2683 73.2396 52.3112 73.0401 52.3113H72.1619C71.7975 52.3109 71.4482 52.1681 71.1906 51.9143C70.933 51.6605 70.788 51.3164 70.7876 50.9575V46.8961H73.7463L74.3951 50.7349ZM77.2826 37.5875L76.4457 44.1885H73.5362V37.4196C73.5366 37.0607 73.6815 36.7166 73.9391 36.4628C74.1968 36.209 74.5461 36.0662 74.9105 36.0658H75.9197C76.1145 36.0658 76.3072 36.1066 76.4848 36.1856C76.6624 36.2645 76.8209 36.3797 76.9499 36.5236C77.0789 36.6675 77.1753 36.8368 77.2328 37.0202C77.2902 37.2036 77.3075 37.397 77.2833 37.5875H77.2826ZM9.86838 22.6328C11.7625 23.0325 13.3443 24.5552 14.5698 27.1589C14.6574 27.3451 14.7869 27.5093 14.9484 27.639C15.11 27.7687 15.2993 27.8605 15.5022 27.9075C15.7051 27.9544 15.9161 27.9553 16.1194 27.9101C16.3227 27.8649 16.5128 27.7747 16.6755 27.6464L22.041 23.4179C22.7726 22.8429 23.6804 22.5292 24.6162 22.5279H36.5381C37.1566 22.5265 37.7675 22.6628 38.325 22.9268C38.8825 23.1907 39.3722 23.5754 39.7575 24.0521L41.4582 26.1459C41.8444 26.6215 42.3343 27.0055 42.8916 27.2693C43.4489 27.5332 44.0593 27.6702 44.6776 27.6702C45.2959 27.6702 45.9063 27.5332 46.4636 27.2693C47.0208 27.0055 47.5107 26.6215 47.897 26.1459L49.5977 24.0521C49.9828 23.5756 50.4722 23.191 51.0294 22.927C51.5867 22.6631 52.1972 22.5267 52.8155 22.5279H64.7365C65.6725 22.5291 66.5804 22.8429 67.3121 23.4179L72.6773 27.6464C72.8399 27.7746 73.0301 27.8648 73.2333 27.91C73.4365 27.9551 73.6475 27.9542 73.8504 27.9072C74.0532 27.8603 74.2425 27.7685 74.404 27.6389C74.5655 27.5092 74.695 27.3451 74.7826 27.1589C76.0083 24.5552 77.5901 23.0325 79.484 22.6328C80.6194 22.4129 81.7963 22.5515 82.8471 23.0288L78.3451 34.1366C77.6405 33.6312 76.7914 33.3587 75.9197 33.3582H74.9105C74.3116 33.3581 73.72 33.4868 73.1768 33.7352C72.6337 33.9836 72.1521 34.3459 71.7658 34.7966C71.2282 34.3062 70.5964 33.9269 69.9075 33.681C69.2187 33.4352 68.4868 33.3277 67.7552 33.3651C67.0235 33.4024 66.3068 33.5838 65.6475 33.8985C64.9881 34.2132 64.3995 34.6548 63.9162 35.1973C63.3693 34.5836 62.6882 34.1 61.9243 33.7828C61.1604 33.4655 60.3334 33.3229 59.5055 33.3657C58.6776 33.4084 57.8703 33.6354 57.1442 34.0295C56.4182 34.4237 55.7922 34.9747 55.3133 35.6414C54.6381 34.8887 53.8011 34.2938 52.8632 33.8999C51.9252 33.5059 50.91 33.3228 49.8912 33.3639C48.8725 33.405 47.8758 33.6693 46.9737 34.1375C46.0716 34.6057 45.2868 35.266 44.6764 36.0705C44.0659 35.266 43.2811 34.6057 42.379 34.1375C41.477 33.6693 40.4803 33.405 39.4615 33.3639C38.4428 33.3228 37.4275 33.5059 36.4896 33.8999C35.5517 34.2938 34.7147 34.8887 34.0395 35.6414C33.5606 34.9747 32.9346 34.4237 32.2085 34.0295C31.4824 33.6354 30.6751 33.4084 29.8472 33.3657C29.0193 33.3229 28.1924 33.4655 27.4285 33.7828C26.6645 34.1 25.9835 34.5836 25.4365 35.1973C24.9533 34.6549 24.3646 34.2133 23.7053 33.8986C23.0459 33.5839 22.3293 33.4025 21.5976 33.3652C20.8659 33.3278 20.1341 33.4352 19.4453 33.6811C18.7564 33.9269 18.1246 34.3063 17.587 34.7966C17.2007 34.3459 16.7191 33.9836 16.176 33.7352C15.6328 33.4868 15.0412 33.3581 14.4423 33.3582H13.4331C12.5669 33.3586 11.7228 33.6277 11.0205 34.1272L6.50587 23.0285C7.55651 22.5513 8.7332 22.4129 9.86838 22.6328Z"/>
</svg>
