<svg width="88" height="88" viewBox="0 0 88 88" fill="none" xmlns="http://www.w3.org/2000/svg">
<path d="M84.6152 17.0544C84.5637 17.0205 79.372 13.6147 73.7428 10.254C62.0768 3.28906 59.9259 3.28906 59.1161 3.28906C56.7301 3.28906 53.9191 4.67365 50.9429 6.13963C48.3831 7.4012 45.7359 8.70422 43.999 8.70422C42.2296 8.70422 39.2208 7.38715 36.3115 6.11323C32.9942 4.66096 29.8612 3.28906 27.5077 3.28906C26.2278 3.28906 23.3868 4.01317 13.5353 10.2743C8.24381 13.6371 3.39467 17.0451 3.34623 17.0791C3.16823 17.2043 3.02315 17.3696 2.92305 17.5613C2.82296 17.7529 2.77075 17.9652 2.77075 18.1807V22.2421C2.77077 22.5817 2.90031 22.9088 3.1337 23.1587C3.3671 23.4086 3.68729 23.5629 4.03079 23.5912L4.14503 23.6006V27.7327C4.1463 28.7834 4.3946 29.8195 4.87047 30.7598L8.41301 37.7393C8.52715 37.9641 8.70259 38.1532 8.91968 38.2854C9.13677 38.4175 9.38693 38.4876 9.64213 38.4876C9.73146 38.4876 16.0657 37.2488 16.0657 37.2488C16.408 37.6641 16.8306 38.0084 17.3089 38.2617C17.7872 38.515 18.3117 38.6724 18.8522 38.7246L27.0978 39.5369C27.2341 39.5503 27.3702 39.557 27.5062 39.5569C28.4482 39.5553 29.3614 39.2364 30.0943 38.6532C30.4762 39.0301 30.9299 39.3291 31.4294 39.533C31.9288 39.7368 32.4642 39.8416 33.0048 39.8414H41.2505C42.2653 39.842 43.2445 39.4724 43.999 38.8038C44.7536 39.4724 45.7327 39.842 46.7476 39.8414H48.1219V44.3241L39.1621 49.998C38.0175 50.7214 37.1174 51.7641 36.5764 52.9932L23.499 82.6228C23.408 82.8288 23.3706 83.0538 23.3899 83.2776C23.4093 83.5014 23.4849 83.717 23.6099 83.9048C23.735 84.0927 23.9055 84.2469 24.1061 84.3537C24.3067 84.4604 24.5311 84.5164 24.7592 84.5164H37.1277C37.4312 84.5164 37.7263 84.4174 37.9667 84.2348C38.2072 84.0522 38.3795 83.7963 38.4567 83.5071L45.0457 58.8423C45.1849 58.3188 45.4294 57.8282 45.7648 57.3997L52.0801 49.3123C52.1349 49.3143 52.1897 49.3179 52.2447 49.3179H60.4903C61.5834 49.3166 62.6313 48.8883 63.4042 48.1269C64.1771 47.3656 64.6119 46.3333 64.6132 45.2565V39.1712L69.1462 38.7246C69.6867 38.6723 70.2112 38.515 70.6895 38.2617C71.1678 38.0083 71.5904 37.6641 71.9327 37.2488C71.9327 37.2488 78.2669 38.4876 78.3559 38.4876C78.611 38.4875 78.8611 38.4174 79.0781 38.2852C79.2951 38.1531 79.4704 37.964 79.5845 37.7393L83.1271 30.7598C83.6032 29.8196 83.8517 28.7834 83.853 27.7327V23.6006L83.9671 23.5912C84.3106 23.563 84.6309 23.4086 84.8643 23.1587C85.0977 22.9089 85.2273 22.5817 85.2273 22.2421V18.1807C85.2273 17.9579 85.1714 17.7385 85.0646 17.542C84.9579 17.3455 84.8035 17.178 84.6152 17.0544ZM5.5193 18.8808C6.94992 17.887 10.853 15.2007 15.0331 12.5444C24.5937 6.46894 26.9984 5.99664 27.5077 5.99664C29.2771 5.99664 32.2859 7.31371 35.1952 8.58762C38.5126 10.0399 41.6456 11.4118 43.999 11.4118C46.3849 11.4118 49.196 10.0272 52.1722 8.56122C54.732 7.30051 57.3792 5.99664 59.1161 5.99664C59.6302 5.99664 62.1015 6.47047 72.3112 12.5652C76.7681 15.2259 80.9499 17.9164 82.4788 18.9084V20.9964L50.7563 23.6005C50.6203 23.6117 50.4868 23.6428 50.36 23.6927L43.999 26.1992L37.638 23.6927C37.5113 23.6428 37.3778 23.6118 37.2419 23.6006L5.5193 20.9964V18.8808ZM7.32888 29.549C7.04332 28.9848 6.89433 28.3631 6.89358 27.7327V23.8262L15.1392 24.5031V34.6702L10.4019 35.6035L7.32888 29.549ZM27.371 36.8425L19.1253 36.0303C18.786 35.9977 18.4711 35.8416 18.2424 35.5924C18.0137 35.3433 17.8875 35.0191 17.8885 34.6832V24.7287L28.8827 25.6313V35.4957C28.8827 35.6849 28.8424 35.872 28.7645 36.0449C28.6866 36.2179 28.5727 36.3728 28.4303 36.4997C28.2879 36.6266 28.12 36.7227 27.9375 36.7818C27.7551 36.8409 27.5621 36.8616 27.371 36.8427V36.8425ZM41.2505 37.1338H33.0048C32.6405 37.1334 32.2912 36.9906 32.0335 36.7368C31.7759 36.483 31.631 36.1389 31.6305 35.78V25.8569L36.8085 26.282L42.6248 28.5738V35.78C42.6243 36.1389 42.4794 36.483 42.2218 36.7368C41.9641 36.9906 41.6148 37.1334 41.2505 37.1338ZM46.7476 37.1338C46.3832 37.1334 46.0339 36.9906 45.7763 36.7368C45.5186 36.483 45.3737 36.1389 45.3733 35.78V28.5738L51.1896 26.282L56.3675 25.8574V33.0677L56.2534 33.077C56.1174 33.0883 55.9839 33.1193 55.8571 33.1692L48.9858 35.8768C48.7307 35.9773 48.5121 36.1507 48.3581 36.3748C48.2042 36.5988 48.1219 36.8632 48.1219 37.1338H46.7476ZM43.5867 55.7484C43.0277 56.4627 42.62 57.2804 42.3879 58.1529L36.0683 81.8088H26.8549L39.0966 54.0731C39.4212 53.3356 39.9614 52.71 40.6482 52.2761L51.8254 45.1978L43.5867 55.7484ZM61.8646 45.2565C61.8642 45.6154 61.7193 45.9595 61.4617 46.2133C61.204 46.4671 60.8547 46.6099 60.4903 46.6103H54.19L58.8311 40.6667C59.0283 40.4139 59.1287 40.1006 59.1144 39.7821C59.1002 39.4636 58.9723 39.1603 58.7533 38.9255C58.5343 38.6908 58.2382 38.5397 57.9172 38.4989C57.5962 38.4582 57.2709 38.5303 56.9986 38.7026L50.8704 42.5828V38.0505L56.6867 35.7585L61.8646 35.3339V45.2565ZM68.8734 36.0304L64.6132 36.4501V33.8627C64.6132 33.6754 64.5738 33.4902 64.4974 33.3187C64.421 33.1472 64.3094 32.9932 64.1695 32.8664C64.0296 32.7396 63.8645 32.6428 63.6847 32.582C63.5049 32.5213 63.3143 32.4979 63.1248 32.5135L59.1161 32.8423V25.6313L70.1103 24.7287V34.6834C70.1113 35.0193 69.9851 35.3435 69.7564 35.5926C69.5276 35.8417 69.2128 35.9978 68.8734 36.0304ZM81.1045 27.7327C81.1037 28.3631 80.9548 28.9848 80.6693 29.549L77.5961 35.6035L72.8588 34.67V24.5031L81.1045 23.8262V27.7327Z"/>
</svg>
