<svg width="89" height="88" viewBox="0 0 89 88" fill="none" xmlns="http://www.w3.org/2000/svg">
<path d="M6.643 34.4112C6.83488 35.2675 7.06593 36.1006 7.30316 36.9523C7.65652 38.2214 8.03187 39.5696 8.33129 41.1801H7.53885C6.4458 41.1814 5.39788 41.6097 4.62498 42.3711C3.85207 43.1325 3.4173 44.1648 3.41602 45.2415V66.9021C3.41602 67.2612 3.56081 67.6055 3.81854 67.8594C4.07627 68.1133 4.42582 68.2559 4.7903 68.2559H84.4983C84.8628 68.2559 85.2123 68.1133 85.4701 67.8594C85.7278 67.6055 85.8726 67.2612 85.8726 66.9021V45.2415C85.8713 44.1648 85.4365 43.1325 84.6636 42.3711C83.8907 41.6097 82.8428 41.1814 81.7497 41.1801H80.9573C81.2567 39.5696 81.6321 38.2213 81.9854 36.9523C82.2227 36.1006 82.4537 35.2675 82.6456 34.4112H84.4983C84.8628 34.4112 85.2123 34.2686 85.4701 34.0147C85.7278 33.7608 85.8726 33.4165 85.8726 33.0574C85.8726 32.6984 85.7278 32.354 85.4701 32.1001C85.2123 31.8463 84.8628 31.7036 84.4983 31.7036H83.0697C83.1041 31.2679 83.124 30.8181 83.124 30.3498C83.124 27.7111 81.9616 24.9855 79.8508 22.6752C78.4623 21.1554 76.3138 19.5195 74.8784 19.5195C73.5158 19.5195 70.956 20.9789 69.3813 21.9655C67.8065 20.9789 65.2468 19.5195 63.8842 19.5195C62.4487 19.5195 60.3002 21.1554 58.9117 22.6752C58.1757 23.4765 57.5383 24.3606 57.0128 25.3092C56.4873 24.3606 55.8499 23.4765 55.1139 22.6752C53.7253 21.1554 51.5768 19.5195 50.1414 19.5195C48.7788 19.5195 46.2191 20.9789 44.6443 21.9655C43.0696 20.9789 40.5098 19.5195 39.1472 19.5195C37.7118 19.5195 35.5633 21.1554 34.1747 22.6752C33.4387 23.4765 32.8013 24.3606 32.2758 25.3092C31.7503 24.3606 31.1129 23.4765 30.3769 22.6752C28.9884 21.1554 26.8399 19.5195 25.4044 19.5195C24.0418 19.5195 21.4821 20.9789 19.9073 21.9655C18.3326 20.9789 15.7728 19.5195 14.4102 19.5195C12.9748 19.5195 10.8263 21.1554 9.43776 22.6752C7.32704 24.9855 6.16458 27.7111 6.16458 30.3498C6.16458 30.8181 6.18382 31.2679 6.21886 31.7036H3.41602C3.05154 31.7036 2.70199 31.8463 2.44426 32.1001C2.18654 32.354 2.04175 32.6984 2.04175 33.0574C2.04175 33.4165 2.18654 33.7608 2.44426 34.0147C2.70199 34.2686 3.05154 34.4112 3.41602 34.4112H6.643ZM17.1588 30.3498H22.6559V35.765H17.1588V30.3498ZM15.7845 38.4726H24.0302C24.3946 38.4726 24.7442 38.3299 25.0019 38.0761C25.2597 37.8222 25.4044 37.4778 25.4044 37.1188V34.4112H30.3506C30.2032 35.0069 30.0357 35.6081 29.8609 36.2361C29.1 38.9689 28.153 42.37 28.153 47.9491C28.153 55.4457 26.3551 57.4256 25.4044 57.4256C25.3084 57.4256 25.0835 57.4256 24.7781 56.7232C24.4368 55.939 24.0302 54.25 24.0302 50.6567C24.0302 49.0242 22.9321 46.5953 19.9073 46.5953C16.8826 46.5953 15.7845 49.0242 15.7845 50.6567C15.7845 54.25 15.3779 55.939 15.0366 56.7232C14.7311 57.4256 14.5063 57.4256 14.4102 57.4256C13.4596 57.4256 11.6617 55.4457 11.6617 47.9491C11.6617 42.37 10.7146 38.9689 9.9538 36.2361C9.77892 35.6081 9.61143 35.0069 9.46404 34.4112H14.4102V37.1188C14.4102 37.4778 14.555 37.8222 14.8127 38.0761C15.0705 38.3299 15.42 38.4726 15.7845 38.4726ZM40.5215 38.4726H48.7671C49.1316 38.4726 49.4812 38.3299 49.7389 38.0761C49.9966 37.8222 50.1414 37.4778 50.1414 37.1188V34.4112H55.0876C54.9402 35.0069 54.7727 35.6081 54.5978 36.2361C53.837 38.9689 52.89 42.37 52.89 47.9491C52.89 55.4457 51.0921 57.4256 50.1414 57.4256C50.0454 57.4256 49.8205 57.4256 49.5151 56.7232C49.1737 55.939 48.7671 54.25 48.7671 50.6567C48.7671 49.0242 47.6691 46.5953 44.6443 46.5953C41.6195 46.5953 40.5215 49.0242 40.5215 50.6567C40.5215 54.25 40.1149 55.939 39.7735 56.7232C39.4681 57.4256 39.2432 57.4256 39.1472 57.4256C38.1965 57.4256 36.3986 55.4457 36.3986 47.9491C36.3986 42.37 35.4516 38.9689 34.6908 36.2361C34.5159 35.6081 34.3484 35.0069 34.201 34.4112H39.1472V37.1188C39.1472 37.4778 39.292 37.8222 39.5497 38.0761C39.8074 38.3299 40.157 38.4726 40.5215 38.4726ZM41.8957 35.765V30.3498H47.3929V35.765H41.8957ZM57.0128 37.805C57.2921 38.8286 57.5718 39.9245 57.8052 41.1801H56.2203C56.4538 39.9245 56.7335 38.8279 57.0128 37.805ZM32.2758 37.805C32.5551 38.8286 32.8348 39.9245 33.0683 41.1801H31.4834C31.7168 39.9245 31.9965 38.8279 32.2758 37.805ZM81.7497 43.8877C82.1141 43.8881 82.4634 44.0309 82.7211 44.2847C82.9787 44.5385 83.1236 44.8826 83.124 45.2415V65.5483H6.16458V45.2415C6.16499 44.8826 6.30991 44.5385 6.56754 44.2847C6.82518 44.0309 7.1745 43.8881 7.53885 43.8877H8.71798C8.85175 45.2375 8.91688 46.5929 8.91313 47.9491C8.91313 52.314 9.49153 55.5528 10.6322 57.5754C11.8871 59.8008 13.5379 60.1332 14.4102 60.1332C15.3834 60.1332 16.7202 59.7271 17.5632 57.7896C18.2158 56.2893 18.5331 53.9565 18.5331 50.6736C18.5497 50.3895 18.6265 50.1119 18.7586 49.8588C18.912 49.5843 19.1685 49.3037 19.9075 49.3037C20.6465 49.3037 20.9039 49.5843 21.0564 49.8588C21.186 50.1068 21.2626 50.3784 21.2816 50.6567C21.2816 53.9565 21.5989 56.2893 22.2515 57.7896C23.0945 59.7271 24.4313 60.1332 25.4044 60.1332C26.2768 60.1332 27.9274 59.8008 29.1825 57.5754C30.3231 55.5528 30.9015 52.314 30.9015 47.9491C30.8978 46.5929 30.9629 45.2375 31.0967 43.8877H33.4549C33.5887 45.2375 33.6539 46.5929 33.6501 47.9491C33.6501 52.314 34.2285 55.5528 35.3691 57.5754C36.624 59.8008 38.2749 60.1332 39.1472 60.1332C40.1204 60.1332 41.4572 59.7271 42.3001 57.7896C42.9527 56.2893 43.27 53.9565 43.27 50.6736C43.2867 50.3895 43.3635 50.1119 43.4956 49.8588C43.649 49.5843 43.9055 49.3037 44.6445 49.3037C45.3835 49.3037 45.6408 49.5843 45.7934 49.8588C45.9229 50.1068 45.9996 50.3784 46.0186 50.6567C46.0186 53.9565 46.3359 56.2893 46.9885 57.7896C47.8314 59.7271 49.1682 60.1332 50.1414 60.1332C51.0137 60.1332 52.6646 59.8008 53.9195 57.5754C55.0601 55.5528 55.6385 52.314 55.6385 47.9491C55.6348 46.5929 55.6999 45.2375 55.8337 43.8877H58.1919C58.3257 45.2375 58.3908 46.5929 58.3871 47.9491C58.3871 52.314 58.9655 55.5528 60.1061 57.5754C61.361 59.8008 63.0118 60.1332 63.8842 60.1332C64.8573 60.1332 66.1942 59.7271 67.0371 57.7896C67.6897 56.2893 68.007 53.9565 68.007 50.6736C68.0236 50.3895 68.1005 50.1119 68.2325 49.8588C68.3859 49.5843 68.6424 49.3037 69.3814 49.3037C70.1205 49.3037 70.3778 49.5843 70.5303 49.8588C70.6599 50.1068 70.7365 50.3784 70.7555 50.6567C70.7555 53.9565 71.0728 56.2893 71.7254 57.7896C72.5684 59.7271 73.9052 60.1332 74.8784 60.1332C75.7507 60.1332 77.4015 59.8008 78.6564 57.5754C79.7971 55.5528 80.3755 52.314 80.3755 47.9491C80.3717 46.5929 80.4368 45.2375 80.5706 43.8877H81.7497ZM79.3348 36.2361C78.574 38.9689 77.6269 42.37 77.6269 47.9491C77.6269 55.4457 75.829 57.4256 74.8784 57.4256C74.7823 57.4256 74.5575 57.4256 74.252 56.7232C73.9107 55.939 73.5041 54.25 73.5041 50.6567C73.5041 49.0242 72.4061 46.5953 69.3813 46.5953C66.3565 46.5953 65.2584 49.0242 65.2584 50.6567C65.2584 54.25 64.8518 55.939 64.5105 56.7232C64.2051 57.4256 63.9802 57.4256 63.8842 57.4256C62.9335 57.4256 61.1356 55.4457 61.1356 47.9491C61.1356 42.37 60.1886 38.9689 59.4277 36.2361C59.2529 35.6081 59.0854 35.0069 58.938 34.4112H63.8842V37.1188C63.8842 37.4778 64.029 37.8222 64.2867 38.0761C64.5444 38.3299 64.894 38.4726 65.2584 38.4726H73.5041C73.8686 38.4726 74.2181 38.3299 74.4759 38.0761C74.7336 37.8222 74.8784 37.4778 74.8784 37.1188V34.4112H79.8246C79.6772 35.0069 79.5097 35.6081 79.3348 36.2361ZM72.1298 35.765H66.6327V30.3498H72.1298V35.765ZM63.9163 22.232C64.5625 22.3278 66.7205 23.4613 68.6191 24.7074C68.8448 24.8555 69.11 24.9345 69.3813 24.9345C69.6525 24.9345 69.9177 24.8555 70.1435 24.7074C72.0515 23.4552 74.2211 22.3166 74.8425 22.231C75.8385 22.4879 80.3755 25.8057 80.3755 30.3498C80.3755 30.8188 80.3514 31.2672 80.3097 31.7036H74.8784V28.9961C74.8784 28.637 74.7336 28.2927 74.4759 28.0388C74.2181 27.7849 73.8686 27.6423 73.5041 27.6423H65.2584C64.894 27.6423 64.5444 27.7849 64.2867 28.0388C64.029 28.2927 63.8842 28.637 63.8842 28.9961V31.7036H58.4529C58.4111 31.2672 58.3871 30.8188 58.3871 30.3498C58.3871 25.8116 62.9126 22.4965 63.9163 22.232ZM39.1793 22.232C39.8256 22.3278 41.9835 23.4613 43.8821 24.7074C44.1079 24.8555 44.3731 24.9345 44.6443 24.9345C44.9155 24.9345 45.1807 24.8555 45.4065 24.7074C47.3145 23.4552 49.4842 22.3166 50.1055 22.231C51.1015 22.4879 55.6385 25.8057 55.6385 30.3498C55.6385 30.8188 55.6145 31.2672 55.5727 31.7036H50.1414V28.9961C50.1414 28.637 49.9966 28.2927 49.7389 28.0388C49.4812 27.7849 49.1316 27.6423 48.7671 27.6423H40.5215C40.157 27.6423 39.8074 27.7849 39.5497 28.0388C39.292 28.2927 39.1472 28.637 39.1472 28.9961V31.7036H33.7159C33.6741 31.2672 33.6501 30.8188 33.6501 30.3498C33.6501 25.8116 38.1756 22.4965 39.1793 22.232ZM8.91313 30.3498C8.91313 25.8116 13.4386 22.4965 14.4424 22.232C15.0886 22.3278 17.2466 23.4613 19.1451 24.7074C19.3709 24.8555 19.6361 24.9345 19.9073 24.9345C20.1786 24.9345 20.4438 24.8555 20.6695 24.7074C22.5776 23.4552 24.7472 22.3166 25.3685 22.231C26.3645 22.4879 30.9015 25.8057 30.9015 30.3498C30.9015 30.8188 30.8775 31.2672 30.8358 31.7036H25.4044V28.9961C25.4044 28.637 25.2597 28.2927 25.0019 28.0388C24.7442 27.7849 24.3946 27.6423 24.0302 27.6423H15.7845C15.42 27.6423 15.0705 27.7849 14.8127 28.0388C14.555 28.2927 14.4102 28.637 14.4102 28.9961V31.7036H8.97892C8.93718 31.2672 8.91313 30.8188 8.91313 30.3498Z" fill="#C4C4C4"/>
</svg>
