<svg width="89" height="88" viewBox="0 0 89 88" fill="none" xmlns="http://www.w3.org/2000/svg">
<path d="M84.8082 31.7944C83.0453 30.8947 81.1038 30.386 79.1201 30.3041C80.7366 24.0001 80.4578 15.3501 76.0769 9.4745C72.9419 5.26981 68.1336 3.10459 62.1547 3.20849C58.1754 3.27889 53.8587 4.2191 49.3244 6.00322C47.9211 6.49685 45.3452 7.26969 44.315 7.26969H44.3069C43.2843 7.26969 40.7077 6.49685 39.3034 6.00322C34.094 3.95342 29.2847 3.0127 25.01 3.20968C19.5263 3.46098 15.1116 5.77122 12.2432 9.89063C10.1967 12.8292 8.95764 16.6542 8.65908 20.9518C8.44374 24.094 8.72933 27.2501 9.50546 30.3053C7.52779 30.3894 5.59258 30.8976 3.83486 31.7944C3.6114 31.9086 3.42406 32.081 3.29328 32.2929C3.16251 32.5047 3.09332 32.7479 3.09326 32.9959V83.0861C3.09326 83.4451 3.23805 83.7895 3.49578 84.0434C3.7535 84.2972 4.10306 84.4399 4.46754 84.4399H84.1755C84.54 84.4399 84.8896 84.2972 85.1473 84.0434C85.405 83.7895 85.5498 83.4451 85.5498 83.0861V32.9959C85.5498 32.7479 85.4806 32.5047 85.3498 32.2929C85.219 32.081 85.0317 31.9086 84.8082 31.7944ZM11.8081 18.0365C13.5738 18.9795 15.2592 19.458 16.836 19.458C20.0573 19.458 21.6396 17.392 22.1462 15.4511C23.8246 15.433 26.6865 15.069 28.7335 13.0468C29.1088 12.6754 29.4411 12.264 29.7242 11.8203C31.3298 12.187 32.7415 12.7052 34.2189 13.2509C37.0362 14.2918 39.9495 15.3679 44.3215 15.3679C46.4751 15.3787 48.6192 15.0881 50.6898 14.5048C51.0897 14.7875 51.5119 15.0382 51.9525 15.2543C52.914 15.7238 53.8096 16.3141 54.6169 17.0105C51.3195 17.5394 48.265 18.7053 46.0574 19.7262C45.5145 19.9782 44.9217 20.1089 44.3215 20.1089C43.7214 20.1089 43.1286 19.9782 42.5857 19.7262C39.6224 18.3555 35.134 16.7225 30.5779 16.7225C22.3788 16.7225 17.4993 21.9784 16.8384 31.522C16.2813 39.5667 22.9783 59.8048 25.8837 68.1326C26.1312 68.8401 26.5723 69.4665 27.1583 69.9426C27.7442 70.4187 28.4524 70.7262 29.2045 70.8309V75.6528C26.5867 74.3284 24.0642 71.0142 22.2337 66.3258C18.2632 56.1555 17.0925 50.1912 15.9601 44.4222C15.1463 40.2762 14.3776 36.3599 12.6349 31.2092C11.4016 27.5638 10.8878 22.6156 11.8081 18.0355V18.0365ZM65.1471 21.7874C67.4286 23.8074 68.7453 27.1389 69.0618 31.7066C69.5993 39.4701 62.3836 60.8767 60.1592 67.2527C60.0816 67.4724 59.9477 67.6685 59.7703 67.8221C60.5689 63.393 61.3748 58.5795 62.1712 53.4809C63.0816 47.6573 64.0032 41.2968 64.9132 34.5771L66.2689 29.2352C66.3136 29.0625 66.3232 28.8827 66.2972 28.7062C66.2712 28.5298 66.21 28.3601 66.1173 28.207C66.0245 28.0539 65.902 27.9204 65.7566 27.8141C65.6113 27.7078 65.4462 27.6308 65.2706 27.5875C65.095 27.5443 64.9124 27.5356 64.7334 27.562C64.5544 27.5885 64.3825 27.6495 64.2275 27.7416C64.0725 27.8337 63.9375 27.955 63.8302 28.0986C63.723 28.2422 63.6456 28.4053 63.6025 28.5785L62.7301 32.0144L59.0682 29.3089L58.0456 23.2676C58.0167 23.0915 57.9528 22.9228 57.8575 22.7712C57.7622 22.6195 57.6375 22.4879 57.4904 22.3839C57.3433 22.2798 57.1769 22.2055 57.0005 22.165C56.8242 22.1246 56.6415 22.1189 56.4629 22.1482C56.2843 22.1775 56.1134 22.2413 55.9599 22.3359C55.8064 22.4305 55.6735 22.5541 55.5686 22.6995C55.4637 22.8449 55.3891 23.0092 55.3489 23.1831C55.3087 23.357 55.3038 23.537 55.3345 23.7128L55.8833 26.9555L53.3918 25.1152C53.1002 24.8997 52.7337 24.8072 52.3728 24.858C52.012 24.9088 51.6865 25.0987 51.4678 25.3859C51.2491 25.6732 51.1552 26.0342 51.2067 26.3896C51.2583 26.7451 51.451 27.0658 51.7426 27.2812L57.4342 31.4863L53.4316 33.0639C53.264 33.13 53.1113 33.2279 52.9822 33.3521C52.853 33.4763 52.75 33.6243 52.6789 33.7877C52.5353 34.1178 52.5307 34.4905 52.6661 34.8239C52.8015 35.1572 53.0658 35.424 53.4009 35.5654C53.7359 35.7068 54.1143 35.7113 54.4527 35.5779L60.0091 33.3882L62.0932 34.9281C61.2171 41.3689 60.33 47.4676 59.4552 53.0689C58.6585 58.1703 57.8523 62.9843 57.0539 67.4094C56.9457 67.1934 56.8983 66.9528 56.9164 66.7127C57.6912 56.0008 57.2267 49.1601 55.3133 43.0987C54.8796 41.7249 54.0089 40.5248 52.8298 39.6757C51.6507 38.8266 50.2258 38.3735 48.7653 38.3831H39.8788C38.4184 38.3734 36.9934 38.8266 35.8144 39.6757C34.6353 40.5247 33.7646 41.7247 33.3308 43.0986C31.4174 49.16 30.9529 56.0013 31.7277 66.7127C31.7459 66.9528 31.6984 67.1933 31.5902 67.4092C30.7918 62.9842 29.9856 58.1696 29.1889 53.0687C28.3141 47.4684 27.4272 41.3694 26.5509 34.9279L28.635 33.388L34.1914 35.5778C34.359 35.6438 34.5381 35.6767 34.7186 35.6745C34.8991 35.6724 35.0773 35.6352 35.2432 35.5652C35.4091 35.4952 35.5594 35.3937 35.6855 35.2664C35.8115 35.1392 35.9109 34.9888 35.978 34.8237C36.045 34.6586 36.0784 34.4822 36.0762 34.3044C36.074 34.1266 36.0363 33.951 35.9652 33.7876C35.8942 33.6241 35.7911 33.4761 35.6619 33.3519C35.5328 33.2277 35.3801 33.1298 35.2125 33.0638L31.2099 31.4861L36.9005 27.2812C37.192 27.0658 37.3848 26.7451 37.4363 26.3896C37.4879 26.0342 37.394 25.6732 37.1753 25.3859C36.9566 25.0987 36.6311 24.9088 36.2702 24.858C35.9094 24.8072 35.5429 24.8997 35.2513 25.1152L32.7604 26.956L33.3093 23.7133C33.34 23.5375 33.3351 23.3575 33.2949 23.1836C33.2547 23.0097 33.18 22.8454 33.0752 22.7C32.9703 22.5546 32.8373 22.431 32.6839 22.3364C32.5304 22.2418 32.3594 22.178 32.1809 22.1487C32.0023 22.1194 31.8196 22.1251 31.6432 22.1655C31.4669 22.206 31.3004 22.2804 31.1534 22.3844C31.0063 22.4884 30.8815 22.62 30.7863 22.7717C30.691 22.9233 30.6271 23.092 30.5982 23.2681L29.5756 29.3094L25.9129 32.0144L25.0406 28.5773C24.9975 28.4041 24.9201 28.2411 24.8129 28.0974C24.7056 27.9538 24.5706 27.8325 24.4156 27.7404C24.2606 27.6483 24.0887 27.5873 23.9097 27.5609C23.7307 27.5344 23.5481 27.5431 23.3725 27.5863C23.1969 27.6296 23.0317 27.7066 22.8864 27.8129C22.7411 27.9192 22.6186 28.0527 22.5258 28.2059C22.433 28.359 22.3719 28.5286 22.3459 28.7051C22.3199 28.8815 22.3295 29.0613 22.3742 29.2341L23.7299 34.5759C24.6404 41.2962 25.5623 47.6561 26.4719 53.4797C27.2683 58.5783 28.0742 63.3918 28.8728 67.8209C28.6954 67.6674 28.5614 67.4713 28.4839 67.2517C26.2594 60.8755 19.0438 39.4689 19.5813 31.7054C20.1454 23.5595 23.8448 19.4293 30.5788 19.4293C34.8408 19.4293 39.1989 21.1504 41.4184 22.1763C42.3266 22.5979 43.3183 22.8165 44.3223 22.8165C45.3264 22.8165 46.318 22.5979 47.2262 22.1763C49.2564 21.2374 53.0779 19.7176 56.9778 19.4658C58.2249 20.8567 59.6162 22.1656 62.1871 22.1656C63.1862 22.1637 64.1809 22.0363 65.1471 21.7864V21.7874ZM56.69 76.2862C55.2546 76.2134 53.892 75.457 52.8491 74.1507C51.0137 71.8518 50.3818 68.1954 51.1584 64.3696C52.8261 56.1558 52.1707 49.7413 49.3133 46.3075C47.979 44.7043 46.2007 43.8215 44.3059 43.8215C42.4139 43.8215 40.6388 44.7025 39.307 46.3021C36.4538 49.7321 35.8 56.1489 37.4691 64.37C38.2457 68.1956 37.6139 71.852 35.7785 74.1511C34.7392 75.4529 33.3828 76.208 31.9531 76.2855V70.5541C32.7485 70.2259 33.4193 69.66 33.8708 68.9362C34.3223 68.2123 34.5316 67.3671 34.4694 66.5198C33.7207 56.1699 34.1512 49.6172 35.9553 43.902C36.2167 43.0808 36.7392 42.3641 37.4457 41.8578C38.1522 41.3514 39.0052 41.0822 39.8788 41.0899H48.7642C49.6379 41.0822 50.4909 41.3514 51.1974 41.8578C51.9039 42.3641 52.4264 43.0808 52.6878 43.902C54.4915 49.6172 54.9224 56.1697 54.1737 66.5196C54.1114 67.367 54.3207 68.2122 54.7722 68.9361C55.2237 69.66 55.8945 70.2259 56.69 70.5541V76.2862ZM31.9531 78.9953C31.969 78.9953 31.985 78.9953 32.001 78.9953C34.2704 78.9046 36.3793 77.7789 37.9389 75.8252C40.2994 72.8685 41.1105 68.4999 40.1642 63.8393C39.4628 60.3841 38.1821 51.9259 41.4332 48.0192C42.2442 47.0448 43.2369 46.5301 44.3059 46.5301C45.3772 46.5301 46.3737 47.047 47.1876 48.0253C50.4427 51.9366 49.1631 60.3876 48.4633 63.8396C47.5171 68.5002 48.3281 72.8689 50.6886 75.8255C52.2484 77.7792 54.357 78.9054 56.6266 78.9956C56.6478 78.9956 56.6689 78.9956 56.69 78.997V81.7323H31.9531V78.9953ZM59.4386 70.8309C60.1907 70.726 60.8988 70.4184 61.4846 69.942C62.0705 69.4657 62.5114 68.8392 62.7587 68.1316C65.6639 59.804 72.3614 39.5667 71.8038 31.5211C71.4824 26.8795 70.2 23.2752 67.9845 20.77C68.225 20.6644 68.4573 20.5593 68.6821 20.4575C69.8669 19.9212 70.8902 19.458 71.8071 19.458C71.8071 19.458 75.5691 19.4546 76.9912 19.0483C77.6612 23.1219 77.3186 27.2947 75.9926 31.2092C74.2498 36.3599 73.4811 40.2761 72.6674 44.4222C71.5351 50.1912 70.3642 56.1563 66.3938 66.3258C64.5672 71.0035 62.0497 74.3117 59.4386 75.6421V70.8309ZM62.2043 5.91539C67.3213 5.81978 71.2402 7.56143 73.8619 11.0767C74.8736 12.4335 75.7645 14.2598 76.3898 16.401C75.3908 16.7313 71.8071 16.7504 71.8071 16.7504C70.2888 16.7504 68.951 17.3561 67.5344 17.9973C65.948 18.7153 64.3075 19.458 62.1871 19.458C60.6711 19.458 60.0144 18.7855 58.6733 17.2644C57.4737 15.9038 55.9811 14.2107 53.182 12.8321C51.2202 11.8653 50.334 10.3905 50.5345 8.44444C54.688 6.83072 58.614 5.97868 62.2043 5.91539ZM38.3532 8.5431C38.7695 8.68998 42.4682 9.97625 44.3032 9.97625H44.3188C45.2227 9.97625 46.5743 9.6659 47.7656 9.3332C47.8091 10.3477 48.0913 11.3384 48.5902 12.2269C47.1871 12.521 45.7561 12.6663 44.3215 12.6603C40.4478 12.6603 37.891 11.7157 35.184 10.7158C33.7389 10.1535 32.2618 9.6743 30.7604 9.28057C30.9668 8.32525 31.0507 7.34821 31.0103 6.3723C33.5068 6.85777 35.9501 7.57906 38.3062 8.52618C38.3218 8.53244 38.3374 8.53836 38.3532 8.5431ZM14.5095 11.4216C16.9059 7.98026 20.4818 6.12692 25.1377 5.91336C26.1731 5.86941 27.2104 5.89428 28.2425 5.98782C28.4036 8.28452 27.9196 10.0099 26.7978 11.1254C24.7707 13.1407 21.1777 12.7055 21.1461 12.7018C20.9523 12.6743 20.7548 12.6881 20.5669 12.7424C20.379 12.7966 20.2052 12.89 20.0571 13.0162C19.909 13.1424 19.7902 13.2984 19.7087 13.4738C19.6272 13.6491 19.5848 13.8397 19.5846 14.0325C19.5582 14.5543 19.4209 15.0649 19.1814 15.531C18.7327 16.3629 17.987 16.7504 16.836 16.7504C15.3363 16.7504 13.7795 16.0634 12.5452 15.3308C13.0186 13.9469 13.6794 12.6322 14.5097 11.4223L14.5095 11.4216ZM5.84181 33.852C7.26117 33.256 8.79295 32.9642 10.3355 32.9959C11.8082 37.5328 12.5156 41.1356 13.2615 44.9367C14.4166 50.8209 15.6107 56.9055 19.6691 67.2982C22.0239 73.3325 25.4637 77.3416 29.2045 78.5864V81.7323H5.84181V33.852ZM82.8013 81.7323H59.4386V78.5803C63.1747 77.3281 66.6061 73.3244 68.959 67.2979C73.0168 56.9052 74.211 50.8206 75.3666 44.9363C76.1125 41.1357 76.8199 37.5326 78.2924 32.9957C79.8401 32.9622 81.3772 33.2541 82.8013 33.852V81.7323Z"/>
</svg>
