<svg width="89" height="88" viewBox="0 0 89 88" fill="none" xmlns="http://www.w3.org/2000/svg">
<path d="M81.7497 41.1953H80.9573C81.2567 39.5848 81.6321 38.2366 81.9854 36.9676C82.571 34.8646 83.124 32.8786 83.124 30.365C83.124 27.7261 81.9616 25.0006 79.8508 22.6903C78.4623 21.1706 76.314 19.5347 74.8784 19.5347C73.5158 19.5347 70.956 20.9941 69.3813 21.9806C67.8065 20.9941 65.2467 19.5347 63.8842 19.5347C62.4486 19.5347 60.3002 21.1706 58.9117 22.6903C58.1757 23.4916 57.5383 24.3757 57.0128 25.3243C56.4873 24.3757 55.8499 23.4916 55.1139 22.6903C53.7253 21.1706 51.577 19.5347 50.1414 19.5347C48.7788 19.5347 46.219 20.9939 44.6443 21.9806C43.0695 20.9939 40.5098 19.5347 39.1472 19.5347C37.7116 19.5347 35.5633 21.1706 34.1747 22.6903C33.4387 23.4916 32.8013 24.3757 32.2758 25.3243C31.7503 24.3757 31.1129 23.4916 30.3769 22.6903C28.9884 21.1706 26.84 19.5347 25.4044 19.5347C24.0418 19.5347 21.4821 20.9941 19.9073 21.9806C18.3326 20.9941 15.7728 19.5347 14.4102 19.5347C12.9746 19.5347 10.8263 21.1706 9.43775 22.6903C7.32703 25.0006 6.16457 27.7261 6.16457 30.365C6.16457 32.8786 6.71754 34.8646 7.30315 36.9676C7.65652 38.2367 8.03186 39.5848 8.33128 41.1953H7.53884C6.44579 41.1965 5.39787 41.6248 4.62497 42.3862C3.85207 43.1476 3.41729 44.1799 3.41602 45.2567V66.9173C3.41602 67.2763 3.5608 67.6207 3.81853 67.8745C4.07626 68.1284 4.42581 68.2711 4.79029 68.2711H84.4983C84.8628 68.2711 85.2123 68.1284 85.4701 67.8745C85.7278 67.6207 85.8726 67.2763 85.8726 66.9173V45.2567C85.8713 44.1799 85.4365 43.1476 84.6636 42.3862C83.8907 41.6248 82.8428 41.1965 81.7497 41.1953ZM63.9163 22.2472C64.5625 22.3429 66.7203 23.4764 68.619 24.7226C68.8448 24.8706 69.11 24.9496 69.3813 24.9496C69.6525 24.9496 69.9177 24.8706 70.1435 24.7226C72.0513 23.4703 74.2211 22.3318 74.8425 22.2461C75.8383 22.503 80.3755 25.8206 80.3755 30.365C80.3755 32.5141 79.8933 34.2459 79.3348 36.2512C78.574 38.984 77.6269 42.3851 77.6269 47.9642C77.6269 55.4608 75.829 57.4408 74.8784 57.4408C74.7823 57.4408 74.5575 57.4408 74.2519 56.7383C73.9107 55.9541 73.5041 54.2651 73.5041 50.6718C73.5041 49.0393 72.406 46.6104 69.3813 46.6104C66.3565 46.6104 65.2584 49.0393 65.2584 50.6718C65.2584 54.2651 64.8518 55.9541 64.5107 56.7383C64.2051 57.4408 63.9802 57.4408 63.8842 57.4408C62.9335 57.4408 61.1356 55.4608 61.1356 47.9642C61.1356 42.3851 60.1886 38.984 59.4277 36.2512C58.8693 34.2459 58.3871 32.5141 58.3871 30.365C58.3871 25.8267 62.9124 22.5117 63.9163 22.2472ZM40.281 52.2661L39.6009 49.5857L49.4816 50.3968L48.7944 53.1044L40.281 52.2661ZM48.1207 55.7592L47.6942 57.4408H41.5944L40.9894 55.0567L48.1207 55.7592ZM38.8959 46.8108L38.1587 43.9029H51.1298L50.1572 47.7351L38.8959 46.8108ZM32.2758 37.8208C32.5587 38.857 32.836 39.9452 33.0679 41.1953H31.4835C31.7167 39.94 31.9963 38.8443 32.2758 37.8208ZM57.0128 37.8208C57.2921 38.8443 57.5716 39.94 57.805 41.1953H56.2209C56.4528 39.9452 56.73 38.857 57.0128 37.8208ZM39.1791 22.2472C39.8254 22.3429 41.9832 23.4764 43.8819 24.7226C44.1077 24.8706 44.3729 24.9496 44.6441 24.9496C44.9154 24.9496 45.1805 24.8706 45.4063 24.7226C47.3142 23.4703 49.484 22.3318 50.1053 22.2461C51.1013 22.503 55.6385 25.8206 55.6385 30.365C55.6385 32.5141 55.1563 34.2461 54.598 36.2519C54.1207 37.8783 53.731 39.5284 53.4307 41.1953H35.8572C35.5566 39.5284 35.1666 37.8784 34.689 36.2521C34.1323 34.2463 33.6501 32.5141 33.6501 30.365C33.6501 25.8267 38.1754 22.5117 39.1793 22.2472H39.1791ZM14.4422 22.2472C15.0884 22.3429 17.2462 23.4764 19.1449 24.7226C19.3707 24.8706 19.6359 24.9496 19.9072 24.9496C20.1784 24.9496 20.4436 24.8706 20.6694 24.7226C22.5772 23.4703 24.747 22.3318 25.3684 22.2461C26.3644 22.503 30.9015 25.8206 30.9015 30.365C30.9015 32.5141 30.4193 34.2459 29.8609 36.2512C29.1 38.984 28.153 42.3851 28.153 47.9642C28.153 55.4608 26.3551 57.4408 25.4044 57.4408C25.3084 57.4408 25.0835 57.4408 24.7779 56.7383C24.4368 55.9541 24.0302 54.2651 24.0302 50.6718C24.0302 49.0393 22.9321 46.6104 19.9073 46.6104C16.8825 46.6104 15.7845 49.0393 15.7845 50.6718C15.7845 54.2651 15.3779 55.9541 15.0367 56.7383C14.7311 57.4408 14.5063 57.4408 14.4102 57.4408C13.4596 57.4408 11.6617 55.4608 11.6617 47.9642C11.6617 42.3851 10.7146 38.984 9.95379 36.2512C9.39532 34.2459 8.91312 32.5141 8.91312 30.365C8.91312 25.8267 13.4384 22.5117 14.4423 22.2472H14.4422ZM83.124 65.5635H6.16457V45.2567C6.16498 44.8977 6.3099 44.5536 6.56754 44.2998C6.82517 44.046 7.17449 43.9033 7.53884 43.9029H8.71797C8.85175 45.2526 8.91688 46.6081 8.91312 47.9642C8.91312 52.3292 9.49152 55.5681 10.6322 57.5905C11.8872 59.816 13.5379 60.1483 14.4102 60.1483C15.3834 60.1483 16.7204 59.7422 17.563 57.8047C18.2158 56.3044 18.5331 53.9717 18.5331 50.6887C18.5496 50.4046 18.6264 50.127 18.7586 49.8739C18.912 49.5994 19.1685 49.3189 19.9075 49.3189C20.6465 49.3189 20.9038 49.5994 21.0564 49.8739C21.186 50.1219 21.2627 50.3935 21.2816 50.6718C21.2816 53.9717 21.5989 56.3044 22.2517 57.8047C23.0943 59.7422 24.4313 60.1483 25.4044 60.1483C26.2768 60.1483 27.9274 59.816 29.1825 57.5905C30.3231 55.5681 30.9015 52.3292 30.9015 47.9642C30.8978 46.6081 30.9629 45.2526 31.0967 43.9029H35.3257L36.0262 46.6632C35.7163 46.749 35.4468 46.9393 35.2648 47.2009C35.0828 47.4625 34.9999 47.7787 35.0306 48.0944C35.0613 48.4101 35.2036 48.7052 35.4327 48.928C35.6618 49.1508 35.9631 49.2872 36.2839 49.3134L36.707 49.3473L37.3995 52.076C37.0912 52.1614 36.8228 52.3502 36.6408 52.6097C36.4588 52.8693 36.3745 53.1833 36.4025 53.4976C36.4305 53.8118 36.569 54.1066 36.7941 54.331C37.0192 54.5553 37.3168 54.6952 37.6355 54.7264L38.0821 54.7704L39.1867 59.1228C39.2611 59.416 39.4329 59.6762 39.6748 59.862C39.9167 60.0479 40.2147 60.1487 40.5215 60.1483H48.7671C49.0736 60.1483 49.3713 60.0474 49.6129 59.8616C49.8544 59.6758 50.026 59.4157 50.1003 59.1228L50.8849 56.0315L51.3789 56.0802C51.4255 56.0848 51.4715 56.0871 51.5174 56.0871C51.8701 56.087 52.2092 55.9533 52.4646 55.7137C52.72 55.4741 52.8721 55.1469 52.8895 54.7999C52.9068 54.4529 52.7881 54.1126 52.5578 53.8495C52.3275 53.5863 52.0034 53.4204 51.6524 53.3862L51.5586 53.3768L52.2571 50.6246L52.7757 50.6672C52.8147 50.6703 52.8532 50.6718 52.8915 50.6718C53.2462 50.6718 53.5871 50.5367 53.843 50.2947C54.0989 50.0527 54.2499 49.7227 54.2645 49.3736C54.279 49.0245 54.156 48.6833 53.9211 48.4215C53.6862 48.1597 53.3577 47.9975 53.0042 47.9688L52.9325 47.963L53.9633 43.9029H58.1922C58.3259 45.2526 58.3909 46.6081 58.3871 47.9642C58.3871 52.3292 58.9655 55.5681 60.1061 57.5905C61.3612 59.816 63.0118 60.1483 63.8842 60.1483C64.8573 60.1483 66.1943 59.7422 67.0369 57.8047C67.6897 56.3044 68.007 53.9717 68.007 50.6887C68.0235 50.4046 68.1004 50.127 68.2325 49.8739C68.3859 49.5994 68.6424 49.3189 69.3814 49.3189C70.1205 49.3189 70.3778 49.5994 70.5303 49.8739C70.66 50.1219 70.7366 50.3935 70.7555 50.6718C70.7555 53.9717 71.0728 56.3044 71.7256 57.8047C72.5682 59.7422 73.9052 60.1483 74.8784 60.1483C75.7507 60.1483 77.4014 59.816 78.6564 57.5905C79.7971 55.5681 80.3755 52.3292 80.3755 47.9642C80.3717 46.6081 80.4368 45.2526 80.5706 43.9029H81.7497C82.1141 43.9033 82.4634 44.046 82.7211 44.2998C82.9787 44.5536 83.1236 44.8977 83.124 45.2567V65.5635Z"/>
</svg>
