<svg width="88" height="87" viewBox="0 0 88 87" fill="none" xmlns="http://www.w3.org/2000/svg">
<path d="M70.1135 71.7632C70.1128 72.014 70.1825 72.26 70.315 72.4741C70.4474 72.6882 70.6375 72.862 70.8641 72.9762C71.0577 73.074 75.6074 75.4374 75.6074 81.2448C75.6074 81.6039 75.7522 81.9482 76.0099 82.2021C76.2676 82.456 76.6172 82.5986 76.9816 82.5986C77.3461 82.5986 77.6957 82.456 77.9534 82.2021C78.2111 81.9482 78.3559 81.6039 78.3559 81.2448C78.3559 75.4501 82.8857 73.0844 83.0972 72.9769C83.3234 72.8634 83.5133 72.6905 83.646 72.4774C83.7787 72.2642 83.849 72.0191 83.8492 71.7691C83.8493 71.519 83.7793 71.2738 83.6468 71.0605C83.5143 70.8472 83.3246 70.6741 83.0986 70.5604C82.9056 70.4626 78.3559 68.0992 78.3559 62.2918C78.3559 61.9327 78.2111 61.5884 77.9534 61.3345C77.6957 61.0806 77.3461 60.938 76.9816 60.938C76.6172 60.938 76.2676 61.0806 76.0099 61.3345C75.7522 61.5884 75.6074 61.9327 75.6074 62.2918C75.6074 68.0992 71.0577 70.4626 70.8699 70.5575C70.643 70.6699 70.4521 70.8421 70.3186 71.055C70.1851 71.2678 70.1141 71.513 70.1135 71.7632ZM76.9816 68.0285C77.7463 69.4637 78.793 70.735 80.0607 71.7683C78.793 72.8016 77.7463 74.0729 76.9816 75.5081C76.217 74.0729 75.1703 72.8016 73.9026 71.7683C75.1703 70.735 76.217 69.4637 76.9816 68.0285Z"/>
<path d="M17.134 13.7015C16.9404 13.6037 12.3907 11.2403 12.3907 5.43289C12.3907 5.07384 12.2459 4.7295 11.9882 4.47562C11.7305 4.22173 11.3809 4.0791 11.0164 4.0791C10.652 4.0791 10.3024 4.22173 10.0447 4.47562C9.78696 4.7295 9.64217 5.07384 9.64217 5.43289C9.64217 11.2403 5.09246 13.6037 4.9047 13.6986C4.67767 13.8114 4.4868 13.984 4.35325 14.1971C4.2197 14.4103 4.14868 14.6557 4.14808 14.9062C4.14747 15.1567 4.2173 15.4024 4.34982 15.6162C4.48234 15.83 4.67238 16.0034 4.89886 16.1173C5.09246 16.2151 9.64217 18.5785 9.64217 24.3859C9.64217 24.745 9.78696 25.0893 10.0447 25.3432C10.3024 25.5971 10.652 25.7397 11.0164 25.7397C11.3809 25.7397 11.7305 25.5971 11.9882 25.3432C12.2459 25.0893 12.3907 24.745 12.3907 24.3859C12.3907 18.5912 16.9205 16.2255 17.132 16.118C17.3582 16.0045 17.5481 15.8317 17.6808 15.6185C17.8135 15.4054 17.8838 15.1602 17.884 14.9102C17.8841 14.6601 17.8141 14.4149 17.6816 14.2016C17.5491 13.9883 17.3594 13.8152 17.1334 13.7015H17.134ZM11.0164 18.6493C10.2518 17.214 9.20517 15.9427 7.93738 14.9094C9.20517 13.8761 10.2518 12.6049 11.0164 11.1696C11.7811 12.6049 12.8277 13.8761 14.0955 14.9094C12.8277 15.9427 11.7811 17.214 11.0164 18.6493Z"/>
<path d="M29.8455 49.3603C29.2958 45.8173 28.7762 42.4707 27.41 38.8104C27.2842 38.4734 27.0277 38.1995 26.6968 38.0488C26.366 37.8981 25.9879 37.8831 25.6458 38.007C25.3037 38.1309 25.0256 38.3836 24.8727 38.7095C24.7198 39.0355 24.7045 39.4079 24.8303 39.7449C26.1015 43.1493 26.5997 46.3649 27.1284 49.7695C27.8606 54.4868 28.6905 59.8336 31.7264 66.8822C31.8688 67.2128 32.1386 67.474 32.4765 67.6086C32.8145 67.7431 33.1928 67.7399 33.5283 67.5996C33.8639 67.4594 34.1291 67.1936 34.2657 66.8607C34.4022 66.5278 34.399 66.1551 34.2566 65.8246C31.3557 59.0885 30.5878 54.1431 29.8455 49.3603Z"/>
<path d="M26.1201 32.5052C26.1129 29.7577 26.681 27.7405 27.7632 26.6717C28.3988 26.0447 29.2093 25.7398 30.2431 25.7398C30.6076 25.7398 30.9571 25.5972 31.2148 25.3433C31.4726 25.0894 31.6174 24.7451 31.6174 24.386C31.6174 24.027 31.4726 23.6826 31.2148 23.4287C30.9571 23.1749 30.6076 23.0322 30.2431 23.0322C28.4919 23.0322 26.962 23.6296 25.8171 24.7597C24.1851 26.3717 23.3623 28.9799 23.3715 32.5123C23.3725 32.8707 23.5177 33.2142 23.7753 33.4673C24.0329 33.7204 24.382 33.8625 24.7458 33.8625H24.7494C24.9299 33.8621 25.1085 33.8266 25.2751 33.7581C25.4416 33.6897 25.5928 33.5896 25.7201 33.4635C25.8474 33.3375 25.9482 33.188 26.0169 33.0235C26.0855 32.8591 26.1206 32.683 26.1201 32.5052Z"/>
<path d="M59.1135 16.2729H59.0954C56.5458 16.2729 53.2769 17.5707 50.3921 18.7159C48.3919 19.5099 46.3238 20.3309 45.365 20.3343C44.403 20.3309 42.3353 19.5099 40.3352 18.7159C37.4501 17.5706 34.1815 16.2729 31.6319 16.2729H31.6133C24.801 16.2899 21.1556 19.5464 19.2964 22.2758C15.6152 27.6815 15.9809 34.9713 17.9748 39.7979C19.7224 44.0266 20.1342 47.2618 20.6111 51.0078C21.1752 55.4399 21.8146 60.4633 24.837 68.2029C27.4278 74.8389 32.3293 77.1934 35.7394 77.1934C37.6023 77.1934 39.3469 76.3304 40.6504 74.7634C42.6477 72.3633 43.3706 68.6177 42.5842 64.7438C42.0279 62.0043 40.9902 55.3247 43.3605 52.4765C43.9153 51.8096 44.5879 51.4715 45.3594 51.4715H45.3669C46.1384 51.4715 46.8109 51.8099 47.366 52.4765C49.7366 55.3247 48.6983 62.0038 48.1421 64.7438C47.3557 68.6177 48.0785 72.3633 50.0757 74.7632C51.3799 76.3304 53.124 77.1934 54.9869 77.1934C58.397 77.1934 63.2986 74.8389 65.8895 68.2029C68.9112 60.4633 69.5506 55.4399 70.1154 51.0078C70.5923 47.2618 71.004 44.0266 72.7516 39.7977C74.7462 34.9711 75.1111 27.6813 71.4301 22.2758C69.5712 19.5459 65.9258 16.2894 59.1135 16.2729ZM70.2059 38.777C68.3218 43.336 67.8681 46.8997 67.3887 50.671C66.8441 54.9497 66.2269 59.7993 63.3253 67.2311C61.0893 72.9579 57.0326 74.4859 54.9881 74.4859C53.6756 74.4859 52.749 73.7032 52.2026 73.0475C50.7216 71.2679 50.2118 68.3625 50.8386 65.2755C52.5783 56.706 51.0671 52.6523 49.4928 50.7605C48.4214 49.4734 46.9568 48.7646 45.3681 48.7646H45.3606C43.7721 48.7646 42.3071 49.4734 41.236 50.7605C39.6618 52.6523 38.1504 56.706 39.8903 65.2755C40.5169 68.3627 40.0069 71.2681 38.5261 73.0475C37.9797 73.704 37.0531 74.4859 35.7406 74.4859C33.6964 74.4859 29.6395 72.9579 27.4034 67.2309C24.5018 59.7993 23.8846 54.9497 23.3399 50.671C22.8589 46.8989 22.4064 43.336 20.5226 38.777C18.4876 33.8526 18.9229 27.6876 21.5809 23.7838C23.7442 20.6073 27.1222 18.991 31.6216 18.9802C33.6435 18.9788 36.6504 20.1715 39.3088 21.2268C41.7545 22.1976 43.8667 23.0361 45.3556 23.0416H45.3728C46.8618 23.0361 48.9739 22.1976 51.4196 21.2268C54.073 20.1736 57.0792 18.9802 59.0949 18.9802H59.1071C63.6065 18.991 66.9846 20.6071 69.1477 23.7838C71.8054 27.6874 72.2404 33.8527 70.2059 38.777Z"/>
</svg>
