<svg width="81" height="81" viewBox="0 0 81 81" fill="none" xmlns="http://www.w3.org/2000/svg">
<path d="M65.2773 17.0267H56.5527V15.926C56.5527 10.7608 52.3505 6.55859 47.1853 6.55859H33.8147C28.6495 6.55859 24.4473 10.7608 24.4473 15.926V17.0267H15.7227C7.05317 17.0267 0 24.0799 0 32.7494V72.0683C0 73.3788 1.06249 74.4413 2.37305 74.4413H78.627C79.9375 74.4413 81 73.3788 81 72.0683V32.7494C81 24.0799 73.9468 17.0267 65.2773 17.0267ZM29.1934 15.926C29.1934 13.3778 31.2665 11.3047 33.8147 11.3047H47.1853C49.7335 11.3047 51.8066 13.3778 51.8066 15.926V17.0267H29.1934V15.926ZM54.4219 48.6123C54.4219 49.9229 53.3594 50.9854 52.0488 50.9854H45.7512V57.2829C45.7512 58.5935 44.6887 59.656 43.3782 59.656H37.6217C36.3111 59.656 35.2486 58.5935 35.2486 57.2829V50.9854H28.9512C27.6406 50.9854 26.5781 49.9229 26.5781 48.6123V42.8558C26.5781 41.5452 27.6406 40.4827 28.9512 40.4827H35.2488V34.1851C35.2488 32.8746 36.3113 31.8121 37.6218 31.8121H43.3783C44.6889 31.8121 45.7514 32.8746 45.7514 34.1851V40.4827H52.0488C53.3594 40.4827 54.4219 41.5452 54.4219 42.8558V48.6123Z" fill="#74777F"/>
</svg>
