<svg viewBox="0 0 101 69" fill="none" xmlns="http://www.w3.org/2000/svg">
<path d="M16.2047 39.1426H11.1091C12.5579 41.9875 15.1092 44.1429 18.2166 45.0713C17.4578 43.5742 16.6965 41.5866 16.2047 39.1426Z"/>
<path d="M18.6084 39.1426C19.2737 42.1342 20.3722 44.2819 21.2155 45.5792C21.3321 45.5825 21.4406 45.6136 21.5578 45.6136C21.6751 45.6136 21.7836 45.5825 21.8996 45.5792C22.7459 44.2791 23.8431 42.1322 24.5072 39.1426H18.6084Z"/>
<path d="M32.9056 30.9067H27.2745C27.3726 31.8386 27.4404 32.8077 27.4404 33.8481C27.4404 34.8891 27.3703 35.8571 27.271 36.7895H32.9056C33.1515 35.8438 33.3233 34.8696 33.3233 33.8481C33.3233 32.8266 33.1515 31.8524 32.9056 30.9067Z"/>
<path d="M24.8958 22.6235C25.672 24.1442 26.432 26.1149 26.9185 28.5533H32.0068C30.5573 25.7074 28.0048 23.5514 24.8958 22.6235Z"/>
<path d="M21.9037 22.1175C21.7859 22.1141 21.6762 22.0825 21.558 22.0825C21.4407 22.0825 21.3316 22.1136 21.2156 22.1169C20.3366 23.4629 19.2588 25.6049 18.6057 28.5535H24.5108C23.8603 25.6149 22.7867 23.4722 21.9037 22.1175Z"/>
<path d="M24.9032 30.9067H18.2133C18.1058 31.8324 18.0283 32.7973 18.0283 33.8481C18.0283 34.8983 18.107 35.8634 18.2157 36.7895H24.901C25.0089 35.8634 25.0878 34.8985 25.0878 33.8481C25.0876 32.7973 25.01 31.8325 24.9032 30.9067Z"/>
<path d="M11.1091 28.5533H16.1992C16.6863 26.1139 17.4469 24.1408 18.2202 22.6235C15.1109 23.552 12.5585 25.7074 11.1091 28.5533Z"/>
<path d="M15.6752 33.8481C15.6752 32.8077 15.7436 31.8386 15.8418 30.9067H10.2102C9.96426 31.8524 9.79248 32.8266 9.79248 33.8481C9.79248 34.8696 9.96426 35.8438 10.2102 36.7895H15.8454C15.7454 35.8571 15.6752 34.8891 15.6752 33.8481Z"/>
<path d="M26.9113 39.1426C26.4208 41.5866 25.6602 43.5729 24.9001 45.0713C28.007 44.1423 30.5577 41.9873 32.0065 39.1426H26.9113Z"/>
<path d="M62.7774 7.46978L35.5024 0.161516C32.992 -0.511174 30.4114 0.978774 29.7387 3.48923L27.2788 12.6701H38.0298C39.4827 12.6701 40.7655 13.3424 41.6284 14.377C42.5235 14.6167 44.1981 15.0654 45.7342 15.4769L53.4806 8.25439L55.6493 8.8356L50.7949 16.833C52.2195 17.2148 53.6736 17.6043 54.6266 17.8599L57.5697 16.13L59.0157 16.5174L56.7333 19.9738L56.9814 24.1085L55.5355 23.7211L53.8515 20.7518C52.8984 20.4962 51.4445 20.1068 50.0198 19.725L50.2254 29.0785L48.0568 28.4973L44.9592 18.3692C44.2025 18.1665 43.4476 17.9641 42.736 17.7735V46.0746L45.1598 36.8546L47.4325 37.4638L42.736 55.3312V59.7323C42.736 62.3314 40.6288 64.4385 38.0298 64.4385H29.9124L46.334 68.8386C48.8444 69.5113 51.4251 68.0215 52.0977 65.5109L59.7149 37.0845L57.4359 36.4909L58.0471 34.2183L60.3239 34.8112L66.1056 13.2338C66.7781 10.7232 65.2879 8.14262 62.7774 7.46978ZM46.0703 33.4448L43.7977 32.8358L44.4089 30.5632L46.6815 31.1722L46.0703 33.4448ZM48.9518 31.7822L51.2268 32.3912L50.6202 34.6639L48.3452 34.0549L48.9518 31.7822ZM47.5519 64.2927L45.2792 63.6837L51.9782 38.6816L54.2508 39.2907L47.5519 64.2927ZM55.1631 35.8818L52.8904 35.2727L53.5017 33.0001L55.7743 33.6091L55.1631 35.8818Z"/>
<path d="M38.0295 15.0234H2.73315V62.0853H38.0295C39.3273 62.0853 40.3826 61.0296 40.3826 59.7322V17.3765C40.3826 16.0791 39.3273 15.0234 38.0295 15.0234ZM33.3233 57.3791H9.79243V55.026H33.3233V57.3791ZM21.5579 47.9667C13.7605 47.9667 7.43934 41.6456 7.43934 33.8482C7.43934 26.0508 13.7605 19.7296 21.5579 19.7296C29.3553 19.7296 35.6764 26.0508 35.6764 33.8482C35.6764 41.6456 29.3554 47.9667 21.5579 47.9667Z"/>
<path d="M73.9999 19.0498L47 43.3498H55.1V64.9498H68.6V48.7498H79.4V64.9498H92.9V43.3498H101L73.9999 19.0498Z"/>
</svg>
