<svg viewBox="0 0 81 81" fill="none" xmlns="http://www.w3.org/2000/svg">
<path d="M75.9595 15.6772C68.4694 14.4354 59.3364 9.7149 49.4312 10.9502C43.5053 11.69 37.4958 11.69 31.5697 10.9502C21.6649 9.71364 12.5362 14.4346 5.04146 15.6772C-2.42539 16.9155 -0.344891 25.9528 3.27608 32.6195V35.848C3.27608 37.3703 4.365 38.6125 5.70335 38.6087C9.92671 38.5969 9.86039 38.6626 10.3406 38.5396C10.8566 39.2144 11.6392 39.6461 12.5143 39.6461H17.9768C18.6517 39.6461 19.2716 39.389 19.7567 38.9622C20.5905 39.7345 21.7052 40.2078 22.9287 40.2078C24.9807 40.056 26.7847 40.6846 28.6626 39.2301C29.4301 40.3835 30.7413 41.1455 32.2277 41.1455H37.4869C38.6613 41.1455 39.7265 40.6698 40.5006 39.9012C41.2747 40.6698 42.3399 41.1455 43.5143 41.1455H48.7735C50.2599 41.1455 51.571 40.3836 52.3386 39.2301C54.2164 40.6845 56.0209 40.056 58.0726 40.2078C59.296 40.2078 60.4107 39.7345 61.2445 38.9622C61.7296 39.3892 62.3496 39.6461 63.0244 39.6461H68.4869C69.362 39.6461 70.1447 39.2144 70.6606 38.5396C71.1483 38.6644 71.1739 38.5972 75.2979 38.6087C76.6362 38.6125 77.7252 37.3703 77.7252 35.848V32.6311C81.3108 25.911 83.4576 16.9214 75.9595 15.6772ZM5.8526 36.0764C5.79879 35.9561 5.80829 30.7609 5.80845 30.7443C5.81509 29.1885 6.70016 27.874 7.75568 27.874C8.8112 27.874 9.70623 29.1885 9.70291 30.7443C9.69167 35.99 9.74565 35.8828 9.6586 36.0764H5.8526ZM18.2558 36.6287C18.2558 36.9203 18.0877 37.1137 17.9766 37.1137H12.5143C12.4032 37.1137 12.2351 36.9201 12.2351 36.6287C12.2351 35.0601 12.2351 31.9682 12.2351 30.4167C12.2351 28.4429 13.5855 26.837 15.2455 26.837C16.9054 26.837 18.256 28.4429 18.256 30.4167C18.2558 32.5057 18.2558 34.3528 18.2558 36.6287ZM25.8073 37.6754H22.9287C21.7484 37.6754 20.7884 36.7153 20.7884 35.5351V30.9784C20.7884 28.9982 22.4029 27.3987 24.3682 27.3987C26.342 27.3987 27.948 29.0046 27.948 30.9784V35.5351C27.9478 36.7153 26.9876 37.6754 25.8073 37.6754ZM37.4868 38.6132H32.2275C31.264 38.6132 30.48 37.8292 30.48 36.8657C30.48 35.7605 30.4402 29.1961 30.5479 28.6705C30.8596 27.1514 32.207 26.0055 33.8169 26.0055H35.8974C37.5074 26.0055 38.8547 27.1515 39.1664 28.6705C39.2863 29.2548 39.2227 28.94 39.2343 36.8657C39.2357 37.8292 38.4503 38.6132 37.4868 38.6132ZM50.5209 36.8657C50.5209 37.8292 49.737 38.6132 48.7734 38.6132H43.5141C42.5506 38.6132 41.7652 37.8292 41.7666 36.8657C41.7782 28.9528 41.7144 29.2559 41.8345 28.6705C42.1462 27.1514 43.4936 26.0055 45.1035 26.0055H47.184C48.794 26.0055 50.1413 27.1515 50.453 28.6705C50.5491 29.139 50.5209 28.7562 50.5209 36.8657ZM58.0724 37.6754H55.1937C54.0135 37.6754 53.0534 36.7153 53.0534 35.5351V30.9784C53.0534 29.0046 54.6592 27.3987 56.6332 27.3987C58.5993 27.3987 60.213 28.9992 60.213 30.9784V35.5351C60.2127 36.7153 59.2526 37.6754 58.0724 37.6754ZM68.7658 36.6287C68.7658 36.9203 68.5977 37.1137 68.4866 37.1137H63.0243C62.9132 37.1137 62.7451 36.9201 62.7451 36.6287C62.7451 35.344 62.7451 32.652 62.7451 30.4167C62.7451 28.4429 64.0955 26.837 65.7556 26.837C67.4154 26.837 68.766 28.4429 68.766 30.4167C68.7658 33.3145 68.7658 35.172 68.7658 36.6287ZM75.1483 36.0764H71.3425C71.2792 35.9357 71.2982 36.3095 71.2982 30.7443C71.2982 29.1885 72.1899 27.874 73.2454 27.874C74.3009 27.874 75.1926 29.1885 75.1926 30.7443C75.1925 36.3013 75.211 35.9363 75.1483 36.0764Z"/>
<path d="M75.2977 47.1019C70.8887 47.1019 70.8515 47.0299 70.2513 47.3185C69.7684 46.8992 69.1548 46.6467 68.4867 46.6467H63.0242C62.4283 46.6467 61.8763 46.8481 61.4209 47.1888C60.9379 46.8599 60.355 46.6673 59.7279 46.6673C53.0296 46.6673 52.9817 46.5388 52.0656 47.0535C51.548 46.5936 50.869 46.3115 50.1237 46.3115H42.1637C41.5461 46.3115 40.9733 46.5048 40.5004 46.8324C40.0275 46.5048 39.4549 46.3115 38.8371 46.3115H30.8771C30.1318 46.3115 29.4528 46.5936 28.9352 47.0535C27.7628 46.3948 27.2191 46.7254 21.2729 46.6673C20.6459 46.6611 20.0629 46.8599 19.5799 47.1888C19.1247 46.8482 18.5725 46.6467 17.9766 46.6467H12.5143C11.8462 46.6467 11.2326 46.8992 10.7497 47.3185C10.146 47.0282 10.099 47.1019 5.7033 47.1019C4.36495 47.1019 3.27603 48.3404 3.27603 49.8627C3.27603 53.5156 3.10984 54.6025 3.93001 56.2219C3.82223 62.4546 7.02646 69.2776 16.3877 70.1129C22.8465 70.6892 31.8009 69.3073 40.5004 69.3073C49.247 69.3073 58.117 70.6925 64.6131 70.1129C73.9743 69.2776 77.1786 62.4546 77.0708 56.2219C78.0689 54.2514 77.6648 52.6413 77.7248 49.8627C77.7577 48.3407 76.636 47.1019 75.2977 47.1019ZM75.1483 49.6343C75.2114 49.7755 75.1924 49.6003 75.1924 53.414C75.1924 54.5014 74.6826 55.8704 73.6502 56.2177C72.2561 56.6787 71.2935 54.8958 71.298 53.414C71.3089 49.8329 71.2557 49.8279 71.3421 49.6343H75.1483ZM62.745 49.6639C62.745 49.3724 62.9131 49.1791 63.0242 49.1791H68.4867C68.5978 49.1791 68.7659 49.3725 68.7659 49.6639C68.7659 54.8383 68.8181 54.8562 68.55 55.6523C68.1629 56.7987 67.2357 57.7556 66.03 57.8879C64.1138 58.0896 62.7452 56.2425 62.7452 54.3236C62.745 52.0448 62.745 51.6448 62.745 49.6639ZM53.538 49.1997H59.7277C59.995 49.1997 60.2125 49.4172 60.2125 49.6845V54.3442C60.2125 56.1912 58.7953 57.7547 56.9258 57.9109C54.8255 58.0834 53.053 56.4139 53.053 54.3442V49.6845C53.0532 49.4172 53.2707 49.1997 53.538 49.1997ZM42.1637 48.8437H50.1237C50.3428 48.8437 50.5208 49.0219 50.5208 49.241V56.5625C50.5208 58.4025 49.0239 59.8994 47.184 59.8994H45.1035C43.2635 59.8994 41.7666 58.4025 41.7666 56.5625V49.241C41.7666 49.0219 41.9446 48.8437 42.1637 48.8437ZM30.4801 49.241C30.4801 49.0219 30.6582 48.8437 30.8773 48.8437H38.8373C39.0563 48.8437 39.2344 49.0219 39.2344 49.241V56.5625C39.2344 58.4025 37.7374 59.8994 35.8975 59.8994H33.817C31.9771 59.8994 30.4801 58.4025 30.4801 56.5625C30.4801 52.6904 30.4801 51.3462 30.4801 49.241ZM21.2731 49.1997H27.4628C27.7302 49.1997 27.9476 49.4172 27.9476 49.6845C27.9476 54.8204 27.9704 54.5712 27.881 55.0297C27.0431 59.3557 20.788 58.5612 20.788 54.3442C20.788 52.6923 20.788 51.5045 20.788 49.6845C20.7881 49.4172 21.0056 49.1997 21.2731 49.1997ZM12.2351 49.6639C12.2351 49.3724 12.4032 49.1791 12.5143 49.1791H17.9767C18.0878 49.1791 18.2559 49.3725 18.2559 49.6639V54.3236C18.2559 55.3032 17.9027 56.0054 17.9354 55.9279C16.5276 59.2465 12.2352 58.135 12.2352 54.3236C12.2351 51.476 12.2351 52.1985 12.2351 49.6639ZM5.8084 49.8627C5.8065 49.759 5.83119 49.6823 5.85255 49.6343H9.65854C9.74686 49.832 9.69194 49.8693 9.7027 53.414C9.71062 55.9989 7.51189 57.3232 6.28939 55.2761C5.52176 53.9711 5.86173 52.7164 5.8084 49.8627Z"/>
</svg>
