<svg viewBox="0 0 71 71" fill="none" xmlns="http://www.w3.org/2000/svg">
<path d="M12.7188 17.7812C13.0543 17.7837 13.376 17.9152 13.6173 18.1483L16.5156 21.0592V19.0469C16.5156 18.7112 16.649 18.3893 16.8863 18.1519C17.1237 17.9146 17.4456 17.7812 17.7812 17.7812H26.6406C26.9763 17.7812 27.2982 17.6479 27.5356 17.4106C27.7729 17.1732 27.9062 16.8513 27.9062 16.5156V1.32812C27.9062 0.99246 27.7729 0.670544 27.5356 0.433193C27.2982 0.195843 26.9763 0.0625 26.6406 0.0625H1.32812C0.99246 0.0625 0.670544 0.195843 0.433193 0.433193C0.195843 0.670544 0.0625 0.99246 0.0625 1.32812V16.5156C0.0625 16.8513 0.195843 17.1732 0.433193 17.4106C0.670544 17.6479 0.99246 17.7812 1.32812 17.7812H12.7188ZM2.59375 6.39062C2.59675 5.38456 2.99775 4.42055 3.70915 3.70915C4.42055 2.99775 5.38456 2.59675 6.39062 2.59375H16.5156C17.323 2.59619 18.1085 2.85663 18.7574 3.33705C19.4063 3.81746 19.8847 4.49271 20.1227 5.26422L23.35 2.84687C23.538 2.70585 23.7616 2.61997 23.9957 2.59886C24.2298 2.57776 24.4652 2.62225 24.6754 2.72737C24.8856 2.83248 25.0624 2.99406 25.186 3.194C25.3095 3.39393 25.375 3.62433 25.375 3.85938V13.9844C25.376 14.2185 25.3113 14.4481 25.1883 14.6473C25.0652 14.8464 24.8887 15.007 24.6789 15.1108C24.4691 15.2189 24.2331 15.2655 23.998 15.2453C23.7629 15.2252 23.5383 15.1391 23.35 14.9969L20.1227 12.5795C19.8847 13.351 19.4063 14.0263 18.7574 14.5067C18.1085 14.9871 17.323 15.2476 16.5156 15.25H6.39062C5.38456 15.247 4.42055 14.846 3.70915 14.1346C2.99775 13.4232 2.59675 12.4592 2.59375 11.4531V6.39062Z"/>
<path d="M16.5156 5.125H6.39062C5.69164 5.125 5.125 5.69164 5.125 6.39062V11.4531C5.125 12.1521 5.69164 12.7188 6.39062 12.7188H16.5156C17.2146 12.7188 17.7812 12.1521 17.7812 11.4531V6.39062C17.7812 5.69164 17.2146 5.125 16.5156 5.125Z"/>
<path d="M35.5 25.375C36.1713 25.375 36.8152 25.1083 37.2899 24.6336C37.7646 24.1589 38.0312 23.5151 38.0312 22.8438V20.3125C38.0312 19.6412 37.7646 18.9973 37.2899 18.5226C36.8152 18.0479 36.1713 17.7812 35.5 17.7812C34.8287 17.7812 34.1848 18.0479 33.7101 18.5226C33.2354 18.9973 32.9688 19.6412 32.9688 20.3125V22.8438C32.9688 23.5151 33.2354 24.1589 33.7101 24.6336C34.1848 25.1083 34.8287 25.375 35.5 25.375Z"/>
<path d="M22.8438 6.39062L20.3125 8.28906V9.55469L22.8438 11.4531V6.39062Z"/>
<path d="M63.9892 51.5481C63.9043 51.2967 63.7426 51.0784 63.5268 50.924C63.311 50.7695 63.0522 50.6868 62.7869 50.6875H8.21312C7.94779 50.6868 7.68896 50.7695 7.4732 50.924C7.25745 51.0784 7.09568 51.2967 7.01078 51.5481L1.11296 69.2669C1.04444 69.4556 1.02361 69.6583 1.05231 69.857C1.08102 70.0558 1.15837 70.2443 1.2775 70.4059C1.39268 70.5708 1.54612 70.7053 1.72466 70.7979C1.90321 70.8904 2.10153 70.9384 2.30265 70.9375H68.6973C68.8985 70.9384 69.0968 70.8904 69.2753 70.7979C69.4539 70.7053 69.6073 70.5708 69.7225 70.4059C69.8416 70.2443 69.919 70.0558 69.9477 69.857C69.9764 69.6583 69.9556 69.4556 69.887 69.2669L63.9892 51.5481ZM43.0938 68.4062H27.9062C27.5706 68.4062 27.2487 68.2729 27.0113 68.0356C26.774 67.7982 26.6406 67.4763 26.6406 67.1406C26.6406 66.805 26.774 66.483 27.0113 66.2457C27.2487 66.0083 27.5706 65.875 27.9062 65.875H43.0938C43.4294 65.875 43.7513 66.0083 43.9887 66.2457C44.226 66.483 44.3594 66.805 44.3594 67.1406C44.3594 67.4763 44.226 67.7982 43.9887 68.0356C43.7513 68.2729 43.4294 68.4062 43.0938 68.4062Z"/>
<path d="M43.2964 31.6019C43.268 31.2851 43.1227 30.9903 42.8886 30.775C42.6546 30.5597 42.3487 30.4394 42.0307 30.4375H40.7271C40.5078 30.439 40.2925 30.4968 40.1019 30.6054C39.9113 30.714 39.7518 30.8697 39.6387 31.0577L36.5885 36.1455C36.4684 36.3237 36.3063 36.4698 36.1166 36.5708C35.9268 36.6717 35.7151 36.7245 35.5001 36.7245C35.2851 36.7245 35.0734 36.6717 34.8837 36.5708C34.6939 36.4698 34.5318 36.3237 34.4117 36.1455L31.3615 31.0577C31.2484 30.8697 31.0889 30.714 30.8983 30.6054C30.7077 30.4968 30.4924 30.439 30.2731 30.4375H28.9695C28.6515 30.4394 28.3456 30.5597 28.1116 30.775C27.8776 30.9903 27.7322 31.2851 27.7039 31.6019L26.7546 43.0938H44.2456L43.2964 31.6019Z"/>
<path d="M60.8125 20.3125C62.815 20.3125 64.7726 19.7187 66.4376 18.6061C68.1027 17.4936 69.4004 15.9123 70.1668 14.0622C70.9331 12.2121 71.1336 10.1763 70.743 8.21222C70.3523 6.24816 69.388 4.44405 67.972 3.02805C66.5559 1.61204 64.7518 0.647729 62.7878 0.257054C60.8237 -0.133622 58.7879 0.066887 56.9378 0.833224C55.0877 1.59956 53.5064 2.89731 52.3939 4.56236C51.2813 6.2274 50.6875 8.18497 50.6875 10.1875C50.6912 12.8717 51.7591 15.4449 53.6571 17.3429C55.5551 19.2409 58.1283 20.3088 60.8125 20.3125ZM53.2188 10.1875C53.2188 9.85184 53.3521 9.52992 53.5894 9.29257C53.8268 9.05522 54.1487 8.92188 54.4844 8.92188H59.5469V3.85938C59.5469 3.52371 59.6802 3.2018 59.9176 2.96445C60.1549 2.7271 60.4768 2.59375 60.8125 2.59375C61.1482 2.59375 61.4701 2.7271 61.7074 2.96445C61.9448 3.2018 62.0781 3.52371 62.0781 3.85938V8.92188H67.1406C67.4763 8.92188 67.7982 9.05522 68.0356 9.29257C68.2729 9.52992 68.4063 9.85184 68.4063 10.1875C68.4063 10.5232 68.2729 10.8451 68.0356 11.0824C67.7982 11.3198 67.4763 11.4531 67.1406 11.4531H62.0781V16.5156C62.0781 16.8513 61.9448 17.1732 61.7074 17.4106C61.4701 17.6479 61.1482 17.7813 60.8125 17.7813C60.4768 17.7813 60.1549 17.6479 59.9176 17.4106C59.6802 17.1732 59.5469 16.8513 59.5469 16.5156V11.4531H54.4844C54.1487 11.4531 53.8268 11.3198 53.5894 11.0824C53.3521 10.8451 53.2188 10.5232 53.2188 10.1875Z"/>
<path d="M19.0469 20.3125V24.1094C19.0478 24.3597 18.9735 24.6046 18.8336 24.8122C18.6937 25.0199 18.4946 25.1807 18.2622 25.2738C18.112 25.3447 17.9473 25.3794 17.7812 25.375C17.445 25.376 17.1221 25.2441 16.8827 25.008L12.1998 20.3125H7.65625V46.8906C7.65625 47.2263 7.78959 47.5482 8.02694 47.7856C8.26429 48.0229 8.58621 48.1562 8.92188 48.1562H62.0781C62.4138 48.1562 62.7357 48.0229 62.9731 47.7856C63.2104 47.5482 63.3438 47.2263 63.3438 46.8906V22.5906C60.0546 23.2581 56.635 22.5936 53.8352 20.7429C51.0354 18.8922 49.0841 16.0064 48.4094 12.7188H30.4375V16.5156C30.4345 17.5217 30.0335 18.4857 29.3221 19.1971C28.6107 19.9085 27.6467 20.3095 26.6406 20.3125H19.0469ZM30.4375 20.3125C30.4375 18.9698 30.9709 17.6822 31.9203 16.7328C32.8697 15.7834 34.1573 15.25 35.5 15.25C36.8427 15.25 38.1303 15.7834 39.0797 16.7328C40.0291 17.6822 40.5625 18.9698 40.5625 20.3125V22.8438C40.5625 24.1864 40.0291 25.4741 39.0797 26.4235C38.1303 27.3729 36.8427 27.9062 35.5 27.9062C34.1573 27.9062 32.8697 27.3729 31.9203 26.4235C30.9709 25.4741 30.4375 24.1864 30.4375 22.8438V20.3125ZM30.273 27.9062C30.9283 27.9084 31.572 28.0795 32.1418 28.4032C32.7116 28.727 33.1883 29.1922 33.5256 29.7541L35.5 33.0447L37.4744 29.7541C37.8117 29.1922 38.2884 28.727 38.8582 28.4032C39.428 28.0795 40.0717 27.9084 40.727 27.9062H42.0306C42.9813 27.9116 43.8959 28.2712 44.5957 28.9148C45.2955 29.5584 45.7301 30.4398 45.8148 31.3867L46.8906 44.2581C46.9043 44.4324 46.8821 44.6077 46.8255 44.7731C46.7689 44.9385 46.6791 45.0906 46.5616 45.22C46.4408 45.3471 46.2955 45.4485 46.1346 45.518C45.9737 45.5876 45.8003 45.624 45.625 45.625H25.375C25.1997 45.624 25.0263 45.5876 24.8654 45.518C24.7045 45.4485 24.5592 45.3471 24.4384 45.22C24.3209 45.0906 24.2311 44.9385 24.1745 44.7731C24.1179 44.6077 24.0957 44.4324 24.1094 44.2581L25.1852 31.3867C25.2699 30.4398 25.7045 29.5584 26.4043 28.9148C27.1041 28.2712 28.0187 27.9116 28.9694 27.9062H30.273Z"/>
</svg>
