<svg width="81" height="81" viewBox="0 0 81 81" fill="none" xmlns="http://www.w3.org/2000/svg">
<g clip-path="url(#clip0)">
<path d="M81 25.9042C81 39.9164 13.4505 55.3828 8.33558 55.3828C5.46789 55.3828 2.21425 54.7218 2.21425 52.078C2.21425 51.1947 3.23377 49.918 5.02278 48.3789L5.0208 48.38L0.279121 39.9549C-0.362923 38.8143 0.146107 37.3693 1.36111 36.8827L2.176 36.5565C3.65293 35.9651 5.31515 36.0533 6.72114 36.7975L15.3292 41.3547C18.6808 39.3667 22.4828 37.2853 26.49 35.2361L9.71496 24.3529C8.38786 23.4918 8.40202 21.5443 9.74156 20.7028L11.1138 19.8407C13.3977 18.4059 16.1742 17.9821 18.7821 18.6699L46.6887 26.0308C55.3898 22.5772 63.2568 20.22 67.9132 20.22C69.1568 20.22 70.4022 20.253 71.6041 20.3389L63.1766 24.1434L62.9748 26.9781L75.9838 20.998C79.1022 21.7417 81 23.1297 81 25.9042ZM47.0504 50.0922L57.4597 61.9172C58.0941 62.6378 59.1272 62.8547 59.9977 62.4501L61.3918 61.8021C63.934 60.6205 65.4313 57.9411 65.1057 55.1568L63.8026 44.0146C63.7218 43.3251 63.0222 42.8888 62.3675 43.1193L47.5032 48.3555C46.7797 48.6105 46.5434 49.5163 47.0504 50.0922Z" fill="#74777F"/>
</g>
<defs>
<clipPath id="clip0">
<rect width="81" height="81" fill="white"/>
</clipPath>
</defs>
</svg>
