<svg width="17" height="16" viewBox="0 0 17 16" fill="none" xmlns="http://www.w3.org/2000/svg">
<path d="M16.1755 6.34643C16.1197 6.18814 15.9712 6.07278 15.7925 6.04888L10.7708 5.37662L8.52495 1.18461C8.44503 1.03538 8.28004 0.940918 8.09942 0.940918C7.91876 0.940918 7.7538 1.03538 7.67385 1.18461L5.42793 5.37662L0.406324 6.04888C0.2276 6.07278 0.0790595 6.18814 0.0232498 6.3464C-0.0325914 6.50469 0.0139799 6.67843 0.143348 6.79458L3.77692 10.0576L2.91928 14.6651C2.88871 14.8292 2.96192 14.9949 3.10806 15.0927C3.19073 15.1481 3.28865 15.1762 3.38705 15.1762C3.4626 15.1762 3.5384 15.1596 3.60782 15.126L8.09939 12.9506L12.5908 15.126C12.7507 15.2034 12.9444 15.1905 13.0906 15.0927C13.2367 14.9949 13.3099 14.8291 13.2794 14.6651L12.4215 10.0576L16.0555 6.79455C16.1848 6.67843 16.2314 6.50469 16.1755 6.34643Z" fill="#ECB018"/>
</svg>
