<svg width="44" height="43" viewBox="0 0 44 43" fill="none" xmlns="http://www.w3.org/2000/svg">
<path d="M22.3714 6.43002C22.3085 6.43963 22.2444 6.43963 22.1814 6.43002C20.2174 5.91592 18.3929 4.96955 16.8414 3.66003C16.7164 3.52356 16.647 3.34516 16.647 3.16003C16.647 2.97491 16.7164 2.79651 16.8414 2.66003C16.9768 2.53277 17.1556 2.46191 17.3414 2.46191C17.5273 2.46191 17.7061 2.53277 17.8414 2.66003C19.2151 3.81001 20.8274 4.64004 22.5614 5.09003C22.7374 5.13172 22.8916 5.23721 22.9942 5.38608C23.0968 5.53494 23.1405 5.7166 23.1168 5.89584C23.0932 6.07509 23.0038 6.23916 22.8661 6.35632C22.7284 6.47348 22.5522 6.53539 22.3714 6.53003V6.43002Z"/>
<path d="M8.83157 10.8199C8.63797 10.8199 8.45229 10.7429 8.31538 10.606C8.17848 10.4691 8.10156 10.2835 8.10156 10.0899V7.08987C8.10156 6.89627 8.17848 6.71057 8.31538 6.57367C8.45229 6.43677 8.63797 6.35986 8.83157 6.35986C9.02518 6.35986 9.21086 6.43677 9.34776 6.57367C9.48466 6.71057 9.56157 6.89627 9.56157 7.08987V10.0899C9.56157 10.1857 9.54268 10.2807 9.506 10.3692C9.46931 10.4578 9.41555 10.5383 9.34776 10.606C9.27998 10.6738 9.1995 10.7276 9.11093 10.7643C9.02236 10.801 8.92744 10.8199 8.83157 10.8199Z"/>
<path d="M10.3413 9.31009H7.34132C7.14772 9.31009 6.96204 9.23318 6.82513 9.09628C6.68823 8.95938 6.61133 8.77369 6.61133 8.58008C6.61133 8.38647 6.68823 8.20081 6.82513 8.0639C6.96204 7.927 7.14772 7.8501 7.34132 7.8501H10.3413C10.5349 7.8501 10.7206 7.927 10.8575 8.0639C10.9944 8.20081 11.0713 8.38647 11.0713 8.58008C11.0713 8.77369 10.9944 8.95938 10.8575 9.09628C10.7206 9.23318 10.5349 9.31009 10.3413 9.31009Z"/>
<path d="M30.2313 28.3702C30.1167 28.3687 30.0039 28.3414 29.9013 28.2902C27.2513 26.9302 21.0113 22.6202 20.3813 12.0102C20.3728 11.876 20.402 11.7422 20.4656 11.6237C20.5293 11.5053 20.6248 11.4071 20.7413 11.3402L29.8713 6.04016C29.9823 5.97609 30.1082 5.94238 30.2363 5.94238C30.3645 5.94238 30.4903 5.97609 30.6013 6.04016L39.7313 11.3402C39.8479 11.4071 39.9434 11.5053 40.007 11.6237C40.0706 11.7422 40.0998 11.876 40.0913 12.0102C39.4413 22.9202 32.6413 27.2302 30.5713 28.2902C30.4652 28.3412 30.3491 28.3686 30.2313 28.3702ZM21.8613 12.3702C22.5613 21.4802 27.6913 25.3702 30.2313 26.8202C32.7713 25.4202 37.9013 21.4902 38.6013 12.3702L30.2313 7.51016L21.8613 12.3702Z"/>
<path d="M24.7714 42.71H24.2514C23.1454 42.71 22.0847 42.2706 21.3027 41.4886C20.5207 40.7066 20.0814 39.6459 20.0814 38.54V31.31C20.1039 30.9369 20.0499 30.5632 19.9227 30.2117C19.7954 29.8603 19.5976 29.5386 19.3415 29.2665C19.0853 28.9943 18.7761 28.7775 18.433 28.6292C18.0899 28.481 17.7201 28.4045 17.3464 28.4045C16.9726 28.4045 16.6028 28.481 16.2597 28.6292C15.9166 28.7775 15.6074 28.9943 15.3512 29.2665C15.0951 29.5386 14.8973 29.8603 14.77 30.2117C14.6428 30.5632 14.5888 30.9369 14.6114 31.31V38.54C14.613 39.5599 14.2408 40.5451 13.5652 41.3091C12.8896 42.0732 11.9574 42.5631 10.9449 42.6863C9.93248 42.8095 8.90999 42.5573 8.07088 41.9775C7.23178 41.3978 6.63426 40.5306 6.39135 39.54L0.471352 15.66C0.141681 14.414 -0.0164456 13.1288 0.00135079 11.84C0.0297799 10.4328 0.293417 9.04023 0.78135 7.72C2.53135 3.03 6.60136 0 11.1314 0C13.3777 0.00708097 15.5596 0.751928 17.3413 2.12C19.1515 0.725907 21.3774 -0.02005 23.6621 0.00170898C25.9468 0.023468 28.158 0.811678 29.9414 2.23999C30.0355 2.31225 30.1103 2.40666 30.1592 2.51483C30.208 2.623 30.2294 2.74157 30.2214 2.85999C30.2148 2.98041 30.1784 3.09733 30.1156 3.20029C30.0528 3.30324 29.9654 3.38903 29.8614 3.44998L18.0814 10.29C18.4514 25.06 28.2013 30.09 30.1713 30.95C30.3264 31.018 30.4524 31.1386 30.5274 31.2904C30.6024 31.4422 30.6215 31.6155 30.5814 31.78L28.8413 39.43C28.6436 40.3614 28.1308 41.1961 27.3895 41.7935C26.6481 42.391 25.7235 42.7147 24.7714 42.71ZM17.3413 27.12C18.4526 27.12 19.5184 27.5615 20.3041 28.3472C21.0899 29.133 21.5313 30.1987 21.5313 31.31V38.54C21.5313 38.8967 21.6018 39.2499 21.7386 39.5794C21.8754 39.9088 22.0759 40.208 22.3286 40.4598C22.5813 40.7116 22.8813 40.911 23.2112 41.0466C23.5412 41.1822 23.8946 41.2513 24.2514 41.25H24.7714C25.3875 41.2535 25.9864 41.0461 26.4684 40.6623C26.9505 40.2784 27.2867 39.7413 27.4213 39.14L29.0313 32.03C26.0313 30.56 16.8014 24.79 16.6114 9.88998C16.6105 9.76003 16.6443 9.63219 16.7093 9.51968C16.7744 9.40717 16.8683 9.31409 16.9813 9.25L28.1413 2.75998C26.5541 1.78107 24.6953 1.33553 22.8368 1.48846C20.9782 1.6414 19.2172 2.38478 17.8113 3.60999C17.6797 3.71633 17.5156 3.77435 17.3464 3.77435C17.1771 3.77435 17.013 3.71633 16.8814 3.60999C15.2799 2.23483 13.2422 1.47291 11.1314 1.45999C7.21136 1.45999 3.68136 4.11998 2.13136 8.22998C1.70156 9.39989 1.47167 10.6338 1.45135 11.88C1.43652 13.037 1.57779 14.1907 1.87135 15.31L7.80135 39.19C7.96087 39.8319 8.34963 40.3933 8.89437 40.7684C9.43912 41.1435 10.1022 41.3064 10.7588 41.2265C11.4154 41.1466 12.02 40.8293 12.4589 40.3345C12.8977 39.8397 13.1405 39.2014 13.1413 38.54V31.31C13.1413 30.7589 13.2501 30.2132 13.4613 29.7042C13.6724 29.1952 13.982 28.7329 14.3721 28.3437C14.7622 27.9545 15.2253 27.646 15.7348 27.4361C16.2443 27.2261 16.7903 27.1187 17.3413 27.12Z"/>
<path d="M30.2315 28.3701C30.0379 28.3701 29.8522 28.2932 29.7153 28.1563C29.5784 28.0194 29.5015 27.8337 29.5015 27.6401V6.64014C29.5015 6.44653 29.5784 6.26086 29.7153 6.12396C29.8522 5.98706 30.0379 5.91016 30.2315 5.91016C30.4251 5.91016 30.6107 5.98706 30.7477 6.12396C30.8846 6.26086 30.9615 6.44653 30.9615 6.64014V27.6401C30.9615 27.8337 30.8846 28.0194 30.7477 28.1563C30.6107 28.2932 30.4251 28.3701 30.2315 28.3701Z"/>
<path d="M30.2313 32.49C30.1486 32.5043 30.0641 32.5043 29.9813 32.49C29.8513 32.49 16.8313 27.49 16.6113 9.92996C16.6105 9.80001 16.6443 9.67217 16.7093 9.55966C16.7744 9.44715 16.8683 9.35403 16.9813 9.28995L29.8713 1.79996C29.9823 1.73589 30.1082 1.70215 30.2363 1.70215C30.3645 1.70215 30.4904 1.73589 30.6013 1.79996L43.4914 9.28995C43.6033 9.35451 43.6957 9.448 43.7591 9.56061C43.8224 9.67321 43.8543 9.8008 43.8513 9.92996C43.6713 27.43 30.6113 32.43 30.4813 32.43C30.4025 32.4654 30.3177 32.4858 30.2313 32.49ZM18.0813 10.2899C18.4513 25.3699 28.4613 30.24 30.2313 30.9799C32.0013 30.24 42.0113 25.3799 42.3813 10.2899L30.2313 3.22995L18.0813 10.2899Z"/>
</svg>
