<svg width="43" height="46" viewBox="0 0 43 46" fill="none" xmlns="http://www.w3.org/2000/svg">
<path d="M23.2301 7.95805H23.0401C21.0084 7.43461 19.1236 6.45285 17.5301 5.08805C17.4536 5.02425 17.3909 4.94546 17.346 4.85653C17.3011 4.7676 17.2748 4.67042 17.2689 4.57097C17.2629 4.47151 17.2774 4.37189 17.3114 4.27824C17.3454 4.18459 17.3982 4.09889 17.4666 4.02642C17.5349 3.95395 17.6174 3.89624 17.7089 3.85685C17.8004 3.81745 17.8991 3.79721 17.9987 3.79736C18.0983 3.79752 18.1969 3.81806 18.2883 3.85774C18.3797 3.89741 18.462 3.95537 18.5301 4.02805C19.9625 5.21167 21.6341 6.07134 23.4301 6.54805C23.5971 6.5973 23.741 6.70462 23.8358 6.85065C23.9307 6.99668 23.9702 7.17179 23.9473 7.34439C23.9243 7.51698 23.8404 7.6757 23.7108 7.7919C23.5811 7.9081 23.4142 7.97412 23.2401 7.97805L23.2301 7.95805Z"/>
<path d="M26.19 45.568C25.8993 45.5668 25.61 45.5264 25.33 45.448C24.5705 45.2095 23.9104 44.7279 23.4514 44.0774C22.9924 43.4269 22.76 42.6435 22.79 41.848V36.958C22.79 33.958 20.65 31.488 18.02 31.488C15.39 31.488 13.26 33.948 13.26 36.958V41.848C13.29 42.6435 13.0576 43.4269 12.5986 44.0774C12.1397 44.7279 11.4796 45.2095 10.72 45.448C10.0307 45.6377 9.29768 45.591 8.63794 45.3156C7.9782 45.0401 7.42973 44.5516 7.08 43.928C0.0800018 32.548 0 15.148 0 14.408C0 7.24799 5.20001 1.40799 11.6 1.40799C13.9182 1.40939 16.1724 2.16784 18.02 3.56799C19.8682 2.15833 22.1256 1.3895 24.45 1.37799C25.217 1.37542 25.9818 1.45928 26.73 1.62799C26.831 1.64017 26.9283 1.67332 27.0157 1.7253C27.1031 1.77728 27.1786 1.84695 27.2375 1.92984C27.2965 2.01273 27.3374 2.10702 27.3578 2.20665C27.3781 2.30629 27.3774 2.40907 27.3557 2.50842C27.334 2.60778 27.2918 2.7015 27.2318 2.78359C27.1718 2.86568 27.0953 2.93432 27.0072 2.98512C26.9191 3.03592 26.8213 3.06775 26.7202 3.07858C26.6191 3.0894 26.5169 3.07898 26.42 3.04799C25.0336 2.74422 23.5956 2.76676 22.2194 3.11385C20.8432 3.46093 19.5665 4.12306 18.49 5.04799C18.3609 5.15986 18.1958 5.22145 18.025 5.22145C17.8542 5.22145 17.6891 5.15986 17.56 5.04799C15.8864 3.6202 13.7599 2.83341 11.56 2.82799C5.97 2.82799 1.42 7.99799 1.42 14.358C1.42 14.538 1.42 32.098 8.28 43.118C8.46268 43.4711 8.76077 43.751 9.12465 43.9111C9.48853 44.0712 9.89626 44.1019 10.28 43.998C10.7361 43.848 11.1293 43.5502 11.3973 43.1518C11.6653 42.7534 11.7929 42.277 11.76 41.798V36.958C11.76 33.138 14.55 30.028 17.98 30.028C21.41 30.028 24.21 33.138 24.21 36.958V41.848C24.1771 42.327 24.3047 42.8034 24.5727 43.2018C24.8407 43.6002 25.2339 43.898 25.69 44.048C26.0737 44.1519 26.4815 44.1212 26.8454 43.9611C27.2092 43.801 27.5073 43.5211 27.69 43.168C34.5 32.168 34.55 14.588 34.55 14.418C34.5489 13.7113 34.492 13.0058 34.38 12.308C34.3597 12.2112 34.3592 12.1114 34.3786 12.0144C34.398 11.9175 34.4369 11.8255 34.4929 11.744C34.549 11.6625 34.621 11.5933 34.7046 11.5405C34.7882 11.4877 34.8816 11.4525 34.9792 11.4369C35.0769 11.4213 35.1766 11.4257 35.2725 11.4498C35.3684 11.4739 35.4584 11.5173 35.537 11.5772C35.6156 11.6372 35.6813 11.7125 35.7299 11.7986C35.7786 11.8846 35.8092 11.9797 35.82 12.078C35.9439 12.8485 36.0074 13.6276 36.01 14.408C36.01 15.148 35.96 32.548 28.93 43.928C28.6523 44.4134 28.2544 44.8192 27.7746 45.1064C27.2947 45.3937 26.749 45.5526 26.19 45.568Z"/>
<path d="M31.7802 10.4083C30.9451 10.4078 30.1287 10.1603 29.4341 9.69668C28.7395 9.2331 28.1977 8.57428 27.8768 7.80326C27.556 7.03223 27.4706 6.18349 27.6314 5.364C27.7921 4.54451 28.1918 3.79094 28.7802 3.19826L30.7802 1.19826C30.9144 1.06872 31.0936 0.996331 31.2802 0.996331C31.4667 0.996331 31.6459 1.06872 31.7802 1.19826C31.9052 1.33473 31.9746 1.51313 31.9746 1.69826C31.9746 1.88338 31.9052 2.06178 31.7802 2.19826L29.7802 4.19826C29.5234 4.45499 29.3198 4.75978 29.1808 5.09522C29.0419 5.43066 28.9704 5.79018 28.9704 6.15326C28.9704 6.88652 29.2617 7.58976 29.7802 8.10826C30.2987 8.62676 31.0019 8.91804 31.7352 8.91804C32.4684 8.91804 33.1717 8.62676 33.6902 8.10826L41.5602 0.358258C41.6168 0.262459 41.6947 0.18089 41.7877 0.119792C41.8808 0.0586943 41.9866 0.0196849 42.097 0.00574611C42.2075 -0.00819268 42.3196 0.00330839 42.4249 0.0393708C42.5302 0.0754331 42.6259 0.135101 42.7046 0.213811C42.7833 0.292522 42.843 0.388191 42.879 0.493501C42.9151 0.598811 42.9266 0.710973 42.9127 0.82141C42.8987 0.931848 42.8597 1.03764 42.7986 1.13068C42.7375 1.22373 42.656 1.30157 42.5602 1.35826L34.7002 9.09826C33.9372 9.90228 32.888 10.373 31.7802 10.4083Z"/>
<path d="M23.8503 14.8385C23.7068 14.838 23.5667 14.7953 23.4474 14.7157C23.328 14.6361 23.2348 14.523 23.1794 14.3908C23.1239 14.2585 23.1086 14.1128 23.1354 13.9719C23.1623 13.831 23.23 13.7011 23.3303 13.5985L28.7903 8.13845C28.9245 8.00892 29.1037 7.93652 29.2903 7.93652C29.4768 7.93652 29.656 8.00892 29.7903 8.13845C29.9153 8.27492 29.9847 8.45333 29.9847 8.63845C29.9847 8.82358 29.9153 9.00198 29.7903 9.13845L24.3303 14.5985C24.2065 14.7365 24.0349 14.8223 23.8503 14.8385Z"/>
<path d="M19.2101 26.0283C17.5285 26.0263 15.8997 25.4414 14.6009 24.3733C13.3022 23.3052 12.4138 21.82 12.0872 20.1705C11.7606 18.5209 12.0158 16.8092 12.8096 15.3268C13.6033 13.8443 14.8863 12.6829 16.4402 12.0402C17.9941 11.3975 19.7227 11.3134 21.3316 11.8021C22.9406 12.2908 24.3304 13.3222 25.2643 14.7205C26.1983 16.1188 26.6186 17.7977 26.4537 19.4711C26.2888 21.1446 25.5489 22.7091 24.3601 23.8983C23.6839 24.5746 22.881 25.1109 21.9973 25.4764C21.1136 25.8419 20.1664 26.0294 19.2101 26.0283ZM15.0901 14.6283C14.274 15.4433 13.7181 16.4821 13.4926 17.6132C13.2671 18.7443 13.3822 19.9169 13.8232 20.9826C14.2643 22.0483 15.0115 22.9592 15.9704 23.6001C16.9293 24.241 18.0567 24.5831 19.2101 24.5831C20.3634 24.5831 21.4909 24.241 22.4498 23.6001C23.4087 22.9592 24.1559 22.0483 24.597 20.9826C25.038 19.9169 25.1531 18.7443 24.9276 17.6132C24.7021 16.4821 24.1461 15.4433 23.3301 14.6283C22.2356 13.5389 20.7543 12.9273 19.2101 12.9273C17.6659 12.9273 16.1845 13.5389 15.0901 14.6283Z"/>
<path d="M18.0199 17.1381C17.8281 17.1355 17.6449 17.0574 17.5102 16.9208C17.3754 16.7842 17.2999 16.6 17.2999 16.4081V15.7381C17.2879 15.6358 17.2976 15.532 17.3286 15.4337C17.3595 15.3354 17.4109 15.2448 17.4794 15.1678C17.5479 15.0907 17.6319 15.0291 17.7259 14.9869C17.82 14.9447 17.9219 14.9229 18.0249 14.9229C18.128 14.9229 18.2299 14.9447 18.3239 14.9869C18.4179 15.0291 18.5019 15.0907 18.5704 15.1678C18.6389 15.2448 18.6903 15.3354 18.7213 15.4337C18.7522 15.532 18.762 15.6358 18.7499 15.7381V16.4081C18.7499 16.6018 18.673 16.7874 18.5361 16.9243C18.3992 17.0612 18.2135 17.1381 18.0199 17.1381Z"/>
<path d="M18.0199 20.4783C17.9245 20.4783 17.83 20.4594 17.742 20.4226C17.654 20.3857 17.5742 20.3318 17.5072 20.2639C17.4402 20.196 17.3874 20.1154 17.3518 20.0269C17.3162 19.9384 17.2985 19.8437 17.2999 19.7483V19.0783C17.3208 18.9007 17.4061 18.7369 17.5398 18.6181C17.6734 18.4992 17.846 18.4336 18.0249 18.4336C18.2037 18.4336 18.3763 18.4992 18.51 18.6181C18.6436 18.7369 18.729 18.9007 18.7499 19.0783V19.7483C18.7512 19.8445 18.7333 19.9401 18.697 20.0292C18.6608 20.1184 18.6071 20.1994 18.5391 20.2675C18.471 20.3355 18.39 20.3893 18.3008 20.4255C18.2116 20.4617 18.1161 20.4796 18.0199 20.4783Z"/>
<path d="M20.0299 18.4781H19.3599C19.1663 18.4781 18.9806 18.4012 18.8437 18.2643C18.7068 18.1274 18.6299 17.9417 18.6299 17.7481C18.6299 17.5545 18.7068 17.3688 18.8437 17.2319C18.9806 17.095 19.1663 17.0181 19.3599 17.0181H20.0299C20.2235 17.0181 20.4092 17.095 20.5461 17.2319C20.683 17.3688 20.7599 17.5545 20.7599 17.7481C20.7599 17.9417 20.683 18.1274 20.5461 18.2643C20.4092 18.4012 20.2235 18.4781 20.0299 18.4781Z"/>
<path d="M16.69 18.4781H16.02C15.8264 18.4781 15.6407 18.4012 15.5038 18.2643C15.3669 18.1274 15.29 17.9417 15.29 17.7481C15.29 17.5545 15.3669 17.3688 15.5038 17.2319C15.6407 17.095 15.8264 17.0181 16.02 17.0181H16.69C16.8836 17.0181 17.0693 17.095 17.2062 17.2319C17.3431 17.3688 17.42 17.5545 17.42 17.7481C17.42 17.9417 17.3431 18.1274 17.2062 18.2643C17.0693 18.4012 16.8836 18.4781 16.69 18.4781Z"/>
</svg>
