<svg viewBox="0 0 512 512" xmlns="http://www.w3.org/2000/svg">
  <path d="M178.222 419.991c-13.846-4.779-22.013-19.443-24.882-25.527a8.986 8.986 0 00-8.092-5.13 8.986 8.986 0 00-8.093 5.13l-.001.001c-2.868 6.083-11.035 20.746-24.881 25.525a8.945 8.945 0 000 16.906c13.846 4.779 22.013 19.443 24.882 25.527 1.47 3.116 4.647 5.13 8.093 5.13s6.622-2.014 8.093-5.131c2.868-6.083 11.035-20.746 24.881-25.525a8.945 8.945 0 000-16.906zm-32.975 26.261c-3.874-5.902-9.433-12.67-16.853-17.808 7.42-5.138 12.979-11.906 16.853-17.808 3.875 5.902 9.433 12.67 16.854 17.808-7.42 5.138-12.98 11.906-16.854 17.808zM364.025 159.845c-11.257-3.886-17.98-16.583-19.771-20.379a8.73 8.73 0 00-7.862-4.988h-.004a8.732 8.732 0 00-7.866 4.986c-1.792 3.798-8.512 16.494-19.774 20.381a8.694 8.694 0 00.002 16.429c11.26 3.887 17.98 16.583 19.774 20.385a8.732 8.732 0 007.864 4.982h.004a8.731 8.731 0 007.861-4.985c1.792-3.799 8.515-16.497 19.772-20.383a8.693 8.693 0 005.853-8.215 8.694 8.694 0 00-5.853-8.213zm-27.637 20.574c-2.907-4.157-6.77-8.652-11.671-12.359 4.901-3.706 8.764-8.201 11.671-12.358 2.908 4.157 6.77 8.652 11.672 12.358-4.902 3.707-8.764 8.202-11.672 12.359z"/><path d="M453.45 131.416a553.573 553.573 0 00-20.778-5.389c6.239-6.473 13.988-12.31 23.315-15.529a9.748 9.748 0 006.561-9.214 9.747 9.747 0 00-6.561-9.213c-23.126-7.982-36.569-32.053-41.274-42.029-1.626-3.451-5.006-5.595-8.823-5.596h-.003c-3.815 0-7.196 2.143-8.824 5.593v.002c-4.705 9.977-18.146 34.047-41.275 42.03a9.747 9.747 0 00-6.561 9.213 9.748 9.748 0 006.561 9.214 50.326 50.326 0 015.301 2.192c-82.684-11.387-166.101-9.317-248.514 6.239-19.417 3.665-37.593 7.866-54.024 12.486C24.077 141.109 0 173.003 0 208.977v128.04c0 12.317 10.02 22.337 22.337 22.337h45.908c4.095 0 7.933-1.113 11.236-3.044a23.064 23.064 0 0015.465 9.967 7.507 7.507 0 002.452-14.812 8.13 8.13 0 01-6.815-8.057v-78.731c0-17.881 14.547-32.428 32.428-32.428s32.428 14.547 32.428 32.428v78.731c0 4.504-3.664 8.168-8.168 8.168h-16.502a7.507 7.507 0 000 15.014h16.502c4.051 0 7.862-1.047 11.179-2.882 4.326 8.107 12.867 13.638 22.679 13.638h56.291c7.135 0 13.597-2.925 18.257-7.637 4.66 4.712 11.122 7.637 18.257 7.637h56.291c9.927 0 18.551-5.663 22.827-13.926a23.026 23.026 0 0011.678 3.169h48.521c8.013 0 15.089-4.088 19.254-10.287a22.19 22.19 0 0011.25 3.052h45.908c12.317 0 22.337-10.02 22.337-22.337v-128.04c0-35.974-24.077-67.868-58.55-77.561zm-47.563-65.933c6.505 11.203 17.699 26.45 34.209 35.802-16.508 9.351-27.703 24.599-34.209 35.802-6.504-11.203-17.695-26.449-34.209-35.802 16.515-9.353 27.705-24.599 34.209-35.802zM75.569 337.017c0 4.038-3.285 7.323-7.324 7.323H22.337c-4.038 0-7.324-3.285-7.324-7.323v-74.491c0-.485.012-.967.033-1.442.326-6.991 3.921-13.256 9.861-17.19a23.424 23.424 0 0112.925-3.877c2.731 0 5.473.476 8.088 1.443 18.255 6.75 28.228 17.282 29.648 31.308v64.249zm172.529 14.636c0 5.888-4.79 10.678-10.678 10.678h-56.291c-5.887 0-10.677-4.79-10.677-10.678v-91.339c0-21.407 17.416-38.823 38.823-38.823s38.823 17.416 38.823 38.823zm173.32-8.246c0 4.504-3.664 8.168-8.168 8.168h-48.521c-4.503 0-8.167-3.664-8.167-8.168v-78.731c0-17.881 14.546-32.428 32.427-32.428s32.428 14.547 32.428 32.428v78.731zm68.245.933h-45.908c-4.038 0-7.323-3.285-7.323-7.323v-64.249c1.42-14.025 11.393-24.558 29.648-31.308a23.454 23.454 0 0121.013 2.434c5.94 3.934 9.534 10.2 9.86 17.186.022.479.033 75.938.033 75.938 0 4.037-3.285 7.322-7.323 7.322zm7.323-111.835a38.27 38.27 0 00-1.602-1.128c-10.169-6.735-23.069-8.23-34.512-3.998-12.211 4.516-21.733 10.719-28.385 18.385-7.321-16.772-24.058-28.529-43.498-28.529-15.797 0-29.806 7.769-38.433 19.678-8.722-17.996-27.174-30.435-48.477-30.435-3.918 0-7.827.424-11.622 1.259a7.507 7.507 0 00-5.716 8.946 7.504 7.504 0 008.946 5.717 39.046 39.046 0 018.392-.908c21.407 0 38.823 17.416 38.823 38.823v91.339c0 5.888-4.791 10.678-10.678 10.678h-56.291c-5.887 0-10.678-4.79-10.678-10.678v-91.339c0-7.567 2.176-14.898 6.293-21.198a7.507 7.507 0 00-2.18-10.39 7.505 7.505 0 00-10.39 2.179 54.165 54.165 0 00-1.316 2.135c-9.373-15.879-26.652-26.561-46.388-26.561-21.092 0-39.38 12.199-48.206 29.906-8.656-11.614-22.493-19.15-38.058-19.15-19.439 0-36.176 11.756-43.497 28.528-6.652-7.665-16.174-13.869-28.385-18.385-11.441-4.231-24.342-2.737-34.511 3.998-.548.363-1.079.743-1.604 1.129v-23.529c0-29.276 19.574-55.227 47.601-63.108 16.01-4.503 33.756-8.603 52.745-12.187 89.061-16.811 179.319-17.559 268.487-2.283 6.551 8.062 10.924 16.269 13.216 21.132 1.628 3.45 5.009 5.592 8.824 5.592h.003c3.816 0 7.196-2.145 8.822-5.594a108.949 108.949 0 017.62-13.5c9.459 2.155 18.512 4.438 27.055 6.84 28.027 7.88 47.6 33.831 47.6 63.108z"/>
</svg>
