<svg width="47" height="33" viewBox="0 0 47 33" fill="none" xmlns="http://www.w3.org/2000/svg">
<path d="M23.5481 7.62029H23.3582C21.5733 7.1537 19.916 6.29254 18.5082 5.10029C18.3663 4.96768 18.2829 4.78413 18.2763 4.59003C18.2697 4.39593 18.3406 4.20717 18.4732 4.06528C18.6058 3.92339 18.7893 3.83999 18.9834 3.83343C19.1775 3.82686 19.3663 3.89767 19.5082 4.03028C20.7389 5.06185 22.1838 5.80653 23.7382 6.21029C23.8308 6.23572 23.9176 6.2792 23.9934 6.33825C24.0693 6.39729 24.1327 6.47074 24.1801 6.55436C24.2275 6.63798 24.2579 6.73014 24.2696 6.82554C24.2812 6.92094 24.274 7.0177 24.2482 7.11028C24.2026 7.25973 24.1097 7.39031 23.9834 7.48231C23.8571 7.57431 23.7044 7.62274 23.5481 7.62029Z"/>
<path d="M30.0982 31.9707C29.188 31.971 28.3146 31.6115 27.6682 30.9707C26.5582 29.9707 25.5582 30.3207 23.8982 31.1007L23.6482 31.2207C23.4656 31.2957 23.2608 31.2957 23.0782 31.2207C22.8946 31.146 22.7475 31.0024 22.6682 30.8207C22.3898 30.065 21.8934 29.4088 21.2419 28.9353C20.5904 28.4618 19.813 28.1922 19.0082 28.1607C18.2487 28.1837 17.5114 28.4226 16.8828 28.8494C16.2541 29.2762 15.7599 29.8733 15.4582 30.5707C15.3847 30.7213 15.2609 30.8416 15.1082 30.9107L14.7382 31.0807C13.1782 31.8207 11.2382 32.7307 9.34824 30.9507C8.98847 30.6031 8.52433 30.3834 8.02737 30.3255C7.53042 30.2677 7.02823 30.3749 6.59824 30.6307C6.50486 30.6701 6.40455 30.6903 6.30322 30.6903C6.2019 30.6903 6.10162 30.6701 6.00824 30.6307C5.82631 30.533 5.6899 30.3678 5.62823 30.1707C4.11806 24.6264 3.30183 18.9161 3.19824 13.1707C3.19824 6.87072 7.76822 1.74072 13.3982 1.74072C15.4237 1.74577 17.3926 2.4091 19.0082 3.63072C20.6238 2.4091 22.5928 1.74577 24.6182 1.74072C30.2482 1.74072 34.8282 6.87072 34.8282 13.1707C34.7139 19.2873 33.7824 25.3611 32.0582 31.2307C32.0244 31.34 31.965 31.4396 31.885 31.5213C31.805 31.603 31.7067 31.6646 31.5982 31.7007C31.1175 31.8763 30.61 31.9676 30.0982 31.9707ZM10.3482 29.9107C11.4582 30.9107 12.4582 30.5707 14.1182 29.7807L14.2682 29.7207C14.6874 28.8346 15.3467 28.0838 16.1712 27.5536C16.9958 27.0235 17.9525 26.7353 18.9327 26.7217C19.9129 26.7082 20.8772 26.9699 21.7161 27.477C22.555 27.9842 23.2348 28.7165 23.6782 29.5907C25.1682 28.9107 26.9382 28.2807 28.6782 29.9107C28.941 30.1969 29.2814 30.4004 29.6579 30.4963C30.0343 30.5922 30.4306 30.5764 30.7982 30.4507C32.4006 24.8331 33.2678 19.0314 33.3782 13.1907C33.3782 7.69072 29.4482 3.19072 24.6282 3.19072C22.7352 3.20007 20.9069 3.88038 19.4682 5.11072C19.3366 5.21706 19.1725 5.27507 19.0032 5.27507C18.834 5.27507 18.6699 5.21706 18.5382 5.11072C17.1022 3.88259 15.2778 3.20243 13.3882 3.19072C8.56824 3.19072 4.63824 7.66072 4.63824 13.1907C4.74458 18.541 5.47621 23.8604 6.81824 29.0407C7.4279 28.8448 8.08008 28.8223 8.70175 28.976C9.32343 29.1297 9.89005 29.4533 10.3382 29.9107H10.3482Z"/>
<path d="M2.60812 31.9707C2.16036 31.9709 1.71695 31.8827 1.30338 31.711C0.889798 31.5394 0.514191 31.2878 0.19812 30.9707C0.0708555 30.8353 0 30.6565 0 30.4707C0 30.2848 0.0708555 30.106 0.19812 29.9707C0.335626 29.8477 0.513637 29.7797 0.69812 29.7797C0.882603 29.7797 1.06061 29.8477 1.19812 29.9707C2.30812 30.9707 3.2981 30.6307 4.9581 29.8407C6.6181 29.0507 8.45811 28.1907 10.3481 29.9707C11.4681 30.9707 12.4581 30.6307 14.1181 29.8407C15.7781 29.0507 17.6181 28.1907 19.5081 29.9707C20.6181 30.9707 21.6181 30.6307 23.2781 29.8407C24.9381 29.0507 26.7781 28.1907 28.6681 29.9707C29.7781 30.9707 30.7781 30.6307 32.4381 29.8407C34.0981 29.0507 35.9381 28.1907 37.8281 29.9707C37.9532 30.1071 38.0226 30.2855 38.0226 30.4707C38.0226 30.6558 37.9532 30.8342 37.8281 30.9707C37.6939 31.1002 37.5146 31.1726 37.3281 31.1726C37.1416 31.1726 36.9623 31.1002 36.8281 30.9707C35.7181 29.9707 34.7181 30.3207 33.0581 31.1007C31.3981 31.8807 29.5581 32.7507 27.6681 30.9707C26.5581 29.9707 25.5581 30.3207 23.8981 31.1007C22.2381 31.8807 20.3981 32.7507 18.5081 30.9707C17.3981 29.9707 16.4081 30.3207 14.7381 31.1007C13.0681 31.8807 11.2381 32.7507 9.34811 30.9707C8.23811 29.9707 7.2481 30.3207 5.5881 31.1007C4.66876 31.6013 3.6524 31.898 2.60812 31.9707Z"/>
<path d="M41.1581 9.7103C40.5379 9.71097 39.9269 9.56063 39.3778 9.27227C38.8288 8.98391 38.3581 8.56619 38.0067 8.05521C37.6552 7.54424 37.4334 6.95537 37.3605 6.33949C37.2876 5.7236 37.3657 5.09923 37.5881 4.5203L39.1381 0.520302C39.1669 0.424131 39.2153 0.334937 39.2802 0.258308C39.345 0.18168 39.425 0.119257 39.5151 0.0749435C39.6052 0.0306298 39.7035 0.00538309 39.8038 0.000770547C39.9041 -0.00384199 40.0043 0.0122916 40.098 0.0481491C40.1918 0.0840065 40.2772 0.138824 40.3488 0.209175C40.4205 0.279526 40.4768 0.363891 40.5144 0.457008C40.5519 0.550126 40.5698 0.64998 40.567 0.750343C40.5642 0.850707 40.5408 0.949426 40.4981 1.04031L38.9581 5.04031C38.734 5.62511 38.7514 6.27498 39.0064 6.84696C39.2615 7.41895 39.7333 7.86619 40.3181 8.09029C40.9029 8.3144 41.5528 8.29702 42.1248 8.04197C42.6968 7.78692 43.144 7.31511 43.3681 6.73031L45.0981 2.20029C45.1671 2.01862 45.3053 1.87179 45.4826 1.79209C45.6598 1.71239 45.8614 1.70635 46.0431 1.77531C46.2248 1.84426 46.3716 1.98256 46.4513 2.15978C46.531 2.337 46.5371 2.53863 46.4681 2.7203L44.7281 7.2503C44.4525 7.97382 43.9634 8.5965 43.3259 9.03582C42.6883 9.47514 41.9324 9.71036 41.1581 9.7103Z"/>
<path d="M28.1883 24.6903C28.0103 24.688 27.8393 24.6207 27.7074 24.5012C27.5755 24.3816 27.4919 24.2179 27.4722 24.041C27.4526 23.864 27.4982 23.686 27.6007 23.5404C27.7031 23.3948 27.8552 23.2916 28.0283 23.2503L37.5283 21.1303L36.3283 16.8903C36.2833 16.7403 36.2833 16.5803 36.3283 16.4303L39.3283 8.5203C39.3572 8.42413 39.4055 8.33494 39.4704 8.25831C39.5353 8.18168 39.6153 8.11926 39.7054 8.07494C39.7955 8.03063 39.8937 8.00538 39.994 8.00077C40.0943 7.99616 40.1945 8.01229 40.2883 8.04815C40.3821 8.08401 40.4674 8.13882 40.5391 8.20918C40.6107 8.27953 40.6671 8.36389 40.7046 8.45701C40.7421 8.55013 40.7601 8.64998 40.7573 8.75034C40.7545 8.85071 40.731 8.94943 40.6883 9.04031L37.7483 16.7203L39.0883 21.4803C39.117 21.575 39.1256 21.6745 39.1135 21.7727C39.1015 21.8709 39.069 21.9654 39.0183 22.0503C38.909 22.2178 38.7416 22.3389 38.5483 22.3903L28.2883 24.6703C28.256 24.6813 28.2224 24.688 28.1883 24.6903Z"/>
<path d="M11.378 10.1103C11.2818 10.1117 11.1863 10.0937 11.0971 10.0575C11.0079 10.0213 10.9269 9.96755 10.8588 9.89949C10.7908 9.83143 10.7371 9.75043 10.7008 9.66125C10.6646 9.57208 10.6467 9.47655 10.648 9.38031V8.80031C10.648 8.6067 10.7249 8.42102 10.8618 8.28412C10.9987 8.14722 11.1844 8.07031 11.378 8.07031C11.5716 8.07031 11.7573 8.14722 11.8942 8.28412C12.0311 8.42102 12.108 8.6067 12.108 8.80031V9.38031C12.108 9.57392 12.0311 9.7596 11.8942 9.8965C11.7573 10.0334 11.5716 10.1103 11.378 10.1103Z"/>
<path d="M11.3784 13.0307C11.1848 13.0307 10.9991 12.9538 10.8622 12.8169C10.7253 12.68 10.6484 12.4943 10.6484 12.3007V11.7207C10.6484 11.5271 10.7253 11.3414 10.8622 11.2045C10.9991 11.0676 11.1848 10.9907 11.3784 10.9907C11.5721 10.9907 11.7577 11.0676 11.8946 11.2045C12.0315 11.3414 12.1085 11.5271 12.1085 11.7207V12.3007C12.1085 12.4943 12.0315 12.68 11.8946 12.8169C11.7577 12.9538 11.5721 13.0307 11.3784 13.0307Z"/>
<path d="M13.1281 11.2803H12.5381C12.3445 11.2803 12.1588 11.2034 12.0219 11.0665C11.885 10.9296 11.8081 10.7439 11.8081 10.5503C11.8081 10.3567 11.885 10.171 12.0219 10.0341C12.1588 9.89722 12.3445 9.82031 12.5381 9.82031H13.1281C13.3217 9.82031 13.5074 9.89722 13.6443 10.0341C13.7812 10.171 13.8581 10.3567 13.8581 10.5503C13.8581 10.7439 13.7812 10.9296 13.6443 11.0665C13.5074 11.2034 13.3217 11.2803 13.1281 11.2803Z"/>
<path d="M10.2084 11.2803H9.62845C9.43484 11.2803 9.24915 11.2034 9.11224 11.0665C8.97534 10.9296 8.89844 10.7439 8.89844 10.5503C8.89844 10.3567 8.97534 10.171 9.11224 10.0341C9.24915 9.89722 9.43484 9.82031 9.62845 9.82031H10.2084C10.402 9.82031 10.5877 9.89722 10.7246 10.0341C10.8615 10.171 10.9384 10.3567 10.9384 10.5503C10.9384 10.7439 10.8615 10.9296 10.7246 11.0665C10.5877 11.2034 10.402 11.2803 10.2084 11.2803Z"/>
</svg>
