<svg width="47" height="28" viewBox="0 0 47 28" fill="none" xmlns="http://www.w3.org/2000/svg">
<path d="M19.3694 12.48C16.9294 12.48 14.9395 10.18 14.9395 7.35003V1.75003C14.9394 1.51937 14.985 1.29101 15.0736 1.07803C15.1622 0.865057 15.292 0.671696 15.4555 0.509062C15.6191 0.346428 15.8132 0.217725 16.0267 0.130369C16.2401 0.0430137 16.4688 -0.00128947 16.6995 2.85673e-05H22.0294C22.2601 -0.00128947 22.4887 0.0430137 22.7022 0.130369C22.9157 0.217725 23.1098 0.346428 23.2733 0.509062C23.4369 0.671696 23.5667 0.865057 23.6553 1.07803C23.7438 1.29101 23.7895 1.51937 23.7895 1.75003V7.35003C23.7895 10.2 21.7994 12.48 19.3694 12.48ZM16.6995 1.48004C16.6216 1.48 16.5468 1.51021 16.4908 1.56433C16.4348 1.61845 16.402 1.69223 16.3994 1.77005V7.37005C16.3994 9.37005 17.7294 11.04 19.3994 11.04C21.0694 11.04 22.3994 9.39005 22.3994 7.37005V1.77005C22.3995 1.73111 22.3917 1.69256 22.3765 1.65671C22.3613 1.62085 22.339 1.58843 22.311 1.56137C22.283 1.53431 22.2498 1.51315 22.2135 1.49917C22.1772 1.4852 22.1384 1.4787 22.0995 1.48004H16.6995Z"/>
<path d="M26.7491 12.48C24.3091 12.48 22.3291 10.18 22.3291 7.35003V1.75003C22.3291 1.51937 22.3747 1.29101 22.4633 1.07803C22.5519 0.865057 22.6817 0.671696 22.8452 0.509062C23.0088 0.346428 23.2029 0.217725 23.4164 0.130369C23.6298 0.0430137 23.8585 -0.00128947 24.0891 2.85673e-05H29.4191C29.8833 2.85673e-05 30.3284 0.184413 30.6566 0.512602C30.9847 0.84079 31.1691 1.2859 31.1691 1.75003V7.35003C31.1691 10.2 29.1891 12.48 26.7491 12.48ZM24.0891 1.48004C24.0502 1.4787 24.0114 1.4852 23.9751 1.49917C23.9387 1.51315 23.9056 1.53431 23.8776 1.56137C23.8496 1.58843 23.8273 1.62085 23.8121 1.65671C23.7969 1.69256 23.7891 1.73111 23.7891 1.77005V7.37005C23.7891 9.37005 25.1191 11.04 26.7891 11.04C28.4591 11.04 29.7891 9.39005 29.7891 7.37005V1.77005C29.7865 1.69223 29.7538 1.61845 29.6978 1.56433C29.6418 1.51021 29.567 1.48 29.4891 1.48004H24.0891Z"/>
<path d="M33.7593 12.7399C31.5293 12.7399 29.7593 10.6499 29.7593 8.06992V3.06992C29.7593 2.63404 29.9317 2.21586 30.239 1.90671C30.5463 1.59756 30.9634 1.42256 31.3993 1.41992H36.1893C36.6269 1.41992 37.0466 1.59376 37.356 1.9032C37.6654 2.21263 37.8393 2.63231 37.8393 3.06992V8.06992C37.7993 10.6499 36.0293 12.7399 33.7593 12.7399ZM31.3593 2.85992C31.3096 2.86235 31.2627 2.88315 31.2276 2.91827C31.1925 2.95339 31.1717 3.00032 31.1693 3.04993V8.04993C31.1693 9.81993 32.3293 11.2599 33.7593 11.2599C35.1893 11.2599 36.3393 9.81993 36.3393 8.04993V3.04993C36.3368 3.00032 36.316 2.95339 36.2809 2.91827C36.2458 2.88315 36.1989 2.86235 36.1493 2.85992H31.3593Z"/>
<path d="M12.3594 12.7399C10.1294 12.7399 8.35938 10.6499 8.35938 8.06992V3.06992C8.35938 2.63231 8.53322 2.21263 8.84265 1.9032C9.15209 1.59376 9.57179 1.41992 10.0094 1.41992H14.7894C15.227 1.41992 15.6467 1.59376 15.9561 1.9032C16.2656 2.21263 16.4394 2.63231 16.4394 3.06992V8.06992C16.3994 10.6499 14.5894 12.7399 12.3594 12.7399ZM9.96939 2.85992C9.919 2.85992 9.87068 2.87993 9.83505 2.91556C9.79942 2.95119 9.77939 2.99954 9.77939 3.04993V8.04993C9.77939 9.81993 10.9394 11.2599 12.3594 11.2599C13.7794 11.2599 14.9394 9.81993 14.9394 8.04993V3.04993C14.9394 2.99954 14.9194 2.95119 14.8837 2.91556C14.8481 2.87993 14.7998 2.85992 14.7494 2.85992H9.96939Z"/>
<path d="M22.0294 27.0799H16.6995C16.4688 27.0812 16.2401 27.0369 16.0267 26.9495C15.8132 26.8622 15.6191 26.7335 15.4555 26.5708C15.292 26.4082 15.1622 26.2148 15.0736 26.0019C14.985 25.7889 14.9394 25.5605 14.9395 25.3299V19.7299C14.9395 16.9099 16.9394 14.6099 19.3694 14.6099C21.7994 14.6099 23.7895 16.9099 23.7895 19.7299V25.3299C23.7895 25.5605 23.7438 25.7889 23.6553 26.0019C23.5667 26.2148 23.4369 26.4082 23.2733 26.5708C23.1098 26.7335 22.9157 26.8622 22.7022 26.9495C22.4887 27.0369 22.2601 27.0812 22.0294 27.0799ZM19.3694 16.0799C17.7294 16.0799 16.3694 17.7298 16.3694 19.7498V25.3499C16.3719 25.4286 16.4044 25.5035 16.4601 25.5592C16.5158 25.6149 16.5907 25.6474 16.6695 25.6499H22.0294C22.0688 25.6499 22.1079 25.6421 22.1443 25.627C22.1807 25.6119 22.2137 25.5898 22.2416 25.562C22.2694 25.5341 22.2915 25.5011 22.3066 25.4647C22.3217 25.4283 22.3294 25.3892 22.3294 25.3499V19.7498C22.3294 17.7098 21.0294 16.0598 19.3694 16.0598V16.0799Z"/>
<path d="M29.4191 27.0799H24.0891C23.8585 27.0812 23.6298 27.0369 23.4164 26.9495C23.2029 26.8622 23.0088 26.7335 22.8452 26.5708C22.6817 26.4082 22.5519 26.2148 22.4633 26.0019C22.3747 25.7889 22.3291 25.5605 22.3291 25.3299V19.7299C22.3291 16.9099 24.3291 14.6099 26.7491 14.6099C29.1691 14.6099 31.1691 16.9099 31.1691 19.7299V25.3299C31.1691 25.5597 31.1238 25.7872 31.0359 25.9995C30.9479 26.2119 30.8191 26.4048 30.6566 26.5673C30.4941 26.7298 30.3011 26.8587 30.0888 26.9467C29.8765 27.0346 29.6489 27.0799 29.4191 27.0799ZM26.7491 16.0799C25.1191 16.0799 23.7491 17.7298 23.7491 19.7498V25.3499C23.7491 25.3892 23.7569 25.4283 23.7719 25.4647C23.787 25.5011 23.8091 25.5341 23.837 25.562C23.8648 25.5898 23.8979 25.6119 23.9343 25.627C23.9707 25.6421 24.0097 25.6499 24.0491 25.6499H29.3791C29.4579 25.6474 29.5327 25.6149 29.5885 25.5592C29.6442 25.5035 29.6766 25.4286 29.6791 25.3499V19.7498C29.7191 17.7098 28.3891 16.0598 26.7491 16.0598V16.0799Z"/>
<path d="M36.1492 25.6799H31.3592C30.9234 25.6772 30.5063 25.5022 30.199 25.1931C29.8917 24.8839 29.7192 24.4657 29.7192 24.0298V19.0298C29.7192 16.4498 31.5292 14.3599 33.7192 14.3599C35.9092 14.3599 37.7192 16.4498 37.7192 19.0298V24.0298C37.7197 24.4539 37.5569 24.862 37.2646 25.1692C36.9722 25.4764 36.5728 25.6593 36.1492 25.6799ZM33.7592 15.7999C32.3292 15.7999 31.1693 17.2399 31.1693 19.0099V24.0099C31.1693 24.0602 31.1893 24.1086 31.2249 24.1442C31.2605 24.1798 31.3088 24.1999 31.3592 24.1999H36.1492C36.1996 24.1999 36.248 24.1798 36.2836 24.1442C36.3192 24.1086 36.3392 24.0602 36.3392 24.0099V19.0099C36.3392 17.1999 35.1792 15.7999 33.7592 15.7999Z"/>
<path d="M14.7493 25.6799H9.96933C9.53172 25.6799 9.11205 25.506 8.80261 25.1966C8.49318 24.8872 8.31934 24.4675 8.31934 24.0298V19.0298C8.31934 16.4498 10.1293 14.3599 12.3193 14.3599C14.5093 14.3599 16.3193 16.4498 16.3193 19.0298V24.0298C16.3198 24.4539 16.157 24.862 15.8647 25.1692C15.5723 25.4764 15.1729 25.6593 14.7493 25.6799ZM12.3593 15.7999C10.9393 15.7999 9.77933 17.2399 9.77933 19.0099V24.0099C9.77788 24.0352 9.7818 24.0605 9.79083 24.0843C9.79987 24.108 9.81382 24.1295 9.83176 24.1474C9.8497 24.1654 9.87122 24.1793 9.89493 24.1884C9.91864 24.1974 9.944 24.2013 9.96933 24.1999H14.7493C14.7747 24.2013 14.8 24.1974 14.8237 24.1884C14.8474 24.1793 14.869 24.1654 14.8869 24.1474C14.9048 24.1295 14.9188 24.108 14.9278 24.0843C14.9369 24.0605 14.9408 24.0352 14.9393 24.0099V19.0099C14.9393 17.1999 13.7893 15.7999 12.3593 15.7999Z"/>
<path d="M37.0292 24.4199C36.8597 24.4189 36.6958 24.3597 36.5648 24.2523C36.4337 24.1449 36.3435 23.9958 36.3092 23.8299C36.2735 23.6406 36.3131 23.4448 36.4196 23.2842C36.526 23.1236 36.6909 23.0109 36.8792 22.9699C39.0581 22.5197 41.0151 21.332 42.4202 19.6069C43.8254 17.8817 44.5926 15.7249 44.5926 13.4999C44.5926 11.275 43.8254 9.11809 42.4202 7.39299C41.0151 5.66788 39.0581 4.48009 36.8792 4.02992C36.6909 3.98898 36.526 3.87624 36.4196 3.71565C36.3131 3.55505 36.2735 3.35928 36.3092 3.16993C36.3477 2.98036 36.46 2.81386 36.6212 2.70698C36.7825 2.6001 36.9796 2.56159 37.1692 2.59993C39.6773 3.11788 41.93 4.48497 43.5475 6.47059C45.165 8.45622 46.0482 10.9389 46.0482 13.4999C46.0482 16.061 45.165 18.5437 43.5475 20.5293C41.93 22.5149 39.6773 23.882 37.1692 24.3999L37.0292 24.4199Z"/>
<path d="M37.0294 20.6403C36.9141 20.642 36.8001 20.6155 36.6973 20.5633C36.5945 20.511 36.506 20.4345 36.4394 20.3403C36.3315 20.1853 36.2879 19.9946 36.3178 19.8081C36.3476 19.6216 36.4485 19.454 36.5994 19.3403C37.8325 18.4572 38.7562 17.2081 39.2394 15.7703C38.6617 15.1657 38.3394 14.3616 38.3394 13.5253C38.3394 12.6891 38.6617 11.885 39.2394 11.2803C38.7587 9.83857 37.8347 8.5856 36.5994 7.70033C36.4485 7.58671 36.3476 7.41906 36.3178 7.23259C36.2879 7.04612 36.3315 6.85534 36.4394 6.70033C36.5514 6.54736 36.7193 6.44476 36.9065 6.41481C37.0937 6.38485 37.2852 6.42995 37.4394 6.54033C39.0825 7.71336 40.2611 9.42648 40.7694 11.3803C40.8107 11.5354 40.7998 11.6997 40.7383 11.8479C40.6769 11.9962 40.5683 12.12 40.4294 12.2003C40.2291 12.3615 40.0675 12.5656 39.9564 12.7975C39.8454 13.0294 39.7877 13.2832 39.7877 13.5403C39.7877 13.7974 39.8454 14.0513 39.9564 14.2832C40.0675 14.5151 40.2291 14.7191 40.4294 14.8803C40.5683 14.9606 40.6769 15.0845 40.7383 15.2327C40.7998 15.3809 40.8107 15.5453 40.7694 15.7003C40.264 17.6582 39.085 19.3754 37.4394 20.5503C37.3147 20.6204 37.1719 20.6517 37.0294 20.6403Z"/>
<path d="M40.8292 16.4002C40.2352 16.5027 39.624 16.4201 39.0785 16.1637C38.533 15.9073 38.0795 15.4894 37.7794 14.9667C37.4793 14.4439 37.3472 13.8415 37.4008 13.2411C37.4545 12.6408 37.6915 12.0714 38.0795 11.6102C38.4676 11.149 38.9881 10.8182 39.5704 10.6626C40.1527 10.507 40.7689 10.5342 41.3352 10.7405C41.9016 10.9467 42.3909 11.3221 42.7368 11.8157C43.0827 12.3094 43.2686 12.8974 43.2692 13.5001C43.3222 14.2065 43.0965 14.9056 42.6404 15.4476C42.1844 15.9897 41.5342 16.3316 40.8292 16.4002ZM40.8292 12.0601C40.2892 12.0601 39.8292 12.7201 39.8292 13.5001C39.8292 14.2801 40.2792 14.9502 40.8292 14.9502C41.3792 14.9502 41.8292 14.2801 41.8292 13.5001C41.8292 12.7201 41.3592 12.0601 40.8292 12.0601Z"/>
<path d="M9.02902 24.4201H8.87903C6.37091 23.9021 4.11814 22.535 2.50067 20.5494C0.883202 18.5638 0 16.0811 0 13.5201C0 10.959 0.883202 8.47633 2.50067 6.4907C4.11814 4.50507 6.37091 3.13802 8.87903 2.62006C9.06866 2.58028 9.26631 2.61744 9.42853 2.7234C9.59075 2.82935 9.70424 2.99541 9.74402 3.18504C9.7838 3.37467 9.74661 3.57235 9.64066 3.73457C9.5347 3.89678 9.36865 4.01027 9.17902 4.05006C7.00009 4.50023 5.04307 5.68802 3.63794 7.41312C2.23281 9.13823 1.46555 11.2951 1.46555 13.5201C1.46555 15.745 2.23281 17.9019 3.63794 19.627C5.04307 21.3521 7.00009 22.5399 9.17902 22.9901C9.36325 23.0196 9.52918 23.1185 9.64276 23.2665C9.75634 23.4145 9.80893 23.6004 9.78973 23.786C9.77054 23.9716 9.68102 24.1428 9.53955 24.2644C9.39808 24.386 9.21539 24.4489 9.02902 24.44V24.4201Z"/>
<path d="M9.02924 20.64C8.87891 20.6429 8.73163 20.5973 8.60923 20.51C6.96358 19.335 5.78456 17.6178 5.27924 15.66C5.23614 15.5049 5.24621 15.34 5.30784 15.1913C5.36946 15.0427 5.47909 14.919 5.61924 14.84C5.81955 14.6788 5.98118 14.4747 6.09223 14.2428C6.20327 14.0109 6.2609 13.7571 6.2609 13.4999C6.2609 13.2428 6.20327 12.989 6.09223 12.7571C5.98118 12.5252 5.81955 12.3211 5.61924 12.16C5.47909 12.0809 5.36946 11.9572 5.30784 11.8086C5.24621 11.66 5.23614 11.495 5.27924 11.34C5.78747 9.38613 6.96612 7.67298 8.60923 6.49995C8.7657 6.38856 8.96004 6.34389 9.14945 6.37577C9.33886 6.40765 9.50785 6.51348 9.61924 6.66996C9.73063 6.82644 9.77529 7.02077 9.74341 7.21018C9.71153 7.3996 9.60573 7.56858 9.44925 7.67997C8.21668 8.56578 7.29606 9.81893 6.81925 11.26C7.39016 11.8681 7.70792 12.6708 7.70792 13.505C7.70792 14.3391 7.39016 15.1418 6.81925 15.7499C7.29914 17.1867 8.21934 18.4358 9.44925 19.32C9.60168 19.4321 9.70459 19.5991 9.7363 19.7856C9.76802 19.9722 9.72604 20.1637 9.61924 20.32C9.55491 20.4178 9.46739 20.4983 9.36445 20.5541C9.2615 20.6099 9.14635 20.6394 9.02924 20.64Z"/>
<path d="M5.28912 16.4002C4.69513 16.5027 4.08399 16.4201 3.53848 16.1637C2.99297 15.9073 2.53943 15.4894 2.23935 14.9667C1.93926 14.4439 1.80712 13.8415 1.86081 13.2411C1.91449 12.6408 2.15139 12.0714 2.53946 11.6102C2.92753 11.149 3.44801 10.8182 4.03036 10.6626C4.61271 10.507 5.22878 10.5342 5.79516 10.7405C6.36154 10.9467 6.85085 11.3221 7.19677 11.8157C7.5427 12.3094 7.72854 12.8974 7.72912 13.5001C7.78212 14.2065 7.55642 14.9056 7.10037 15.4476C6.64432 15.9897 5.99416 16.3316 5.28912 16.4002ZM5.28912 12.0601C4.75912 12.0601 4.28912 12.7201 4.28912 13.5001C4.28912 14.2801 4.73912 14.9502 5.28912 14.9502C5.83912 14.9502 6.28912 14.2801 6.28912 13.5001C6.28912 12.7201 5.82912 12.0601 5.28912 12.0601Z"/>
</svg>
