<svg width="46" height="26" viewBox="0 0 46 26" fill="none" xmlns="http://www.w3.org/2000/svg">
<path d="M13.6995 4.30007H13.5095C12.3309 3.99086 11.2371 3.42007 10.3094 2.63009C10.2392 2.56443 10.1825 2.48555 10.1428 2.398C10.103 2.31045 10.0808 2.21594 10.0776 2.11983C10.0743 2.02372 10.0901 1.92792 10.1238 1.83788C10.1576 1.74784 10.2087 1.66534 10.2744 1.59508C10.3401 1.52483 10.419 1.46818 10.5065 1.4284C10.5941 1.38861 10.6885 1.36646 10.7847 1.36321C10.8808 1.35996 10.9766 1.3757 11.0666 1.40948C11.1567 1.44325 11.2392 1.49442 11.3094 1.56008C12.0634 2.19012 12.9481 2.64443 13.8994 2.89007C14.0664 2.93932 14.2103 3.04665 14.3052 3.19268C14.4 3.3387 14.4395 3.51382 14.4166 3.68642C14.3936 3.85902 14.3098 4.01774 14.1801 4.13393C14.0504 4.25013 13.8835 4.31616 13.7095 4.32009L13.6995 4.30007Z"/>
<path d="M15.3597 25.25C15.167 25.248 14.9754 25.2211 14.7897 25.17C14.2987 25.0171 13.8714 24.7074 13.5734 24.2883C13.2753 23.8692 13.123 23.364 13.1397 22.85V20.13C13.1889 19.7947 13.1653 19.4528 13.0705 19.1274C12.9757 18.8021 12.812 18.5009 12.5905 18.2445C12.3689 17.9881 12.0948 17.7824 11.7866 17.6414C11.4785 17.5004 11.1436 17.4274 10.8047 17.4274C10.4658 17.4274 10.1309 17.5004 9.82275 17.6414C9.5146 17.7824 9.24047 17.9881 9.01892 18.2445C8.79737 18.5009 8.63365 18.8021 8.53888 19.1274C8.44411 19.4528 8.42047 19.7947 8.46967 20.13V22.85C8.48636 23.364 8.33405 23.8692 8.03601 24.2883C7.73797 24.7074 7.31068 25.0171 6.8197 25.17C6.36685 25.2928 5.88596 25.2611 5.45312 25.08C5.02029 24.8989 4.66017 24.5787 4.42969 24.17C0.429688 17.76 0.429688 7.97 0.429688 7.56C0.429688 3.39 3.42972 0 7.20972 0C8.4928 0.00676391 9.74268 0.408267 10.7897 1.14999C11.8555 0.404026 13.1289 0.012207 14.4297 0.0299988C18.1597 0.0299988 21.1997 3.42 21.1997 7.59C21.1997 8.01 21.1997 17.79 17.1997 24.2C17.0098 24.519 16.7404 24.7833 16.418 24.9673C16.0955 25.1514 15.7309 25.2487 15.3597 25.25ZM10.8097 15.95C11.8638 16.0069 12.8528 16.4783 13.5609 17.2613C14.2689 18.0443 14.6387 19.0755 14.5897 20.13V22.85C14.5722 23.0458 14.6209 23.2418 14.7278 23.4067C14.8348 23.5716 14.9938 23.696 15.1797 23.76C15.3261 23.8033 15.4832 23.7928 15.6226 23.7305C15.7619 23.6681 15.8744 23.558 15.9397 23.42C19.6797 17.36 19.7097 7.67001 19.7097 7.57001C19.7097 4.21001 17.3197 1.47 14.3897 1.47C13.2454 1.4765 12.1403 1.88738 11.2697 2.63C11.1406 2.74188 10.9755 2.80347 10.8047 2.80347C10.6339 2.80347 10.4687 2.74188 10.3397 2.63C9.47214 1.88884 8.37067 1.47799 7.22968 1.47C4.28968 1.47 1.89966 4.21001 1.89966 7.57001C1.89966 7.67001 1.89969 17.36 5.67969 23.42C5.74311 23.5572 5.85377 23.6671 5.99146 23.7295C6.12914 23.7919 6.28468 23.8028 6.42969 23.76C6.61553 23.696 6.7746 23.5716 6.88153 23.4067C6.98846 23.2418 7.03713 23.0458 7.01971 22.85V20.13C6.97074 19.0738 7.34192 18.0412 8.05212 17.2579C8.76233 16.4746 9.75377 16.0044 10.8097 15.95Z"/>
<path d="M38.0698 4.30007H37.8798C36.6988 3.98937 35.6021 3.41883 34.6698 2.63009C34.5995 2.56443 34.5429 2.48555 34.5031 2.398C34.4633 2.31045 34.4412 2.21594 34.4379 2.11983C34.4347 2.02372 34.4504 1.92792 34.4842 1.83788C34.518 1.74784 34.5692 1.66534 34.6348 1.59508C34.7005 1.52483 34.7793 1.46818 34.8669 1.4284C34.9544 1.38861 35.049 1.36646 35.1451 1.36321C35.2412 1.35996 35.337 1.3757 35.427 1.40948C35.517 1.44325 35.5995 1.49442 35.6698 1.56008C36.4257 2.18709 37.3098 2.64103 38.2598 2.89007C38.4268 2.93932 38.5707 3.04665 38.6655 3.19268C38.7603 3.3387 38.7999 3.51382 38.777 3.68642C38.754 3.85902 38.6701 4.01774 38.5405 4.13393C38.4108 4.25013 38.2439 4.31616 38.0698 4.32009V4.30007Z"/>
<path d="M30.6198 25.2502C30.25 25.2435 29.8883 25.1414 29.5695 24.954C29.2506 24.7666 28.9855 24.5001 28.7998 24.1802C24.7998 17.7702 24.7998 7.98025 24.7998 7.57025C24.7998 3.40025 27.7998 0.0102539 31.5798 0.0102539C32.8632 0.0150665 34.1137 0.416754 35.1598 1.16025C36.2053 0.415566 37.4562 0.013754 38.7398 0.0102539C42.4798 0.0102539 45.5198 3.40025 45.5198 7.57025C45.5198 7.99025 45.5198 17.7702 41.5198 24.1802C41.2894 24.5889 40.9292 24.9091 40.4963 25.0902C40.0635 25.2713 39.5827 25.303 39.1298 25.1802C38.6388 25.0273 38.2116 24.7176 37.9135 24.2985C37.6155 23.8795 37.4631 23.3742 37.4798 22.8602V20.1302C37.5341 19.7929 37.5145 19.4479 37.4224 19.1189C37.3303 18.7899 37.1678 18.4848 36.9463 18.2247C36.7247 17.9647 36.4494 17.7558 36.1392 17.6125C35.829 17.4693 35.4914 17.3951 35.1498 17.3951C34.8081 17.3951 34.4706 17.4693 34.1604 17.6125C33.8502 17.7558 33.5749 17.9647 33.3533 18.2247C33.1318 18.4848 32.9693 18.7899 32.8772 19.1189C32.7851 19.4479 32.7655 19.7929 32.8198 20.1302V22.8503C32.8365 23.3642 32.6842 23.8695 32.3861 24.2885C32.0881 24.7076 31.6608 25.0174 31.1698 25.1703C30.9905 25.2197 30.8058 25.2465 30.6198 25.2502ZM31.6198 1.47025C28.6898 1.47025 26.2998 4.21025 26.2998 7.57025C26.2998 7.67025 26.2998 17.3603 30.0698 23.4203C30.1332 23.5575 30.2439 23.6673 30.3816 23.7297C30.5193 23.7922 30.6748 23.803 30.8198 23.7603C31.0057 23.6963 31.1647 23.5718 31.2717 23.4069C31.3786 23.242 31.4272 23.046 31.4098 22.8503V20.1302C31.3552 19.5998 31.4126 19.0639 31.5782 18.557C31.7439 18.0502 32.014 17.5837 32.3713 17.1879C32.7285 16.792 33.1648 16.4755 33.652 16.2589C34.1393 16.0423 34.6666 15.9304 35.1998 15.9304C35.733 15.9304 36.2603 16.0423 36.7476 16.2589C37.2348 16.4755 37.6712 16.792 38.0284 17.1879C38.3856 17.5837 38.6557 18.0502 38.8214 18.557C38.987 19.0639 39.0444 19.5998 38.9898 20.1302V22.8503C38.9724 23.046 39.0211 23.242 39.128 23.4069C39.2349 23.5718 39.394 23.6963 39.5798 23.7603C39.7249 23.8009 39.8795 23.7891 40.0167 23.7269C40.1539 23.6647 40.2648 23.5561 40.3298 23.4203C44.0698 17.3603 44.0998 7.67025 44.0998 7.57025C44.0998 4.21025 41.7098 1.47025 38.7798 1.47025C37.6358 1.47846 36.5313 1.88913 35.6598 2.63025C35.5307 2.74212 35.3656 2.80371 35.1948 2.80371C35.024 2.80371 34.8589 2.74212 34.7298 2.63025C33.8553 1.88088 32.7414 1.46938 31.5898 1.47025H31.6198Z"/>
<path d="M27.5296 21.4203C26.7318 21.4154 25.9382 21.3044 25.1696 21.0903C23.7411 20.7103 22.2381 20.7103 20.8096 21.0903C19.4512 21.5218 17.9988 21.5631 16.618 21.2095C15.2372 20.8559 13.9835 20.1216 12.9996 19.0903C12.8745 18.9538 12.8052 18.7754 12.8052 18.5903C12.8052 18.4051 12.8745 18.2267 12.9996 18.0903C13.135 17.963 13.3138 17.8921 13.4996 17.8921C13.6854 17.8921 13.8643 17.963 13.9996 18.0903C14.806 18.9322 15.8312 19.5326 16.96 19.824C18.0887 20.1155 19.2764 20.0865 20.3896 19.7403C22.0653 19.2802 23.834 19.2802 25.5096 19.7403C26.6323 20.0876 27.8301 20.1114 28.9656 19.809C30.1012 19.5065 31.1285 18.89 31.9296 18.0303C31.9891 17.9425 32.0673 17.869 32.1586 17.8149C32.2498 17.7609 32.3518 17.7276 32.4574 17.7176C32.563 17.7076 32.6695 17.721 32.7693 17.7569C32.8691 17.7928 32.9597 17.8502 33.0347 17.9252C33.1097 18.0002 33.1672 18.0909 33.2031 18.1906C33.239 18.2904 33.2523 18.3969 33.2423 18.5025C33.2323 18.608 33.1991 18.7101 33.145 18.8014C33.091 18.8926 33.0174 18.9708 32.9296 19.0303C32.2441 19.7809 31.4101 20.3808 30.4806 20.7923C29.551 21.2037 28.5461 21.4176 27.5296 21.4203Z"/>
<path d="M42.9896 21.4202C41.9678 21.4256 40.9562 21.2175 40.0194 20.8094C39.0827 20.4013 38.2414 19.8021 37.5496 19.0502C37.42 18.916 37.3477 18.7367 37.3477 18.5502C37.3477 18.3636 37.42 18.1844 37.5496 18.0502C37.6849 17.9229 37.8638 17.8521 38.0496 17.8521C38.2354 17.8521 38.4142 17.9229 38.5496 18.0502C39.3538 18.8922 40.3772 19.4928 41.5045 19.7844C42.6317 20.0759 43.818 20.0468 44.9296 19.7002C45.0251 19.6622 45.1276 19.6449 45.2303 19.6493C45.3331 19.6537 45.4337 19.6797 45.5257 19.7257C45.6177 19.7717 45.6988 19.8366 45.764 19.9161C45.8291 19.9957 45.8768 20.0881 45.9037 20.1873C45.9306 20.2866 45.9363 20.3904 45.9203 20.492C45.9043 20.5935 45.8671 20.6906 45.811 20.7768C45.7549 20.8629 45.6813 20.9363 45.5948 20.992C45.5084 21.0478 45.4112 21.0846 45.3096 21.1002C44.5535 21.3074 43.7735 21.415 42.9896 21.4202Z"/>
<path d="M2.98957 21.4203C2.18841 21.4163 1.39137 21.3053 0.619577 21.0903C0.517937 21.0747 0.420739 21.0379 0.334329 20.9821C0.24792 20.9264 0.174261 20.8531 0.118173 20.7669C0.0620858 20.6807 0.0248305 20.5836 0.00885944 20.4821C-0.00711165 20.3805 -0.00144311 20.2767 0.0254915 20.1775C0.0524261 20.0782 0.100003 19.9858 0.16514 19.9062C0.230276 19.8267 0.311489 19.7618 0.403452 19.7158C0.495415 19.6698 0.596072 19.6437 0.698801 19.6393C0.80153 19.6349 0.904027 19.6523 0.999582 19.6903C2.11929 20.0433 3.31563 20.0749 4.4524 19.7814C5.58918 19.488 6.6207 18.8812 7.42957 18.0303C7.48909 17.9425 7.56728 17.869 7.65852 17.8149C7.74976 17.7609 7.85177 17.7276 7.95735 17.7176C8.06292 17.7076 8.16945 17.721 8.26924 17.7569C8.36902 17.7928 8.45963 17.8502 8.53462 17.9252C8.6096 18.0002 8.66712 18.0909 8.70301 18.1906C8.73891 18.2904 8.75229 18.3969 8.74226 18.5025C8.73222 18.608 8.69902 18.7101 8.64497 18.8014C8.59091 18.8926 8.51735 18.9708 8.42957 19.0303C7.73834 19.7844 6.8977 20.3863 5.96113 20.7978C5.02456 21.2093 4.01255 21.4213 2.98957 21.4203Z"/>
</svg>
