<svg width="40" height="42" viewBox="0 0 40 42" fill="none" xmlns="http://www.w3.org/2000/svg">
<path d="M36.8158 30.0832C36.3923 30.0817 35.9737 29.9932 35.5858 29.8231L27.1658 26.0532L15.0558 28.3231C14.5199 28.4237 13.9668 28.3762 13.4558 28.1859C12.9449 27.9957 12.4954 27.6697 12.1558 27.2432L4.84581 18.1132L1.08582 14.9632C0.626605 14.5826 0.291226 14.0738 0.122524 13.5018C-0.0461779 12.9298 -0.0405501 12.3204 0.138683 11.7516C0.317916 11.1828 0.66262 10.6803 1.12878 10.3083C1.59494 9.93632 2.1614 9.7117 2.75582 9.66316C3.14991 9.62739 3.54717 9.66995 3.92475 9.78837C4.30232 9.90679 4.65274 10.0987 4.95581 10.3532L8.95581 13.6932C9.10728 13.8179 9.24476 13.9587 9.36582 14.1132L15.7358 22.1132L26.9858 20.0032C27.5899 19.888 28.2148 19.9614 28.7758 20.2132L38.0558 24.3632C38.4205 24.5233 38.7497 24.7544 39.0242 25.0431C39.2986 25.3317 39.5129 25.6722 39.6544 26.0445C39.7959 26.4168 39.8618 26.8136 39.8483 27.2117C39.8348 27.6098 39.7422 28.0012 39.5758 28.3632C39.3298 28.8848 38.9386 29.3245 38.4491 29.6296C37.9596 29.9346 37.3925 30.0921 36.8158 30.0832ZM27.2558 24.5632C27.3587 24.5637 27.4606 24.5841 27.5558 24.6232L36.1858 28.4932C36.5632 28.6531 36.9881 28.6602 37.3706 28.5128C37.7531 28.3654 38.0634 28.075 38.2358 27.7031C38.384 27.3331 38.3859 26.9204 38.241 26.549C38.0962 26.1776 37.8155 25.8752 37.4558 25.7032L28.1658 21.5532C27.8781 21.4216 27.5565 21.3832 27.2458 21.4432L15.5658 23.6332C15.435 23.6577 15.3 23.6464 15.1751 23.6007C15.0501 23.5549 14.9399 23.4763 14.8558 23.3732L8.22582 15.0732C8.15758 14.9949 8.08407 14.9214 8.00582 14.8532L4.00582 11.5132C3.84954 11.3818 3.66893 11.2826 3.4743 11.2211C3.27967 11.1595 3.07482 11.137 2.87146 11.1546C2.6681 11.1722 2.47021 11.2298 2.28908 11.3239C2.10795 11.418 1.94714 11.5469 1.81581 11.7032C1.68449 11.8594 1.58524 12.04 1.52372 12.2347C1.46219 12.4293 1.43961 12.6341 1.45725 12.8375C1.47489 13.0409 1.53242 13.2388 1.62654 13.4199C1.72067 13.601 1.84954 13.7618 2.00582 13.8932L5.81581 17.0932C5.85708 17.1211 5.89413 17.1547 5.92582 17.1932L13.2758 26.3832C13.4503 26.6025 13.6811 26.7704 13.9434 26.869C14.2058 26.9677 14.49 26.9933 14.7658 26.9432L27.0958 24.6232L27.2558 24.5632Z"/>
<path d="M5.37582 18.3328C5.22636 18.3348 5.07987 18.291 4.95615 18.2071C4.83242 18.1233 4.73742 18.0034 4.68398 17.8638C4.63055 17.7242 4.62125 17.5716 4.65735 17.4266C4.69345 17.2815 4.77319 17.151 4.88582 17.0528L8.30582 14.0528C8.44993 13.9346 8.6338 13.876 8.81973 13.889C9.00567 13.902 9.17958 13.9857 9.30582 14.1228C9.42761 14.2646 9.48945 14.4483 9.47825 14.6349C9.46705 14.8216 9.3837 14.9965 9.24582 15.1228L5.82582 18.1228C5.70653 18.2454 5.54644 18.3201 5.37582 18.3328Z"/>
<path d="M14.9257 25.1628C14.8526 25.1726 14.7787 25.1726 14.7056 25.1628C14.5225 25.1009 14.3703 24.9707 14.2809 24.7993C14.1914 24.6278 14.1716 24.4285 14.2257 24.2428L14.7257 22.6828C14.7505 22.5869 14.7947 22.4971 14.8555 22.4188C14.9162 22.3405 14.9922 22.2754 15.079 22.2274C15.1657 22.1794 15.2613 22.1497 15.3599 22.1398C15.4585 22.13 15.5581 22.1403 15.6525 22.1703C15.747 22.2002 15.8344 22.249 15.9094 22.3138C15.9844 22.3786 16.0454 22.4579 16.0888 22.5471C16.1321 22.6362 16.1568 22.7332 16.1614 22.8322C16.1661 22.9312 16.1505 23.0301 16.1157 23.1228L15.6157 24.6828C15.5654 24.825 15.4718 24.9479 15.348 25.034C15.2242 25.1201 15.0764 25.1652 14.9257 25.1628Z"/>
<path d="M27.2557 26.0233H27.1757C27.081 26.0145 26.9889 25.9871 26.9049 25.9425C26.8208 25.898 26.7464 25.8372 26.686 25.7638C26.6255 25.6903 26.5803 25.6056 26.5527 25.5146C26.5252 25.4235 26.516 25.3279 26.5257 25.2333L26.7257 23.2333C26.7552 23.049 26.8541 22.8831 27.0021 22.7695C27.1501 22.6559 27.336 22.6033 27.5216 22.6225C27.7072 22.6417 27.8784 22.7313 28 22.8727C28.1217 23.0142 28.1845 23.1969 28.1757 23.3833L27.9757 25.3833C27.9538 25.5592 27.8687 25.7211 27.7362 25.8389C27.6038 25.9566 27.4329 26.0222 27.2557 26.0233Z"/>
<path d="M27.2557 36.953H10.9257C10.8037 36.9518 10.6839 36.9201 10.5774 36.8607C10.4708 36.8013 10.3809 36.7162 10.3157 36.613C10.2588 36.5051 10.229 36.385 10.229 36.263C10.229 36.141 10.2588 36.0209 10.3157 35.913L14.3157 27.303C14.3542 27.2107 14.4114 27.1275 14.4839 27.0586C14.5563 26.9896 14.6423 26.9365 14.7364 26.9027C14.8304 26.8688 14.9305 26.8549 15.0303 26.8619C15.13 26.8688 15.2272 26.8965 15.3157 26.943C15.407 26.9827 15.4892 27.0406 15.5573 27.1132C15.6254 27.1859 15.6779 27.2716 15.7116 27.3653C15.7453 27.4589 15.7595 27.5585 15.7534 27.6579C15.7472 27.7572 15.7207 27.8543 15.6757 27.943L12.1857 35.523H26.3457L23.3457 26.163C23.286 25.9787 23.302 25.7782 23.3901 25.6057C23.4783 25.4332 23.6314 25.3027 23.8157 25.243C24 25.1834 24.2005 25.1994 24.373 25.2875C24.5456 25.3756 24.676 25.5287 24.7357 25.713L27.9257 36.003C27.9595 36.1119 27.9681 36.227 27.9507 36.3396C27.9334 36.4522 27.8906 36.5594 27.8257 36.653C27.7599 36.7433 27.6744 36.8173 27.5756 36.8693C27.4767 36.9213 27.3673 36.9499 27.2557 36.953Z"/>
<path d="M32.286 34.023C32.1779 34.0226 32.0712 33.9993 31.9729 33.9544C31.8747 33.9096 31.7871 33.8443 31.716 33.763L30.326 32.063H25.696C25.5184 32.0421 25.3546 31.9567 25.2358 31.8231C25.1169 31.6894 25.0513 31.5168 25.0513 31.338C25.0513 31.1591 25.1169 30.9865 25.2358 30.8529C25.3546 30.7192 25.5184 30.6339 25.696 30.613H30.696C30.803 30.6106 30.9091 30.6328 31.0062 30.6779C31.1033 30.723 31.1887 30.7897 31.256 30.873L32.876 32.873C32.9668 32.9783 33.0252 33.1078 33.044 33.2456C33.0629 33.3835 33.0414 33.5238 32.9821 33.6497C32.9229 33.7756 32.8285 33.8816 32.7102 33.9549C32.592 34.0283 32.4551 34.0658 32.316 34.063L32.286 34.023Z"/>
<path d="M34.9259 41.6132H3.31593C3.22007 41.6132 3.12514 41.5943 3.03658 41.5576C2.94801 41.5209 2.86753 41.4671 2.79974 41.3994C2.73196 41.3316 2.67819 41.2511 2.6415 41.1625C2.60482 41.074 2.58594 40.979 2.58594 40.8832C2.58594 39.4537 3.15381 38.0827 4.16463 37.0719C5.17545 36.061 6.54642 35.4932 7.97594 35.4932H30.2459C31.6737 35.4958 33.0421 36.0648 34.0508 37.0754C35.0594 38.0859 35.6259 39.4554 35.6259 40.8832C35.6261 41.0717 35.5533 41.253 35.4228 41.389C35.2924 41.5251 35.1143 41.6054 34.9259 41.6132ZM4.12593 40.1532H34.1259C33.9541 39.2546 33.4749 38.4438 32.7706 37.8599C32.0663 37.276 31.1808 36.9555 30.2659 36.9532H7.97594C7.06242 36.9644 6.18028 37.288 5.47621 37.8702C4.77215 38.4524 4.28858 39.258 4.10593 40.1532H4.12593Z"/>
<path d="M36.9259 41.6128H0.815933C0.622325 41.6128 0.436645 41.5359 0.299744 41.399C0.162842 41.2621 0.0859375 41.0765 0.0859375 40.8828C0.0859375 40.6892 0.162842 40.5035 0.299744 40.3666C0.436645 40.2297 0.622325 40.1528 0.815933 40.1528H36.9259C37.1195 40.1528 37.3052 40.2297 37.4421 40.3666C37.579 40.5035 37.6559 40.6892 37.6559 40.8828C37.6559 41.0765 37.579 41.2621 37.4421 41.399C37.3052 41.5359 37.1195 41.6128 36.9259 41.6128Z"/>
<path d="M30.9256 14.673C28.5558 14.6293 26.2021 14.2729 23.9256 13.613C21.3705 12.947 18.937 11.8805 16.7156 10.453C14.0956 8.66299 13.8456 7.23299 14.0956 6.34299C14.3456 5.45299 15.3056 4.34297 18.4656 4.17297C21.1022 4.08986 23.7352 4.42742 26.2656 5.17297C28.823 5.84128 31.2595 6.90764 33.4856 8.33298C36.0956 10.113 36.3456 11.553 36.0956 12.443C35.6956 14.033 33.6256 14.673 30.9256 14.673ZM19.3656 5.60298H18.5656C16.5156 5.72298 15.6456 6.27298 15.5656 6.71298C15.4856 7.15298 15.8956 8.07299 17.5656 9.23299C19.6548 10.5815 21.9426 11.5938 24.3456 12.233C30.2056 13.863 34.4056 13.233 34.7256 12.103C34.8456 11.663 34.3856 10.743 32.7256 9.58298C30.6374 8.23275 28.3493 7.22031 25.9456 6.58298C23.8084 5.96795 21.5992 5.63843 19.3756 5.60298H19.3656Z"/>
<path d="M35.4258 13.0132H35.2258C35.0404 12.9597 34.8838 12.835 34.7901 12.6663C34.6964 12.4977 34.6733 12.2988 34.7258 12.1132C34.8458 11.6732 34.3858 10.7532 32.7258 9.59317C30.6375 8.24295 28.3494 7.23051 25.9458 6.59318C23.5688 5.88301 21.0961 5.54567 18.6158 5.59318C16.5658 5.71318 15.6958 6.26318 15.6158 6.70318C15.5623 6.88853 15.4376 7.04516 15.2689 7.13884C15.1003 7.23253 14.9014 7.25567 14.7158 7.20318C14.6235 7.17886 14.5369 7.13642 14.4612 7.07834C14.3854 7.02027 14.322 6.94772 14.2745 6.8649C14.227 6.78209 14.1965 6.69066 14.1847 6.59594C14.1729 6.50122 14.1801 6.40511 14.2058 6.31318L15.3558 2.20318C16.1258 -0.556824 22.0558 -0.466823 27.5258 1.06318C32.9958 2.59318 38.1258 5.57317 37.3558 8.34317L36.2058 12.4432C36.1695 12.618 36.0697 12.7731 35.9255 12.8784C35.7814 12.9837 35.6033 13.0318 35.4258 13.0132ZM19.3658 4.14316C21.7125 4.18827 24.0428 4.54473 26.2958 5.20318C28.8532 5.87148 31.2896 6.93783 33.5158 8.36316C34.1829 8.80414 34.7912 9.32836 35.3258 9.92316L35.8658 7.92316C36.1858 6.78316 32.8658 4.08317 27.0558 2.44317C21.2458 0.803166 16.9958 1.44317 16.6758 2.57317L16.1358 4.57317C16.9008 4.33406 17.6947 4.1995 18.4958 4.17316C18.7824 4.15316 19.0724 4.14316 19.3658 4.14316Z"/>
<path d="M34.9259 20.1331C34.8297 20.1344 34.7342 20.1165 34.645 20.0802C34.5558 20.044 34.4748 19.9903 34.4067 19.9223C34.3387 19.8542 34.285 19.7732 34.2487 19.684C34.2125 19.5948 34.1946 19.4993 34.1959 19.4031V13.0331C34.1839 12.9307 34.1936 12.827 34.2246 12.7287C34.2555 12.6303 34.3069 12.5397 34.3754 12.4627C34.4439 12.3857 34.5279 12.324 34.6219 12.2818C34.716 12.2396 34.8179 12.2178 34.9209 12.2178C35.024 12.2178 35.1259 12.2396 35.2199 12.2818C35.3139 12.324 35.3979 12.3857 35.4664 12.4627C35.5349 12.5397 35.5863 12.6303 35.6173 12.7287C35.6482 12.827 35.658 12.9307 35.6459 13.0331V19.4031C35.6472 19.4985 35.6296 19.5932 35.594 19.6817C35.5584 19.7702 35.5056 19.8507 35.4386 19.9187C35.3716 19.9866 35.2918 20.0405 35.2038 20.0773C35.1158 20.1141 35.0213 20.1331 34.9259 20.1331Z"/>
</svg>
