<svg viewBox="0 0 60 60" xmlns="http://www.w3.org/2000/svg" version="1.1">
<path style="clip-path: inset(0px 0px 0px round 12px);" d="M56.1767 0H3.83177C1.71477 0 0 1.71477 0 3.82754V56.1725C0 58.2852 1.71477 60 3.83177 60H56.1725C58.2852 60 60 58.2852 60 56.1725V3.82754C60.0042 1.71054 58.2895 0 56.1767 0ZM49.7707 36.5606C50.8673 37.6784 53.2468 39.554 52.8149 41.4636C52.4169 43.2164 49.8003 42.5771 47.2599 42.6787C44.3596 42.8015 42.6406 42.865 40.8962 41.4636C40.0748 40.7988 39.5921 40.0113 38.8046 39.1306C38.0891 38.3346 37.1872 36.9078 35.9594 36.9628C33.7534 37.0729 34.4436 40.1468 33.6603 42.2426C21.3986 44.1733 16.4745 36.5987 12.1304 29.2485C10.0261 25.6877 6.9861 18.0411 6.9861 18.0411L15.6573 18.0114C15.6573 18.0114 18.4391 23.0711 19.1758 24.3751C19.8024 25.4844 20.4926 26.3651 21.2039 27.3559C21.8009 28.1773 22.745 29.7862 23.7781 29.6549C25.459 29.439 25.7639 22.9186 24.7223 20.7339C24.3074 19.849 23.3124 19.5399 22.2835 19.2393C22.6307 17.0461 32.009 16.5888 33.5248 18.2909C35.7265 20.7635 32.0006 27.648 35.0152 29.6549C39.2492 27.4363 42.865 18.1469 42.865 18.1469L53.0181 18.2104C53.0181 18.2104 51.4304 23.232 49.7664 25.459C48.7968 26.7631 45.579 29.6676 45.706 31.8227C45.8076 33.529 48.4243 35.1888 49.7707 36.5606Z" fill="white"/>
</svg>
