<svg width="879" height="490" viewBox="0 0 879 490" fill="none" xmlns="http://www.w3.org/2000/svg">
<path d="M460.047 206.633C362.138 303.396 312.88 187.013 -5.70589 248.044C-326.016 309.406 -674.557 443.473 -824.353 529.331C-844.881 541.096 -872.108 531.354 -878.768 508.65L-960.294 230.742C-965.655 212.469 -955.187 193.311 -936.915 187.951L553.985 -249.415C572.095 -254.728 590.814 -244.435 594.144 -225.858C607.892 -149.17 622.356 46.223 460.047 206.633Z" fill="#EBE7F4" fill-opacity="0.06"/>
<path d="M297.335 85.5238C199.425 182.287 93.1754 177.846 -225.411 238.877C-538.479 298.851 -561.285 439.287 -642.332 527.841C-658.306 545.295 -685.233 536.292 -691.894 513.588L-773.42 235.68C-778.78 217.407 -768.313 198.249 -750.041 192.889L406.411 -146.365C446.728 -158.192 484.97 -73.7865 451.672 -48.1622C399.673 -8.14624 346.722 36.715 297.335 85.5238Z" fill="white" fill-opacity="0.12"/>
</svg>
