<svg width="904" height="490" viewBox="0 0 904 490" fill="none" xmlns="http://www.w3.org/2000/svg">
<path d="M406.933 391.023C496.586 287.497 554.417 399.136 865.707 314.037C1178.68 228.477 1514.05 68.6257 1656.01 -28.0832C1675.46 -41.3359 1703.22 -33.7719 1711.58 -11.7664L1813.87 257.597C1820.59 275.307 1811.69 295.116 1793.98 301.842L348.922 850.606C331.369 857.272 312.009 848.506 307.273 830.337C287.724 755.332 258.312 562.643 406.933 391.023Z" fill="#EBE7F4" fill-opacity="0.06"/>
<path d="M577.661 498.601C667.313 395.076 773.042 391.289 1084.33 306.19C1390.23 222.564 1402.02 81.5123 1475.58 -12.5714C1490.08 -31.1151 1517.48 -24.261 1525.84 -2.25546L1628.13 267.107C1634.86 284.818 1625.95 304.627 1608.24 311.353L487.35 737.015C448.273 751.854 403.835 671.084 434.886 643.101C483.376 599.401 532.439 550.821 577.661 498.601Z" fill="white" fill-opacity="0.12"/>
</svg>
