<svg width="60" height="60" viewBox="0 0 60 60" fill="none" xmlns="http://www.w3.org/2000/svg">
<path d="M35.3052 26.1459C34.1157 24.4806 32.1649 23.3862 29.9761 23.3862C27.7874 23.3862 25.8366 24.4806 24.647 26.1459C23.8857 27.2403 23.4099 28.5726 23.4099 30C23.4099 33.6162 26.36 36.5662 29.9761 36.5662C33.5923 36.5662 36.5424 33.6162 36.5424 30C36.5424 28.5726 36.0665 27.2403 35.3052 26.1459Z" fill="white"/>
<path d="M39.4449 26.1934C39.9207 27.145 40.2062 28.6676 40.2062 29.9999C40.2062 35.6145 35.6384 40.2299 29.9763 40.2299C24.3141 40.2299 19.7463 35.662 19.7463 29.9999C19.7463 28.62 20.0318 27.145 20.5076 26.1934H14.7502V41.467C14.7502 43.4654 16.5108 45.2259 18.5092 45.2259H41.4433C43.4418 45.2259 45.2023 43.4654 45.2023 41.467V26.1934H39.4449Z" fill="white"/>
<path d="M43.4894 15.6306H37.97V21.9589H44.2507V16.4395V15.583L43.4894 15.6306Z" fill="white"/>
<path d="M44.9167 0.0234375H15.0357C6.75654 0.0234375 0 6.77998 0 15.0591V44.9878C0 53.2193 6.75654 59.9759 15.0357 59.9759H44.9643C53.2435 59.9759 60 53.2193 60 44.9402V15.0591C59.9524 6.77998 53.1959 0.0234375 44.9167 0.0234375ZM48.5329 26.1456V41.4667C48.5329 45.4636 45.4401 48.5563 41.4433 48.5563H18.5091C14.5123 48.5563 11.4195 45.4636 11.4195 41.4667V26.1456V18.5326C11.4195 14.5357 14.5123 11.4429 18.5091 11.4429H41.4433C45.4401 11.4429 48.5329 14.5357 48.5329 18.5326V26.1456Z" fill="white"/>
</svg>
