<svg width="88" height="88" viewBox="0 0 88 88" fill="none" xmlns="http://www.w3.org/2000/svg">
<path d="M81.7513 21.3123H61.1875V16.1443C61.1875 11.4049 57.2387 7.5625 52.4973 7.5625H34.6664C29.927 7.5625 26.1254 11.4049 26.1254 16.1443V21.3123H6.09453C2.68294 21.3123 0 24.0875 0 27.4998V74.2391C0 77.6506 2.68294 80.4371 6.09453 80.4371H81.7513C85.1629 80.4371 88 77.6506 88 74.2391V27.4998C88 24.0882 85.1629 21.3123 81.7513 21.3123ZM31.6244 16.1443C31.6251 14.4371 32.9592 13.0629 34.6664 13.0629H52.4973C54.2052 13.0629 55.6871 14.4378 55.6871 16.1443V21.3123H31.6244V16.1443ZM59.8125 54.1131C59.8125 54.6263 59.3563 55.0001 58.8431 55.0001H48.7119C48.3317 55.0001 48.1247 55.3514 48.1247 55.7309V65.7488C48.1247 66.262 47.6066 66.6872 47.0934 66.6872H40.7419C40.2287 66.6872 39.8746 66.262 39.8746 65.7488V55.7309C39.8753 55.3514 39.5043 55.0001 39.1248 55.0001H29.0294C28.5169 55.0001 28.1875 54.6263 28.1875 54.1131V47.6912C28.1875 47.178 28.5169 46.75 29.0294 46.75H39.1241C39.5043 46.75 39.8746 46.4536 39.8746 46.0741V36.0097C39.8746 35.4965 40.2287 35.0622 40.7419 35.0622H47.0934C47.6066 35.0622 48.1247 35.4958 48.1247 36.0097V46.0741C48.1247 46.4536 48.3317 46.75 48.7119 46.75H58.8431C59.3563 46.75 59.8125 47.1787 59.8125 47.6912V54.1131Z" fill="#462899" fill-opacity="0.12"/>
</svg>
