<svg width="97" height="97" viewBox="0 0 97 97" fill="none" xmlns="http://www.w3.org/2000/svg">
<g clip-path="url(#clip0)">
<path d="M48.4996 0C38.0478 0 29.5468 8.50334 29.5468 18.9552V28.7754C29.5468 39.228 38.0478 47.7314 48.4996 47.7314C58.9523 47.7314 67.4525 39.228 67.4525 28.7754V18.9552C67.4527 8.50334 58.9523 0 48.4996 0Z" fill="white" fill-opacity="0.12"/>
<path d="M90.2977 72.4323C84.2287 62.0899 74.528 54.4223 62.9827 50.8418C62.715 50.7588 62.4256 50.8294 62.2262 51.0265C56.8555 56.3219 50.1819 60.4533 48.5136 61.4512C46.7327 60.3128 39.2311 55.4233 34.7715 51.0265C34.5728 50.8294 34.2811 50.7588 34.0149 50.8418C22.4681 54.423 12.7682 62.0906 6.70147 72.4331C6.56256 72.6698 6.56256 72.9639 6.70147 73.2005C15.3166 87.8808 31.3323 97.0003 48.4988 97.0003C65.6661 97.0003 81.6826 87.8808 90.2977 73.2005C90.4374 72.9631 90.4374 72.669 90.2977 72.4323ZM74.2766 78.0862C74.2766 78.5044 73.8785 78.8242 73.461 78.8242H68.3278C67.9095 78.8242 67.4532 79.1834 67.4532 79.6025V84.9111C67.4532 85.3285 67.2298 85.6475 66.8115 85.6475H62.2013C61.7831 85.6475 61.3889 85.3285 61.3889 84.9111V79.6025C61.3873 79.1842 61.1017 78.8242 60.6835 78.8242H55.3291C54.9109 78.8242 54.5648 78.5037 54.5648 78.0862V73.5156C54.5648 73.0973 54.9109 72.7598 55.3291 72.7598H60.6835C61.1017 72.7598 61.3873 72.4183 61.3873 71.9993V66.6845C61.3873 66.2663 61.7815 65.9365 62.1998 65.9365H66.7603C67.1778 65.9365 67.4525 66.2663 67.4525 66.6845V72.0148C67.4525 72.4339 67.8575 72.759 68.2766 72.759H73.461C73.8785 72.759 74.2766 73.1129 74.2766 73.5311V78.0862Z" fill="white" fill-opacity="0.12"/>
</g>
<defs>
<clipPath id="clip0">
<rect width="97" height="97" fill="white"/>
</clipPath>
</defs>
</svg>
