<svg width="1266" height="308" viewBox="0 0 1266 308" fill="none" xmlns="http://www.w3.org/2000/svg">
<path d="M411.314 17.7302C527.105 -44.6513 540.963 75.2994 849.464 105.03C1159.63 134.922 1515.24 105.748 1675.67 67.3209C1697.66 62.055 1720 78.31 1720 100.916V377.636C1720 395.83 1705.25 410.58 1687.05 410.58H202.533C184.501 410.58 170.107 396.108 172.05 378.181C180.071 304.174 219.362 121.143 411.314 17.7302Z" fill="#EBE7F4" fill-opacity="0.06"/>
<path d="M527.919 172.528C643.71 110.146 739.927 142.795 1048.43 172.526C1351.59 201.742 1410.27 79.1214 1508.39 19.7307C1527.73 8.02487 1550 23.5217 1550 46.1282V322.848C1550 341.042 1535.25 355.791 1517.05 355.791H365.547C325.403 355.791 313.044 268.121 350.464 253.584C408.9 230.882 469.513 203.994 527.919 172.528Z" fill="white" fill-opacity="0.12"/>
</svg>
