<svg width="15" height="15" viewBox="0 0 15 15" fill="none" xmlns="http://www.w3.org/2000/svg">
<g clip-path="url(#clip0_1085:637)">
<path d="M14.0716 7.03581C14.0716 8.90182 13.3303 10.6914 12.0109 12.0109C10.6914 13.3303 8.90182 14.0716 7.03581 14.0716C5.16979 14.0716 3.38021 13.3303 2.06074 12.0109C0.74127 10.6914 0 8.90182 0 7.03581C0 5.16979 0.74127 3.38021 2.06074 2.06074C3.38021 0.74127 5.16979 0 7.03581 0C8.90182 0 10.6914 0.74127 12.0109 2.06074C13.3303 3.38021 14.0716 5.16979 14.0716 7.03581ZM10.5801 4.37099C10.5173 4.30839 10.4425 4.2591 10.3602 4.22607C10.2779 4.19304 10.1897 4.17695 10.1011 4.17875C10.0124 4.18056 9.925 4.20023 9.8441 4.23658C9.76321 4.27294 9.69048 4.32523 9.63026 4.39034L6.57584 8.28202L4.7351 6.4404C4.61006 6.32389 4.44468 6.26046 4.27379 6.26347C4.10291 6.26649 3.93987 6.33571 3.81902 6.45656C3.69816 6.57742 3.62894 6.74046 3.62592 6.91134C3.62291 7.08222 3.68634 7.24761 3.80285 7.37265L6.12995 9.70062C6.19264 9.76319 6.26729 9.8125 6.34945 9.8456C6.43161 9.8787 6.51959 9.89491 6.60816 9.89327C6.69672 9.89163 6.78404 9.87217 6.86492 9.83605C6.9458 9.79993 7.01857 9.74788 7.0789 9.68303L10.5898 5.29444C10.7095 5.17 10.7756 5.00358 10.7739 4.83092C10.7723 4.65827 10.703 4.49314 10.581 4.37099H10.5801Z" fill="white"/>
</g>
<defs>
<clipPath id="clip0_1085:637">
<rect width="14.0716" height="14.0716" fill="white"/>
</clipPath>
</defs>
</svg>
