<svg width="942" height="217" viewBox="0 0 942 217" fill="none" xmlns="http://www.w3.org/2000/svg">
<path opacity="0.1" d="M148.5 101.5C218.796 63.6283 398.21 -9.04955 585.5 9C769.917 26.7726 845.267 27.7777 914.236 9.22083C927.489 5.65496 941 15.278 941 29.0024V196.998C941 208.044 932.046 216.998 921 216.998H20.0007C8.9553 216.998 2.48169 208.253 9.33841 199.594C23.4821 181.731 59.051 149.69 148.5 101.5Z" fill="#462899"/>
<path opacity="0.1" d="M190.5 120C260.796 82.1284 561.21 166.45 748.5 184.5C930.808 202.069 882.505 68.8954 919.83 17.3958C927.884 6.28312 941.999 15.28 941.999 29.0043V197C941.999 208.046 933.044 217 921.999 217H101.471C79.5899 217 71.6345 182.679 91.07 172.626C117.019 159.203 149.703 141.979 190.5 120Z" fill="#462899"/>
</svg>
