<svg width="942" height="251" viewBox="0 0 942 251" fill="none" xmlns="http://www.w3.org/2000/svg">
<path d="M147.5 11.5003C217.796 -26.3714 226.21 46.4504 413.5 64.5C601.804 82.6472 817.693 64.9357 915.088 41.6067C928.435 38.4098 941.999 48.2781 941.999 62.0025V229.998C941.999 241.044 933.045 249.998 921.999 249.998H20.7494C9.80211 249.998 1.06368 241.213 2.24328 230.329C7.11293 185.399 30.9665 74.282 147.5 11.5003Z" fill="#EBE7F4" fill-opacity="0.06"/>
<path d="M321.5 138.999C391.796 101.127 450.21 120.948 637.5 138.998C821.547 156.735 857.171 82.2922 916.741 46.2363C928.483 39.1297 942 48.5378 942 62.2622V230.258C942 241.304 933.046 250.258 922 250.258H222.925C198.553 250.258 191.05 197.034 213.767 188.208C249.244 174.426 286.042 158.102 321.5 138.999Z" fill="white" fill-opacity="0.12"/>
</svg>
