<svg width="60" height="60" viewBox="0 0 60 60" fill="none" xmlns="http://www.w3.org/2000/svg">
<path d="M26.1429 24.0952V35.0476L36.2382 29.619L26.1429 24.0952Z" fill="white"/>
<path d="M44.9524 0H15C6.76191 0 0 6.76191 0 15.0476V45C0 53.2381 6.76191 60 15 60H44.9524C53.2381 60 60 53.2381 60 44.9524V15.0476C60 6.76191 53.2381 0 44.9524 0ZM48.5714 31.4762C48.5714 34.619 48.2857 37.8095 48.2857 37.8095C48.2857 37.8095 47.9524 40.4762 46.8571 41.6667C45.4286 43.2381 43.8571 43.2381 43.1429 43.3333C37.9048 43.7143 30.0476 43.7619 30.0476 43.7619C30.0476 43.7619 20.2857 43.619 17.2857 43.3333C16.4762 43.1905 14.5714 43.2381 13.1429 41.6667C12 40.4762 11.7143 37.8095 11.7143 37.8095C11.7143 37.8095 11.4286 34.619 11.4286 31.4762V28.5238C11.4286 25.381 11.7143 22.1905 11.7143 22.1905C11.7143 22.1905 12.0476 19.5238 13.1429 18.3333C14.5714 16.7619 16.1429 16.7143 16.8571 16.619C22.1429 16.2381 30 16.1905 30 16.1905C30 16.1905 37.8571 16.2381 43.0952 16.619C43.8095 16.7143 45.4286 16.7619 46.8571 18.2857C48 19.4762 48.2857 22.1905 48.2857 22.1905C48.2857 22.1905 48.5714 25.381 48.5714 28.5238V31.4762Z" fill="white"/>
</svg>
